<svg id="Layer_1" data-name="Layer 1" xmlns="http://www.w3.org/2000/svg" viewBox="0 0 406 217"><defs><style>.cls-1,.cls-2,.cls-5{fill:none;stroke-miterlimit:10;}.cls-1,.cls-2{stroke:#231f20;}.cls-2{stroke-width:0.25px;opacity:0.5;}.cls-3{font-size:33.46px;fill:#231f20;}.cls-3,.cls-4{font-family:DIN Alternate;font-weight:700;}.cls-4{font-size:12px;fill:#58595b;}.cls-5{stroke:#58595b;}.cls-6{letter-spacing:-1px;}</style></defs><title>layout</title><rect class="cls-1" x="54.5" y="0.5" width="54" height="54"/><rect class="cls-2" x="61.66" y="7.66" width="39.69" height="39.69"/><text class="cls-3" transform="translate(71.3 38.77)">Q</text><rect class="cls-1" x="108.5" y="0.5" width="54" height="54"/><rect class="cls-2" x="115.66" y="7.66" width="39.69" height="39.69"/><text class="cls-3" transform="translate(121.58 38.77)">W</text><rect class="cls-1" x="162.5" y="0.5" width="54" height="54"/><rect class="cls-2" x="169.66" y="7.66" width="39.69" height="39.69"/><text class="cls-3" transform="translate(180.19 38.77)">E</text><rect class="cls-1" x="216.5" y="0.5" width="54" height="54"/><rect class="cls-2" x="223.66" y="7.66" width="39.69" height="39.69"/><text class="cls-3" transform="translate(233.3 38.77)">R</text><rect class="cls-1" x="270.5" y="0.5" width="54" height="54"/><rect class="cls-2" x="277.66" y="7.66" width="39.69" height="39.69"/><text class="cls-3" transform="translate(289.13 38.77)">T</text><rect class="cls-1" x="0.5" y="0.5" width="54" height="54"/><rect class="cls-2" x="7.66" y="7.66" width="39.69" height="39.69"/><text class="cls-4" transform="translate(17.63 20.34)">T<tspan x="5.11" y="0">AB</tspan></text><rect class="cls-1" x="54.5" y="54.5" width="54" height="54"/><rect class="cls-2" x="61.66" y="61.66" width="39.69" height="39.69"/><text class="cls-3" transform="translate(71.3 92.77)">A</text><rect class="cls-1" x="108.5" y="54.5" width="54" height="54"/><rect class="cls-2" x="115.66" y="61.66" width="39.69" height="39.69"/><text class="cls-3" transform="translate(125.9 92.77)">S</text><rect class="cls-1" x="162.5" y="54.5" width="54" height="54"/><rect class="cls-2" x="169.66" y="61.66" width="39.69" height="39.69"/><text class="cls-3" transform="translate(178.96 92.77)">D</text><rect class="cls-1" x="216.5" y="54.5" width="54" height="54"/><rect class="cls-2" x="223.66" y="61.66" width="39.69" height="39.69"/><text class="cls-3" transform="translate(234.51 92.77)">F</text><rect class="cls-1" x="270.5" y="54.5" width="54" height="54"/><rect class="cls-2" x="277.66" y="61.66" width="39.69" height="39.69"/><text class="cls-3" transform="translate(287.3 92.77)">G</text><rect class="cls-1" x="0.5" y="54.5" width="54" height="54"/><rect class="cls-2" x="7.66" y="61.66" width="39.69" height="39.69"/><text class="cls-4" transform="translate(18.8 74.34)">k<tspan x="6.08" y="0">ey</tspan></text><rect class="cls-1" x="54.5" y="108.5" width="54" height="54"/><rect class="cls-2" x="61.66" y="115.66" width="39.69" height="39.69"/><text class="cls-3" transform="translate(72.82 146.77)">Z</text><rect class="cls-1" x="108.5" y="108.5" width="54" height="54"/><rect class="cls-2" x="115.66" y="115.66" width="39.69" height="39.69"/><text class="cls-3" transform="translate(126.53 146.77)">X</text><rect class="cls-1" x="162.5" y="108.5" width="54" height="54"/><rect class="cls-2" x="169.66" y="115.66" width="39.69" height="39.69"/><text class="cls-3" transform="translate(180.19 146.77)">C</text><rect class="cls-1" x="216.5" y="108.5" width="54" height="54"/><rect class="cls-2" x="223.66" y="115.66" width="39.69" height="39.69"/><text class="cls-3" transform="translate(234.19 146.77)">V</text><rect class="cls-1" x="270.5" y="108.5" width="54" height="54"/><rect class="cls-2" x="277.66" y="115.66" width="39.69" height="39.69"/><text class="cls-3" transform="translate(287.3 146.77)">B</text><rect class="cls-1" x="0.5" y="108.5" width="54" height="54"/><rect class="cls-2" x="7.66" y="115.66" width="39.69" height="39.69"/><text class="cls-4" transform="translate(12.4 128.34)">SHIFT</text><rect class="cls-1" x="297.5" y="162.5" width="54" height="54"/><rect class="cls-2" x="304.66" y="169.66" width="39.69" height="39.69"/><text class="cls-4" transform="translate(307.72 182.34)">S<tspan x="6.88" y="0">P</tspan><tspan x="13.11" y="0">A</tspan><tspan x="20.21" y="0">CE</tspan></text><rect class="cls-1" x="351.5" y="54.5" width="54" height="54"/><rect class="cls-2" x="358.66" y="61.66" width="39.69" height="39.69"/><text class="cls-4" transform="translate(369.8 74.34)">k<tspan x="6.08" y="0">ey</tspan></text><rect class="cls-1" x="351.5" y="0.5" width="54" height="54"/><rect class="cls-2" x="358.66" y="7.66" width="39.69" height="39.69"/><text class="cls-4" transform="translate(369.8 20.34)">k<tspan x="6.08" y="0">ey</tspan></text><rect class="cls-1" x="324.5" y="108.5" width="54" height="54"/><text x="-218.5" y="-189.09"/><circle class="cls-5" cx="351.5" cy="135.5" r="19.84"/><rect class="cls-1" x="216.5" y="162.5" width="54" height="54"/><rect class="cls-2" x="223.66" y="169.66" width="39.69" height="39.69"/><text class="cls-4" transform="translate(230.96 182.34)">r<tspan x="4.45" y="0">aise</tspan></text><rect class="cls-1" x="162.5" y="162.5" width="54" height="54"/><rect class="cls-2" x="169.66" y="169.66" width="39.69" height="39.69"/><text class="cls-4" transform="translate(180.51 182.34)">GUI</text><rect class="cls-1" x="108.5" y="162.5" width="54" height="54"/><rect class="cls-2" x="115.66" y="169.66" width="39.69" height="39.69"/><text class="cls-4" transform="translate(126.17 182.34)">A<tspan class="cls-6" x="7.32" y="0">L</tspan><tspan x="12.66" y="0">T</tspan></text><rect class="cls-1" x="54.5" y="162.5" width="54" height="54"/><rect class="cls-2" x="61.66" y="169.66" width="39.69" height="39.69"/><text class="cls-4" transform="translate(68.17 182.34)">CTRL</text><rect class="cls-1" x="0.5" y="162.5" width="54" height="54"/><rect class="cls-2" x="7.66" y="169.66" width="39.69" height="39.69"/><text class="cls-4" transform="translate(17.38 182.34)">ESC</text></svg>