0
SECTION
2
HEADER
9
$INSUNITS
70
4
9
$ACADVER
1
AC1014
9
$HANDSEED
5
FFFF
0
ENDSEC
0
SECTION
2
TABLES
0
TABLE
2
VPORT
5
8
100
AcDbSymbolTable
0
ENDTAB
0
TABLE
2
LTYPE
5
5
100
AcDbSymbolTable
0
LTYPE
5
14
100
AcDbSymbolTableRecord
100
AcDbLinetypeTableRecord
2
BYBLOCK
70
0
0
LTYPE
5
15
100
AcDbSymbolTableRecord
100
AcDbLinetypeTableRecord
2
BYLAYER
70
0
0
ENDTAB
0
TABLE
2
LAYER
5
2
100
AcDbSymbolTable
70
2
0
LAYER
5
50
100
AcDbSymbolTableRecord
100
AcDbLayerTableRecord
2
0
70
0
6
CONTINUOUS
0
ENDTAB
0
TABLE
2
STYLE
5
3
100
AcDbSymbolTable
70
1
0
STYLE
5
11
100
AcDbSymbolTableRecord
100
AcDbTextStyleTableRecord
2
STANDARD
70
0
0
ENDTAB
0
TABLE
2
VIEW
5
6
100
AcDbSymbolTable
70
0
0
ENDTAB
0
TABLE
2
UCS
5
7
100
AcDbSymbolTable
70
0
0
ENDTAB
0
TABLE
2
APPID
5
9
100
AcDbSymbolTable
70
2
0
APPID
5
12
100
AcDbSymbolTableRecord
100
AcDbRegAppTableRecord
2
ACAD
70
0
0
ENDTAB
0
TABLE
2
DIMSTYLE
5
A
100
AcDbSymbolTable
70
1
0
ENDTAB
0
TABLE
2
BLOCK_RECORD
5
1
100
AcDbSymbolTable
70
1
0
BLOCK_RECORD
5
1F
100
AcDbSymbolTableRecord
100
AcDbBlockTableRecord
2
*MODEL_SPACE
0
BLOCK_RECORD
5
1B
100
AcDbSymbolTableRecord
100
AcDbBlockTableRecord
2
*PAPER_SPACE
0
ENDTAB
0
ENDSEC
0
SECTION
2
BLOCKS
0
BLOCK
5
20
100
AcDbEntity
100
AcDbBlockBegin
2
*MODEL_SPACE
0
ENDBLK
5
21
100
AcDbEntity
100
AcDbBlockEnd
0
BLOCK
5
1C
100
AcDbEntity
100
AcDbBlockBegin
2
*PAPER_SPACE
0
ENDBLK
5
1D
100
AcDbEntity
100
AcDbBlockEnd
0
ENDSEC
0
SECTION
2
ENTITIES
0
LINE
5
100
100
AcDbEntity
8
0
100
AcDbLine
10
172.50833329020628
20
-85.934615003682893
30
0
11
191.55833328544378
21
-85.934615003682893
31
0
0
LWPOLYLINE
5
101
100
AcDbEntity
8
0
100
AcDbPolyline
90
4
70
1
43
0.0
10
169.98333329083783
20
-126.55961499352762
10
155.9833332943372
20
-126.55961499352762
10
155.9833332943372
20
-140.559614990027
10
169.98333329083781
20
-140.559614990027
0
LINE
5
102
100
AcDbEntity
8
0
100
AcDbLine
10
77.25833331401877
20
-66.884615008445408
30
0
11
96.30833330925627
21
-66.884615008445408
31
0
0
LWPOLYLINE
5
103
100
AcDbEntity
8
0
100
AcDbPolyline
90
4
70
1
43
0.0
10
117.8833333038625
20
-69.409615007814153
10
117.8833333038625
20
-83.409615004314176
10
131.88333330036249
20
-83.409615004314176
10
131.88333330036249
20
-69.409615007814139
0
LWPOLYLINE
5
104
100
AcDbEntity
8
0
100
AcDbPolyline
90
4
70
1
43
0.0
10
169.98333329083783
20
-107.50961499828949
10
155.9833332943372
20
-107.50961499828949
10
155.98333329433717
20
-121.50961499478881
10
169.98333329083781
20
-121.50961499478881
0
LINE
5
105
100
AcDbEntity
8
0
100
AcDbLine
10
96.30833330925627
20
-66.884615008445408
30
0
11
115.35833330449378
21
-66.884615008445408
31
0
0
LINE
5
106
100
AcDbEntity
8
0
100
AcDbLine
10
115.35833330449378
20
-85.934615003682893
30
0
11
134.40833329973128
21
-85.934615003682893
31
0
0
LINE
5
107
100
AcDbEntity
8
0
100
AcDbLine
10
153.45833329496881
20
-85.934615003682893
30
0
11
134.40833329973128
21
-85.934615003682893
31
0
0
LWPOLYLINE
5
108
100
AcDbEntity
8
0
100
AcDbPolyline
90
4
70
1
43
0.0
10
112.83333330512502
20
-121.50961499478881
10
112.83333330512502
20
-107.50961499828949
10
98.833333308624987
20
-107.50961499828949
10
98.833333308624987
20
-121.50961499478881
0
LINE
5
109
100
AcDbEntity
8
0
100
AcDbLine
10
115.35833330449378
20
-124.03461499415791
30
0
11
115.35833330449378
21
-104.98461499892039
31
0
0
LINE
5
110
100
AcDbEntity
8
0
100
AcDbLine
10
134.40833329973128
20
-104.98461499892039
30
0
11
134.40833329973128
21
-124.03461499415791
31
0
0
LINE
5
111
100
AcDbEntity
8
0
100
AcDbLine
10
96.30833330925627
20
-104.98461499892039
30
0
11
115.35833330449378
21
-104.98461499892039
31
0
0
LINE
5
112
100
AcDbEntity
8
0
100
AcDbLine
10
134.40833329973128
20
-124.03461499415791
30
0
11
115.35833330449378
21
-124.03461499415791
31
0
0
LINE
5
113
100
AcDbEntity
8
0
100
AcDbLine
10
191.55833328544384
20
-124.03461499415791
30
0
11
172.50833329020634
21
-124.03461499415791
31
0
0
LINE
5
114
100
AcDbEntity
8
0
100
AcDbLine
10
96.30833330925627
20
-66.884615008445408
30
0
11
96.30833330925627
21
-85.934615003682893
31
0
0
LINE
5
115
100
AcDbEntity
8
0
100
AcDbLine
10
115.35833330449378
20
-104.98461499892039
30
0
11
115.35833330449378
21
-85.934615003682893
31
0
0
LWPOLYLINE
5
116
100
AcDbEntity
8
0
100
AcDbPolyline
90
4
70
1
43
0.0
10
169.98333329083781
20
-83.409615004314176
10
169.98333329083781
20
-69.409615007814139
10
155.9833332943372
20
-69.409615007814139
10
155.98333329433717
20
-83.409615004314176
0
LINE
5
117
100
AcDbEntity
8
0
100
AcDbLine
10
96.30833330925627
20
-124.03461499415852
30
0
11
115.35833330449378
21
-124.03461499415791
31
0
0
LWPOLYLINE
5
118
100
AcDbEntity
8
0
100
AcDbPolyline
90
4
70
1
43
0.0
10
93.783333309887837
20
-88.459615003051638
10
79.783333313387473
20
-88.459615003051638
10
79.783333313387473
20
-102.4596149995517
10
93.783333309887837
20
-102.45961499955169
0
LINE
5
119
100
AcDbEntity
8
0
100
AcDbLine
10
220.1333332783
20
-85.934615003682893
30
0
11
201.08333328306253
21
-85.934615003682893
31
0
0
LWPOLYLINE
5
120
100
AcDbEntity
8
0
100
AcDbPolyline
90
4
70
1
43
0.0
10
117.8833333038625
20
-107.50961499828949
10
117.8833333038625
20
-121.50961499478881
10
131.88333330036249
20
-121.50961499478881
10
131.88333330036249
20
-107.50961499828949
0
LWPOLYLINE
5
121
100
AcDbEntity
8
0
100
AcDbPolyline
90
4
70
1
43
0.0
10
136.93333329909996
20
-126.55961499352762
10
136.93333329909996
20
-140.559614990027
10
150.93333329560031
20
-140.559614990027
10
150.93333329560031
20
-126.55961499352762
0
LWPOLYLINE
5
122
100
AcDbEntity
8
0
100
AcDbPolyline
90
4
70
1
43
0.0
10
136.93333329909996
20
-121.50961499478881
10
150.93333329560031
20
-121.50961499478881
10
150.93333329560031
20
-107.50961499828949
10
136.93333329909996
20
-107.50961499828949
0
LINE
5
123
100
AcDbEntity
8
0
100
AcDbLine
10
96.30833330925627
20
-143.08461498939599
30
0
11
77.258333314018785
21
-143.08461498939599
31
0
0
LINE
5
124
100
AcDbEntity
8
0
100
AcDbLine
10
134.40833329973128
20
-85.934615003682893
30
0
11
153.45833329496881
21
-85.934615003682893
31
0
0
LINE
5
125
100
AcDbEntity
8
0
100
AcDbLine
10
134.40833329973128
20
-124.03461499415791
30
0
11
134.40833329973128
21
-104.98461499892039
31
0
0
LINE
5
126
100
AcDbEntity
8
0
100
AcDbLine
10
153.45833329496881
20
-104.98461499892039
30
0
11
153.45833329496881
21
-124.03461499415791
31
0
0
LINE
5
127
100
AcDbEntity
8
0
100
AcDbLine
10
115.35833330449378
20
-66.884615008445408
30
0
11
134.40833329973128
21
-66.884615008445408
31
0
0
LINE
5
128
100
AcDbEntity
8
0
100
AcDbLine
10
96.30833330925627
20
-85.934615003682893
30
0
11
96.30833330925627
21
-104.98461499892039
31
0
0
LINE
5
129
100
AcDbEntity
8
0
100
AcDbLine
10
115.35833330449378
20
-104.98461499892039
30
0
11
96.30833330925627
21
-104.98461499892039
31
0
0
SPLINE
5
130
100
AcDbEntity
8
0
100
AcDbSpline
70
0
71
3
72
17
73
13
74
0
42
0.000000001
43
0.0000000001
44
0.0000000001
40
0
40
0
40
0
40
0
40
1
40
1
40
1
40
2
40
2
40
2
40
3
40
3
40
3
40
4
40
4
40
4
40
4
10
208.08333328131283
20
-114.50961499653921
30
0
10
208.08333328131283
20
-118.37560824417258
30
0
10
204.94932653069594
20
-121.5096149947895
30
0
10
201.08333328306253
20
-121.5096149947895
30
0
10
197.21734003542909
20
-121.5096149947895
30
0
10
194.0833332848122
20
-118.37560824417258
30
0
10
194.0833332848122
20
-114.50961499653921
30
0
10
194.0833332848122
20
-110.64362174890577
30
0
10
197.21734003542909
20
-107.50961499828881
30
0
10
201.08333328306253
20
-107.50961499828881
30
0
10
204.94932653069594
20
-107.50961499828881
30
0
10
208.08333328131283
20
-110.64362174890577
30
0
10
208.08333328131283
20
-114.50961499653921
30
0
0
LWPOLYLINE
5
131
100
AcDbEntity
8
0
100
AcDbPolyline
90
4
70
1
43
0.0
10
93.783333309887837
20
-83.409615004314176
10
93.783333309887837
20
-69.409615007814139
10
79.783333313387473
20
-69.409615007814153
10
79.783333313387473
20
-83.409615004314176
0
LINE
5
132
100
AcDbEntity
8
0
100
AcDbLine
10
201.08333328306253
20
-85.934615003682893
30
0
11
220.1333332783
21
-85.934615003682893
31
0
0
LINE
5
133
100
AcDbEntity
8
0
100
AcDbLine
10
134.40833329973128
20
-104.98461499892039
30
0
11
115.35833330449378
21
-104.98461499892039
31
0
0
LWPOLYLINE
5
134
100
AcDbEntity
8
0
100
AcDbPolyline
90
4
70
1
43
0.0
10
155.98333329433717
20
-102.4596149995517
10
169.98333329083781
20
-102.4596149995517
10
169.98333329083781
20
-88.459615003051638
10
155.9833332943372
20
-88.459615003051653
0
LWPOLYLINE
5
135
100
AcDbEntity
8
0
100
AcDbPolyline
90
4
70
1
43
0.0
10
189.03333328607533
20
-121.50961499478881
10
189.03333328607533
20
-107.50961499828949
10
175.0333332895747
20
-107.50961499828949
10
175.0333332895747
20
-121.50961499478881
0
LINE
5
136
100
AcDbEntity
8
0
100
AcDbLine
10
172.50833329020628
20
-66.884615008445408
30
0
11
191.55833328544378
21
-66.884615008445408
31
0
0
LINE
5
137
100
AcDbEntity
8
0
100
AcDbLine
10
172.50833329020628
20
-104.98461499892039
30
0
11
191.55833328544378
21
-104.98461499892039
31
0
0
LINE
5
138
100
AcDbEntity
8
0
100
AcDbLine
10
77.25833331401877
20
-85.934615003682893
30
0
11
96.30833330925627
21
-85.934615003682893
31
0
0
LINE
5
139
100
AcDbEntity
8
0
100
AcDbLine
10
153.45833329496881
20
-85.934615003682893
30
0
11
153.45833329496881
21
-66.884615008445408
31
0
0
LINE
5
140
100
AcDbEntity
8
0
100
AcDbLine
10
115.35833330449378
20
-143.08461498939599
30
0
11
96.30833330925627
21
-143.08461498939599
31
0
0
LINE
5
141
100
AcDbEntity
8
0
100
AcDbLine
10
153.45833329496881
20
-104.98461499892039
30
0
11
134.40833329973128
21
-104.98461499892039
31
0
0
LWPOLYLINE
5
142
100
AcDbEntity
8
0
100
AcDbPolyline
90
4
70
1
43
0.0
10
98.833333308624987
20
-69.409615007814153
10
98.833333308624987
20
-83.409615004314176
10
112.83333330512502
20
-83.409615004314176
10
112.83333330512502
20
-69.409615007814139
0
LWPOLYLINE
5
143
100
AcDbEntity
8
0
100
AcDbPolyline
90
4
70
1
43
0.0
10
93.783333309887837
20
-126.55961499352762
10
79.783333313387473
20
-126.55961499352762
10
79.783333313387473
20
-140.559614990027
10
93.783333309887837
20
-140.559614990027
0
LWPOLYLINE
5
144
100
AcDbEntity
8
0
100
AcDbPolyline
90
4
70
1
43
0.0
10
93.783333309887837
20
-107.50961499828949
10
79.783333313387473
20
-107.50961499828949
10
79.783333313387473
20
-121.50961499478881
10
93.783333309887837
20
-121.50961499478881
0
LWPOLYLINE
5
145
100
AcDbEntity
8
0
100
AcDbPolyline
90
4
70
1
43
0.0
10
189.03333328607533
20
-102.45961499955169
10
189.03333328607533
20
-88.459615003051638
10
175.0333332895747
20
-88.459615003051638
10
175.0333332895747
20
-102.4596149995517
0
LINE
5
146
100
AcDbEntity
8
0
100
AcDbLine
10
77.258333314018785
20
-143.08461498939599
30
0
11
77.25833331401877
21
-124.03461499415852
31
0
0
LWPOLYLINE
5
147
100
AcDbEntity
8
0
100
AcDbPolyline
90
4
70
1
43
0.0
10
217.60833327893155
20
-69.409615007814466
10
203.60833328243089
20
-69.409615007814466
10
203.60833328243089
20
-83.409615004313835
10
217.60833327893155
20
-83.409615004313835
0
LINE
5
148
100
AcDbEntity
8
0
100
AcDbLine
10
96.30833330925627
20
-85.934615003682893
30
0
11
77.25833331401877
21
-85.934615003682893
31
0
0
LWPOLYLINE
5
149
100
AcDbEntity
8
0
100
AcDbPolyline
90
4
70
1
43
0.0
10
182.03333328782497
20
-124.03461499415852
10
182.03333328782497
20
-143.08461498939599
10
201.08333328306253
20
-143.08461498939599
10
201.08333328306247
20
-124.03461499415852
0
LWPOLYLINE
5
150
100
AcDbEntity
8
0
100
AcDbPolyline
90
4
70
1
43
0.0
10
98.833333308624987
20
-102.4596149995517
10
112.83333330512502
20
-102.4596149995517
10
112.83333330512502
20
-88.459615003051638
10
98.833333308624987
20
-88.459615003051638
0
LINE
5
151
100
AcDbEntity
8
0
100
AcDbLine
10
172.50833329020628
20
-66.884615008445408
30
0
11
172.50833329020628
21
-85.934615003682893
31
0
0
LINE
5
152
100
AcDbEntity
8
0
100
AcDbLine
10
191.55833328544378
20
-104.98461499892039
30
0
11
191.55833328544384
21
-124.03461499415791
31
0
0
LINE
5
153
100
AcDbEntity
8
0
100
AcDbLine
10
115.35833330449378
20
-85.934615003682893
30
0
11
115.35833330449378
21
-104.98461499892039
31
0
0
LINE
5
154
100
AcDbEntity
8
0
100
AcDbLine
10
153.45833329496881
20
-104.98461499892039
30
0
11
153.45833329496881
21
-85.934615003682893
31
0
0
LWPOLYLINE
5
155
100
AcDbEntity
8
0
100
AcDbPolyline
90
4
70
1
43
0.0
10
112.83333330512528
20
-140.559614990027
10
112.83333330512528
20
-126.55961499352762
10
98.833333308624987
20
-126.55961499352762
10
98.833333308624987
20
-140.559614990027
0
LWPOLYLINE
5
156
100
AcDbEntity
8
0
100
AcDbPolyline
90
4
70
1
43
0.0
10
117.8833333038625
20
-126.55961499352762
10
117.8833333038625
20
-140.559614990027
10
131.88333330036281
20
-140.559614990027
10
131.88333330036281
20
-126.55961499352762
0
LINE
5
157
100
AcDbEntity
8
0
100
AcDbLine
10
115.35833330449378
20
-104.98461499892039
30
0
11
115.35833330449378
21
-124.03461499415791
31
0
0
LWPOLYLINE
5
158
100
AcDbEntity
8
0
100
AcDbPolyline
90
4
70
1
43
0.0
10
203.60833328243089
20
-102.45961499955129
10
217.60833327893155
20
-102.45961499955129
10
217.60833327893155
20
-88.459615003051951
10
203.60833328243089
20
-88.459615003051951
0
LINE
5
159
100
AcDbEntity
8
0
100
AcDbLine
10
210.60833328068131
20
-124.03461499415791
30
0
11
191.55833328544384
21
-124.03461499415791
31
0
0
LINE
5
160
100
AcDbEntity
8
0
100
AcDbLine
10
153.45833329496881
20
-124.03461499415791
30
0
11
153.45833329496881
21
-143.08461498939602
31
0
0
LINE
5
161
100
AcDbEntity
8
0
100
AcDbLine
10
191.55833328544378
20
-104.98461499892039
30
0
11
172.50833329020628
21
-104.98461499892039
31
0
0
LINE
5
162
100
AcDbEntity
8
0
100
AcDbLine
10
172.50833329020628
20
-104.98461499892039
30
0
11
153.45833329496881
21
-104.98461499892039
31
0
0
LINE
5
163
100
AcDbEntity
8
0
100
AcDbLine
10
96.30833330925627
20
-124.03461499415852
30
0
11
96.30833330925627
21
-143.08461498939599
31
0
0
LINE
5
164
100
AcDbEntity
8
0
100
AcDbLine
10
77.25833331401877
20
-85.934615003682893
30
0
11
77.25833331401877
21
-66.884615008445408
31
0
0
LINE
5
165
100
AcDbEntity
8
0
100
AcDbLine
10
115.35833330449378
20
-85.934615003682893
30
0
11
115.35833330449378
21
-66.884615008445408
31
0
0
LINE
5
166
100
AcDbEntity
8
0
100
AcDbLine
10
96.30833330925627
20
-104.98461499892039
30
0
11
77.258333314018785
21
-104.98461499892039
31
0
0
LINE
5
167
100
AcDbEntity
8
0
100
AcDbLine
10
134.40833329973128
20
-104.98461499892039
30
0
11
134.40833329973128
21
-85.934615003682893
31
0
0
LWPOLYLINE
5
168
100
AcDbEntity
8
0
100
AcDbPolyline
90
4
70
1
43
0.0
10
136.93333329909996
20
-88.459615003051653
10
136.93333329909996
20
-102.4596149995517
10
150.93333329560031
20
-102.4596149995517
10
150.93333329560031
20
-88.459615003051638
0
LINE
5
169
100
AcDbEntity
8
0
100
AcDbLine
10
134.40833329973128
20
-66.884615008445408
30
0
11
134.40833329973128
21
-85.934615003682893
31
0
0
LWPOLYLINE
5
170
100
AcDbEntity
8
0
100
AcDbPolyline
90
4
70
1
43
0.0
10
136.93333329909996
20
-69.409615007814153
10
136.93333329909996
20
-83.409615004314176
10
150.93333329560031
20
-83.409615004314176
10
150.93333329560031
20
-69.409615007814139
0
LINE
5
171
100
AcDbEntity
8
0
100
AcDbLine
10
77.258333314018785
20
-104.98461499892039
30
0
11
96.30833330925627
21
-104.98461499892039
31
0
0
LINE
5
172
100
AcDbEntity
8
0
100
AcDbLine
10
201.08333328306253
20
-104.98461499892039
30
0
11
201.08333328306253
21
-85.934615003682893
31
0
0
LWPOLYLINE
5
173
100
AcDbEntity
8
0
100
AcDbPolyline
90
4
70
1
43
0.0
10
131.88333330036249
20
-102.45961499955169
10
131.88333330036249
20
-88.459615003051638
10
117.8833333038625
20
-88.459615003051638
10
117.8833333038625
20
-102.4596149995517
0
LINE
5
174
100
AcDbEntity
8
0
100
AcDbLine
10
153.45833329496881
20
-143.08461498939602
30
0
11
134.40833329973128
21
-143.08461498939599
31
0
0
LINE
5
175
100
AcDbEntity
8
0
100
AcDbLine
10
191.55833328544378
20
-66.884615008445408
30
0
11
191.55833328544378
21
-85.934615003682893
31
0
0
LINE
5
176
100
AcDbEntity
8
0
100
AcDbLine
10
201.08333328306253
20
-85.934615003682893
30
0
11
201.08333328306253
21
-66.884615008445408
31
0
0
LINE
5
177
100
AcDbEntity
8
0
100
AcDbLine
10
115.35833330449378
20
-85.934615003682893
30
0
11
96.30833330925627
21
-85.934615003682893
31
0
0
LWPOLYLINE
5
178
100
AcDbEntity
8
0
100
AcDbPolyline
90
4
70
1
43
0.0
10
189.03333328607533
20
-83.409615004314176
10
189.03333328607533
20
-69.409615007814139
10
175.0333332895747
20
-69.409615007814139
10
175.0333332895747
20
-83.409615004314176
0
LINE
5
179
100
AcDbEntity
8
0
100
AcDbLine
10
134.40833329973128
20
-124.03461499415791
30
0
11
134.40833329973128
21
-143.08461498939599
31
0
0
LINE
5
180
100
AcDbEntity
8
0
100
AcDbLine
10
172.50833329020628
20
-85.934615003682893
30
0
11
172.50833329020628
21
-104.98461499892039
31
0
0
LINE
5
181
100
AcDbEntity
8
0
100
AcDbLine
10
96.30833330925627
20
-143.08461498939599
30
0
11
96.30833330925627
21
-124.03461499415852
31
0
0
LINE
5
182
100
AcDbEntity
8
0
100
AcDbLine
10
115.35833330449378
20
-124.03461499415791
30
0
11
96.30833330925627
21
-124.03461499415852
31
0
0
LINE
5
183
100
AcDbEntity
8
0
100
AcDbLine
10
96.30833330925627
20
-104.98461499892039
30
0
11
96.30833330925627
21
-124.03461499415852
31
0
0
LINE
5
184
100
AcDbEntity
8
0
100
AcDbLine
10
77.25833331401877
20
-124.03461499415852
30
0
11
96.30833330925627
21
-124.03461499415852
31
0
0
LINE
5
185
100
AcDbEntity
8
0
100
AcDbLine
10
77.25833331401877
20
-124.03461499415852
30
0
11
77.258333314018785
21
-104.98461499892039
31
0
0
LINE
5
186
100
AcDbEntity
8
0
100
AcDbLine
10
96.30833330925627
20
-124.03461499415852
30
0
11
96.30833330925627
21
-104.98461499892039
31
0
0
LINE
5
187
100
AcDbEntity
8
0
100
AcDbLine
10
115.35833330449378
20
-124.03461499415791
30
0
11
115.35833330449378
21
-143.08461498939599
31
0
0
LINE
5
188
100
AcDbEntity
8
0
100
AcDbLine
10
96.30833330925627
20
-124.03461499415852
30
0
11
77.25833331401877
21
-124.03461499415852
31
0
0
LINE
5
189
100
AcDbEntity
8
0
100
AcDbLine
10
172.50833329020634
20
-124.03461499415791
30
0
11
172.50833329020628
21
-143.08461498939602
31
0
0
LINE
5
190
100
AcDbEntity
8
0
100
AcDbLine
10
172.50833329020628
20
-104.98461499892039
30
0
11
172.50833329020634
21
-124.03461499415791
31
0
0
LINE
5
191
100
AcDbEntity
8
0
100
AcDbLine
10
115.35833330449378
20
-66.884615008445408
30
0
11
115.35833330449378
21
-85.934615003682893
31
0
0
LINE
5
192
100
AcDbEntity
8
0
100
AcDbLine
10
172.50833329020628
20
-85.934615003682893
30
0
11
172.50833329020628
21
-66.884615008445408
31
0
0
LINE
5
193
100
AcDbEntity
8
0
100
AcDbLine
10
153.45833329496881
20
-143.08461498939602
30
0
11
153.45833329496881
21
-124.03461499415791
31
0
0
LINE
5
194
100
AcDbEntity
8
0
100
AcDbLine
10
134.40833329973128
20
-143.08461498939599
30
0
11
115.35833330449378
21
-143.08461498939599
31
0
0
LINE
5
195
100
AcDbEntity
8
0
100
AcDbLine
10
201.08333328306253
20
-66.884615008445408
30
0
11
220.1333332783
21
-66.884615008445408
31
0
0
LWPOLYLINE
5
196
100
AcDbEntity
8
0
100
AcDbPolyline
90
4
70
1
43
0.0
10
198.55833328369408
20
-126.55961499352762
10
184.55833328719339
20
-126.55961499352762
10
184.55833328719339
20
-140.559614990027
10
198.55833328369408
20
-140.559614990027
0
LINE
5
197
100
AcDbEntity
8
0
100
AcDbLine
10
172.50833329020628
20
-143.08461498939602
30
0
11
153.45833329496881
21
-143.08461498939602
31
0
0
LINE
5
198
100
AcDbEntity
8
0
100
AcDbLine
10
115.35833330449378
20
-143.08461498939599
30
0
11
115.35833330449378
21
-124.03461499415791
31
0
0
LINE
5
199
100
AcDbEntity
8
0
100
AcDbLine
10
172.50833329020628
20
-104.98461499892039
30
0
11
172.50833329020628
21
-85.934615003682893
31
0
0
LINE
5
200
100
AcDbEntity
8
0
100
AcDbLine
10
115.35833330449378
20
-124.03461499415791
30
0
11
134.40833329973128
21
-124.03461499415791
31
0
0
LINE
5
201
100
AcDbEntity
8
0
100
AcDbLine
10
210.60833328068131
20
-104.98461499892039
30
0
11
210.60833328068131
21
-124.03461499415791
31
0
0
LINE
5
202
100
AcDbEntity
8
0
100
AcDbLine
10
191.55833328544378
20
-85.934615003682893
30
0
11
191.55833328544378
21
-104.98461499892039
31
0
0
LINE
5
203
100
AcDbEntity
8
0
100
AcDbLine
10
153.45833329496881
20
-85.934615003682893
30
0
11
153.45833329496881
21
-104.98461499892039
31
0
0
LINE
5
204
100
AcDbEntity
8
0
100
AcDbLine
10
191.55833328544384
20
-124.03461499415791
30
0
11
191.55833328544378
21
-104.98461499892039
31
0
0
LINE
5
205
100
AcDbEntity
8
0
100
AcDbLine
10
134.40833329973128
20
-85.934615003682893
30
0
11
134.40833329973128
21
-66.884615008445408
31
0
0
LINE
5
206
100
AcDbEntity
8
0
100
AcDbLine
10
153.45833329496881
20
-124.03461499415791
30
0
11
172.50833329020634
21
-124.03461499415791
31
0
0
LINE
5
207
100
AcDbEntity
8
0
100
AcDbLine
10
191.55833328544378
20
-104.98461499892039
30
0
11
210.60833328068131
21
-104.98461499892039
31
0
0
LINE
5
208
100
AcDbEntity
8
0
100
AcDbLine
10
172.50833329020634
20
-124.03461499415791
30
0
11
153.45833329496881
21
-124.03461499415791
31
0
0
LINE
5
209
100
AcDbEntity
8
0
100
AcDbLine
10
153.45833329496881
20
-66.884615008445408
30
0
11
172.50833329020628
21
-66.884615008445408
31
0
0
LINE
5
210
100
AcDbEntity
8
0
100
AcDbLine
10
96.30833330925627
20
-85.934615003682893
30
0
11
115.35833330449378
21
-85.934615003682893
31
0
0
LINE
5
211
100
AcDbEntity
8
0
100
AcDbLine
10
191.55833328544378
20
-85.934615003682893
30
0
11
172.50833329020628
21
-85.934615003682893
31
0
0
LINE
5
212
100
AcDbEntity
8
0
100
AcDbLine
10
220.1333332783
20
-66.884615008445408
30
0
11
220.1333332783
21
-85.934615003682893
31
0
0
LINE
5
213
100
AcDbEntity
8
0
100
AcDbLine
10
134.40833329973128
20
-85.934615003682893
30
0
11
134.40833329973128
21
-104.98461499892039
31
0
0
LINE
5
214
100
AcDbEntity
8
0
100
AcDbLine
10
134.40833329973128
20
-85.934615003682893
30
0
11
115.35833330449378
21
-85.934615003682893
31
0
0
LINE
5
215
100
AcDbEntity
8
0
100
AcDbLine
10
134.40833329973128
20
-124.03461499415791
30
0
11
153.45833329496881
21
-124.03461499415791
31
0
0
LINE
5
216
100
AcDbEntity
8
0
100
AcDbLine
10
96.30833330925627
20
-85.934615003682893
30
0
11
96.30833330925627
21
-66.884615008445408
31
0
0
LINE
5
217
100
AcDbEntity
8
0
100
AcDbLine
10
153.45833329496881
20
-85.934615003682893
30
0
11
172.50833329020628
21
-85.934615003682893
31
0
0
LINE
5
218
100
AcDbEntity
8
0
100
AcDbLine
10
153.45833329496881
20
-124.03461499415791
30
0
11
153.45833329496881
21
-104.98461499892039
31
0
0
LINE
5
219
100
AcDbEntity
8
0
100
AcDbLine
10
134.40833329973128
20
-143.08461498939599
30
0
11
134.40833329973128
21
-124.03461499415791
31
0
0
LINE
5
220
100
AcDbEntity
8
0
100
AcDbLine
10
172.50833329020628
20
-85.934615003682893
30
0
11
153.45833329496881
21
-85.934615003682893
31
0
0
LINE
5
221
100
AcDbEntity
8
0
100
AcDbLine
10
77.258333314018785
20
-104.98461499892039
30
0
11
77.25833331401877
21
-85.934615003682893
31
0
0
LINE
5
222
100
AcDbEntity
8
0
100
AcDbLine
10
96.30833330925627
20
-104.98461499892039
30
0
11
96.30833330925627
21
-85.934615003682893
31
0
0
LINE
5
223
100
AcDbEntity
8
0
100
AcDbLine
10
220.1333332783
20
-104.98461499892039
30
0
11
201.08333328306253
21
-104.98461499892039
31
0
0
LINE
5
224
100
AcDbEntity
8
0
100
AcDbLine
10
115.35833330449378
20
-104.98461499892039
30
0
11
134.40833329973128
21
-104.98461499892039
31
0
0
LINE
5
225
100
AcDbEntity
8
0
100
AcDbLine
10
153.45833329496881
20
-104.98461499892039
30
0
11
172.50833329020628
21
-104.98461499892039
31
0
0
LINE
5
226
100
AcDbEntity
8
0
100
AcDbLine
10
134.40833329973128
20
-66.884615008445408
30
0
11
153.45833329496881
21
-66.884615008445408
31
0
0
LINE
5
227
100
AcDbEntity
8
0
100
AcDbLine
10
153.45833329496881
20
-124.03461499415791
30
0
11
134.40833329973128
21
-124.03461499415791
31
0
0
LINE
5
228
100
AcDbEntity
8
0
100
AcDbLine
10
153.45833329496881
20
-66.884615008445408
30
0
11
153.45833329496881
21
-85.934615003682893
31
0
0
LINE
5
229
100
AcDbEntity
8
0
100
AcDbLine
10
134.40833329973128
20
-104.98461499892039
30
0
11
153.45833329496881
21
-104.98461499892039
31
0
0
LINE
5
230
100
AcDbEntity
8
0
100
AcDbLine
10
220.1333332783
20
-85.934615003682893
30
0
11
220.1333332783
21
-104.98461499892039
31
0
0
LINE
5
231
100
AcDbEntity
8
0
100
AcDbLine
10
172.50833329020634
20
-124.03461499415791
30
0
11
172.50833329020628
21
-104.98461499892039
31
0
0
ENDSEC
0
SECTION
2
OBJECTS
0
DICTIONARY
5
C
100
AcDbDictionary
3
ACAD_GROUP
350
D
3
ACAD_MLINESTYLE
350
17
0
DICTIONARY
5
D
100
AcDbDictionary
0
DICTIONARY
5
1A
330
C
100
AcDbDictionary
0
DICTIONARY
5
17
100
AcDbDictionary
0
ENDSEC
0
EOF
