<?xml version="1.0" standalone="no"?>
 <!DOCTYPE svg PUBLIC "-//W3C//DTD SVG 1.1//EN" 
 "http://www.w3.org/Graphics/SVG/1.1/DTD/svg11.dtd"> 
<svg
  xmlns:svg="http://www.w3.org/2000/svg"
  xmlns="http://www.w3.org/2000/svg"
  xmlns:xlink="http://www.w3.org/1999/xlink"
  version="1.1"
  width="29.700220cm" height="21.000720cm" viewBox="0 0 116930 82680">
<title>SVG Picture created as kb-split-Edge_Cuts.svg date 2021/01/24 13:38:29 </title>
  <desc>Picture generated by PCBNEW </desc>
<g style="fill:#000000; fill-opacity:1;stroke:#000000; stroke-opacity:1;
stroke-linecap:round; stroke-linejoin:round;"
 transform="translate(0 0) scale(1 1)">
</g>
<g style="fill:#000000; fill-opacity:0.0; 
stroke:#000000; stroke-width:-0.000393701; stroke-opacity:1; 
stroke-linecap:round; stroke-linejoin:round;">
</g>
<g style="fill:#000000; fill-opacity:0.0; 
stroke:#000000; stroke-width:39.3701; stroke-opacity:1; 
stroke-linecap:round; stroke-linejoin:round;">
<path d="M100950 21900
L100950 23100
" />
<path d="M96750 21900
L100950 21900
" />
<path d="M96750 23100
L96750 21900
" />
<path d="M100950 23100
L96750 23100
" />
</g>
<g style="fill:#000000; fill-opacity:0.0; 
stroke:#000000; stroke-width:19.685; stroke-opacity:1; 
stroke-linecap:round; stroke-linejoin:round;">
<path d="M38437 18750
L98437 18750
" />
<path d="M102187 43125
L102187 22500
" />
<path d="M102188 22500 A3750 3750 0.0 0 0 98437.5 18750" />
<path d="M88125 50625
L102187 43125
" />
<path d="M37500 49687.5 A937.5 937.5 0.0 0 0 38437.5 50625" />
<path d="M38437 50625
L88125 50625
" />
<path d="M37500 19687
L37500 49687
" />
<path d="M38437.5 18750 A937.5 937.5 0.0 0 0 37500 19687.5" />
</g>
<g style="fill:#000000; fill-opacity:0.0; 
stroke:#000000; stroke-width:39.3701; stroke-opacity:1; 
stroke-linecap:round; stroke-linejoin:round;">
<path d="M91790 37730
L90609 37730
" />
<path d="M90609 39069
L91790 39069
" />
<path d="M91790 38675
L91790 38124
" />
<path d="M90609 38675
L90609 38124
" />
<path d="M90609.4 38675.6 A196.85 196.85 0.0 0 0 90609.4 39069.3" />
<path d="M90609.4 37730.7 A196.85 196.85 0.0 0 0 90609.4 38124.4" />
<path d="M91790.6 38124.4 A196.85 196.85 0.0 0 0 91790.6 37730.7" />
<path d="M91790.6 39069.3 A196.85 196.85 0.0 0 0 91790.6 38675.6" />
<path d="M83713 44528
L83161 44528
" />
<path d="M82768 43346
L82768 44528
" />
<path d="M83713 43346
L83161 43346
" />
<path d="M84106 44528
L84106 43346
" />
<path d="M84106.8 43346.9 A196.85 196.85 0.0 0 0 83713.1 43346.9" />
<path d="M82768.2 44528.1 A196.85 196.85 0.0 0 0 83161.9 44528.1" />
<path d="M83161.9 43346.9 A196.85 196.85 0.0 0 0 82768.2 43346.9" />
<path d="M83713.1 44528.1 A196.85 196.85 0.0 0 0 84106.8 44528.1" />
<path d="M72463 44528
L71911 44528
" />
<path d="M71518 43346
L71518 44528
" />
<path d="M72463 43346
L71911 43346
" />
<path d="M72856 44528
L72856 43346
" />
<path d="M72856.8 43346.9 A196.85 196.85 0.0 0 0 72463.1 43346.9" />
<path d="M71518.2 44528.1 A196.85 196.85 0.0 0 0 71911.9 44528.1" />
<path d="M71911.9 43346.9 A196.85 196.85 0.0 0 0 71518.2 43346.9" />
<path d="M72463.1 44528.1 A196.85 196.85 0.0 0 0 72856.8 44528.1" />
<path d="M64963 44528
L64411 44528
" />
<path d="M64018 43346
L64018 44528
" />
<path d="M64963 43346
L64411 43346
" />
<path d="M65356 44528
L65356 43346
" />
<path d="M65356.8 43346.9 A196.85 196.85 0.0 0 0 64963.1 43346.9" />
<path d="M64018.2 44528.1 A196.85 196.85 0.0 0 0 64411.9 44528.1" />
<path d="M64411.9 43346.9 A196.85 196.85 0.0 0 0 64018.2 43346.9" />
<path d="M64963.1 44528.1 A196.85 196.85 0.0 0 0 65356.8 44528.1" />
<path d="M57463 44528
L56911 44528
" />
<path d="M56518 43346
L56518 44528
" />
<path d="M57463 43346
L56911 43346
" />
<path d="M57856 44528
L57856 43346
" />
<path d="M57856.8 43346.9 A196.85 196.85 0.0 0 0 57463.1 43346.9" />
<path d="M56518.2 44528.1 A196.85 196.85 0.0 0 0 56911.9 44528.1" />
<path d="M56911.9 43346.9 A196.85 196.85 0.0 0 0 56518.2 43346.9" />
<path d="M57463.1 44528.1 A196.85 196.85 0.0 0 0 57856.8 44528.1" />
<path d="M49963 44528
L49411 44528
" />
<path d="M49018 43346
L49018 44528
" />
<path d="M49963 43346
L49411 43346
" />
<path d="M50356 44528
L50356 43346
" />
<path d="M50356.8 43346.9 A196.85 196.85 0.0 0 0 49963.1 43346.9" />
<path d="M49018.2 44528.1 A196.85 196.85 0.0 0 0 49411.9 44528.1" />
<path d="M49411.9 43346.9 A196.85 196.85 0.0 0 0 49018.2 43346.9" />
<path d="M49963.1 44528.1 A196.85 196.85 0.0 0 0 50356.8 44528.1" />
<path d="M42463 44528
L41911 44528
" />
<path d="M41518 43346
L41518 44528
" />
<path d="M42463 43346
L41911 43346
" />
<path d="M42856 44528
L42856 43346
" />
<path d="M42856.8 43346.9 A196.85 196.85 0.0 0 0 42463.1 43346.9" />
<path d="M41518.2 44528.1 A196.85 196.85 0.0 0 0 41911.9 44528.1" />
<path d="M41911.9 43346.9 A196.85 196.85 0.0 0 0 41518.2 43346.9" />
<path d="M42463.1 44528.1 A196.85 196.85 0.0 0 0 42856.8 44528.1" />
<path d="M79411 37028
L79963 37028
" />
<path d="M80356 35846
L80356 37028
" />
<path d="M79411 35846
L79963 35846
" />
<path d="M79018 37028
L79018 35846
" />
<path d="M79411.9 35846.9 A196.85 196.85 0.0 0 0 79018.2 35846.9" />
<path d="M79963.1 37028.1 A196.85 196.85 0.0 0 0 80356.8 37028.1" />
<path d="M80356.8 35846.9 A196.85 196.85 0.0 0 0 79963.1 35846.9" />
<path d="M79018.2 37028.1 A196.85 196.85 0.0 0 0 79411.9 37028.1" />
<path d="M71911 37028
L72463 37028
" />
<path d="M72856 35846
L72856 37028
" />
<path d="M71911 35846
L72463 35846
" />
<path d="M71518 37028
L71518 35846
" />
<path d="M71911.9 35846.9 A196.85 196.85 0.0 0 0 71518.2 35846.9" />
<path d="M72463.1 37028.1 A196.85 196.85 0.0 0 0 72856.8 37028.1" />
<path d="M72856.8 35846.9 A196.85 196.85 0.0 0 0 72463.1 35846.9" />
<path d="M71518.2 37028.1 A196.85 196.85 0.0 0 0 71911.9 37028.1" />
<path d="M64411 37028
L64963 37028
" />
<path d="M65356 35846
L65356 37028
" />
<path d="M64411 35846
L64963 35846
" />
<path d="M64018 37028
L64018 35846
" />
<path d="M64411.9 35846.9 A196.85 196.85 0.0 0 0 64018.2 35846.9" />
<path d="M64963.1 37028.1 A196.85 196.85 0.0 0 0 65356.8 37028.1" />
<path d="M65356.8 35846.9 A196.85 196.85 0.0 0 0 64963.1 35846.9" />
<path d="M64018.2 37028.1 A196.85 196.85 0.0 0 0 64411.9 37028.1" />
<path d="M56911 37028
L57463 37028
" />
<path d="M57856 35846
L57856 37028
" />
<path d="M56911 35846
L57463 35846
" />
<path d="M56518 37028
L56518 35846
" />
<path d="M56911.9 35846.9 A196.85 196.85 0.0 0 0 56518.2 35846.9" />
<path d="M57463.1 37028.1 A196.85 196.85 0.0 0 0 57856.8 37028.1" />
<path d="M57856.8 35846.9 A196.85 196.85 0.0 0 0 57463.1 35846.9" />
<path d="M56518.2 37028.1 A196.85 196.85 0.0 0 0 56911.9 37028.1" />
<path d="M49411 37028
L49963 37028
" />
<path d="M50356 35846
L50356 37028
" />
<path d="M49411 35846
L49963 35846
" />
<path d="M49018 37028
L49018 35846
" />
<path d="M49411.9 35846.9 A196.85 196.85 0.0 0 0 49018.2 35846.9" />
<path d="M49963.1 37028.1 A196.85 196.85 0.0 0 0 50356.8 37028.1" />
<path d="M50356.8 35846.9 A196.85 196.85 0.0 0 0 49963.1 35846.9" />
<path d="M49018.2 37028.1 A196.85 196.85 0.0 0 0 49411.9 37028.1" />
<path d="M41911 37028
L42463 37028
" />
<path d="M42856 35846
L42856 37028
" />
<path d="M41911 35846
L42463 35846
" />
<path d="M41518 37028
L41518 35846
" />
<path d="M41911.9 35846.9 A196.85 196.85 0.0 0 0 41518.2 35846.9" />
<path d="M42463.1 37028.1 A196.85 196.85 0.0 0 0 42856.8 37028.1" />
<path d="M42856.8 35846.9 A196.85 196.85 0.0 0 0 42463.1 35846.9" />
<path d="M41518.2 37028.1 A196.85 196.85 0.0 0 0 41911.9 37028.1" />
<path d="M91213 29528
L90661 29528
" />
<path d="M90268 28346
L90268 29528
" />
<path d="M91213 28346
L90661 28346
" />
<path d="M91606 29528
L91606 28346
" />
<path d="M91606.8 28346.9 A196.85 196.85 0.0 0 0 91213.1 28346.9" />
<path d="M90268.2 29528.1 A196.85 196.85 0.0 0 0 90661.9 29528.1" />
<path d="M90661.9 28346.9 A196.85 196.85 0.0 0 0 90268.2 28346.9" />
<path d="M91213.1 29528.1 A196.85 196.85 0.0 0 0 91606.8 29528.1" />
<path d="M79963 29528
L79411 29528
" />
<path d="M79018 28346
L79018 29528
" />
<path d="M79963 28346
L79411 28346
" />
<path d="M80356 29528
L80356 28346
" />
<path d="M80356.8 28346.9 A196.85 196.85 0.0 0 0 79963.1 28346.9" />
<path d="M79018.2 29528.1 A196.85 196.85 0.0 0 0 79411.9 29528.1" />
<path d="M79411.9 28346.9 A196.85 196.85 0.0 0 0 79018.2 28346.9" />
<path d="M79963.1 29528.1 A196.85 196.85 0.0 0 0 80356.8 29528.1" />
<path d="M72463 29528
L71911 29528
" />
<path d="M71518 28346
L71518 29528
" />
<path d="M72463 28346
L71911 28346
" />
<path d="M72856 29528
L72856 28346
" />
<path d="M72856.8 28346.9 A196.85 196.85 0.0 0 0 72463.1 28346.9" />
<path d="M71518.2 29528.1 A196.85 196.85 0.0 0 0 71911.9 29528.1" />
<path d="M71911.9 28346.9 A196.85 196.85 0.0 0 0 71518.2 28346.9" />
<path d="M72463.1 29528.1 A196.85 196.85 0.0 0 0 72856.8 29528.1" />
<path d="M64963 29528
L64411 29528
" />
<path d="M64018 28346
L64018 29528
" />
<path d="M64963 28346
L64411 28346
" />
<path d="M65356 29528
L65356 28346
" />
<path d="M65356.8 28346.9 A196.85 196.85 0.0 0 0 64963.1 28346.9" />
<path d="M64018.2 29528.1 A196.85 196.85 0.0 0 0 64411.9 29528.1" />
<path d="M64411.9 28346.9 A196.85 196.85 0.0 0 0 64018.2 28346.9" />
<path d="M64963.1 29528.1 A196.85 196.85 0.0 0 0 65356.8 29528.1" />
<path d="M57463 29528
L56911 29528
" />
<path d="M56518 28346
L56518 29528
" />
<path d="M57463 28346
L56911 28346
" />
<path d="M57856 29528
L57856 28346
" />
<path d="M57856.8 28346.9 A196.85 196.85 0.0 0 0 57463.1 28346.9" />
<path d="M56518.2 29528.1 A196.85 196.85 0.0 0 0 56911.9 29528.1" />
<path d="M56911.9 28346.9 A196.85 196.85 0.0 0 0 56518.2 28346.9" />
<path d="M57463.1 29528.1 A196.85 196.85 0.0 0 0 57856.8 29528.1" />
<path d="M49963 29528
L49411 29528
" />
<path d="M49018 28346
L49018 29528
" />
<path d="M49963 28346
L49411 28346
" />
<path d="M50356 29528
L50356 28346
" />
<path d="M50356.8 28346.9 A196.85 196.85 0.0 0 0 49963.1 28346.9" />
<path d="M49018.2 29528.1 A196.85 196.85 0.0 0 0 49411.9 29528.1" />
<path d="M49411.9 28346.9 A196.85 196.85 0.0 0 0 49018.2 28346.9" />
<path d="M49963.1 29528.1 A196.85 196.85 0.0 0 0 50356.8 29528.1" />
<path d="M42463 29528
L41911 29528
" />
<path d="M41518 28346
L41518 29528
" />
<path d="M42463 28346
L41911 28346
" />
<path d="M42856 29528
L42856 28346
" />
<path d="M42856.8 28346.9 A196.85 196.85 0.0 0 0 42463.1 28346.9" />
<path d="M41518.2 29528.1 A196.85 196.85 0.0 0 0 41911.9 29528.1" />
<path d="M41911.9 28346.9 A196.85 196.85 0.0 0 0 41518.2 28346.9" />
<path d="M42463.1 29528.1 A196.85 196.85 0.0 0 0 42856.8 29528.1" />
<path d="M90661 22028
L91213 22028
" />
<path d="M91606 20846
L91606 22028
" />
<path d="M90661 20846
L91213 20846
" />
<path d="M90268 22028
L90268 20846
" />
<path d="M90661.9 20846.9 A196.85 196.85 0.0 0 0 90268.2 20846.9" />
<path d="M91213.1 22028.1 A196.85 196.85 0.0 0 0 91606.8 22028.1" />
<path d="M91606.8 20846.9 A196.85 196.85 0.0 0 0 91213.1 20846.9" />
<path d="M90268.2 22028.1 A196.85 196.85 0.0 0 0 90661.9 22028.1" />
<path d="M79411 22028
L79963 22028
" />
<path d="M80356 20846
L80356 22028
" />
<path d="M79411 20846
L79963 20846
" />
<path d="M79018 22028
L79018 20846
" />
<path d="M79411.9 20846.9 A196.85 196.85 0.0 0 0 79018.2 20846.9" />
<path d="M79963.1 22028.1 A196.85 196.85 0.0 0 0 80356.8 22028.1" />
<path d="M80356.8 20846.9 A196.85 196.85 0.0 0 0 79963.1 20846.9" />
<path d="M79018.2 22028.1 A196.85 196.85 0.0 0 0 79411.9 22028.1" />
<path d="M71911 22028
L72463 22028
" />
<path d="M72856 20846
L72856 22028
" />
<path d="M71911 20846
L72463 20846
" />
<path d="M71518 22028
L71518 20846
" />
<path d="M71911.9 20846.9 A196.85 196.85 0.0 0 0 71518.2 20846.9" />
<path d="M72463.1 22028.1 A196.85 196.85 0.0 0 0 72856.8 22028.1" />
<path d="M72856.8 20846.9 A196.85 196.85 0.0 0 0 72463.1 20846.9" />
<path d="M71518.2 22028.1 A196.85 196.85 0.0 0 0 71911.9 22028.1" />
<path d="M64411 22028
L64963 22028
" />
<path d="M65356 20846
L65356 22028
" />
<path d="M64411 20846
L64963 20846
" />
<path d="M64018 22028
L64018 20846
" />
<path d="M64411.9 20846.9 A196.85 196.85 0.0 0 0 64018.2 20846.9" />
<path d="M64963.1 22028.1 A196.85 196.85 0.0 0 0 65356.8 22028.1" />
<path d="M65356.8 20846.9 A196.85 196.85 0.0 0 0 64963.1 20846.9" />
<path d="M64018.2 22028.1 A196.85 196.85 0.0 0 0 64411.9 22028.1" />
<path d="M56911 22028
L57463 22028
" />
<path d="M57856 20846
L57856 22028
" />
<path d="M56911 20846
L57463 20846
" />
<path d="M56518 22028
L56518 20846
" />
<path d="M56911.9 20846.9 A196.85 196.85 0.0 0 0 56518.2 20846.9" />
<path d="M57463.1 22028.1 A196.85 196.85 0.0 0 0 57856.8 22028.1" />
<path d="M57856.8 20846.9 A196.85 196.85 0.0 0 0 57463.1 20846.9" />
<path d="M56518.2 22028.1 A196.85 196.85 0.0 0 0 56911.9 22028.1" />
<path d="M49411 22028
L49963 22028
" />
<path d="M50356 20846
L50356 22028
" />
<path d="M49411 20846
L49963 20846
" />
<path d="M49018 22028
L49018 20846
" />
<path d="M49411.9 20846.9 A196.85 196.85 0.0 0 0 49018.2 20846.9" />
<path d="M49963.1 22028.1 A196.85 196.85 0.0 0 0 50356.8 22028.1" />
<path d="M50356.8 20846.9 A196.85 196.85 0.0 0 0 49963.1 20846.9" />
<path d="M49018.2 22028.1 A196.85 196.85 0.0 0 0 49411.9 22028.1" />
<path d="M41911 22028
L42463 22028
" />
<path d="M42856 20846
L42856 22028
" />
<path d="M41911 20846
L42463 20846
" />
<path d="M41518 22028
L41518 20846
" />
<path d="M41911.9 20846.9 A196.85 196.85 0.0 0 0 41518.2 20846.9" />
<path d="M42463.1 22028.1 A196.85 196.85 0.0 0 0 42856.8 22028.1" />
<path d="M42856.8 20846.9 A196.85 196.85 0.0 0 0 42463.1 20846.9" />
<path d="M41518.2 22028.1 A196.85 196.85 0.0 0 0 41911.9 22028.1" />
<path d="M84721 31213
L84721 30661
" />
<path d="M85903 31213
L85903 30661
" />
<path d="M84721 31606
L85903 31606
" />
<path d="M85903 30268
L84721 30268
" />
<path d="M84721.9 31213.1 A196.85 196.85 0.0 0 0 84721.9 31606.8" />
<path d="M84721.9 30268.2 A196.85 196.85 0.0 0 0 84721.9 30661.9" />
<path d="M85903.1 30661.9 A196.85 196.85 0.0 0 0 85903.1 30268.2" />
<path d="M85903.1 31606.8 A196.85 196.85 0.0 0 0 85903.1 31213.1" />
<path d="M68713 27778
L68161 27778
" />
<path d="M68713 26596
L68161 26596
" />
<path d="M69106 27778
L69106 26596
" />
<path d="M67768 26596
L67768 27778
" />
<path d="M68713.1 27778.1 A196.85 196.85 0.0 0 0 69106.8 27778.1" />
<path d="M67768.2 27778.1 A196.85 196.85 0.0 0 0 68161.9 27778.1" />
<path d="M68161.9 26596.9 A196.85 196.85 0.0 0 0 67768.2 26596.9" />
<path d="M69106.8 26596.9 A196.85 196.85 0.0 0 0 68713.1 26596.9" />
<path d="M61213 42778
L60661 42778
" />
<path d="M61213 41596
L60661 41596
" />
<path d="M61606 42778
L61606 41596
" />
<path d="M60268 41596
L60268 42778
" />
<path d="M61213.1 42778.1 A196.85 196.85 0.0 0 0 61606.8 42778.1" />
<path d="M60268.2 42778.1 A196.85 196.85 0.0 0 0 60661.9 42778.1" />
<path d="M60661.9 41596.9 A196.85 196.85 0.0 0 0 60268.2 41596.9" />
<path d="M61606.8 41596.9 A196.85 196.85 0.0 0 0 61213.1 41596.9" />
<path d="M45661 34096
L46213 34096
" />
<path d="M45661 35278
L46213 35278
" />
<path d="M45268 34096
L45268 35278
" />
<path d="M46606 35278
L46606 34096
" />
<path d="M45661.9 34096.9 A196.85 196.85 0.0 0 0 45268.2 34096.9" />
<path d="M46606.8 34096.9 A196.85 196.85 0.0 0 0 46213.1 34096.9" />
<path d="M46213.1 35278.1 A196.85 196.85 0.0 0 0 46606.8 35278.1" />
<path d="M45268.2 35278.1 A196.85 196.85 0.0 0 0 45661.9 35278.1" />
<path d="M82496.9 47126.5 A590.504 590.504 0.0 1 0 81753.4 47498.6" />
<path d="M81878 47748.6 A196.959 196.959 0.0 0 0 81753.4 47498.6" />
<path d="M82496.9 47126.5 A196.959 196.959 0.0 0 0 82622.2 47376.6" />
<path d="M81878 47748.6 A590.504 590.504 0.0 1 0 82622.2 47376.6" />
<path d="M85121.6 47498.6 A590.504 590.504 0.0 1 0 84378.1 47126.5" />
<path d="M84252.8 47376.6 A196.959 196.959 0.0 0 0 84378.1 47126.5" />
<path d="M85121.6 47498.6 A196.959 196.959 0.0 0 0 84997 47748.6" />
<path d="M84252.8 47376.6 A590.504 590.504 0.0 1 0 84997 47748.6" />
<path d="M71246.9 47126.5 A590.504 590.504 0.0 1 0 70503.4 47498.6" />
<path d="M70628 47748.6 A196.959 196.959 0.0 0 0 70503.4 47498.6" />
<path d="M71246.9 47126.5 A196.959 196.959 0.0 0 0 71372.2 47376.6" />
<path d="M70628 47748.6 A590.504 590.504 0.0 1 0 71372.2 47376.6" />
<path d="M73871.6 47498.6 A590.504 590.504 0.0 1 0 73128.1 47126.5" />
<path d="M73002.8 47376.6 A196.959 196.959 0.0 0 0 73128.1 47126.5" />
<path d="M73871.6 47498.6 A196.959 196.959 0.0 0 0 73747 47748.6" />
<path d="M73002.8 47376.6 A590.504 590.504 0.0 1 0 73747 47748.6" />
<path d="M63746.9 47126.5 A590.504 590.504 0.0 1 0 63003.4 47498.6" />
<path d="M63128 47748.6 A196.959 196.959 0.0 0 0 63003.4 47498.6" />
<path d="M63746.9 47126.5 A196.959 196.959 0.0 0 0 63872.2 47376.6" />
<path d="M63128 47748.6 A590.504 590.504 0.0 1 0 63872.2 47376.6" />
<path d="M66371.6 47498.6 A590.504 590.504 0.0 1 0 65628.1 47126.5" />
<path d="M65502.8 47376.6 A196.959 196.959 0.0 0 0 65628.1 47126.5" />
<path d="M66371.6 47498.6 A196.959 196.959 0.0 0 0 66247 47748.6" />
<path d="M65502.8 47376.6 A590.504 590.504 0.0 1 0 66247 47748.6" />
<path d="M56246.9 47126.5 A590.504 590.504 0.0 1 0 55503.4 47498.6" />
<path d="M55628 47748.6 A196.959 196.959 0.0 0 0 55503.4 47498.6" />
<path d="M56246.9 47126.5 A196.959 196.959 0.0 0 0 56372.2 47376.6" />
<path d="M55628 47748.6 A590.504 590.504 0.0 1 0 56372.2 47376.6" />
<path d="M58871.6 47498.6 A590.504 590.504 0.0 1 0 58128.1 47126.5" />
<path d="M58002.8 47376.6 A196.959 196.959 0.0 0 0 58128.1 47126.5" />
<path d="M58871.6 47498.6 A196.959 196.959 0.0 0 0 58747 47748.6" />
<path d="M58002.8 47376.6 A590.504 590.504 0.0 1 0 58747 47748.6" />
<path d="M48746.9 47126.5 A590.504 590.504 0.0 1 0 48003.4 47498.6" />
<path d="M48128 47748.6 A196.959 196.959 0.0 0 0 48003.4 47498.6" />
<path d="M48746.9 47126.5 A196.959 196.959 0.0 0 0 48872.2 47376.6" />
<path d="M48128 47748.6 A590.504 590.504 0.0 1 0 48872.2 47376.6" />
<path d="M51371.6 47498.6 A590.504 590.504 0.0 1 0 50628.1 47126.5" />
<path d="M50502.8 47376.6 A196.959 196.959 0.0 0 0 50628.1 47126.5" />
<path d="M51371.6 47498.6 A196.959 196.959 0.0 0 0 51247 47748.6" />
<path d="M50502.8 47376.6 A590.504 590.504 0.0 1 0 51247 47748.6" />
<path d="M41246.9 47126.5 A590.504 590.504 0.0 1 0 40503.4 47498.6" />
<path d="M40628 47748.6 A196.959 196.959 0.0 0 0 40503.4 47498.6" />
<path d="M41246.9 47126.5 A196.959 196.959 0.0 0 0 41372.2 47376.6" />
<path d="M40628 47748.6 A590.504 590.504 0.0 1 0 41372.2 47376.6" />
<path d="M43871.6 47498.6 A590.504 590.504 0.0 1 0 43128.1 47126.5" />
<path d="M43002.8 47376.6 A196.959 196.959 0.0 0 0 43128.1 47126.5" />
<path d="M43871.6 47498.6 A196.959 196.959 0.0 0 0 43747 47748.6" />
<path d="M43002.8 47376.6 A590.504 590.504 0.0 1 0 43747 47748.6" />
<path d="M78746.9 39626.5 A590.504 590.504 0.0 1 0 78003.4 39998.6" />
<path d="M78128 40248.6 A196.959 196.959 0.0 0 0 78003.4 39998.6" />
<path d="M78746.9 39626.5 A196.959 196.959 0.0 0 0 78872.2 39876.6" />
<path d="M78128 40248.6 A590.504 590.504 0.0 1 0 78872.2 39876.6" />
<path d="M81371.6 39998.6 A590.504 590.504 0.0 1 0 80628.1 39626.5" />
<path d="M80502.8 39876.6 A196.959 196.959 0.0 0 0 80628.1 39626.5" />
<path d="M81371.6 39998.6 A196.959 196.959 0.0 0 0 81247 40248.6" />
<path d="M80502.8 39876.6 A590.504 590.504 0.0 1 0 81247 40248.6" />
<path d="M71246.9 39626.5 A590.504 590.504 0.0 1 0 70503.4 39998.6" />
<path d="M70628 40248.6 A196.959 196.959 0.0 0 0 70503.4 39998.6" />
<path d="M71246.9 39626.5 A196.959 196.959 0.0 0 0 71372.2 39876.6" />
<path d="M70628 40248.6 A590.504 590.504 0.0 1 0 71372.2 39876.6" />
<path d="M73871.6 39998.6 A590.504 590.504 0.0 1 0 73128.1 39626.5" />
<path d="M73002.8 39876.6 A196.959 196.959 0.0 0 0 73128.1 39626.5" />
<path d="M73871.6 39998.6 A196.959 196.959 0.0 0 0 73747 40248.6" />
<path d="M73002.8 39876.6 A590.504 590.504 0.0 1 0 73747 40248.6" />
<path d="M63746.9 39626.5 A590.504 590.504 0.0 1 0 63003.4 39998.6" />
<path d="M63128 40248.6 A196.959 196.959 0.0 0 0 63003.4 39998.6" />
<path d="M63746.9 39626.5 A196.959 196.959 0.0 0 0 63872.2 39876.6" />
<path d="M63128 40248.6 A590.504 590.504 0.0 1 0 63872.2 39876.6" />
<path d="M66371.6 39998.6 A590.504 590.504 0.0 1 0 65628.1 39626.5" />
<path d="M65502.8 39876.6 A196.959 196.959 0.0 0 0 65628.1 39626.5" />
<path d="M66371.6 39998.6 A196.959 196.959 0.0 0 0 66247 40248.6" />
<path d="M65502.8 39876.6 A590.504 590.504 0.0 1 0 66247 40248.6" />
<path d="M56246.9 39626.5 A590.504 590.504 0.0 1 0 55503.4 39998.6" />
<path d="M55628 40248.6 A196.959 196.959 0.0 0 0 55503.4 39998.6" />
<path d="M56246.9 39626.5 A196.959 196.959 0.0 0 0 56372.2 39876.6" />
<path d="M55628 40248.6 A590.504 590.504 0.0 1 0 56372.2 39876.6" />
<path d="M58871.6 39998.6 A590.504 590.504 0.0 1 0 58128.1 39626.5" />
<path d="M58002.8 39876.6 A196.959 196.959 0.0 0 0 58128.1 39626.5" />
<path d="M58871.6 39998.6 A196.959 196.959 0.0 0 0 58747 40248.6" />
<path d="M58002.8 39876.6 A590.504 590.504 0.0 1 0 58747 40248.6" />
<path d="M48746.9 39626.5 A590.504 590.504 0.0 1 0 48003.4 39998.6" />
<path d="M48128 40248.6 A196.959 196.959 0.0 0 0 48003.4 39998.6" />
<path d="M48746.9 39626.5 A196.959 196.959 0.0 0 0 48872.2 39876.6" />
<path d="M48128 40248.6 A590.504 590.504 0.0 1 0 48872.2 39876.6" />
<path d="M51371.6 39998.6 A590.504 590.504 0.0 1 0 50628.1 39626.5" />
<path d="M50502.8 39876.6 A196.959 196.959 0.0 0 0 50628.1 39626.5" />
<path d="M51371.6 39998.6 A196.959 196.959 0.0 0 0 51247 40248.6" />
<path d="M50502.8 39876.6 A590.504 590.504 0.0 1 0 51247 40248.6" />
<path d="M41246.9 39626.5 A590.504 590.504 0.0 1 0 40503.4 39998.6" />
<path d="M40628 40248.6 A196.959 196.959 0.0 0 0 40503.4 39998.6" />
<path d="M41246.9 39626.5 A196.959 196.959 0.0 0 0 41372.2 39876.6" />
<path d="M40628 40248.6 A590.504 590.504 0.0 1 0 41372.2 39876.6" />
<path d="M43871.6 39998.6 A590.504 590.504 0.0 1 0 43128.1 39626.5" />
<path d="M43002.8 39876.6 A196.959 196.959 0.0 0 0 43128.1 39626.5" />
<path d="M43871.6 39998.6 A196.959 196.959 0.0 0 0 43747 40248.6" />
<path d="M43002.8 39876.6 A590.504 590.504 0.0 1 0 43747 40248.6" />
<path d="M89996.9 32126.5 A590.504 590.504 0.0 1 0 89253.4 32498.6" />
<path d="M89378 32748.6 A196.959 196.959 0.0 0 0 89253.4 32498.6" />
<path d="M89996.9 32126.5 A196.959 196.959 0.0 0 0 90122.2 32376.6" />
<path d="M89378 32748.6 A590.504 590.504 0.0 1 0 90122.2 32376.6" />
<path d="M92621.6 32498.6 A590.504 590.504 0.0 1 0 91878.1 32126.5" />
<path d="M91752.8 32376.6 A196.959 196.959 0.0 0 0 91878.1 32126.5" />
<path d="M92621.6 32498.6 A196.959 196.959 0.0 0 0 92497 32748.6" />
<path d="M91752.8 32376.6 A590.504 590.504 0.0 1 0 92497 32748.6" />
<path d="M78746.9 32126.5 A590.504 590.504 0.0 1 0 78003.4 32498.6" />
<path d="M78128 32748.6 A196.959 196.959 0.0 0 0 78003.4 32498.6" />
<path d="M78746.9 32126.5 A196.959 196.959 0.0 0 0 78872.2 32376.6" />
<path d="M78128 32748.6 A590.504 590.504 0.0 1 0 78872.2 32376.6" />
<path d="M81371.6 32498.6 A590.504 590.504 0.0 1 0 80628.1 32126.5" />
<path d="M80502.8 32376.6 A196.959 196.959 0.0 0 0 80628.1 32126.5" />
<path d="M81371.6 32498.6 A196.959 196.959 0.0 0 0 81247 32748.6" />
<path d="M80502.8 32376.6 A590.504 590.504 0.0 1 0 81247 32748.6" />
<path d="M71246.9 32126.5 A590.504 590.504 0.0 1 0 70503.4 32498.6" />
<path d="M70628 32748.6 A196.959 196.959 0.0 0 0 70503.4 32498.6" />
<path d="M71246.9 32126.5 A196.959 196.959 0.0 0 0 71372.2 32376.6" />
<path d="M70628 32748.6 A590.504 590.504 0.0 1 0 71372.2 32376.6" />
<path d="M73871.6 32498.6 A590.504 590.504 0.0 1 0 73128.1 32126.5" />
<path d="M73002.8 32376.6 A196.959 196.959 0.0 0 0 73128.1 32126.5" />
<path d="M73871.6 32498.6 A196.959 196.959 0.0 0 0 73747 32748.6" />
<path d="M73002.8 32376.6 A590.504 590.504 0.0 1 0 73747 32748.6" />
<path d="M63746.9 32126.5 A590.504 590.504 0.0 1 0 63003.4 32498.6" />
<path d="M63128 32748.6 A196.959 196.959 0.0 0 0 63003.4 32498.6" />
<path d="M63746.9 32126.5 A196.959 196.959 0.0 0 0 63872.2 32376.6" />
<path d="M63128 32748.6 A590.504 590.504 0.0 1 0 63872.2 32376.6" />
<path d="M66371.6 32498.6 A590.504 590.504 0.0 1 0 65628.1 32126.5" />
<path d="M65502.8 32376.6 A196.959 196.959 0.0 0 0 65628.1 32126.5" />
<path d="M66371.6 32498.6 A196.959 196.959 0.0 0 0 66247 32748.6" />
<path d="M65502.8 32376.6 A590.504 590.504 0.0 1 0 66247 32748.6" />
<path d="M56246.9 32126.5 A590.504 590.504 0.0 1 0 55503.4 32498.6" />
<path d="M55628 32748.6 A196.959 196.959 0.0 0 0 55503.4 32498.6" />
<path d="M56246.9 32126.5 A196.959 196.959 0.0 0 0 56372.2 32376.6" />
<path d="M55628 32748.6 A590.504 590.504 0.0 1 0 56372.2 32376.6" />
<path d="M58871.6 32498.6 A590.504 590.504 0.0 1 0 58128.1 32126.5" />
<path d="M58002.8 32376.6 A196.959 196.959 0.0 0 0 58128.1 32126.5" />
<path d="M58871.6 32498.6 A196.959 196.959 0.0 0 0 58747 32748.6" />
<path d="M58002.8 32376.6 A590.504 590.504 0.0 1 0 58747 32748.6" />
<path d="M48746.9 32126.5 A590.504 590.504 0.0 1 0 48003.4 32498.6" />
<path d="M48128 32748.6 A196.959 196.959 0.0 0 0 48003.4 32498.6" />
<path d="M48746.9 32126.5 A196.959 196.959 0.0 0 0 48872.2 32376.6" />
<path d="M48128 32748.6 A590.504 590.504 0.0 1 0 48872.2 32376.6" />
<path d="M51371.6 32498.6 A590.504 590.504 0.0 1 0 50628.1 32126.5" />
<path d="M50502.8 32376.6 A196.959 196.959 0.0 0 0 50628.1 32126.5" />
<path d="M51371.6 32498.6 A196.959 196.959 0.0 0 0 51247 32748.6" />
<path d="M50502.8 32376.6 A590.504 590.504 0.0 1 0 51247 32748.6" />
<path d="M41246.9 32126.5 A590.504 590.504 0.0 1 0 40503.4 32498.6" />
<path d="M40628 32748.6 A196.959 196.959 0.0 0 0 40503.4 32498.6" />
<path d="M41246.9 32126.5 A196.959 196.959 0.0 0 0 41372.2 32376.6" />
<path d="M40628 32748.6 A590.504 590.504 0.0 1 0 41372.2 32376.6" />
<path d="M43871.6 32498.6 A590.504 590.504 0.0 1 0 43128.1 32126.5" />
<path d="M43002.8 32376.6 A196.959 196.959 0.0 0 0 43128.1 32126.5" />
<path d="M43871.6 32498.6 A196.959 196.959 0.0 0 0 43747 32748.6" />
<path d="M43002.8 32376.6 A590.504 590.504 0.0 1 0 43747 32748.6" />
<path d="M89996.9 24626.5 A590.504 590.504 0.0 1 0 89253.4 24998.6" />
<path d="M89378 25248.6 A196.959 196.959 0.0 0 0 89253.4 24998.6" />
<path d="M89996.9 24626.5 A196.959 196.959 0.0 0 0 90122.2 24876.6" />
<path d="M89378 25248.6 A590.504 590.504 0.0 1 0 90122.2 24876.6" />
<path d="M92621.6 24998.6 A590.504 590.504 0.0 1 0 91878.1 24626.5" />
<path d="M91752.8 24876.6 A196.959 196.959 0.0 0 0 91878.1 24626.5" />
<path d="M92621.6 24998.6 A196.959 196.959 0.0 0 0 92497 25248.6" />
<path d="M91752.8 24876.6 A590.504 590.504 0.0 1 0 92497 25248.6" />
<path d="M78746.9 24626.5 A590.504 590.504 0.0 1 0 78003.4 24998.6" />
<path d="M78128 25248.6 A196.959 196.959 0.0 0 0 78003.4 24998.6" />
<path d="M78746.9 24626.5 A196.959 196.959 0.0 0 0 78872.2 24876.6" />
<path d="M78128 25248.6 A590.504 590.504 0.0 1 0 78872.2 24876.6" />
<path d="M81371.6 24998.6 A590.504 590.504 0.0 1 0 80628.1 24626.5" />
<path d="M80502.8 24876.6 A196.959 196.959 0.0 0 0 80628.1 24626.5" />
<path d="M81371.6 24998.6 A196.959 196.959 0.0 0 0 81247 25248.6" />
<path d="M80502.8 24876.6 A590.504 590.504 0.0 1 0 81247 25248.6" />
<path d="M71246.9 24626.5 A590.504 590.504 0.0 1 0 70503.4 24998.6" />
<path d="M70628 25248.6 A196.959 196.959 0.0 0 0 70503.4 24998.6" />
<path d="M71246.9 24626.5 A196.959 196.959 0.0 0 0 71372.2 24876.6" />
<path d="M70628 25248.6 A590.504 590.504 0.0 1 0 71372.2 24876.6" />
<path d="M73871.6 24998.6 A590.504 590.504 0.0 1 0 73128.1 24626.5" />
<path d="M73002.8 24876.6 A196.959 196.959 0.0 0 0 73128.1 24626.5" />
<path d="M73871.6 24998.6 A196.959 196.959 0.0 0 0 73747 25248.6" />
<path d="M73002.8 24876.6 A590.504 590.504 0.0 1 0 73747 25248.6" />
<path d="M63746.9 24626.5 A590.504 590.504 0.0 1 0 63003.4 24998.6" />
<path d="M63128 25248.6 A196.959 196.959 0.0 0 0 63003.4 24998.6" />
<path d="M63746.9 24626.5 A196.959 196.959 0.0 0 0 63872.2 24876.6" />
<path d="M63128 25248.6 A590.504 590.504 0.0 1 0 63872.2 24876.6" />
<path d="M66371.6 24998.6 A590.504 590.504 0.0 1 0 65628.1 24626.5" />
<path d="M65502.8 24876.6 A196.959 196.959 0.0 0 0 65628.1 24626.5" />
<path d="M66371.6 24998.6 A196.959 196.959 0.0 0 0 66247 25248.6" />
<path d="M65502.8 24876.6 A590.504 590.504 0.0 1 0 66247 25248.6" />
<path d="M56246.9 24626.5 A590.504 590.504 0.0 1 0 55503.4 24998.6" />
<path d="M55628 25248.6 A196.959 196.959 0.0 0 0 55503.4 24998.6" />
<path d="M56246.9 24626.5 A196.959 196.959 0.0 0 0 56372.2 24876.6" />
<path d="M55628 25248.6 A590.504 590.504 0.0 1 0 56372.2 24876.6" />
<path d="M58871.6 24998.6 A590.504 590.504 0.0 1 0 58128.1 24626.5" />
<path d="M58002.8 24876.6 A196.959 196.959 0.0 0 0 58128.1 24626.5" />
<path d="M58871.6 24998.6 A196.959 196.959 0.0 0 0 58747 25248.6" />
<path d="M58002.8 24876.6 A590.504 590.504 0.0 1 0 58747 25248.6" />
<path d="M48746.9 24626.5 A590.504 590.504 0.0 1 0 48003.4 24998.6" />
<path d="M48128 25248.6 A196.959 196.959 0.0 0 0 48003.4 24998.6" />
<path d="M48746.9 24626.5 A196.959 196.959 0.0 0 0 48872.2 24876.6" />
<path d="M48128 25248.6 A590.504 590.504 0.0 1 0 48872.2 24876.6" />
<path d="M51371.6 24998.6 A590.504 590.504 0.0 1 0 50628.1 24626.5" />
<path d="M50502.8 24876.6 A196.959 196.959 0.0 0 0 50628.1 24626.5" />
<path d="M51371.6 24998.6 A196.959 196.959 0.0 0 0 51247 25248.6" />
<path d="M50502.8 24876.6 A590.504 590.504 0.0 1 0 51247 25248.6" />
<path d="M41246.9 24626.5 A590.504 590.504 0.0 1 0 40503.4 24998.6" />
<path d="M40628 25248.6 A196.959 196.959 0.0 0 0 40503.4 24998.6" />
<path d="M41246.9 24626.5 A196.959 196.959 0.0 0 0 41372.2 24876.6" />
<path d="M40628 25248.6 A590.504 590.504 0.0 1 0 41372.2 24876.6" />
<path d="M43871.6 24998.6 A590.504 590.504 0.0 1 0 43128.1 24626.5" />
<path d="M43002.8 24876.6 A196.959 196.959 0.0 0 0 43128.1 24626.5" />
<path d="M43871.6 24998.6 A196.959 196.959 0.0 0 0 43747 25248.6" />
<path d="M43002.8 24876.6 A590.504 590.504 0.0 1 0 43747 25248.6" />
<g >
</g>
<g >
</g>
<g >
</g>
<g >
</g>
<g >
</g>
<g >
</g>
<g >
</g>
<g >
</g>
<g >
</g>
<g >
</g>
<g >
</g>
<g >
</g>
<g >
</g>
<g >
</g>
<g >
</g>
<g >
</g>
<g >
</g>
<g >
</g>
<g >
</g>
<g >
</g>
<g >
</g>
<g >
</g>
<g >
</g>
<g >
</g>
<g >
</g>
<g >
</g>
<g >
</g>
<g >
</g>
<g >
</g>
<g >
</g>
<g >
</g>
<g >
</g>
<g >
</g>
<g >
</g>
<g >
</g>
<g >
</g>
<g >
</g>
<g >
</g>
<g >
</g>
<g >
</g>
<g >
</g>
<g >
</g>
<g >
</g>
<g >
</g>
<g >
</g>
<g >
</g>
<g >
</g>
<g >
</g>
<g >
</g>
<g >
</g>
<g >
</g>
<g >
</g>
<g >
</g>
<g >
</g>
<g >
</g>
<g >
</g>
<g >
</g>
<g >
</g>
<g >
</g>
<g >
</g>
<g >
</g>
<g >
</g>
<g >
</g>
<g >
</g>
<g >
</g>
<g >
</g>
<g >
</g>
<g >
</g>
<g >
</g>
<g >
</g>
<g >
</g>
<g >
</g>
<g >
</g>
<g >
</g>
<g >
</g>
<g >
</g>
<g >
</g>
<g >
</g>
<g >
</g>
<g >
</g>
<g >
</g>
<g >
</g>
<g >
</g>
<g >
</g>
<g >
</g>
<g >
</g>
<g >
</g>
<g >
</g>
<g >
</g>
<g >
</g>
<g >
</g>
<g >
</g>
<g >
</g>
<g >
</g>
<g >
</g>
<g >
</g>
<g >
</g>
<g >
</g>
<g >
</g>
<g >
</g>
<g >
</g>
<g >
</g>
<g >
</g>
<g >
</g>
<g >
</g>
<g >
</g>
<g >
</g>
<g >
</g>
<g >
</g>
<g >
</g>
<g >
</g>
<g >
</g>
<g >
</g>
<g >
</g>
<g >
</g>
<g >
</g>
<g >
</g>
<g >
</g>
<g >
</g>
<g >
</g>
<g >
</g>
<g >
</g>
<g >
</g>
<g >
</g>
<g >
</g>
</g> 
</svg>
