M48
; DRILL file {KiCad (5.1.9-0-10_14)} date Thursday, January 21, 2021 at 02:36:34 PM
; FORMAT={-:-/ absolute / inch / decimal}
; #@! TF.CreationDate,2021-01-21T14:36:34+08:00
; #@! TF.GenerationSoftware,Kicad,Pcbnew,(5.1.9-0-10_14)
; #@! TF.FileFunction,NonPlated,1,2,NPTH
FMAT,2
INCH
T1C0.0256
T2C0.0630
T3C0.0689
T4C0.1570
%
G90
G05
T1
X8.4062Y-2.0323
X8.6338Y-2.0323
T2
X9.8854Y-2.52
X10.1216Y-2.52
T3
X4.0187Y-2.3438
X4.0187Y-3.0938
X4.0187Y-3.8438
X4.0187Y-4.5938
X4.4188Y-2.3438
X4.4188Y-3.0938
X4.4188Y-3.8438
X4.4188Y-4.5938
X4.7687Y-2.3438
X4.7687Y-3.0938
X4.7687Y-3.8438
X4.7687Y-4.5938
X5.1688Y-2.3438
X5.1688Y-3.0938
X5.1688Y-3.8438
X5.1688Y-4.5938
X5.5187Y-2.3438
X5.5187Y-3.0938
X5.5187Y-3.8438
X5.5187Y-4.5938
X5.9188Y-2.3438
X5.9188Y-3.0938
X5.9188Y-3.8438
X5.9188Y-4.5938
X6.2687Y-2.3438
X6.2687Y-3.0938
X6.2687Y-3.8438
X6.2687Y-4.5938
X6.6688Y-2.3438
X6.6688Y-3.0938
X6.6688Y-3.8438
X6.6688Y-4.5938
X7.0187Y-2.3438
X7.0187Y-3.0938
X7.0187Y-3.8438
X7.0187Y-4.5938
X7.4188Y-2.3438
X7.4188Y-3.0938
X7.4188Y-3.8438
X7.4188Y-4.5938
X7.7687Y-2.3438
X7.7687Y-3.0938
X7.7687Y-3.8438
X8.1437Y-4.5938
X8.1687Y-2.3438
X8.1687Y-3.0938
X8.1687Y-3.8438
X8.5437Y-4.5938
X8.8937Y-2.3438
X8.8937Y-3.0938
X9.2937Y-2.3438
X9.2937Y-3.0938
T4
X4.2188Y-2.3438
X4.2188Y-3.0938
X4.2188Y-3.8438
X4.2188Y-4.5938
X4.9688Y-2.3438
X4.9688Y-3.0938
X4.9688Y-3.8438
X4.9688Y-4.5938
X5.7188Y-2.3438
X5.7188Y-3.0938
X5.7188Y-3.8438
X5.7188Y-4.5938
X6.4688Y-2.3438
X6.4688Y-3.0938
X6.4688Y-3.8438
X6.4688Y-4.5938
X7.2188Y-2.3438
X7.2188Y-3.0938
X7.2188Y-3.8438
X7.2188Y-4.5938
X7.9688Y-2.3438
X7.9688Y-3.0938
X7.9688Y-3.8438
X8.3438Y-4.5938
X9.0938Y-2.3438
X9.0938Y-3.0938
T0
M30
