%TF.GenerationSoftware,KiCad,Pcbnew,(5.1.9-0-10_14)*%
%TF.CreationDate,2021-01-21T14:35:15+08:00*%
%TF.ProjectId,kb-split,6b622d73-706c-4697-942e-6b696361645f,rev?*%
%TF.SameCoordinates,Original*%
%TF.FileFunction,Legend,Top*%
%TF.FilePolarity,Positive*%
%FSLAX46Y46*%
G04 Gerber Fmt 4.6, Leading zero omitted, Abs format (unit mm)*
G04 Created by KiCad (PCBNEW (5.1.9-0-10_14)) date 2021-01-21 14:35:15*
%MOMM*%
%LPD*%
G01*
G04 APERTURE LIST*
%ADD10C,0.150000*%
%ADD11C,0.160000*%
%ADD12C,0.120000*%
%ADD13C,0.152400*%
G04 APERTURE END LIST*
D10*
X241221238Y-50998380D02*
X241221238Y-50331714D01*
X241221238Y-49998380D02*
X241173619Y-50046000D01*
X241221238Y-50093619D01*
X241268857Y-50046000D01*
X241221238Y-49998380D01*
X241221238Y-50093619D01*
X241697428Y-50331714D02*
X241697428Y-50998380D01*
X241697428Y-50426952D02*
X241745047Y-50379333D01*
X241840285Y-50331714D01*
X241983142Y-50331714D01*
X242078380Y-50379333D01*
X242126000Y-50474571D01*
X242126000Y-50998380D01*
X242459333Y-50331714D02*
X242840285Y-50331714D01*
X242602190Y-49998380D02*
X242602190Y-50855523D01*
X242649809Y-50950761D01*
X242745047Y-50998380D01*
X242840285Y-50998380D01*
X243316476Y-50998380D02*
X243221238Y-50950761D01*
X243173619Y-50903142D01*
X243126000Y-50807904D01*
X243126000Y-50522190D01*
X243173619Y-50426952D01*
X243221238Y-50379333D01*
X243316476Y-50331714D01*
X243459333Y-50331714D01*
X243554571Y-50379333D01*
X243602190Y-50426952D01*
X243649809Y-50522190D01*
X243649809Y-50807904D01*
X243602190Y-50903142D01*
X243554571Y-50950761D01*
X243459333Y-50998380D01*
X243316476Y-50998380D01*
X244030761Y-50950761D02*
X244126000Y-50998380D01*
X244316476Y-50998380D01*
X244411714Y-50950761D01*
X244459333Y-50855523D01*
X244459333Y-50807904D01*
X244411714Y-50712666D01*
X244316476Y-50665047D01*
X244173619Y-50665047D01*
X244078380Y-50617428D01*
X244030761Y-50522190D01*
X244030761Y-50474571D01*
X244078380Y-50379333D01*
X244173619Y-50331714D01*
X244316476Y-50331714D01*
X244411714Y-50379333D01*
X244887904Y-50998380D02*
X244887904Y-50331714D01*
X244887904Y-49998380D02*
X244840285Y-50046000D01*
X244887904Y-50093619D01*
X244935523Y-50046000D01*
X244887904Y-49998380D01*
X244887904Y-50093619D01*
X245221238Y-50331714D02*
X245602190Y-50331714D01*
X245364095Y-49998380D02*
X245364095Y-50855523D01*
X245411714Y-50950761D01*
X245506952Y-50998380D01*
X245602190Y-50998380D01*
X246316476Y-50950761D02*
X246221238Y-50998380D01*
X246030761Y-50998380D01*
X245935523Y-50950761D01*
X245887904Y-50855523D01*
X245887904Y-50474571D01*
X245935523Y-50379333D01*
X246030761Y-50331714D01*
X246221238Y-50331714D01*
X246316476Y-50379333D01*
X246364095Y-50474571D01*
X246364095Y-50569809D01*
X245887904Y-50665047D01*
X247554571Y-50998380D02*
X247554571Y-50331714D01*
X247554571Y-50522190D02*
X247602190Y-50426952D01*
X247649809Y-50379333D01*
X247745047Y-50331714D01*
X247840285Y-50331714D01*
X248554571Y-50950761D02*
X248459333Y-50998380D01*
X248268857Y-50998380D01*
X248173619Y-50950761D01*
X248126000Y-50855523D01*
X248126000Y-50474571D01*
X248173619Y-50379333D01*
X248268857Y-50331714D01*
X248459333Y-50331714D01*
X248554571Y-50379333D01*
X248602190Y-50474571D01*
X248602190Y-50569809D01*
X248126000Y-50665047D01*
X248935523Y-50331714D02*
X249173619Y-50998380D01*
X249411714Y-50331714D01*
X251078380Y-50998380D02*
X250506952Y-50998380D01*
X250792666Y-50998380D02*
X250792666Y-49998380D01*
X250697428Y-50141238D01*
X250602190Y-50236476D01*
X250506952Y-50284095D01*
D11*
%TO.C,J3*%
X262255000Y-61341000D02*
X262255000Y-66675000D01*
X259715000Y-61341000D02*
X262255000Y-61341000D01*
X259715000Y-60833000D02*
X259715000Y-61341000D01*
X258699000Y-60833000D02*
X259715000Y-60833000D01*
X255524000Y-60833000D02*
X256921000Y-60833000D01*
X251968000Y-60833000D02*
X253746000Y-60833000D01*
X247904000Y-60833000D02*
X250190000Y-60833000D01*
X247904000Y-67183000D02*
X247904000Y-60833000D01*
X250190000Y-67183000D02*
X247904000Y-67183000D01*
X253746000Y-67183000D02*
X251968000Y-67183000D01*
X256921000Y-67183000D02*
X255524000Y-67183000D01*
X259715000Y-67183000D02*
X258699000Y-67183000D01*
X259715000Y-66675000D02*
X259715000Y-67183000D01*
X262255000Y-66675000D02*
X259715000Y-66675000D01*
D12*
%TO.C,Y1*%
X248698000Y-86232000D02*
X252698000Y-86232000D01*
X248698000Y-82932000D02*
X248698000Y-86232000D01*
D10*
%TO.C,U2*%
X245590000Y-103981000D02*
X245590000Y-105256000D01*
X245015000Y-93631000D02*
X245015000Y-94306000D01*
X255365000Y-93631000D02*
X255365000Y-94306000D01*
X255365000Y-103981000D02*
X255365000Y-103306000D01*
X245015000Y-103981000D02*
X245015000Y-103306000D01*
X255365000Y-103981000D02*
X254690000Y-103981000D01*
X255365000Y-93631000D02*
X254690000Y-93631000D01*
X245015000Y-93631000D02*
X245690000Y-93631000D01*
X245015000Y-103981000D02*
X245590000Y-103981000D01*
D11*
%TO.C,R1*%
X214869000Y-49288750D02*
X214751500Y-50088750D01*
X214751500Y-50088750D02*
X214615000Y-49288750D01*
X214615000Y-49288750D02*
X214488000Y-50088750D01*
X214488000Y-50088750D02*
X214351500Y-49288750D01*
X214351500Y-49288750D02*
X214234000Y-50088750D01*
%TO.C,LED25*%
G36*
X232029000Y-101854000D02*
G01*
X232029000Y-101219000D01*
X232664000Y-101219000D01*
X232029000Y-101854000D01*
G37*
X232029000Y-101854000D02*
X232029000Y-101219000D01*
X232664000Y-101219000D01*
X232029000Y-101854000D01*
%TO.C,D27*%
X211582000Y-124968000D02*
X210718400Y-124968000D01*
X212217000Y-125374400D02*
X212217000Y-124561600D01*
X211582000Y-124587000D02*
X212217000Y-124968000D01*
X211582000Y-125349000D02*
X211582000Y-124587000D01*
X212217000Y-124968000D02*
X211582000Y-125349000D01*
X212877400Y-124968000D02*
X212217000Y-124968000D01*
G36*
X211582000Y-124587000D02*
G01*
X212217000Y-124968000D01*
X211582000Y-125349000D01*
X211582000Y-124587000D01*
G37*
X211582000Y-124587000D02*
X212217000Y-124968000D01*
X211582000Y-125349000D01*
X211582000Y-124587000D01*
X214071200Y-125704600D02*
X212902800Y-125704600D01*
X212902800Y-125704600D02*
X212902800Y-124231400D01*
X212902800Y-124231400D02*
X214071200Y-124231400D01*
X214071200Y-124231400D02*
X214071200Y-125704600D01*
%TO.C,D26*%
X183134000Y-124968000D02*
X182270400Y-124968000D01*
X183769000Y-125374400D02*
X183769000Y-124561600D01*
X183134000Y-124587000D02*
X183769000Y-124968000D01*
X183134000Y-125349000D02*
X183134000Y-124587000D01*
X183769000Y-124968000D02*
X183134000Y-125349000D01*
X184429400Y-124968000D02*
X183769000Y-124968000D01*
G36*
X183134000Y-124587000D02*
G01*
X183769000Y-124968000D01*
X183134000Y-125349000D01*
X183134000Y-124587000D01*
G37*
X183134000Y-124587000D02*
X183769000Y-124968000D01*
X183134000Y-125349000D01*
X183134000Y-124587000D01*
X185623200Y-125704600D02*
X184454800Y-125704600D01*
X184454800Y-125704600D02*
X184454800Y-124231400D01*
X184454800Y-124231400D02*
X185623200Y-124231400D01*
X185623200Y-124231400D02*
X185623200Y-125704600D01*
%TO.C,D25*%
X164338000Y-124968000D02*
X163474400Y-124968000D01*
X164973000Y-125374400D02*
X164973000Y-124561600D01*
X164338000Y-124587000D02*
X164973000Y-124968000D01*
X164338000Y-125349000D02*
X164338000Y-124587000D01*
X164973000Y-124968000D02*
X164338000Y-125349000D01*
X165633400Y-124968000D02*
X164973000Y-124968000D01*
G36*
X164338000Y-124587000D02*
G01*
X164973000Y-124968000D01*
X164338000Y-125349000D01*
X164338000Y-124587000D01*
G37*
X164338000Y-124587000D02*
X164973000Y-124968000D01*
X164338000Y-125349000D01*
X164338000Y-124587000D01*
X166827200Y-125704600D02*
X165658800Y-125704600D01*
X165658800Y-125704600D02*
X165658800Y-124231400D01*
X165658800Y-124231400D02*
X166827200Y-124231400D01*
X166827200Y-124231400D02*
X166827200Y-125704600D01*
%TO.C,D24*%
X145034000Y-124968000D02*
X144170400Y-124968000D01*
X145669000Y-125374400D02*
X145669000Y-124561600D01*
X145034000Y-124587000D02*
X145669000Y-124968000D01*
X145034000Y-125349000D02*
X145034000Y-124587000D01*
X145669000Y-124968000D02*
X145034000Y-125349000D01*
X146329400Y-124968000D02*
X145669000Y-124968000D01*
G36*
X145034000Y-124587000D02*
G01*
X145669000Y-124968000D01*
X145034000Y-125349000D01*
X145034000Y-124587000D01*
G37*
X145034000Y-124587000D02*
X145669000Y-124968000D01*
X145034000Y-125349000D01*
X145034000Y-124587000D01*
X147523200Y-125704600D02*
X146354800Y-125704600D01*
X146354800Y-125704600D02*
X146354800Y-124231400D01*
X146354800Y-124231400D02*
X147523200Y-124231400D01*
X147523200Y-124231400D02*
X147523200Y-125704600D01*
%TO.C,D23*%
X125730000Y-124968000D02*
X124866400Y-124968000D01*
X126365000Y-125374400D02*
X126365000Y-124561600D01*
X125730000Y-124587000D02*
X126365000Y-124968000D01*
X125730000Y-125349000D02*
X125730000Y-124587000D01*
X126365000Y-124968000D02*
X125730000Y-125349000D01*
X127025400Y-124968000D02*
X126365000Y-124968000D01*
G36*
X125730000Y-124587000D02*
G01*
X126365000Y-124968000D01*
X125730000Y-125349000D01*
X125730000Y-124587000D01*
G37*
X125730000Y-124587000D02*
X126365000Y-124968000D01*
X125730000Y-125349000D01*
X125730000Y-124587000D01*
X128219200Y-125704600D02*
X127050800Y-125704600D01*
X127050800Y-125704600D02*
X127050800Y-124231400D01*
X127050800Y-124231400D02*
X128219200Y-124231400D01*
X128219200Y-124231400D02*
X128219200Y-125704600D01*
%TO.C,D22*%
X106934000Y-124968000D02*
X106070400Y-124968000D01*
X107569000Y-125374400D02*
X107569000Y-124561600D01*
X106934000Y-124587000D02*
X107569000Y-124968000D01*
X106934000Y-125349000D02*
X106934000Y-124587000D01*
X107569000Y-124968000D02*
X106934000Y-125349000D01*
X108229400Y-124968000D02*
X107569000Y-124968000D01*
G36*
X106934000Y-124587000D02*
G01*
X107569000Y-124968000D01*
X106934000Y-125349000D01*
X106934000Y-124587000D01*
G37*
X106934000Y-124587000D02*
X107569000Y-124968000D01*
X106934000Y-125349000D01*
X106934000Y-124587000D01*
X109423200Y-125704600D02*
X108254800Y-125704600D01*
X108254800Y-125704600D02*
X108254800Y-124231400D01*
X108254800Y-124231400D02*
X109423200Y-124231400D01*
X109423200Y-124231400D02*
X109423200Y-125704600D01*
%TO.C,D21*%
X214122000Y-88900000D02*
X214985600Y-88900000D01*
X213487000Y-88493600D02*
X213487000Y-89306400D01*
X214122000Y-89281000D02*
X213487000Y-88900000D01*
X214122000Y-88519000D02*
X214122000Y-89281000D01*
X213487000Y-88900000D02*
X214122000Y-88519000D01*
X212826600Y-88900000D02*
X213487000Y-88900000D01*
G36*
X214122000Y-89281000D02*
G01*
X213487000Y-88900000D01*
X214122000Y-88519000D01*
X214122000Y-89281000D01*
G37*
X214122000Y-89281000D02*
X213487000Y-88900000D01*
X214122000Y-88519000D01*
X214122000Y-89281000D01*
X211632800Y-88163400D02*
X212801200Y-88163400D01*
X212801200Y-88163400D02*
X212801200Y-89636600D01*
X212801200Y-89636600D02*
X211632800Y-89636600D01*
X211632800Y-89636600D02*
X211632800Y-88163400D01*
%TO.C,D20*%
X194818000Y-108204000D02*
X193954400Y-108204000D01*
X195453000Y-108610400D02*
X195453000Y-107797600D01*
X194818000Y-107823000D02*
X195453000Y-108204000D01*
X194818000Y-108585000D02*
X194818000Y-107823000D01*
X195453000Y-108204000D02*
X194818000Y-108585000D01*
X196113400Y-108204000D02*
X195453000Y-108204000D01*
G36*
X194818000Y-107823000D02*
G01*
X195453000Y-108204000D01*
X194818000Y-108585000D01*
X194818000Y-107823000D01*
G37*
X194818000Y-107823000D02*
X195453000Y-108204000D01*
X194818000Y-108585000D01*
X194818000Y-107823000D01*
X197307200Y-108940600D02*
X196138800Y-108940600D01*
X196138800Y-108940600D02*
X196138800Y-107467400D01*
X196138800Y-107467400D02*
X197307200Y-107467400D01*
X197307200Y-107467400D02*
X197307200Y-108940600D01*
%TO.C,D19*%
X183134000Y-106172000D02*
X182270400Y-106172000D01*
X183769000Y-106578400D02*
X183769000Y-105765600D01*
X183134000Y-105791000D02*
X183769000Y-106172000D01*
X183134000Y-106553000D02*
X183134000Y-105791000D01*
X183769000Y-106172000D02*
X183134000Y-106553000D01*
X184429400Y-106172000D02*
X183769000Y-106172000D01*
G36*
X183134000Y-105791000D02*
G01*
X183769000Y-106172000D01*
X183134000Y-106553000D01*
X183134000Y-105791000D01*
G37*
X183134000Y-105791000D02*
X183769000Y-106172000D01*
X183134000Y-106553000D01*
X183134000Y-105791000D01*
X185623200Y-106908600D02*
X184454800Y-106908600D01*
X184454800Y-106908600D02*
X184454800Y-105435400D01*
X184454800Y-105435400D02*
X185623200Y-105435400D01*
X185623200Y-105435400D02*
X185623200Y-106908600D01*
%TO.C,D18*%
X167386000Y-106680000D02*
X166522400Y-106680000D01*
X168021000Y-107086400D02*
X168021000Y-106273600D01*
X167386000Y-106299000D02*
X168021000Y-106680000D01*
X167386000Y-107061000D02*
X167386000Y-106299000D01*
X168021000Y-106680000D02*
X167386000Y-107061000D01*
X168681400Y-106680000D02*
X168021000Y-106680000D01*
G36*
X167386000Y-106299000D02*
G01*
X168021000Y-106680000D01*
X167386000Y-107061000D01*
X167386000Y-106299000D01*
G37*
X167386000Y-106299000D02*
X168021000Y-106680000D01*
X167386000Y-107061000D01*
X167386000Y-106299000D01*
X169875200Y-107416600D02*
X168706800Y-107416600D01*
X168706800Y-107416600D02*
X168706800Y-105943400D01*
X168706800Y-105943400D02*
X169875200Y-105943400D01*
X169875200Y-105943400D02*
X169875200Y-107416600D01*
%TO.C,D17*%
X145034000Y-106172000D02*
X144170400Y-106172000D01*
X145669000Y-106578400D02*
X145669000Y-105765600D01*
X145034000Y-105791000D02*
X145669000Y-106172000D01*
X145034000Y-106553000D02*
X145034000Y-105791000D01*
X145669000Y-106172000D02*
X145034000Y-106553000D01*
X146329400Y-106172000D02*
X145669000Y-106172000D01*
G36*
X145034000Y-105791000D02*
G01*
X145669000Y-106172000D01*
X145034000Y-106553000D01*
X145034000Y-105791000D01*
G37*
X145034000Y-105791000D02*
X145669000Y-106172000D01*
X145034000Y-106553000D01*
X145034000Y-105791000D01*
X147523200Y-106908600D02*
X146354800Y-106908600D01*
X146354800Y-106908600D02*
X146354800Y-105435400D01*
X146354800Y-105435400D02*
X147523200Y-105435400D01*
X147523200Y-105435400D02*
X147523200Y-106908600D01*
%TO.C,D16*%
X125730000Y-106172000D02*
X124866400Y-106172000D01*
X126365000Y-106578400D02*
X126365000Y-105765600D01*
X125730000Y-105791000D02*
X126365000Y-106172000D01*
X125730000Y-106553000D02*
X125730000Y-105791000D01*
X126365000Y-106172000D02*
X125730000Y-106553000D01*
X127025400Y-106172000D02*
X126365000Y-106172000D01*
G36*
X125730000Y-105791000D02*
G01*
X126365000Y-106172000D01*
X125730000Y-106553000D01*
X125730000Y-105791000D01*
G37*
X125730000Y-105791000D02*
X126365000Y-106172000D01*
X125730000Y-106553000D01*
X125730000Y-105791000D01*
X128219200Y-106908600D02*
X127050800Y-106908600D01*
X127050800Y-106908600D02*
X127050800Y-105435400D01*
X127050800Y-105435400D02*
X128219200Y-105435400D01*
X128219200Y-105435400D02*
X128219200Y-106908600D01*
%TO.C,D15*%
X106934000Y-106172000D02*
X106070400Y-106172000D01*
X107569000Y-106578400D02*
X107569000Y-105765600D01*
X106934000Y-105791000D02*
X107569000Y-106172000D01*
X106934000Y-106553000D02*
X106934000Y-105791000D01*
X107569000Y-106172000D02*
X106934000Y-106553000D01*
X108229400Y-106172000D02*
X107569000Y-106172000D01*
G36*
X106934000Y-105791000D02*
G01*
X107569000Y-106172000D01*
X106934000Y-106553000D01*
X106934000Y-105791000D01*
G37*
X106934000Y-105791000D02*
X107569000Y-106172000D01*
X106934000Y-106553000D01*
X106934000Y-105791000D01*
X109423200Y-106908600D02*
X108254800Y-106908600D01*
X108254800Y-106908600D02*
X108254800Y-105435400D01*
X108254800Y-105435400D02*
X109423200Y-105435400D01*
X109423200Y-105435400D02*
X109423200Y-106908600D01*
%TO.C,D14*%
X230886000Y-86868000D02*
X230022400Y-86868000D01*
X231521000Y-87274400D02*
X231521000Y-86461600D01*
X230886000Y-86487000D02*
X231521000Y-86868000D01*
X230886000Y-87249000D02*
X230886000Y-86487000D01*
X231521000Y-86868000D02*
X230886000Y-87249000D01*
X232181400Y-86868000D02*
X231521000Y-86868000D01*
G36*
X230886000Y-86487000D02*
G01*
X231521000Y-86868000D01*
X230886000Y-87249000D01*
X230886000Y-86487000D01*
G37*
X230886000Y-86487000D02*
X231521000Y-86868000D01*
X230886000Y-87249000D01*
X230886000Y-86487000D01*
X233375200Y-87604600D02*
X232206800Y-87604600D01*
X232206800Y-87604600D02*
X232206800Y-86131400D01*
X232206800Y-86131400D02*
X233375200Y-86131400D01*
X233375200Y-86131400D02*
X233375200Y-87604600D01*
%TO.C,D13*%
X202438000Y-86868000D02*
X201574400Y-86868000D01*
X203073000Y-87274400D02*
X203073000Y-86461600D01*
X202438000Y-86487000D02*
X203073000Y-86868000D01*
X202438000Y-87249000D02*
X202438000Y-86487000D01*
X203073000Y-86868000D02*
X202438000Y-87249000D01*
X203733400Y-86868000D02*
X203073000Y-86868000D01*
G36*
X202438000Y-86487000D02*
G01*
X203073000Y-86868000D01*
X202438000Y-87249000D01*
X202438000Y-86487000D01*
G37*
X202438000Y-86487000D02*
X203073000Y-86868000D01*
X202438000Y-87249000D01*
X202438000Y-86487000D01*
X204927200Y-87604600D02*
X203758800Y-87604600D01*
X203758800Y-87604600D02*
X203758800Y-86131400D01*
X203758800Y-86131400D02*
X204927200Y-86131400D01*
X204927200Y-86131400D02*
X204927200Y-87604600D01*
%TO.C,D12*%
X183134000Y-86868000D02*
X182270400Y-86868000D01*
X183769000Y-87274400D02*
X183769000Y-86461600D01*
X183134000Y-86487000D02*
X183769000Y-86868000D01*
X183134000Y-87249000D02*
X183134000Y-86487000D01*
X183769000Y-86868000D02*
X183134000Y-87249000D01*
X184429400Y-86868000D02*
X183769000Y-86868000D01*
G36*
X183134000Y-86487000D02*
G01*
X183769000Y-86868000D01*
X183134000Y-87249000D01*
X183134000Y-86487000D01*
G37*
X183134000Y-86487000D02*
X183769000Y-86868000D01*
X183134000Y-87249000D01*
X183134000Y-86487000D01*
X185623200Y-87604600D02*
X184454800Y-87604600D01*
X184454800Y-87604600D02*
X184454800Y-86131400D01*
X184454800Y-86131400D02*
X185623200Y-86131400D01*
X185623200Y-86131400D02*
X185623200Y-87604600D01*
%TO.C,D11*%
X163830000Y-86868000D02*
X162966400Y-86868000D01*
X164465000Y-87274400D02*
X164465000Y-86461600D01*
X163830000Y-86487000D02*
X164465000Y-86868000D01*
X163830000Y-87249000D02*
X163830000Y-86487000D01*
X164465000Y-86868000D02*
X163830000Y-87249000D01*
X165125400Y-86868000D02*
X164465000Y-86868000D01*
G36*
X163830000Y-86487000D02*
G01*
X164465000Y-86868000D01*
X163830000Y-87249000D01*
X163830000Y-86487000D01*
G37*
X163830000Y-86487000D02*
X164465000Y-86868000D01*
X163830000Y-87249000D01*
X163830000Y-86487000D01*
X166319200Y-87604600D02*
X165150800Y-87604600D01*
X165150800Y-87604600D02*
X165150800Y-86131400D01*
X165150800Y-86131400D02*
X166319200Y-86131400D01*
X166319200Y-86131400D02*
X166319200Y-87604600D01*
%TO.C,D10*%
X145034000Y-86868000D02*
X144170400Y-86868000D01*
X145669000Y-87274400D02*
X145669000Y-86461600D01*
X145034000Y-86487000D02*
X145669000Y-86868000D01*
X145034000Y-87249000D02*
X145034000Y-86487000D01*
X145669000Y-86868000D02*
X145034000Y-87249000D01*
X146329400Y-86868000D02*
X145669000Y-86868000D01*
G36*
X145034000Y-86487000D02*
G01*
X145669000Y-86868000D01*
X145034000Y-87249000D01*
X145034000Y-86487000D01*
G37*
X145034000Y-86487000D02*
X145669000Y-86868000D01*
X145034000Y-87249000D01*
X145034000Y-86487000D01*
X147523200Y-87604600D02*
X146354800Y-87604600D01*
X146354800Y-87604600D02*
X146354800Y-86131400D01*
X146354800Y-86131400D02*
X147523200Y-86131400D01*
X147523200Y-86131400D02*
X147523200Y-87604600D01*
%TO.C,D9*%
X125730000Y-86868000D02*
X124866400Y-86868000D01*
X126365000Y-87274400D02*
X126365000Y-86461600D01*
X125730000Y-86487000D02*
X126365000Y-86868000D01*
X125730000Y-87249000D02*
X125730000Y-86487000D01*
X126365000Y-86868000D02*
X125730000Y-87249000D01*
X127025400Y-86868000D02*
X126365000Y-86868000D01*
G36*
X125730000Y-86487000D02*
G01*
X126365000Y-86868000D01*
X125730000Y-87249000D01*
X125730000Y-86487000D01*
G37*
X125730000Y-86487000D02*
X126365000Y-86868000D01*
X125730000Y-87249000D01*
X125730000Y-86487000D01*
X128219200Y-87604600D02*
X127050800Y-87604600D01*
X127050800Y-87604600D02*
X127050800Y-86131400D01*
X127050800Y-86131400D02*
X128219200Y-86131400D01*
X128219200Y-86131400D02*
X128219200Y-87604600D01*
%TO.C,D8*%
X106934000Y-86868000D02*
X106070400Y-86868000D01*
X107569000Y-87274400D02*
X107569000Y-86461600D01*
X106934000Y-86487000D02*
X107569000Y-86868000D01*
X106934000Y-87249000D02*
X106934000Y-86487000D01*
X107569000Y-86868000D02*
X106934000Y-87249000D01*
X108229400Y-86868000D02*
X107569000Y-86868000D01*
G36*
X106934000Y-86487000D02*
G01*
X107569000Y-86868000D01*
X106934000Y-87249000D01*
X106934000Y-86487000D01*
G37*
X106934000Y-86487000D02*
X107569000Y-86868000D01*
X106934000Y-87249000D01*
X106934000Y-86487000D01*
X109423200Y-87604600D02*
X108254800Y-87604600D01*
X108254800Y-87604600D02*
X108254800Y-86131400D01*
X108254800Y-86131400D02*
X109423200Y-86131400D01*
X109423200Y-86131400D02*
X109423200Y-87604600D01*
%TO.C,D7*%
X230886000Y-68072000D02*
X230022400Y-68072000D01*
X231521000Y-68478400D02*
X231521000Y-67665600D01*
X230886000Y-67691000D02*
X231521000Y-68072000D01*
X230886000Y-68453000D02*
X230886000Y-67691000D01*
X231521000Y-68072000D02*
X230886000Y-68453000D01*
X232181400Y-68072000D02*
X231521000Y-68072000D01*
G36*
X230886000Y-67691000D02*
G01*
X231521000Y-68072000D01*
X230886000Y-68453000D01*
X230886000Y-67691000D01*
G37*
X230886000Y-67691000D02*
X231521000Y-68072000D01*
X230886000Y-68453000D01*
X230886000Y-67691000D01*
X233375200Y-68808600D02*
X232206800Y-68808600D01*
X232206800Y-68808600D02*
X232206800Y-67335400D01*
X232206800Y-67335400D02*
X233375200Y-67335400D01*
X233375200Y-67335400D02*
X233375200Y-68808600D01*
%TO.C,D6*%
X201930000Y-68072000D02*
X201066400Y-68072000D01*
X202565000Y-68478400D02*
X202565000Y-67665600D01*
X201930000Y-67691000D02*
X202565000Y-68072000D01*
X201930000Y-68453000D02*
X201930000Y-67691000D01*
X202565000Y-68072000D02*
X201930000Y-68453000D01*
X203225400Y-68072000D02*
X202565000Y-68072000D01*
G36*
X201930000Y-67691000D02*
G01*
X202565000Y-68072000D01*
X201930000Y-68453000D01*
X201930000Y-67691000D01*
G37*
X201930000Y-67691000D02*
X202565000Y-68072000D01*
X201930000Y-68453000D01*
X201930000Y-67691000D01*
X204419200Y-68808600D02*
X203250800Y-68808600D01*
X203250800Y-68808600D02*
X203250800Y-67335400D01*
X203250800Y-67335400D02*
X204419200Y-67335400D01*
X204419200Y-67335400D02*
X204419200Y-68808600D01*
%TO.C,D5*%
X183134000Y-68072000D02*
X182270400Y-68072000D01*
X183769000Y-68478400D02*
X183769000Y-67665600D01*
X183134000Y-67691000D02*
X183769000Y-68072000D01*
X183134000Y-68453000D02*
X183134000Y-67691000D01*
X183769000Y-68072000D02*
X183134000Y-68453000D01*
X184429400Y-68072000D02*
X183769000Y-68072000D01*
G36*
X183134000Y-67691000D02*
G01*
X183769000Y-68072000D01*
X183134000Y-68453000D01*
X183134000Y-67691000D01*
G37*
X183134000Y-67691000D02*
X183769000Y-68072000D01*
X183134000Y-68453000D01*
X183134000Y-67691000D01*
X185623200Y-68808600D02*
X184454800Y-68808600D01*
X184454800Y-68808600D02*
X184454800Y-67335400D01*
X184454800Y-67335400D02*
X185623200Y-67335400D01*
X185623200Y-67335400D02*
X185623200Y-68808600D01*
%TO.C,D4*%
X163830000Y-68072000D02*
X162966400Y-68072000D01*
X164465000Y-68478400D02*
X164465000Y-67665600D01*
X163830000Y-67691000D02*
X164465000Y-68072000D01*
X163830000Y-68453000D02*
X163830000Y-67691000D01*
X164465000Y-68072000D02*
X163830000Y-68453000D01*
X165125400Y-68072000D02*
X164465000Y-68072000D01*
G36*
X163830000Y-67691000D02*
G01*
X164465000Y-68072000D01*
X163830000Y-68453000D01*
X163830000Y-67691000D01*
G37*
X163830000Y-67691000D02*
X164465000Y-68072000D01*
X163830000Y-68453000D01*
X163830000Y-67691000D01*
X166319200Y-68808600D02*
X165150800Y-68808600D01*
X165150800Y-68808600D02*
X165150800Y-67335400D01*
X165150800Y-67335400D02*
X166319200Y-67335400D01*
X166319200Y-67335400D02*
X166319200Y-68808600D01*
%TO.C,D3*%
X145034000Y-68072000D02*
X144170400Y-68072000D01*
X145669000Y-68478400D02*
X145669000Y-67665600D01*
X145034000Y-67691000D02*
X145669000Y-68072000D01*
X145034000Y-68453000D02*
X145034000Y-67691000D01*
X145669000Y-68072000D02*
X145034000Y-68453000D01*
X146329400Y-68072000D02*
X145669000Y-68072000D01*
G36*
X145034000Y-67691000D02*
G01*
X145669000Y-68072000D01*
X145034000Y-68453000D01*
X145034000Y-67691000D01*
G37*
X145034000Y-67691000D02*
X145669000Y-68072000D01*
X145034000Y-68453000D01*
X145034000Y-67691000D01*
X147523200Y-68808600D02*
X146354800Y-68808600D01*
X146354800Y-68808600D02*
X146354800Y-67335400D01*
X146354800Y-67335400D02*
X147523200Y-67335400D01*
X147523200Y-67335400D02*
X147523200Y-68808600D01*
%TO.C,D2*%
X126238000Y-68072000D02*
X125374400Y-68072000D01*
X126873000Y-68478400D02*
X126873000Y-67665600D01*
X126238000Y-67691000D02*
X126873000Y-68072000D01*
X126238000Y-68453000D02*
X126238000Y-67691000D01*
X126873000Y-68072000D02*
X126238000Y-68453000D01*
X127533400Y-68072000D02*
X126873000Y-68072000D01*
G36*
X126238000Y-67691000D02*
G01*
X126873000Y-68072000D01*
X126238000Y-68453000D01*
X126238000Y-67691000D01*
G37*
X126238000Y-67691000D02*
X126873000Y-68072000D01*
X126238000Y-68453000D01*
X126238000Y-67691000D01*
X128727200Y-68808600D02*
X127558800Y-68808600D01*
X127558800Y-68808600D02*
X127558800Y-67335400D01*
X127558800Y-67335400D02*
X128727200Y-67335400D01*
X128727200Y-67335400D02*
X128727200Y-68808600D01*
%TO.C,D1*%
X106934000Y-68072000D02*
X106070400Y-68072000D01*
X107569000Y-68478400D02*
X107569000Y-67665600D01*
X106934000Y-67691000D02*
X107569000Y-68072000D01*
X106934000Y-68453000D02*
X106934000Y-67691000D01*
X107569000Y-68072000D02*
X106934000Y-68453000D01*
X108229400Y-68072000D02*
X107569000Y-68072000D01*
G36*
X106934000Y-67691000D02*
G01*
X107569000Y-68072000D01*
X106934000Y-68453000D01*
X106934000Y-67691000D01*
G37*
X106934000Y-67691000D02*
X107569000Y-68072000D01*
X106934000Y-68453000D01*
X106934000Y-67691000D01*
X109423200Y-68808600D02*
X108254800Y-68808600D01*
X108254800Y-68808600D02*
X108254800Y-67335400D01*
X108254800Y-67335400D02*
X109423200Y-67335400D01*
X109423200Y-67335400D02*
X109423200Y-68808600D01*
%TO.C,LED31*%
G36*
X216249250Y-111220250D02*
G01*
X215614250Y-111220250D01*
X215614250Y-110585250D01*
X216249250Y-111220250D01*
G37*
X216249250Y-111220250D02*
X215614250Y-111220250D01*
X215614250Y-110585250D01*
X216249250Y-111220250D01*
%TO.C,LED30*%
G36*
X187674250Y-111220250D02*
G01*
X187039250Y-111220250D01*
X187039250Y-110585250D01*
X187674250Y-111220250D01*
G37*
X187674250Y-111220250D02*
X187039250Y-111220250D01*
X187039250Y-110585250D01*
X187674250Y-111220250D01*
%TO.C,LED29*%
G36*
X168624250Y-111220250D02*
G01*
X167989250Y-111220250D01*
X167989250Y-110585250D01*
X168624250Y-111220250D01*
G37*
X168624250Y-111220250D02*
X167989250Y-111220250D01*
X167989250Y-110585250D01*
X168624250Y-111220250D01*
%TO.C,LED28*%
G36*
X149574250Y-111220250D02*
G01*
X148939250Y-111220250D01*
X148939250Y-110585250D01*
X149574250Y-111220250D01*
G37*
X149574250Y-111220250D02*
X148939250Y-111220250D01*
X148939250Y-110585250D01*
X149574250Y-111220250D01*
%TO.C,LED27*%
G36*
X130524250Y-111220250D02*
G01*
X129889250Y-111220250D01*
X129889250Y-110585250D01*
X130524250Y-111220250D01*
G37*
X130524250Y-111220250D02*
X129889250Y-111220250D01*
X129889250Y-110585250D01*
X130524250Y-111220250D01*
%TO.C,LED26*%
G36*
X111474250Y-111220250D02*
G01*
X110839250Y-111220250D01*
X110839250Y-110585250D01*
X111474250Y-111220250D01*
G37*
X111474250Y-111220250D02*
X110839250Y-111220250D01*
X110839250Y-110585250D01*
X111474250Y-111220250D01*
%TO.C,LED24*%
G36*
X198723250Y-93567250D02*
G01*
X198723250Y-92932250D01*
X198088250Y-92932250D01*
X198723250Y-93567250D01*
G37*
X198723250Y-93567250D02*
X198723250Y-92932250D01*
X198088250Y-92932250D01*
X198723250Y-93567250D01*
%TO.C,LED23*%
G36*
X179673250Y-93567250D02*
G01*
X179673250Y-92932250D01*
X179038250Y-92932250D01*
X179673250Y-93567250D01*
G37*
X179673250Y-93567250D02*
X179673250Y-92932250D01*
X179038250Y-92932250D01*
X179673250Y-93567250D01*
%TO.C,LED22*%
G36*
X160623250Y-93567250D02*
G01*
X160623250Y-92932250D01*
X159988250Y-92932250D01*
X160623250Y-93567250D01*
G37*
X160623250Y-93567250D02*
X160623250Y-92932250D01*
X159988250Y-92932250D01*
X160623250Y-93567250D01*
%TO.C,LED21*%
G36*
X141573250Y-93567250D02*
G01*
X141573250Y-92932250D01*
X140938250Y-92932250D01*
X141573250Y-93567250D01*
G37*
X141573250Y-93567250D02*
X141573250Y-92932250D01*
X140938250Y-92932250D01*
X141573250Y-93567250D01*
%TO.C,LED20*%
G36*
X122523250Y-93567250D02*
G01*
X122523250Y-92932250D01*
X121888250Y-92932250D01*
X122523250Y-93567250D01*
G37*
X122523250Y-93567250D02*
X122523250Y-92932250D01*
X121888250Y-92932250D01*
X122523250Y-93567250D01*
%TO.C,LED19*%
G36*
X103473250Y-93567250D02*
G01*
X103473250Y-92932250D01*
X102838250Y-92932250D01*
X103473250Y-93567250D01*
G37*
X103473250Y-93567250D02*
X103473250Y-92932250D01*
X102838250Y-92932250D01*
X103473250Y-93567250D01*
%TO.C,LED18*%
G36*
X235299250Y-73120250D02*
G01*
X234664250Y-73120250D01*
X234664250Y-72485250D01*
X235299250Y-73120250D01*
G37*
X235299250Y-73120250D02*
X234664250Y-73120250D01*
X234664250Y-72485250D01*
X235299250Y-73120250D01*
%TO.C,LED17*%
G36*
X206724250Y-73120250D02*
G01*
X206089250Y-73120250D01*
X206089250Y-72485250D01*
X206724250Y-73120250D01*
G37*
X206724250Y-73120250D02*
X206089250Y-73120250D01*
X206089250Y-72485250D01*
X206724250Y-73120250D01*
%TO.C,LED16*%
G36*
X187674250Y-73120250D02*
G01*
X187039250Y-73120250D01*
X187039250Y-72485250D01*
X187674250Y-73120250D01*
G37*
X187674250Y-73120250D02*
X187039250Y-73120250D01*
X187039250Y-72485250D01*
X187674250Y-73120250D01*
%TO.C,LED15*%
G36*
X168624250Y-73120250D02*
G01*
X167989250Y-73120250D01*
X167989250Y-72485250D01*
X168624250Y-73120250D01*
G37*
X168624250Y-73120250D02*
X167989250Y-73120250D01*
X167989250Y-72485250D01*
X168624250Y-73120250D01*
%TO.C,LED14*%
G36*
X149574250Y-73120250D02*
G01*
X148939250Y-73120250D01*
X148939250Y-72485250D01*
X149574250Y-73120250D01*
G37*
X149574250Y-73120250D02*
X148939250Y-73120250D01*
X148939250Y-72485250D01*
X149574250Y-73120250D01*
%TO.C,LED13*%
G36*
X130524250Y-73120250D02*
G01*
X129889250Y-73120250D01*
X129889250Y-72485250D01*
X130524250Y-73120250D01*
G37*
X130524250Y-73120250D02*
X129889250Y-73120250D01*
X129889250Y-72485250D01*
X130524250Y-73120250D01*
%TO.C,LED12*%
G36*
X111474250Y-73120250D02*
G01*
X110839250Y-73120250D01*
X110839250Y-72485250D01*
X111474250Y-73120250D01*
G37*
X111474250Y-73120250D02*
X110839250Y-73120250D01*
X110839250Y-72485250D01*
X111474250Y-73120250D01*
%TO.C,LED11*%
G36*
X227298250Y-55467250D02*
G01*
X227298250Y-54832250D01*
X226663250Y-54832250D01*
X227298250Y-55467250D01*
G37*
X227298250Y-55467250D02*
X227298250Y-54832250D01*
X226663250Y-54832250D01*
X227298250Y-55467250D01*
%TO.C,LED10*%
G36*
X198723250Y-55467250D02*
G01*
X198723250Y-54832250D01*
X198088250Y-54832250D01*
X198723250Y-55467250D01*
G37*
X198723250Y-55467250D02*
X198723250Y-54832250D01*
X198088250Y-54832250D01*
X198723250Y-55467250D01*
%TO.C,LED9*%
G36*
X179673250Y-55467250D02*
G01*
X179673250Y-54832250D01*
X179038250Y-54832250D01*
X179673250Y-55467250D01*
G37*
X179673250Y-55467250D02*
X179673250Y-54832250D01*
X179038250Y-54832250D01*
X179673250Y-55467250D01*
%TO.C,LED8*%
G36*
X160623250Y-55467250D02*
G01*
X160623250Y-54832250D01*
X159988250Y-54832250D01*
X160623250Y-55467250D01*
G37*
X160623250Y-55467250D02*
X160623250Y-54832250D01*
X159988250Y-54832250D01*
X160623250Y-55467250D01*
%TO.C,LED7*%
G36*
X141573250Y-55467250D02*
G01*
X141573250Y-54832250D01*
X140938250Y-54832250D01*
X141573250Y-55467250D01*
G37*
X141573250Y-55467250D02*
X141573250Y-54832250D01*
X140938250Y-54832250D01*
X141573250Y-55467250D01*
%TO.C,LED6*%
G36*
X122523250Y-55467250D02*
G01*
X122523250Y-54832250D01*
X121888250Y-54832250D01*
X122523250Y-55467250D01*
G37*
X122523250Y-55467250D02*
X122523250Y-54832250D01*
X121888250Y-54832250D01*
X122523250Y-55467250D01*
%TO.C,LED5*%
G36*
X103473250Y-55467250D02*
G01*
X103473250Y-54832250D01*
X102838250Y-54832250D01*
X103473250Y-55467250D01*
G37*
X103473250Y-55467250D02*
X103473250Y-54832250D01*
X102838250Y-54832250D01*
X103473250Y-55467250D01*
%TO.C,LED4*%
G36*
X217074750Y-82899250D02*
G01*
X217074750Y-82264250D01*
X217709750Y-82264250D01*
X217074750Y-82899250D01*
G37*
X217074750Y-82899250D02*
X217074750Y-82264250D01*
X217709750Y-82264250D01*
X217074750Y-82899250D01*
%TO.C,LED3*%
G36*
X178149250Y-68675250D02*
G01*
X177514250Y-68675250D01*
X177514250Y-68040250D01*
X178149250Y-68675250D01*
G37*
X178149250Y-68675250D02*
X177514250Y-68675250D01*
X177514250Y-68040250D01*
X178149250Y-68675250D01*
%TO.C,LED2*%
G36*
X159099250Y-106775250D02*
G01*
X158464250Y-106775250D01*
X158464250Y-106140250D01*
X159099250Y-106775250D01*
G37*
X159099250Y-106775250D02*
X158464250Y-106775250D01*
X158464250Y-106140250D01*
X159099250Y-106775250D01*
%TO.C,LED1*%
G36*
X112363250Y-88487250D02*
G01*
X112998250Y-88487250D01*
X112998250Y-89122250D01*
X112363250Y-88487250D01*
G37*
X112363250Y-88487250D02*
X112998250Y-88487250D01*
X112998250Y-89122250D01*
X112363250Y-88487250D01*
%TO.C,U1*%
X216027000Y-63246000D02*
G75*
G03*
X216027000Y-63246000I-127000J0D01*
G01*
X215646000Y-65532000D02*
X215646000Y-62992000D01*
X216789000Y-65532000D02*
X215646000Y-65532000D01*
X216789000Y-62992000D02*
X216789000Y-65532000D01*
X215646000Y-62992000D02*
X216789000Y-62992000D01*
%TO.C,SW22*%
X255700000Y-75170000D02*
X255250000Y-74720000D01*
X252300000Y-75170000D02*
X252750000Y-74720000D01*
X252300000Y-79770000D02*
X252750000Y-80220000D01*
X255700000Y-79770000D02*
X255250000Y-80220000D01*
X251250000Y-78470000D02*
X251250000Y-76470000D01*
X255250000Y-74720000D02*
X252750000Y-74720000D01*
X256750000Y-78470000D02*
X256750000Y-76470000D01*
X255250000Y-80220000D02*
X252750000Y-80220000D01*
%TO.C,SW15*%
X215556250Y-95631250D02*
X215556250Y-91531250D01*
X227356250Y-91531250D02*
X227356250Y-95631250D01*
X227356250Y-99631250D02*
X227356250Y-103731250D01*
X215556250Y-99631250D02*
X215556250Y-103731250D01*
X215556250Y-103731250D02*
X227356250Y-103731250D01*
X217656250Y-105131250D02*
X217356250Y-105431250D01*
X217356250Y-105431250D02*
X217356250Y-104831250D01*
X217356250Y-104831250D02*
X217656250Y-105131250D01*
X215556250Y-91531250D02*
X217956250Y-91531250D01*
X220156250Y-91531250D02*
X222756250Y-91531250D01*
X224956250Y-91531250D02*
X227356250Y-91531250D01*
X221456250Y-93631250D02*
X220956250Y-94131250D01*
X221456250Y-93631250D02*
X220956250Y-93131250D01*
X223634806Y-94276568D02*
G75*
G02*
X221456250Y-93631250I-2178556J-3354682D01*
G01*
%TO.C,R6*%
X245002000Y-84821000D02*
X244202000Y-84703500D01*
X244202000Y-84703500D02*
X245002000Y-84567000D01*
X245002000Y-84567000D02*
X244202000Y-84440000D01*
X244202000Y-84440000D02*
X245002000Y-84303500D01*
X245002000Y-84303500D02*
X244202000Y-84186000D01*
%TO.C,R5*%
X232776000Y-109620000D02*
X232893500Y-108820000D01*
X232893500Y-108820000D02*
X233030000Y-109620000D01*
X233030000Y-109620000D02*
X233157000Y-108820000D01*
X233157000Y-108820000D02*
X233293500Y-109620000D01*
X233293500Y-109620000D02*
X233411000Y-108820000D01*
%TO.C,R4*%
X237934500Y-109620000D02*
X238052000Y-108820000D01*
X238052000Y-108820000D02*
X238188500Y-109620000D01*
X238188500Y-109620000D02*
X238315500Y-108820000D01*
X238315500Y-108820000D02*
X238452000Y-109620000D01*
X238452000Y-109620000D02*
X238569500Y-108820000D01*
%TO.C,R3*%
X247034000Y-76088000D02*
X246234000Y-75970500D01*
X246234000Y-75970500D02*
X247034000Y-75834000D01*
X247034000Y-75834000D02*
X246234000Y-75707000D01*
X246234000Y-75707000D02*
X247034000Y-75570500D01*
X247034000Y-75570500D02*
X246234000Y-75453000D01*
%TO.C,R2*%
X217868500Y-50088750D02*
X217986000Y-49288750D01*
X217986000Y-49288750D02*
X218122500Y-50088750D01*
X218122500Y-50088750D02*
X218249500Y-49288750D01*
X218249500Y-49288750D02*
X218386000Y-50088750D01*
X218386000Y-50088750D02*
X218503500Y-49288750D01*
D12*
%TO.C,J2*%
X254949000Y-69850000D02*
X254949000Y-70960000D01*
X254949000Y-70960000D02*
X253619000Y-70960000D01*
X254949000Y-59760000D02*
X247209000Y-59760000D01*
X247209000Y-59760000D02*
X247209000Y-68390000D01*
X254949000Y-68390000D02*
X247209000Y-68390000D01*
X254949000Y-59760000D02*
X254949000Y-68390000D01*
X249809000Y-59760000D02*
X249809000Y-68390000D01*
X252349000Y-59760000D02*
X252349000Y-68390000D01*
X248179000Y-68390000D02*
X248179000Y-68800000D01*
X248899000Y-68390000D02*
X248899000Y-68800000D01*
X250719000Y-68390000D02*
X250719000Y-68800000D01*
X251439000Y-68390000D02*
X251439000Y-68800000D01*
X253259000Y-68390000D02*
X253259000Y-68740000D01*
X253979000Y-68390000D02*
X253979000Y-68740000D01*
X252467100Y-59760000D02*
X252467100Y-68390000D01*
X252585195Y-59760000D02*
X252585195Y-68390000D01*
X252703290Y-59760000D02*
X252703290Y-68390000D01*
X252821385Y-59760000D02*
X252821385Y-68390000D01*
X252939480Y-59760000D02*
X252939480Y-68390000D01*
X253057575Y-59760000D02*
X253057575Y-68390000D01*
X253175670Y-59760000D02*
X253175670Y-68390000D01*
X253293765Y-59760000D02*
X253293765Y-68390000D01*
X253411860Y-59760000D02*
X253411860Y-68390000D01*
X253529955Y-59760000D02*
X253529955Y-68390000D01*
X253648050Y-59760000D02*
X253648050Y-68390000D01*
X253766145Y-59760000D02*
X253766145Y-68390000D01*
X253884240Y-59760000D02*
X253884240Y-68390000D01*
X254002335Y-59760000D02*
X254002335Y-68390000D01*
X254120430Y-59760000D02*
X254120430Y-68390000D01*
X254238525Y-59760000D02*
X254238525Y-68390000D01*
X254356620Y-59760000D02*
X254356620Y-68390000D01*
X254474715Y-59760000D02*
X254474715Y-68390000D01*
X254592810Y-59760000D02*
X254592810Y-68390000D01*
X254710905Y-59760000D02*
X254710905Y-68390000D01*
X254829000Y-59760000D02*
X254829000Y-68390000D01*
%TO.C,ISP1*%
X229616000Y-120710000D02*
X228286000Y-120710000D01*
X228286000Y-120710000D02*
X228286000Y-119380000D01*
X230886000Y-120710000D02*
X230886000Y-118110000D01*
X230886000Y-118110000D02*
X228286000Y-118110000D01*
X228286000Y-118110000D02*
X228286000Y-112970000D01*
X233486000Y-112970000D02*
X228286000Y-112970000D01*
X233486000Y-120710000D02*
X233486000Y-112970000D01*
X233486000Y-120710000D02*
X230886000Y-120710000D01*
D11*
%TO.C,F1*%
X219456000Y-70358000D02*
X219710000Y-70358000D01*
X218440000Y-70358000D02*
X218186000Y-70358000D01*
X218948000Y-70358000D02*
G75*
G02*
X219456000Y-70358000I254000J0D01*
G01*
X218948000Y-70358000D02*
G75*
G02*
X218440000Y-70358000I-254000J0D01*
G01*
%TO.C,C19*%
X119638578Y-113082000D02*
X119121422Y-113082000D01*
X119638578Y-113486000D02*
X119121422Y-113486000D01*
X119380000Y-113080800D02*
X119380000Y-112903000D01*
X119380000Y-113665000D02*
X119380000Y-113487200D01*
%TO.C,C18*%
X231446000Y-90165422D02*
X231446000Y-90682578D01*
X231850000Y-90165422D02*
X231850000Y-90682578D01*
X231444800Y-90424000D02*
X231267000Y-90424000D01*
X232029000Y-90424000D02*
X231851200Y-90424000D01*
%TO.C,C17*%
X176534578Y-93778000D02*
X176017422Y-93778000D01*
X176534578Y-94182000D02*
X176017422Y-94182000D01*
X176276000Y-93776800D02*
X176276000Y-93599000D01*
X176276000Y-94361000D02*
X176276000Y-94183200D01*
%TO.C,C16*%
X138434578Y-94286000D02*
X137917422Y-94286000D01*
X138434578Y-94690000D02*
X137917422Y-94690000D01*
X138176000Y-94284800D02*
X138176000Y-94107000D01*
X138176000Y-94869000D02*
X138176000Y-94691200D01*
%TO.C,C14*%
X224286578Y-74982000D02*
X223769422Y-74982000D01*
X224286578Y-75386000D02*
X223769422Y-75386000D01*
X224028000Y-74980800D02*
X224028000Y-74803000D01*
X224028000Y-75565000D02*
X224028000Y-75387200D01*
%TO.C,C13*%
X176534578Y-74982000D02*
X176017422Y-74982000D01*
X176534578Y-75386000D02*
X176017422Y-75386000D01*
X176276000Y-74980800D02*
X176276000Y-74803000D01*
X176276000Y-75565000D02*
X176276000Y-75387200D01*
%TO.C,C12*%
X138434578Y-74982000D02*
X137917422Y-74982000D01*
X138434578Y-75386000D02*
X137917422Y-75386000D01*
X138176000Y-74980800D02*
X138176000Y-74803000D01*
X138176000Y-75565000D02*
X138176000Y-75387200D01*
%TO.C,C11*%
X224286578Y-56186000D02*
X223769422Y-56186000D01*
X224286578Y-56590000D02*
X223769422Y-56590000D01*
X224028000Y-56184800D02*
X224028000Y-56007000D01*
X224028000Y-56769000D02*
X224028000Y-56591200D01*
%TO.C,C10*%
X176534578Y-56186000D02*
X176017422Y-56186000D01*
X176534578Y-56590000D02*
X176017422Y-56590000D01*
X176276000Y-56184800D02*
X176276000Y-56007000D01*
X176276000Y-56769000D02*
X176276000Y-56591200D01*
%TO.C,C9*%
X138434578Y-55678000D02*
X137917422Y-55678000D01*
X138434578Y-56082000D02*
X137917422Y-56082000D01*
X138176000Y-55676800D02*
X138176000Y-55499000D01*
X138176000Y-56261000D02*
X138176000Y-56083200D01*
%TO.C,C8*%
X212593422Y-77418000D02*
X213110578Y-77418000D01*
X212593422Y-77014000D02*
X213110578Y-77014000D01*
X212852000Y-77419200D02*
X212852000Y-77597000D01*
X212852000Y-76835000D02*
X212852000Y-77012800D01*
%TO.C,C7*%
X162762000Y-107446578D02*
X162762000Y-106929422D01*
X162358000Y-107446578D02*
X162358000Y-106929422D01*
X162763200Y-107188000D02*
X162941000Y-107188000D01*
X162179000Y-107188000D02*
X162356800Y-107188000D01*
%TO.C,C15*%
X248946500Y-110240578D02*
X248946500Y-109723422D01*
X248542500Y-110240578D02*
X248542500Y-109723422D01*
X248947700Y-109982000D02*
X249125500Y-109982000D01*
X248363500Y-109982000D02*
X248541300Y-109982000D01*
%TO.C,C6*%
X240533422Y-104928500D02*
X241050578Y-104928500D01*
X240533422Y-104524500D02*
X241050578Y-104524500D01*
X240792000Y-104929700D02*
X240792000Y-105107500D01*
X240792000Y-104345500D02*
X240792000Y-104523300D01*
%TO.C,C5*%
X253973500Y-87371422D02*
X253973500Y-87888578D01*
X254377500Y-87371422D02*
X254377500Y-87888578D01*
X253972300Y-87630000D02*
X253794500Y-87630000D01*
X254556500Y-87630000D02*
X254378700Y-87630000D01*
%TO.C,C4*%
X257275500Y-107183422D02*
X257275500Y-107700578D01*
X257679500Y-107183422D02*
X257679500Y-107700578D01*
X257274300Y-107442000D02*
X257096500Y-107442000D01*
X257858500Y-107442000D02*
X257680700Y-107442000D01*
%TO.C,C3*%
X241812578Y-94110500D02*
X241295422Y-94110500D01*
X241812578Y-94514500D02*
X241295422Y-94514500D01*
X241554000Y-94109300D02*
X241554000Y-93931500D01*
X241554000Y-94693500D02*
X241554000Y-94515700D01*
%TO.C,C2*%
X253995422Y-84784000D02*
X254512578Y-84784000D01*
X253995422Y-84380000D02*
X254512578Y-84380000D01*
X254254000Y-84785200D02*
X254254000Y-84963000D01*
X254254000Y-84201000D02*
X254254000Y-84378800D01*
%TO.C,C1*%
X247400578Y-84380000D02*
X246883422Y-84380000D01*
X247400578Y-84784000D02*
X246883422Y-84784000D01*
X247142000Y-84378800D02*
X247142000Y-84201000D01*
X247142000Y-84963000D02*
X247142000Y-84785200D01*
%TO.C,J3*%
D13*
X246633395Y-64278933D02*
X247213966Y-64278933D01*
X247330080Y-64317638D01*
X247407490Y-64395047D01*
X247446195Y-64511161D01*
X247446195Y-64588571D01*
X246633395Y-63969295D02*
X246633395Y-63466133D01*
X246943033Y-63737066D01*
X246943033Y-63620952D01*
X246981738Y-63543542D01*
X247020442Y-63504838D01*
X247097852Y-63466133D01*
X247291376Y-63466133D01*
X247368785Y-63504838D01*
X247407490Y-63543542D01*
X247446195Y-63620952D01*
X247446195Y-63853180D01*
X247407490Y-63930590D01*
X247368785Y-63969295D01*
%TO.C,Y1*%
D10*
X250317047Y-80862952D02*
X250317047Y-81243904D01*
X250050380Y-80443904D02*
X250317047Y-80862952D01*
X250583714Y-80443904D01*
X251269428Y-81243904D02*
X250812285Y-81243904D01*
X251040857Y-81243904D02*
X251040857Y-80443904D01*
X250964666Y-80558190D01*
X250888476Y-80634380D01*
X250812285Y-80672476D01*
%TO.C,U2*%
X242192380Y-99567904D02*
X243001904Y-99567904D01*
X243097142Y-99520285D01*
X243144761Y-99472666D01*
X243192380Y-99377428D01*
X243192380Y-99186952D01*
X243144761Y-99091714D01*
X243097142Y-99044095D01*
X243001904Y-98996476D01*
X242192380Y-98996476D01*
X242287619Y-98567904D02*
X242240000Y-98520285D01*
X242192380Y-98425047D01*
X242192380Y-98186952D01*
X242240000Y-98091714D01*
X242287619Y-98044095D01*
X242382857Y-97996476D01*
X242478095Y-97996476D01*
X242620952Y-98044095D01*
X243192380Y-98615523D01*
X243192380Y-97996476D01*
%TO.C,J1*%
D13*
X216137066Y-47981865D02*
X216137066Y-48562436D01*
X216098361Y-48678550D01*
X216020952Y-48755960D01*
X215904838Y-48794665D01*
X215827428Y-48794665D01*
X216949866Y-48794665D02*
X216485409Y-48794665D01*
X216717638Y-48794665D02*
X216717638Y-47981865D01*
X216640228Y-48097979D01*
X216562819Y-48175389D01*
X216485409Y-48214093D01*
%TO.C,R1*%
X212126525Y-50056445D02*
X211855592Y-49669397D01*
X211662068Y-50056445D02*
X211662068Y-49243645D01*
X211971706Y-49243645D01*
X212049116Y-49282350D01*
X212087820Y-49321054D01*
X212126525Y-49398464D01*
X212126525Y-49514578D01*
X212087820Y-49591988D01*
X212049116Y-49630692D01*
X211971706Y-49669397D01*
X211662068Y-49669397D01*
X212900620Y-50056445D02*
X212436163Y-50056445D01*
X212668392Y-50056445D02*
X212668392Y-49243645D01*
X212590982Y-49359759D01*
X212513573Y-49437169D01*
X212436163Y-49475873D01*
%TO.C,LED25*%
X234796695Y-98832609D02*
X234796695Y-99219657D01*
X233983895Y-99219657D01*
X234370942Y-98561676D02*
X234370942Y-98290742D01*
X234796695Y-98174628D02*
X234796695Y-98561676D01*
X233983895Y-98561676D01*
X233983895Y-98174628D01*
X234796695Y-97826285D02*
X233983895Y-97826285D01*
X233983895Y-97632761D01*
X234022600Y-97516647D01*
X234100009Y-97439238D01*
X234177419Y-97400533D01*
X234332238Y-97361828D01*
X234448352Y-97361828D01*
X234603171Y-97400533D01*
X234680580Y-97439238D01*
X234757990Y-97516647D01*
X234796695Y-97632761D01*
X234796695Y-97826285D01*
X234061304Y-97052190D02*
X234022600Y-97013485D01*
X233983895Y-96936076D01*
X233983895Y-96742552D01*
X234022600Y-96665142D01*
X234061304Y-96626438D01*
X234138714Y-96587733D01*
X234216123Y-96587733D01*
X234332238Y-96626438D01*
X234796695Y-97090895D01*
X234796695Y-96587733D01*
X233983895Y-95852342D02*
X233983895Y-96239390D01*
X234370942Y-96278095D01*
X234332238Y-96239390D01*
X234293533Y-96161980D01*
X234293533Y-95968457D01*
X234332238Y-95891047D01*
X234370942Y-95852342D01*
X234448352Y-95813638D01*
X234641876Y-95813638D01*
X234719285Y-95852342D01*
X234757990Y-95891047D01*
X234796695Y-95968457D01*
X234796695Y-96161980D01*
X234757990Y-96239390D01*
X234719285Y-96278095D01*
D10*
X232771904Y-98869333D02*
X231971904Y-98869333D01*
X232352857Y-98869333D02*
X232352857Y-98412190D01*
X232771904Y-98412190D02*
X231971904Y-98412190D01*
X231971904Y-97878857D02*
X231971904Y-97726476D01*
X232010000Y-97650285D01*
X232086190Y-97574095D01*
X232238571Y-97536000D01*
X232505238Y-97536000D01*
X232657619Y-97574095D01*
X232733809Y-97650285D01*
X232771904Y-97726476D01*
X232771904Y-97878857D01*
X232733809Y-97955047D01*
X232657619Y-98031238D01*
X232505238Y-98069333D01*
X232238571Y-98069333D01*
X232086190Y-98031238D01*
X232010000Y-97955047D01*
X231971904Y-97878857D01*
X232771904Y-96812190D02*
X232771904Y-97193142D01*
X231971904Y-97193142D01*
X232352857Y-96545523D02*
X232352857Y-96278857D01*
X232771904Y-96164571D02*
X232771904Y-96545523D01*
X231971904Y-96545523D01*
X231971904Y-96164571D01*
%TO.C,H5*%
X201644345Y-104408630D02*
X201644345Y-103408630D01*
X201644345Y-103884821D02*
X202215773Y-103884821D01*
X202215773Y-104408630D02*
X202215773Y-103408630D01*
X203168154Y-103408630D02*
X202691964Y-103408630D01*
X202644345Y-103884821D01*
X202691964Y-103837202D01*
X202787202Y-103789583D01*
X203025297Y-103789583D01*
X203120535Y-103837202D01*
X203168154Y-103884821D01*
X203215773Y-103980059D01*
X203215773Y-104218154D01*
X203168154Y-104313392D01*
X203120535Y-104361011D01*
X203025297Y-104408630D01*
X202787202Y-104408630D01*
X202691964Y-104361011D01*
X202644345Y-104313392D01*
%TO.C,H4*%
X115919345Y-104408630D02*
X115919345Y-103408630D01*
X115919345Y-103884821D02*
X116490773Y-103884821D01*
X116490773Y-104408630D02*
X116490773Y-103408630D01*
X117395535Y-103741964D02*
X117395535Y-104408630D01*
X117157440Y-103361011D02*
X116919345Y-104075297D01*
X117538392Y-104075297D01*
%TO.C,H3*%
X173069345Y-85358630D02*
X173069345Y-84358630D01*
X173069345Y-84834821D02*
X173640773Y-84834821D01*
X173640773Y-85358630D02*
X173640773Y-84358630D01*
X174021726Y-84358630D02*
X174640773Y-84358630D01*
X174307440Y-84739583D01*
X174450297Y-84739583D01*
X174545535Y-84787202D01*
X174593154Y-84834821D01*
X174640773Y-84930059D01*
X174640773Y-85168154D01*
X174593154Y-85263392D01*
X174545535Y-85311011D01*
X174450297Y-85358630D01*
X174164583Y-85358630D01*
X174069345Y-85311011D01*
X174021726Y-85263392D01*
%TO.C,H2*%
X211169345Y-66308630D02*
X211169345Y-65308630D01*
X211169345Y-65784821D02*
X211740773Y-65784821D01*
X211740773Y-66308630D02*
X211740773Y-65308630D01*
X212169345Y-65403869D02*
X212216964Y-65356250D01*
X212312202Y-65308630D01*
X212550297Y-65308630D01*
X212645535Y-65356250D01*
X212693154Y-65403869D01*
X212740773Y-65499107D01*
X212740773Y-65594345D01*
X212693154Y-65737202D01*
X212121726Y-66308630D01*
X212740773Y-66308630D01*
%TO.C,H1*%
X115919345Y-66308630D02*
X115919345Y-65308630D01*
X115919345Y-65784821D02*
X116490773Y-65784821D01*
X116490773Y-66308630D02*
X116490773Y-65308630D01*
X117490773Y-66308630D02*
X116919345Y-66308630D01*
X117205059Y-66308630D02*
X117205059Y-65308630D01*
X117109821Y-65451488D01*
X117014583Y-65546726D01*
X116919345Y-65594345D01*
%TO.C,D27*%
D13*
X207537473Y-125335695D02*
X207537473Y-124522895D01*
X207730997Y-124522895D01*
X207847111Y-124561600D01*
X207924520Y-124639009D01*
X207963225Y-124716419D01*
X208001930Y-124871238D01*
X208001930Y-124987352D01*
X207963225Y-125142171D01*
X207924520Y-125219580D01*
X207847111Y-125296990D01*
X207730997Y-125335695D01*
X207537473Y-125335695D01*
X208311568Y-124600304D02*
X208350273Y-124561600D01*
X208427682Y-124522895D01*
X208621206Y-124522895D01*
X208698616Y-124561600D01*
X208737320Y-124600304D01*
X208776025Y-124677714D01*
X208776025Y-124755123D01*
X208737320Y-124871238D01*
X208272863Y-125335695D01*
X208776025Y-125335695D01*
X209046959Y-124522895D02*
X209588825Y-124522895D01*
X209240482Y-125335695D01*
%TO.C,D26*%
X179089473Y-125335695D02*
X179089473Y-124522895D01*
X179282997Y-124522895D01*
X179399111Y-124561600D01*
X179476520Y-124639009D01*
X179515225Y-124716419D01*
X179553930Y-124871238D01*
X179553930Y-124987352D01*
X179515225Y-125142171D01*
X179476520Y-125219580D01*
X179399111Y-125296990D01*
X179282997Y-125335695D01*
X179089473Y-125335695D01*
X179863568Y-124600304D02*
X179902273Y-124561600D01*
X179979682Y-124522895D01*
X180173206Y-124522895D01*
X180250616Y-124561600D01*
X180289320Y-124600304D01*
X180328025Y-124677714D01*
X180328025Y-124755123D01*
X180289320Y-124871238D01*
X179824863Y-125335695D01*
X180328025Y-125335695D01*
X181024711Y-124522895D02*
X180869892Y-124522895D01*
X180792482Y-124561600D01*
X180753778Y-124600304D01*
X180676368Y-124716419D01*
X180637663Y-124871238D01*
X180637663Y-125180876D01*
X180676368Y-125258285D01*
X180715073Y-125296990D01*
X180792482Y-125335695D01*
X180947301Y-125335695D01*
X181024711Y-125296990D01*
X181063416Y-125258285D01*
X181102120Y-125180876D01*
X181102120Y-124987352D01*
X181063416Y-124909942D01*
X181024711Y-124871238D01*
X180947301Y-124832533D01*
X180792482Y-124832533D01*
X180715073Y-124871238D01*
X180676368Y-124909942D01*
X180637663Y-124987352D01*
%TO.C,D25*%
X160293473Y-125335695D02*
X160293473Y-124522895D01*
X160486997Y-124522895D01*
X160603111Y-124561600D01*
X160680520Y-124639009D01*
X160719225Y-124716419D01*
X160757930Y-124871238D01*
X160757930Y-124987352D01*
X160719225Y-125142171D01*
X160680520Y-125219580D01*
X160603111Y-125296990D01*
X160486997Y-125335695D01*
X160293473Y-125335695D01*
X161067568Y-124600304D02*
X161106273Y-124561600D01*
X161183682Y-124522895D01*
X161377206Y-124522895D01*
X161454616Y-124561600D01*
X161493320Y-124600304D01*
X161532025Y-124677714D01*
X161532025Y-124755123D01*
X161493320Y-124871238D01*
X161028863Y-125335695D01*
X161532025Y-125335695D01*
X162267416Y-124522895D02*
X161880368Y-124522895D01*
X161841663Y-124909942D01*
X161880368Y-124871238D01*
X161957778Y-124832533D01*
X162151301Y-124832533D01*
X162228711Y-124871238D01*
X162267416Y-124909942D01*
X162306120Y-124987352D01*
X162306120Y-125180876D01*
X162267416Y-125258285D01*
X162228711Y-125296990D01*
X162151301Y-125335695D01*
X161957778Y-125335695D01*
X161880368Y-125296990D01*
X161841663Y-125258285D01*
%TO.C,D24*%
X140989473Y-125335695D02*
X140989473Y-124522895D01*
X141182997Y-124522895D01*
X141299111Y-124561600D01*
X141376520Y-124639009D01*
X141415225Y-124716419D01*
X141453930Y-124871238D01*
X141453930Y-124987352D01*
X141415225Y-125142171D01*
X141376520Y-125219580D01*
X141299111Y-125296990D01*
X141182997Y-125335695D01*
X140989473Y-125335695D01*
X141763568Y-124600304D02*
X141802273Y-124561600D01*
X141879682Y-124522895D01*
X142073206Y-124522895D01*
X142150616Y-124561600D01*
X142189320Y-124600304D01*
X142228025Y-124677714D01*
X142228025Y-124755123D01*
X142189320Y-124871238D01*
X141724863Y-125335695D01*
X142228025Y-125335695D01*
X142924711Y-124793828D02*
X142924711Y-125335695D01*
X142731187Y-124484190D02*
X142537663Y-125064761D01*
X143040825Y-125064761D01*
%TO.C,D23*%
X121685473Y-125335695D02*
X121685473Y-124522895D01*
X121878997Y-124522895D01*
X121995111Y-124561600D01*
X122072520Y-124639009D01*
X122111225Y-124716419D01*
X122149930Y-124871238D01*
X122149930Y-124987352D01*
X122111225Y-125142171D01*
X122072520Y-125219580D01*
X121995111Y-125296990D01*
X121878997Y-125335695D01*
X121685473Y-125335695D01*
X122459568Y-124600304D02*
X122498273Y-124561600D01*
X122575682Y-124522895D01*
X122769206Y-124522895D01*
X122846616Y-124561600D01*
X122885320Y-124600304D01*
X122924025Y-124677714D01*
X122924025Y-124755123D01*
X122885320Y-124871238D01*
X122420863Y-125335695D01*
X122924025Y-125335695D01*
X123194959Y-124522895D02*
X123698120Y-124522895D01*
X123427187Y-124832533D01*
X123543301Y-124832533D01*
X123620711Y-124871238D01*
X123659416Y-124909942D01*
X123698120Y-124987352D01*
X123698120Y-125180876D01*
X123659416Y-125258285D01*
X123620711Y-125296990D01*
X123543301Y-125335695D01*
X123311073Y-125335695D01*
X123233663Y-125296990D01*
X123194959Y-125258285D01*
%TO.C,D22*%
X102889473Y-125335695D02*
X102889473Y-124522895D01*
X103082997Y-124522895D01*
X103199111Y-124561600D01*
X103276520Y-124639009D01*
X103315225Y-124716419D01*
X103353930Y-124871238D01*
X103353930Y-124987352D01*
X103315225Y-125142171D01*
X103276520Y-125219580D01*
X103199111Y-125296990D01*
X103082997Y-125335695D01*
X102889473Y-125335695D01*
X103663568Y-124600304D02*
X103702273Y-124561600D01*
X103779682Y-124522895D01*
X103973206Y-124522895D01*
X104050616Y-124561600D01*
X104089320Y-124600304D01*
X104128025Y-124677714D01*
X104128025Y-124755123D01*
X104089320Y-124871238D01*
X103624863Y-125335695D01*
X104128025Y-125335695D01*
X104437663Y-124600304D02*
X104476368Y-124561600D01*
X104553778Y-124522895D01*
X104747301Y-124522895D01*
X104824711Y-124561600D01*
X104863416Y-124600304D01*
X104902120Y-124677714D01*
X104902120Y-124755123D01*
X104863416Y-124871238D01*
X104398959Y-125335695D01*
X104902120Y-125335695D01*
%TO.C,D21*%
X216192583Y-89267695D02*
X216192583Y-88454895D01*
X216386107Y-88454895D01*
X216502221Y-88493600D01*
X216579631Y-88571009D01*
X216618336Y-88648419D01*
X216657040Y-88803238D01*
X216657040Y-88919352D01*
X216618336Y-89074171D01*
X216579631Y-89151580D01*
X216502221Y-89228990D01*
X216386107Y-89267695D01*
X216192583Y-89267695D01*
X216966679Y-88532304D02*
X217005383Y-88493600D01*
X217082793Y-88454895D01*
X217276317Y-88454895D01*
X217353726Y-88493600D01*
X217392431Y-88532304D01*
X217431136Y-88609714D01*
X217431136Y-88687123D01*
X217392431Y-88803238D01*
X216927974Y-89267695D01*
X217431136Y-89267695D01*
X218205231Y-89267695D02*
X217740774Y-89267695D01*
X217973002Y-89267695D02*
X217973002Y-88454895D01*
X217895593Y-88571009D01*
X217818183Y-88648419D01*
X217740774Y-88687123D01*
%TO.C,D20*%
X190773473Y-108571695D02*
X190773473Y-107758895D01*
X190966997Y-107758895D01*
X191083111Y-107797600D01*
X191160520Y-107875009D01*
X191199225Y-107952419D01*
X191237930Y-108107238D01*
X191237930Y-108223352D01*
X191199225Y-108378171D01*
X191160520Y-108455580D01*
X191083111Y-108532990D01*
X190966997Y-108571695D01*
X190773473Y-108571695D01*
X191547568Y-107836304D02*
X191586273Y-107797600D01*
X191663682Y-107758895D01*
X191857206Y-107758895D01*
X191934616Y-107797600D01*
X191973320Y-107836304D01*
X192012025Y-107913714D01*
X192012025Y-107991123D01*
X191973320Y-108107238D01*
X191508863Y-108571695D01*
X192012025Y-108571695D01*
X192515187Y-107758895D02*
X192592597Y-107758895D01*
X192670006Y-107797600D01*
X192708711Y-107836304D01*
X192747416Y-107913714D01*
X192786120Y-108068533D01*
X192786120Y-108262057D01*
X192747416Y-108416876D01*
X192708711Y-108494285D01*
X192670006Y-108532990D01*
X192592597Y-108571695D01*
X192515187Y-108571695D01*
X192437778Y-108532990D01*
X192399073Y-108494285D01*
X192360368Y-108416876D01*
X192321663Y-108262057D01*
X192321663Y-108068533D01*
X192360368Y-107913714D01*
X192399073Y-107836304D01*
X192437778Y-107797600D01*
X192515187Y-107758895D01*
%TO.C,D19*%
X179089473Y-106539695D02*
X179089473Y-105726895D01*
X179282997Y-105726895D01*
X179399111Y-105765600D01*
X179476520Y-105843009D01*
X179515225Y-105920419D01*
X179553930Y-106075238D01*
X179553930Y-106191352D01*
X179515225Y-106346171D01*
X179476520Y-106423580D01*
X179399111Y-106500990D01*
X179282997Y-106539695D01*
X179089473Y-106539695D01*
X180328025Y-106539695D02*
X179863568Y-106539695D01*
X180095797Y-106539695D02*
X180095797Y-105726895D01*
X180018387Y-105843009D01*
X179940978Y-105920419D01*
X179863568Y-105959123D01*
X180715073Y-106539695D02*
X180869892Y-106539695D01*
X180947301Y-106500990D01*
X180986006Y-106462285D01*
X181063416Y-106346171D01*
X181102120Y-106191352D01*
X181102120Y-105881714D01*
X181063416Y-105804304D01*
X181024711Y-105765600D01*
X180947301Y-105726895D01*
X180792482Y-105726895D01*
X180715073Y-105765600D01*
X180676368Y-105804304D01*
X180637663Y-105881714D01*
X180637663Y-106075238D01*
X180676368Y-106152647D01*
X180715073Y-106191352D01*
X180792482Y-106230057D01*
X180947301Y-106230057D01*
X181024711Y-106191352D01*
X181063416Y-106152647D01*
X181102120Y-106075238D01*
%TO.C,D18*%
X163341473Y-107047695D02*
X163341473Y-106234895D01*
X163534997Y-106234895D01*
X163651111Y-106273600D01*
X163728520Y-106351009D01*
X163767225Y-106428419D01*
X163805930Y-106583238D01*
X163805930Y-106699352D01*
X163767225Y-106854171D01*
X163728520Y-106931580D01*
X163651111Y-107008990D01*
X163534997Y-107047695D01*
X163341473Y-107047695D01*
X164580025Y-107047695D02*
X164115568Y-107047695D01*
X164347797Y-107047695D02*
X164347797Y-106234895D01*
X164270387Y-106351009D01*
X164192978Y-106428419D01*
X164115568Y-106467123D01*
X165044482Y-106583238D02*
X164967073Y-106544533D01*
X164928368Y-106505828D01*
X164889663Y-106428419D01*
X164889663Y-106389714D01*
X164928368Y-106312304D01*
X164967073Y-106273600D01*
X165044482Y-106234895D01*
X165199301Y-106234895D01*
X165276711Y-106273600D01*
X165315416Y-106312304D01*
X165354120Y-106389714D01*
X165354120Y-106428419D01*
X165315416Y-106505828D01*
X165276711Y-106544533D01*
X165199301Y-106583238D01*
X165044482Y-106583238D01*
X164967073Y-106621942D01*
X164928368Y-106660647D01*
X164889663Y-106738057D01*
X164889663Y-106892876D01*
X164928368Y-106970285D01*
X164967073Y-107008990D01*
X165044482Y-107047695D01*
X165199301Y-107047695D01*
X165276711Y-107008990D01*
X165315416Y-106970285D01*
X165354120Y-106892876D01*
X165354120Y-106738057D01*
X165315416Y-106660647D01*
X165276711Y-106621942D01*
X165199301Y-106583238D01*
%TO.C,D17*%
X140989473Y-106539695D02*
X140989473Y-105726895D01*
X141182997Y-105726895D01*
X141299111Y-105765600D01*
X141376520Y-105843009D01*
X141415225Y-105920419D01*
X141453930Y-106075238D01*
X141453930Y-106191352D01*
X141415225Y-106346171D01*
X141376520Y-106423580D01*
X141299111Y-106500990D01*
X141182997Y-106539695D01*
X140989473Y-106539695D01*
X142228025Y-106539695D02*
X141763568Y-106539695D01*
X141995797Y-106539695D02*
X141995797Y-105726895D01*
X141918387Y-105843009D01*
X141840978Y-105920419D01*
X141763568Y-105959123D01*
X142498959Y-105726895D02*
X143040825Y-105726895D01*
X142692482Y-106539695D01*
%TO.C,D16*%
X121685473Y-106539695D02*
X121685473Y-105726895D01*
X121878997Y-105726895D01*
X121995111Y-105765600D01*
X122072520Y-105843009D01*
X122111225Y-105920419D01*
X122149930Y-106075238D01*
X122149930Y-106191352D01*
X122111225Y-106346171D01*
X122072520Y-106423580D01*
X121995111Y-106500990D01*
X121878997Y-106539695D01*
X121685473Y-106539695D01*
X122924025Y-106539695D02*
X122459568Y-106539695D01*
X122691797Y-106539695D02*
X122691797Y-105726895D01*
X122614387Y-105843009D01*
X122536978Y-105920419D01*
X122459568Y-105959123D01*
X123620711Y-105726895D02*
X123465892Y-105726895D01*
X123388482Y-105765600D01*
X123349778Y-105804304D01*
X123272368Y-105920419D01*
X123233663Y-106075238D01*
X123233663Y-106384876D01*
X123272368Y-106462285D01*
X123311073Y-106500990D01*
X123388482Y-106539695D01*
X123543301Y-106539695D01*
X123620711Y-106500990D01*
X123659416Y-106462285D01*
X123698120Y-106384876D01*
X123698120Y-106191352D01*
X123659416Y-106113942D01*
X123620711Y-106075238D01*
X123543301Y-106036533D01*
X123388482Y-106036533D01*
X123311073Y-106075238D01*
X123272368Y-106113942D01*
X123233663Y-106191352D01*
%TO.C,D15*%
X102889473Y-106539695D02*
X102889473Y-105726895D01*
X103082997Y-105726895D01*
X103199111Y-105765600D01*
X103276520Y-105843009D01*
X103315225Y-105920419D01*
X103353930Y-106075238D01*
X103353930Y-106191352D01*
X103315225Y-106346171D01*
X103276520Y-106423580D01*
X103199111Y-106500990D01*
X103082997Y-106539695D01*
X102889473Y-106539695D01*
X104128025Y-106539695D02*
X103663568Y-106539695D01*
X103895797Y-106539695D02*
X103895797Y-105726895D01*
X103818387Y-105843009D01*
X103740978Y-105920419D01*
X103663568Y-105959123D01*
X104863416Y-105726895D02*
X104476368Y-105726895D01*
X104437663Y-106113942D01*
X104476368Y-106075238D01*
X104553778Y-106036533D01*
X104747301Y-106036533D01*
X104824711Y-106075238D01*
X104863416Y-106113942D01*
X104902120Y-106191352D01*
X104902120Y-106384876D01*
X104863416Y-106462285D01*
X104824711Y-106500990D01*
X104747301Y-106539695D01*
X104553778Y-106539695D01*
X104476368Y-106500990D01*
X104437663Y-106462285D01*
%TO.C,D14*%
X226841473Y-87235695D02*
X226841473Y-86422895D01*
X227034997Y-86422895D01*
X227151111Y-86461600D01*
X227228520Y-86539009D01*
X227267225Y-86616419D01*
X227305930Y-86771238D01*
X227305930Y-86887352D01*
X227267225Y-87042171D01*
X227228520Y-87119580D01*
X227151111Y-87196990D01*
X227034997Y-87235695D01*
X226841473Y-87235695D01*
X228080025Y-87235695D02*
X227615568Y-87235695D01*
X227847797Y-87235695D02*
X227847797Y-86422895D01*
X227770387Y-86539009D01*
X227692978Y-86616419D01*
X227615568Y-86655123D01*
X228776711Y-86693828D02*
X228776711Y-87235695D01*
X228583187Y-86384190D02*
X228389663Y-86964761D01*
X228892825Y-86964761D01*
%TO.C,D13*%
X198393473Y-87235695D02*
X198393473Y-86422895D01*
X198586997Y-86422895D01*
X198703111Y-86461600D01*
X198780520Y-86539009D01*
X198819225Y-86616419D01*
X198857930Y-86771238D01*
X198857930Y-86887352D01*
X198819225Y-87042171D01*
X198780520Y-87119580D01*
X198703111Y-87196990D01*
X198586997Y-87235695D01*
X198393473Y-87235695D01*
X199632025Y-87235695D02*
X199167568Y-87235695D01*
X199399797Y-87235695D02*
X199399797Y-86422895D01*
X199322387Y-86539009D01*
X199244978Y-86616419D01*
X199167568Y-86655123D01*
X199902959Y-86422895D02*
X200406120Y-86422895D01*
X200135187Y-86732533D01*
X200251301Y-86732533D01*
X200328711Y-86771238D01*
X200367416Y-86809942D01*
X200406120Y-86887352D01*
X200406120Y-87080876D01*
X200367416Y-87158285D01*
X200328711Y-87196990D01*
X200251301Y-87235695D01*
X200019073Y-87235695D01*
X199941663Y-87196990D01*
X199902959Y-87158285D01*
%TO.C,D12*%
X179089473Y-87235695D02*
X179089473Y-86422895D01*
X179282997Y-86422895D01*
X179399111Y-86461600D01*
X179476520Y-86539009D01*
X179515225Y-86616419D01*
X179553930Y-86771238D01*
X179553930Y-86887352D01*
X179515225Y-87042171D01*
X179476520Y-87119580D01*
X179399111Y-87196990D01*
X179282997Y-87235695D01*
X179089473Y-87235695D01*
X180328025Y-87235695D02*
X179863568Y-87235695D01*
X180095797Y-87235695D02*
X180095797Y-86422895D01*
X180018387Y-86539009D01*
X179940978Y-86616419D01*
X179863568Y-86655123D01*
X180637663Y-86500304D02*
X180676368Y-86461600D01*
X180753778Y-86422895D01*
X180947301Y-86422895D01*
X181024711Y-86461600D01*
X181063416Y-86500304D01*
X181102120Y-86577714D01*
X181102120Y-86655123D01*
X181063416Y-86771238D01*
X180598959Y-87235695D01*
X181102120Y-87235695D01*
%TO.C,D11*%
X159785473Y-87235695D02*
X159785473Y-86422895D01*
X159978997Y-86422895D01*
X160095111Y-86461600D01*
X160172520Y-86539009D01*
X160211225Y-86616419D01*
X160249930Y-86771238D01*
X160249930Y-86887352D01*
X160211225Y-87042171D01*
X160172520Y-87119580D01*
X160095111Y-87196990D01*
X159978997Y-87235695D01*
X159785473Y-87235695D01*
X161024025Y-87235695D02*
X160559568Y-87235695D01*
X160791797Y-87235695D02*
X160791797Y-86422895D01*
X160714387Y-86539009D01*
X160636978Y-86616419D01*
X160559568Y-86655123D01*
X161798120Y-87235695D02*
X161333663Y-87235695D01*
X161565892Y-87235695D02*
X161565892Y-86422895D01*
X161488482Y-86539009D01*
X161411073Y-86616419D01*
X161333663Y-86655123D01*
%TO.C,D10*%
X140989473Y-87235695D02*
X140989473Y-86422895D01*
X141182997Y-86422895D01*
X141299111Y-86461600D01*
X141376520Y-86539009D01*
X141415225Y-86616419D01*
X141453930Y-86771238D01*
X141453930Y-86887352D01*
X141415225Y-87042171D01*
X141376520Y-87119580D01*
X141299111Y-87196990D01*
X141182997Y-87235695D01*
X140989473Y-87235695D01*
X142228025Y-87235695D02*
X141763568Y-87235695D01*
X141995797Y-87235695D02*
X141995797Y-86422895D01*
X141918387Y-86539009D01*
X141840978Y-86616419D01*
X141763568Y-86655123D01*
X142731187Y-86422895D02*
X142808597Y-86422895D01*
X142886006Y-86461600D01*
X142924711Y-86500304D01*
X142963416Y-86577714D01*
X143002120Y-86732533D01*
X143002120Y-86926057D01*
X142963416Y-87080876D01*
X142924711Y-87158285D01*
X142886006Y-87196990D01*
X142808597Y-87235695D01*
X142731187Y-87235695D01*
X142653778Y-87196990D01*
X142615073Y-87158285D01*
X142576368Y-87080876D01*
X142537663Y-86926057D01*
X142537663Y-86732533D01*
X142576368Y-86577714D01*
X142615073Y-86500304D01*
X142653778Y-86461600D01*
X142731187Y-86422895D01*
%TO.C,D9*%
X122459568Y-87235695D02*
X122459568Y-86422895D01*
X122653092Y-86422895D01*
X122769206Y-86461600D01*
X122846616Y-86539009D01*
X122885320Y-86616419D01*
X122924025Y-86771238D01*
X122924025Y-86887352D01*
X122885320Y-87042171D01*
X122846616Y-87119580D01*
X122769206Y-87196990D01*
X122653092Y-87235695D01*
X122459568Y-87235695D01*
X123311073Y-87235695D02*
X123465892Y-87235695D01*
X123543301Y-87196990D01*
X123582006Y-87158285D01*
X123659416Y-87042171D01*
X123698120Y-86887352D01*
X123698120Y-86577714D01*
X123659416Y-86500304D01*
X123620711Y-86461600D01*
X123543301Y-86422895D01*
X123388482Y-86422895D01*
X123311073Y-86461600D01*
X123272368Y-86500304D01*
X123233663Y-86577714D01*
X123233663Y-86771238D01*
X123272368Y-86848647D01*
X123311073Y-86887352D01*
X123388482Y-86926057D01*
X123543301Y-86926057D01*
X123620711Y-86887352D01*
X123659416Y-86848647D01*
X123698120Y-86771238D01*
%TO.C,D8*%
X103663568Y-87235695D02*
X103663568Y-86422895D01*
X103857092Y-86422895D01*
X103973206Y-86461600D01*
X104050616Y-86539009D01*
X104089320Y-86616419D01*
X104128025Y-86771238D01*
X104128025Y-86887352D01*
X104089320Y-87042171D01*
X104050616Y-87119580D01*
X103973206Y-87196990D01*
X103857092Y-87235695D01*
X103663568Y-87235695D01*
X104592482Y-86771238D02*
X104515073Y-86732533D01*
X104476368Y-86693828D01*
X104437663Y-86616419D01*
X104437663Y-86577714D01*
X104476368Y-86500304D01*
X104515073Y-86461600D01*
X104592482Y-86422895D01*
X104747301Y-86422895D01*
X104824711Y-86461600D01*
X104863416Y-86500304D01*
X104902120Y-86577714D01*
X104902120Y-86616419D01*
X104863416Y-86693828D01*
X104824711Y-86732533D01*
X104747301Y-86771238D01*
X104592482Y-86771238D01*
X104515073Y-86809942D01*
X104476368Y-86848647D01*
X104437663Y-86926057D01*
X104437663Y-87080876D01*
X104476368Y-87158285D01*
X104515073Y-87196990D01*
X104592482Y-87235695D01*
X104747301Y-87235695D01*
X104824711Y-87196990D01*
X104863416Y-87158285D01*
X104902120Y-87080876D01*
X104902120Y-86926057D01*
X104863416Y-86848647D01*
X104824711Y-86809942D01*
X104747301Y-86771238D01*
%TO.C,D7*%
X227615568Y-68439695D02*
X227615568Y-67626895D01*
X227809092Y-67626895D01*
X227925206Y-67665600D01*
X228002616Y-67743009D01*
X228041320Y-67820419D01*
X228080025Y-67975238D01*
X228080025Y-68091352D01*
X228041320Y-68246171D01*
X228002616Y-68323580D01*
X227925206Y-68400990D01*
X227809092Y-68439695D01*
X227615568Y-68439695D01*
X228350959Y-67626895D02*
X228892825Y-67626895D01*
X228544482Y-68439695D01*
%TO.C,D6*%
X198659568Y-68439695D02*
X198659568Y-67626895D01*
X198853092Y-67626895D01*
X198969206Y-67665600D01*
X199046616Y-67743009D01*
X199085320Y-67820419D01*
X199124025Y-67975238D01*
X199124025Y-68091352D01*
X199085320Y-68246171D01*
X199046616Y-68323580D01*
X198969206Y-68400990D01*
X198853092Y-68439695D01*
X198659568Y-68439695D01*
X199820711Y-67626895D02*
X199665892Y-67626895D01*
X199588482Y-67665600D01*
X199549778Y-67704304D01*
X199472368Y-67820419D01*
X199433663Y-67975238D01*
X199433663Y-68284876D01*
X199472368Y-68362285D01*
X199511073Y-68400990D01*
X199588482Y-68439695D01*
X199743301Y-68439695D01*
X199820711Y-68400990D01*
X199859416Y-68362285D01*
X199898120Y-68284876D01*
X199898120Y-68091352D01*
X199859416Y-68013942D01*
X199820711Y-67975238D01*
X199743301Y-67936533D01*
X199588482Y-67936533D01*
X199511073Y-67975238D01*
X199472368Y-68013942D01*
X199433663Y-68091352D01*
%TO.C,D5*%
X179863568Y-68439695D02*
X179863568Y-67626895D01*
X180057092Y-67626895D01*
X180173206Y-67665600D01*
X180250616Y-67743009D01*
X180289320Y-67820419D01*
X180328025Y-67975238D01*
X180328025Y-68091352D01*
X180289320Y-68246171D01*
X180250616Y-68323580D01*
X180173206Y-68400990D01*
X180057092Y-68439695D01*
X179863568Y-68439695D01*
X181063416Y-67626895D02*
X180676368Y-67626895D01*
X180637663Y-68013942D01*
X180676368Y-67975238D01*
X180753778Y-67936533D01*
X180947301Y-67936533D01*
X181024711Y-67975238D01*
X181063416Y-68013942D01*
X181102120Y-68091352D01*
X181102120Y-68284876D01*
X181063416Y-68362285D01*
X181024711Y-68400990D01*
X180947301Y-68439695D01*
X180753778Y-68439695D01*
X180676368Y-68400990D01*
X180637663Y-68362285D01*
%TO.C,D4*%
X160559568Y-68439695D02*
X160559568Y-67626895D01*
X160753092Y-67626895D01*
X160869206Y-67665600D01*
X160946616Y-67743009D01*
X160985320Y-67820419D01*
X161024025Y-67975238D01*
X161024025Y-68091352D01*
X160985320Y-68246171D01*
X160946616Y-68323580D01*
X160869206Y-68400990D01*
X160753092Y-68439695D01*
X160559568Y-68439695D01*
X161720711Y-67897828D02*
X161720711Y-68439695D01*
X161527187Y-67588190D02*
X161333663Y-68168761D01*
X161836825Y-68168761D01*
%TO.C,D3*%
X141763568Y-68439695D02*
X141763568Y-67626895D01*
X141957092Y-67626895D01*
X142073206Y-67665600D01*
X142150616Y-67743009D01*
X142189320Y-67820419D01*
X142228025Y-67975238D01*
X142228025Y-68091352D01*
X142189320Y-68246171D01*
X142150616Y-68323580D01*
X142073206Y-68400990D01*
X141957092Y-68439695D01*
X141763568Y-68439695D01*
X142498959Y-67626895D02*
X143002120Y-67626895D01*
X142731187Y-67936533D01*
X142847301Y-67936533D01*
X142924711Y-67975238D01*
X142963416Y-68013942D01*
X143002120Y-68091352D01*
X143002120Y-68284876D01*
X142963416Y-68362285D01*
X142924711Y-68400990D01*
X142847301Y-68439695D01*
X142615073Y-68439695D01*
X142537663Y-68400990D01*
X142498959Y-68362285D01*
%TO.C,D2*%
X122967568Y-68439695D02*
X122967568Y-67626895D01*
X123161092Y-67626895D01*
X123277206Y-67665600D01*
X123354616Y-67743009D01*
X123393320Y-67820419D01*
X123432025Y-67975238D01*
X123432025Y-68091352D01*
X123393320Y-68246171D01*
X123354616Y-68323580D01*
X123277206Y-68400990D01*
X123161092Y-68439695D01*
X122967568Y-68439695D01*
X123741663Y-67704304D02*
X123780368Y-67665600D01*
X123857778Y-67626895D01*
X124051301Y-67626895D01*
X124128711Y-67665600D01*
X124167416Y-67704304D01*
X124206120Y-67781714D01*
X124206120Y-67859123D01*
X124167416Y-67975238D01*
X123702959Y-68439695D01*
X124206120Y-68439695D01*
%TO.C,D1*%
X103663568Y-68439695D02*
X103663568Y-67626895D01*
X103857092Y-67626895D01*
X103973206Y-67665600D01*
X104050616Y-67743009D01*
X104089320Y-67820419D01*
X104128025Y-67975238D01*
X104128025Y-68091352D01*
X104089320Y-68246171D01*
X104050616Y-68323580D01*
X103973206Y-68400990D01*
X103857092Y-68439695D01*
X103663568Y-68439695D01*
X104902120Y-68439695D02*
X104437663Y-68439695D01*
X104669892Y-68439695D02*
X104669892Y-67626895D01*
X104592482Y-67743009D01*
X104515073Y-67820419D01*
X104437663Y-67859123D01*
%TO.C,LED31*%
D10*
X210597916Y-111201154D02*
X210597916Y-110401154D01*
X210597916Y-110782107D02*
X211055059Y-110782107D01*
X211055059Y-111201154D02*
X211055059Y-110401154D01*
X211588392Y-110401154D02*
X211740773Y-110401154D01*
X211816964Y-110439250D01*
X211893154Y-110515440D01*
X211931250Y-110667821D01*
X211931250Y-110934488D01*
X211893154Y-111086869D01*
X211816964Y-111163059D01*
X211740773Y-111201154D01*
X211588392Y-111201154D01*
X211512202Y-111163059D01*
X211436011Y-111086869D01*
X211397916Y-110934488D01*
X211397916Y-110667821D01*
X211436011Y-110515440D01*
X211512202Y-110439250D01*
X211588392Y-110401154D01*
X212655059Y-111201154D02*
X212274107Y-111201154D01*
X212274107Y-110401154D01*
X212921726Y-110782107D02*
X213188392Y-110782107D01*
X213302678Y-111201154D02*
X212921726Y-111201154D01*
X212921726Y-110401154D01*
X213302678Y-110401154D01*
D13*
X207866945Y-112897859D02*
X207866945Y-113284907D01*
X207054145Y-113284907D01*
X207441192Y-112626926D02*
X207441192Y-112355992D01*
X207866945Y-112239878D02*
X207866945Y-112626926D01*
X207054145Y-112626926D01*
X207054145Y-112239878D01*
X207866945Y-111891535D02*
X207054145Y-111891535D01*
X207054145Y-111698011D01*
X207092850Y-111581897D01*
X207170259Y-111504488D01*
X207247669Y-111465783D01*
X207402488Y-111427078D01*
X207518602Y-111427078D01*
X207673421Y-111465783D01*
X207750830Y-111504488D01*
X207828240Y-111581897D01*
X207866945Y-111698011D01*
X207866945Y-111891535D01*
X207054145Y-111156145D02*
X207054145Y-110652983D01*
X207363783Y-110923916D01*
X207363783Y-110807802D01*
X207402488Y-110730392D01*
X207441192Y-110691688D01*
X207518602Y-110652983D01*
X207712126Y-110652983D01*
X207789535Y-110691688D01*
X207828240Y-110730392D01*
X207866945Y-110807802D01*
X207866945Y-111040030D01*
X207828240Y-111117440D01*
X207789535Y-111156145D01*
X207866945Y-109878888D02*
X207866945Y-110343345D01*
X207866945Y-110111116D02*
X207054145Y-110111116D01*
X207170259Y-110188526D01*
X207247669Y-110265935D01*
X207286373Y-110343345D01*
%TO.C,LED30*%
D10*
X182022916Y-111201154D02*
X182022916Y-110401154D01*
X182022916Y-110782107D02*
X182480059Y-110782107D01*
X182480059Y-111201154D02*
X182480059Y-110401154D01*
X183013392Y-110401154D02*
X183165773Y-110401154D01*
X183241964Y-110439250D01*
X183318154Y-110515440D01*
X183356250Y-110667821D01*
X183356250Y-110934488D01*
X183318154Y-111086869D01*
X183241964Y-111163059D01*
X183165773Y-111201154D01*
X183013392Y-111201154D01*
X182937202Y-111163059D01*
X182861011Y-111086869D01*
X182822916Y-110934488D01*
X182822916Y-110667821D01*
X182861011Y-110515440D01*
X182937202Y-110439250D01*
X183013392Y-110401154D01*
X184080059Y-111201154D02*
X183699107Y-111201154D01*
X183699107Y-110401154D01*
X184346726Y-110782107D02*
X184613392Y-110782107D01*
X184727678Y-111201154D02*
X184346726Y-111201154D01*
X184346726Y-110401154D01*
X184727678Y-110401154D01*
D13*
X179291945Y-112897859D02*
X179291945Y-113284907D01*
X178479145Y-113284907D01*
X178866192Y-112626926D02*
X178866192Y-112355992D01*
X179291945Y-112239878D02*
X179291945Y-112626926D01*
X178479145Y-112626926D01*
X178479145Y-112239878D01*
X179291945Y-111891535D02*
X178479145Y-111891535D01*
X178479145Y-111698011D01*
X178517850Y-111581897D01*
X178595259Y-111504488D01*
X178672669Y-111465783D01*
X178827488Y-111427078D01*
X178943602Y-111427078D01*
X179098421Y-111465783D01*
X179175830Y-111504488D01*
X179253240Y-111581897D01*
X179291945Y-111698011D01*
X179291945Y-111891535D01*
X178479145Y-111156145D02*
X178479145Y-110652983D01*
X178788783Y-110923916D01*
X178788783Y-110807802D01*
X178827488Y-110730392D01*
X178866192Y-110691688D01*
X178943602Y-110652983D01*
X179137126Y-110652983D01*
X179214535Y-110691688D01*
X179253240Y-110730392D01*
X179291945Y-110807802D01*
X179291945Y-111040030D01*
X179253240Y-111117440D01*
X179214535Y-111156145D01*
X178479145Y-110149821D02*
X178479145Y-110072411D01*
X178517850Y-109995002D01*
X178556554Y-109956297D01*
X178633964Y-109917592D01*
X178788783Y-109878888D01*
X178982307Y-109878888D01*
X179137126Y-109917592D01*
X179214535Y-109956297D01*
X179253240Y-109995002D01*
X179291945Y-110072411D01*
X179291945Y-110149821D01*
X179253240Y-110227230D01*
X179214535Y-110265935D01*
X179137126Y-110304640D01*
X178982307Y-110343345D01*
X178788783Y-110343345D01*
X178633964Y-110304640D01*
X178556554Y-110265935D01*
X178517850Y-110227230D01*
X178479145Y-110149821D01*
%TO.C,LED29*%
D10*
X162972916Y-111201154D02*
X162972916Y-110401154D01*
X162972916Y-110782107D02*
X163430059Y-110782107D01*
X163430059Y-111201154D02*
X163430059Y-110401154D01*
X163963392Y-110401154D02*
X164115773Y-110401154D01*
X164191964Y-110439250D01*
X164268154Y-110515440D01*
X164306250Y-110667821D01*
X164306250Y-110934488D01*
X164268154Y-111086869D01*
X164191964Y-111163059D01*
X164115773Y-111201154D01*
X163963392Y-111201154D01*
X163887202Y-111163059D01*
X163811011Y-111086869D01*
X163772916Y-110934488D01*
X163772916Y-110667821D01*
X163811011Y-110515440D01*
X163887202Y-110439250D01*
X163963392Y-110401154D01*
X165030059Y-111201154D02*
X164649107Y-111201154D01*
X164649107Y-110401154D01*
X165296726Y-110782107D02*
X165563392Y-110782107D01*
X165677678Y-111201154D02*
X165296726Y-111201154D01*
X165296726Y-110401154D01*
X165677678Y-110401154D01*
D13*
X160241945Y-112897859D02*
X160241945Y-113284907D01*
X159429145Y-113284907D01*
X159816192Y-112626926D02*
X159816192Y-112355992D01*
X160241945Y-112239878D02*
X160241945Y-112626926D01*
X159429145Y-112626926D01*
X159429145Y-112239878D01*
X160241945Y-111891535D02*
X159429145Y-111891535D01*
X159429145Y-111698011D01*
X159467850Y-111581897D01*
X159545259Y-111504488D01*
X159622669Y-111465783D01*
X159777488Y-111427078D01*
X159893602Y-111427078D01*
X160048421Y-111465783D01*
X160125830Y-111504488D01*
X160203240Y-111581897D01*
X160241945Y-111698011D01*
X160241945Y-111891535D01*
X159506554Y-111117440D02*
X159467850Y-111078735D01*
X159429145Y-111001326D01*
X159429145Y-110807802D01*
X159467850Y-110730392D01*
X159506554Y-110691688D01*
X159583964Y-110652983D01*
X159661373Y-110652983D01*
X159777488Y-110691688D01*
X160241945Y-111156145D01*
X160241945Y-110652983D01*
X160241945Y-110265935D02*
X160241945Y-110111116D01*
X160203240Y-110033707D01*
X160164535Y-109995002D01*
X160048421Y-109917592D01*
X159893602Y-109878888D01*
X159583964Y-109878888D01*
X159506554Y-109917592D01*
X159467850Y-109956297D01*
X159429145Y-110033707D01*
X159429145Y-110188526D01*
X159467850Y-110265935D01*
X159506554Y-110304640D01*
X159583964Y-110343345D01*
X159777488Y-110343345D01*
X159854897Y-110304640D01*
X159893602Y-110265935D01*
X159932307Y-110188526D01*
X159932307Y-110033707D01*
X159893602Y-109956297D01*
X159854897Y-109917592D01*
X159777488Y-109878888D01*
%TO.C,LED28*%
D10*
X143922916Y-111201154D02*
X143922916Y-110401154D01*
X143922916Y-110782107D02*
X144380059Y-110782107D01*
X144380059Y-111201154D02*
X144380059Y-110401154D01*
X144913392Y-110401154D02*
X145065773Y-110401154D01*
X145141964Y-110439250D01*
X145218154Y-110515440D01*
X145256250Y-110667821D01*
X145256250Y-110934488D01*
X145218154Y-111086869D01*
X145141964Y-111163059D01*
X145065773Y-111201154D01*
X144913392Y-111201154D01*
X144837202Y-111163059D01*
X144761011Y-111086869D01*
X144722916Y-110934488D01*
X144722916Y-110667821D01*
X144761011Y-110515440D01*
X144837202Y-110439250D01*
X144913392Y-110401154D01*
X145980059Y-111201154D02*
X145599107Y-111201154D01*
X145599107Y-110401154D01*
X146246726Y-110782107D02*
X146513392Y-110782107D01*
X146627678Y-111201154D02*
X146246726Y-111201154D01*
X146246726Y-110401154D01*
X146627678Y-110401154D01*
D13*
X141191945Y-112897859D02*
X141191945Y-113284907D01*
X140379145Y-113284907D01*
X140766192Y-112626926D02*
X140766192Y-112355992D01*
X141191945Y-112239878D02*
X141191945Y-112626926D01*
X140379145Y-112626926D01*
X140379145Y-112239878D01*
X141191945Y-111891535D02*
X140379145Y-111891535D01*
X140379145Y-111698011D01*
X140417850Y-111581897D01*
X140495259Y-111504488D01*
X140572669Y-111465783D01*
X140727488Y-111427078D01*
X140843602Y-111427078D01*
X140998421Y-111465783D01*
X141075830Y-111504488D01*
X141153240Y-111581897D01*
X141191945Y-111698011D01*
X141191945Y-111891535D01*
X140456554Y-111117440D02*
X140417850Y-111078735D01*
X140379145Y-111001326D01*
X140379145Y-110807802D01*
X140417850Y-110730392D01*
X140456554Y-110691688D01*
X140533964Y-110652983D01*
X140611373Y-110652983D01*
X140727488Y-110691688D01*
X141191945Y-111156145D01*
X141191945Y-110652983D01*
X140727488Y-110188526D02*
X140688783Y-110265935D01*
X140650078Y-110304640D01*
X140572669Y-110343345D01*
X140533964Y-110343345D01*
X140456554Y-110304640D01*
X140417850Y-110265935D01*
X140379145Y-110188526D01*
X140379145Y-110033707D01*
X140417850Y-109956297D01*
X140456554Y-109917592D01*
X140533964Y-109878888D01*
X140572669Y-109878888D01*
X140650078Y-109917592D01*
X140688783Y-109956297D01*
X140727488Y-110033707D01*
X140727488Y-110188526D01*
X140766192Y-110265935D01*
X140804897Y-110304640D01*
X140882307Y-110343345D01*
X141037126Y-110343345D01*
X141114535Y-110304640D01*
X141153240Y-110265935D01*
X141191945Y-110188526D01*
X141191945Y-110033707D01*
X141153240Y-109956297D01*
X141114535Y-109917592D01*
X141037126Y-109878888D01*
X140882307Y-109878888D01*
X140804897Y-109917592D01*
X140766192Y-109956297D01*
X140727488Y-110033707D01*
%TO.C,LED27*%
D10*
X124872916Y-111201154D02*
X124872916Y-110401154D01*
X124872916Y-110782107D02*
X125330059Y-110782107D01*
X125330059Y-111201154D02*
X125330059Y-110401154D01*
X125863392Y-110401154D02*
X126015773Y-110401154D01*
X126091964Y-110439250D01*
X126168154Y-110515440D01*
X126206250Y-110667821D01*
X126206250Y-110934488D01*
X126168154Y-111086869D01*
X126091964Y-111163059D01*
X126015773Y-111201154D01*
X125863392Y-111201154D01*
X125787202Y-111163059D01*
X125711011Y-111086869D01*
X125672916Y-110934488D01*
X125672916Y-110667821D01*
X125711011Y-110515440D01*
X125787202Y-110439250D01*
X125863392Y-110401154D01*
X126930059Y-111201154D02*
X126549107Y-111201154D01*
X126549107Y-110401154D01*
X127196726Y-110782107D02*
X127463392Y-110782107D01*
X127577678Y-111201154D02*
X127196726Y-111201154D01*
X127196726Y-110401154D01*
X127577678Y-110401154D01*
D13*
X122141945Y-112897859D02*
X122141945Y-113284907D01*
X121329145Y-113284907D01*
X121716192Y-112626926D02*
X121716192Y-112355992D01*
X122141945Y-112239878D02*
X122141945Y-112626926D01*
X121329145Y-112626926D01*
X121329145Y-112239878D01*
X122141945Y-111891535D02*
X121329145Y-111891535D01*
X121329145Y-111698011D01*
X121367850Y-111581897D01*
X121445259Y-111504488D01*
X121522669Y-111465783D01*
X121677488Y-111427078D01*
X121793602Y-111427078D01*
X121948421Y-111465783D01*
X122025830Y-111504488D01*
X122103240Y-111581897D01*
X122141945Y-111698011D01*
X122141945Y-111891535D01*
X121406554Y-111117440D02*
X121367850Y-111078735D01*
X121329145Y-111001326D01*
X121329145Y-110807802D01*
X121367850Y-110730392D01*
X121406554Y-110691688D01*
X121483964Y-110652983D01*
X121561373Y-110652983D01*
X121677488Y-110691688D01*
X122141945Y-111156145D01*
X122141945Y-110652983D01*
X121329145Y-110382050D02*
X121329145Y-109840183D01*
X122141945Y-110188526D01*
%TO.C,LED26*%
D10*
X105822916Y-111201154D02*
X105822916Y-110401154D01*
X105822916Y-110782107D02*
X106280059Y-110782107D01*
X106280059Y-111201154D02*
X106280059Y-110401154D01*
X106813392Y-110401154D02*
X106965773Y-110401154D01*
X107041964Y-110439250D01*
X107118154Y-110515440D01*
X107156250Y-110667821D01*
X107156250Y-110934488D01*
X107118154Y-111086869D01*
X107041964Y-111163059D01*
X106965773Y-111201154D01*
X106813392Y-111201154D01*
X106737202Y-111163059D01*
X106661011Y-111086869D01*
X106622916Y-110934488D01*
X106622916Y-110667821D01*
X106661011Y-110515440D01*
X106737202Y-110439250D01*
X106813392Y-110401154D01*
X107880059Y-111201154D02*
X107499107Y-111201154D01*
X107499107Y-110401154D01*
X108146726Y-110782107D02*
X108413392Y-110782107D01*
X108527678Y-111201154D02*
X108146726Y-111201154D01*
X108146726Y-110401154D01*
X108527678Y-110401154D01*
D13*
X103091945Y-112897859D02*
X103091945Y-113284907D01*
X102279145Y-113284907D01*
X102666192Y-112626926D02*
X102666192Y-112355992D01*
X103091945Y-112239878D02*
X103091945Y-112626926D01*
X102279145Y-112626926D01*
X102279145Y-112239878D01*
X103091945Y-111891535D02*
X102279145Y-111891535D01*
X102279145Y-111698011D01*
X102317850Y-111581897D01*
X102395259Y-111504488D01*
X102472669Y-111465783D01*
X102627488Y-111427078D01*
X102743602Y-111427078D01*
X102898421Y-111465783D01*
X102975830Y-111504488D01*
X103053240Y-111581897D01*
X103091945Y-111698011D01*
X103091945Y-111891535D01*
X102356554Y-111117440D02*
X102317850Y-111078735D01*
X102279145Y-111001326D01*
X102279145Y-110807802D01*
X102317850Y-110730392D01*
X102356554Y-110691688D01*
X102433964Y-110652983D01*
X102511373Y-110652983D01*
X102627488Y-110691688D01*
X103091945Y-111156145D01*
X103091945Y-110652983D01*
X102279145Y-109956297D02*
X102279145Y-110111116D01*
X102317850Y-110188526D01*
X102356554Y-110227230D01*
X102472669Y-110304640D01*
X102627488Y-110343345D01*
X102937126Y-110343345D01*
X103014535Y-110304640D01*
X103053240Y-110265935D01*
X103091945Y-110188526D01*
X103091945Y-110033707D01*
X103053240Y-109956297D01*
X103014535Y-109917592D01*
X102937126Y-109878888D01*
X102743602Y-109878888D01*
X102666192Y-109917592D01*
X102627488Y-109956297D01*
X102588783Y-110033707D01*
X102588783Y-110188526D01*
X102627488Y-110265935D01*
X102666192Y-110304640D01*
X102743602Y-110343345D01*
%TO.C,LED24*%
D10*
X201072916Y-93675154D02*
X201072916Y-92875154D01*
X201072916Y-93256107D02*
X201530059Y-93256107D01*
X201530059Y-93675154D02*
X201530059Y-92875154D01*
X202063392Y-92875154D02*
X202215773Y-92875154D01*
X202291964Y-92913250D01*
X202368154Y-92989440D01*
X202406250Y-93141821D01*
X202406250Y-93408488D01*
X202368154Y-93560869D01*
X202291964Y-93637059D01*
X202215773Y-93675154D01*
X202063392Y-93675154D01*
X201987202Y-93637059D01*
X201911011Y-93560869D01*
X201872916Y-93408488D01*
X201872916Y-93141821D01*
X201911011Y-92989440D01*
X201987202Y-92913250D01*
X202063392Y-92875154D01*
X203130059Y-93675154D02*
X202749107Y-93675154D01*
X202749107Y-92875154D01*
X203396726Y-93256107D02*
X203663392Y-93256107D01*
X203777678Y-93675154D02*
X203396726Y-93675154D01*
X203396726Y-92875154D01*
X203777678Y-92875154D01*
D13*
X207205945Y-93847859D02*
X207205945Y-94234907D01*
X206393145Y-94234907D01*
X206780192Y-93576926D02*
X206780192Y-93305992D01*
X207205945Y-93189878D02*
X207205945Y-93576926D01*
X206393145Y-93576926D01*
X206393145Y-93189878D01*
X207205945Y-92841535D02*
X206393145Y-92841535D01*
X206393145Y-92648011D01*
X206431850Y-92531897D01*
X206509259Y-92454488D01*
X206586669Y-92415783D01*
X206741488Y-92377078D01*
X206857602Y-92377078D01*
X207012421Y-92415783D01*
X207089830Y-92454488D01*
X207167240Y-92531897D01*
X207205945Y-92648011D01*
X207205945Y-92841535D01*
X206470554Y-92067440D02*
X206431850Y-92028735D01*
X206393145Y-91951326D01*
X206393145Y-91757802D01*
X206431850Y-91680392D01*
X206470554Y-91641688D01*
X206547964Y-91602983D01*
X206625373Y-91602983D01*
X206741488Y-91641688D01*
X207205945Y-92106145D01*
X207205945Y-91602983D01*
X206664078Y-90906297D02*
X207205945Y-90906297D01*
X206354440Y-91099821D02*
X206935011Y-91293345D01*
X206935011Y-90790183D01*
%TO.C,LED23*%
D10*
X182022916Y-93675154D02*
X182022916Y-92875154D01*
X182022916Y-93256107D02*
X182480059Y-93256107D01*
X182480059Y-93675154D02*
X182480059Y-92875154D01*
X183013392Y-92875154D02*
X183165773Y-92875154D01*
X183241964Y-92913250D01*
X183318154Y-92989440D01*
X183356250Y-93141821D01*
X183356250Y-93408488D01*
X183318154Y-93560869D01*
X183241964Y-93637059D01*
X183165773Y-93675154D01*
X183013392Y-93675154D01*
X182937202Y-93637059D01*
X182861011Y-93560869D01*
X182822916Y-93408488D01*
X182822916Y-93141821D01*
X182861011Y-92989440D01*
X182937202Y-92913250D01*
X183013392Y-92875154D01*
X184080059Y-93675154D02*
X183699107Y-93675154D01*
X183699107Y-92875154D01*
X184346726Y-93256107D02*
X184613392Y-93256107D01*
X184727678Y-93675154D02*
X184346726Y-93675154D01*
X184346726Y-92875154D01*
X184727678Y-92875154D01*
D13*
X188155945Y-93847859D02*
X188155945Y-94234907D01*
X187343145Y-94234907D01*
X187730192Y-93576926D02*
X187730192Y-93305992D01*
X188155945Y-93189878D02*
X188155945Y-93576926D01*
X187343145Y-93576926D01*
X187343145Y-93189878D01*
X188155945Y-92841535D02*
X187343145Y-92841535D01*
X187343145Y-92648011D01*
X187381850Y-92531897D01*
X187459259Y-92454488D01*
X187536669Y-92415783D01*
X187691488Y-92377078D01*
X187807602Y-92377078D01*
X187962421Y-92415783D01*
X188039830Y-92454488D01*
X188117240Y-92531897D01*
X188155945Y-92648011D01*
X188155945Y-92841535D01*
X187420554Y-92067440D02*
X187381850Y-92028735D01*
X187343145Y-91951326D01*
X187343145Y-91757802D01*
X187381850Y-91680392D01*
X187420554Y-91641688D01*
X187497964Y-91602983D01*
X187575373Y-91602983D01*
X187691488Y-91641688D01*
X188155945Y-92106145D01*
X188155945Y-91602983D01*
X187343145Y-91332050D02*
X187343145Y-90828888D01*
X187652783Y-91099821D01*
X187652783Y-90983707D01*
X187691488Y-90906297D01*
X187730192Y-90867592D01*
X187807602Y-90828888D01*
X188001126Y-90828888D01*
X188078535Y-90867592D01*
X188117240Y-90906297D01*
X188155945Y-90983707D01*
X188155945Y-91215935D01*
X188117240Y-91293345D01*
X188078535Y-91332050D01*
%TO.C,LED22*%
D10*
X162972916Y-93675154D02*
X162972916Y-92875154D01*
X162972916Y-93256107D02*
X163430059Y-93256107D01*
X163430059Y-93675154D02*
X163430059Y-92875154D01*
X163963392Y-92875154D02*
X164115773Y-92875154D01*
X164191964Y-92913250D01*
X164268154Y-92989440D01*
X164306250Y-93141821D01*
X164306250Y-93408488D01*
X164268154Y-93560869D01*
X164191964Y-93637059D01*
X164115773Y-93675154D01*
X163963392Y-93675154D01*
X163887202Y-93637059D01*
X163811011Y-93560869D01*
X163772916Y-93408488D01*
X163772916Y-93141821D01*
X163811011Y-92989440D01*
X163887202Y-92913250D01*
X163963392Y-92875154D01*
X165030059Y-93675154D02*
X164649107Y-93675154D01*
X164649107Y-92875154D01*
X165296726Y-93256107D02*
X165563392Y-93256107D01*
X165677678Y-93675154D02*
X165296726Y-93675154D01*
X165296726Y-92875154D01*
X165677678Y-92875154D01*
D13*
X169105945Y-93847859D02*
X169105945Y-94234907D01*
X168293145Y-94234907D01*
X168680192Y-93576926D02*
X168680192Y-93305992D01*
X169105945Y-93189878D02*
X169105945Y-93576926D01*
X168293145Y-93576926D01*
X168293145Y-93189878D01*
X169105945Y-92841535D02*
X168293145Y-92841535D01*
X168293145Y-92648011D01*
X168331850Y-92531897D01*
X168409259Y-92454488D01*
X168486669Y-92415783D01*
X168641488Y-92377078D01*
X168757602Y-92377078D01*
X168912421Y-92415783D01*
X168989830Y-92454488D01*
X169067240Y-92531897D01*
X169105945Y-92648011D01*
X169105945Y-92841535D01*
X168370554Y-92067440D02*
X168331850Y-92028735D01*
X168293145Y-91951326D01*
X168293145Y-91757802D01*
X168331850Y-91680392D01*
X168370554Y-91641688D01*
X168447964Y-91602983D01*
X168525373Y-91602983D01*
X168641488Y-91641688D01*
X169105945Y-92106145D01*
X169105945Y-91602983D01*
X168370554Y-91293345D02*
X168331850Y-91254640D01*
X168293145Y-91177230D01*
X168293145Y-90983707D01*
X168331850Y-90906297D01*
X168370554Y-90867592D01*
X168447964Y-90828888D01*
X168525373Y-90828888D01*
X168641488Y-90867592D01*
X169105945Y-91332050D01*
X169105945Y-90828888D01*
%TO.C,LED21*%
D10*
X143922916Y-93675154D02*
X143922916Y-92875154D01*
X143922916Y-93256107D02*
X144380059Y-93256107D01*
X144380059Y-93675154D02*
X144380059Y-92875154D01*
X144913392Y-92875154D02*
X145065773Y-92875154D01*
X145141964Y-92913250D01*
X145218154Y-92989440D01*
X145256250Y-93141821D01*
X145256250Y-93408488D01*
X145218154Y-93560869D01*
X145141964Y-93637059D01*
X145065773Y-93675154D01*
X144913392Y-93675154D01*
X144837202Y-93637059D01*
X144761011Y-93560869D01*
X144722916Y-93408488D01*
X144722916Y-93141821D01*
X144761011Y-92989440D01*
X144837202Y-92913250D01*
X144913392Y-92875154D01*
X145980059Y-93675154D02*
X145599107Y-93675154D01*
X145599107Y-92875154D01*
X146246726Y-93256107D02*
X146513392Y-93256107D01*
X146627678Y-93675154D02*
X146246726Y-93675154D01*
X146246726Y-92875154D01*
X146627678Y-92875154D01*
D13*
X150055945Y-93847859D02*
X150055945Y-94234907D01*
X149243145Y-94234907D01*
X149630192Y-93576926D02*
X149630192Y-93305992D01*
X150055945Y-93189878D02*
X150055945Y-93576926D01*
X149243145Y-93576926D01*
X149243145Y-93189878D01*
X150055945Y-92841535D02*
X149243145Y-92841535D01*
X149243145Y-92648011D01*
X149281850Y-92531897D01*
X149359259Y-92454488D01*
X149436669Y-92415783D01*
X149591488Y-92377078D01*
X149707602Y-92377078D01*
X149862421Y-92415783D01*
X149939830Y-92454488D01*
X150017240Y-92531897D01*
X150055945Y-92648011D01*
X150055945Y-92841535D01*
X149320554Y-92067440D02*
X149281850Y-92028735D01*
X149243145Y-91951326D01*
X149243145Y-91757802D01*
X149281850Y-91680392D01*
X149320554Y-91641688D01*
X149397964Y-91602983D01*
X149475373Y-91602983D01*
X149591488Y-91641688D01*
X150055945Y-92106145D01*
X150055945Y-91602983D01*
X150055945Y-90828888D02*
X150055945Y-91293345D01*
X150055945Y-91061116D02*
X149243145Y-91061116D01*
X149359259Y-91138526D01*
X149436669Y-91215935D01*
X149475373Y-91293345D01*
%TO.C,LED20*%
D10*
X124872916Y-93675154D02*
X124872916Y-92875154D01*
X124872916Y-93256107D02*
X125330059Y-93256107D01*
X125330059Y-93675154D02*
X125330059Y-92875154D01*
X125863392Y-92875154D02*
X126015773Y-92875154D01*
X126091964Y-92913250D01*
X126168154Y-92989440D01*
X126206250Y-93141821D01*
X126206250Y-93408488D01*
X126168154Y-93560869D01*
X126091964Y-93637059D01*
X126015773Y-93675154D01*
X125863392Y-93675154D01*
X125787202Y-93637059D01*
X125711011Y-93560869D01*
X125672916Y-93408488D01*
X125672916Y-93141821D01*
X125711011Y-92989440D01*
X125787202Y-92913250D01*
X125863392Y-92875154D01*
X126930059Y-93675154D02*
X126549107Y-93675154D01*
X126549107Y-92875154D01*
X127196726Y-93256107D02*
X127463392Y-93256107D01*
X127577678Y-93675154D02*
X127196726Y-93675154D01*
X127196726Y-92875154D01*
X127577678Y-92875154D01*
D13*
X131005945Y-93847859D02*
X131005945Y-94234907D01*
X130193145Y-94234907D01*
X130580192Y-93576926D02*
X130580192Y-93305992D01*
X131005945Y-93189878D02*
X131005945Y-93576926D01*
X130193145Y-93576926D01*
X130193145Y-93189878D01*
X131005945Y-92841535D02*
X130193145Y-92841535D01*
X130193145Y-92648011D01*
X130231850Y-92531897D01*
X130309259Y-92454488D01*
X130386669Y-92415783D01*
X130541488Y-92377078D01*
X130657602Y-92377078D01*
X130812421Y-92415783D01*
X130889830Y-92454488D01*
X130967240Y-92531897D01*
X131005945Y-92648011D01*
X131005945Y-92841535D01*
X130270554Y-92067440D02*
X130231850Y-92028735D01*
X130193145Y-91951326D01*
X130193145Y-91757802D01*
X130231850Y-91680392D01*
X130270554Y-91641688D01*
X130347964Y-91602983D01*
X130425373Y-91602983D01*
X130541488Y-91641688D01*
X131005945Y-92106145D01*
X131005945Y-91602983D01*
X130193145Y-91099821D02*
X130193145Y-91022411D01*
X130231850Y-90945002D01*
X130270554Y-90906297D01*
X130347964Y-90867592D01*
X130502783Y-90828888D01*
X130696307Y-90828888D01*
X130851126Y-90867592D01*
X130928535Y-90906297D01*
X130967240Y-90945002D01*
X131005945Y-91022411D01*
X131005945Y-91099821D01*
X130967240Y-91177230D01*
X130928535Y-91215935D01*
X130851126Y-91254640D01*
X130696307Y-91293345D01*
X130502783Y-91293345D01*
X130347964Y-91254640D01*
X130270554Y-91215935D01*
X130231850Y-91177230D01*
X130193145Y-91099821D01*
%TO.C,LED19*%
D10*
X105822916Y-93675154D02*
X105822916Y-92875154D01*
X105822916Y-93256107D02*
X106280059Y-93256107D01*
X106280059Y-93675154D02*
X106280059Y-92875154D01*
X106813392Y-92875154D02*
X106965773Y-92875154D01*
X107041964Y-92913250D01*
X107118154Y-92989440D01*
X107156250Y-93141821D01*
X107156250Y-93408488D01*
X107118154Y-93560869D01*
X107041964Y-93637059D01*
X106965773Y-93675154D01*
X106813392Y-93675154D01*
X106737202Y-93637059D01*
X106661011Y-93560869D01*
X106622916Y-93408488D01*
X106622916Y-93141821D01*
X106661011Y-92989440D01*
X106737202Y-92913250D01*
X106813392Y-92875154D01*
X107880059Y-93675154D02*
X107499107Y-93675154D01*
X107499107Y-92875154D01*
X108146726Y-93256107D02*
X108413392Y-93256107D01*
X108527678Y-93675154D02*
X108146726Y-93675154D01*
X108146726Y-92875154D01*
X108527678Y-92875154D01*
D13*
X111955945Y-93847859D02*
X111955945Y-94234907D01*
X111143145Y-94234907D01*
X111530192Y-93576926D02*
X111530192Y-93305992D01*
X111955945Y-93189878D02*
X111955945Y-93576926D01*
X111143145Y-93576926D01*
X111143145Y-93189878D01*
X111955945Y-92841535D02*
X111143145Y-92841535D01*
X111143145Y-92648011D01*
X111181850Y-92531897D01*
X111259259Y-92454488D01*
X111336669Y-92415783D01*
X111491488Y-92377078D01*
X111607602Y-92377078D01*
X111762421Y-92415783D01*
X111839830Y-92454488D01*
X111917240Y-92531897D01*
X111955945Y-92648011D01*
X111955945Y-92841535D01*
X111955945Y-91602983D02*
X111955945Y-92067440D01*
X111955945Y-91835211D02*
X111143145Y-91835211D01*
X111259259Y-91912621D01*
X111336669Y-91990030D01*
X111375373Y-92067440D01*
X111955945Y-91215935D02*
X111955945Y-91061116D01*
X111917240Y-90983707D01*
X111878535Y-90945002D01*
X111762421Y-90867592D01*
X111607602Y-90828888D01*
X111297964Y-90828888D01*
X111220554Y-90867592D01*
X111181850Y-90906297D01*
X111143145Y-90983707D01*
X111143145Y-91138526D01*
X111181850Y-91215935D01*
X111220554Y-91254640D01*
X111297964Y-91293345D01*
X111491488Y-91293345D01*
X111568897Y-91254640D01*
X111607602Y-91215935D01*
X111646307Y-91138526D01*
X111646307Y-90983707D01*
X111607602Y-90906297D01*
X111568897Y-90867592D01*
X111491488Y-90828888D01*
%TO.C,LED18*%
D10*
X229647916Y-73101154D02*
X229647916Y-72301154D01*
X229647916Y-72682107D02*
X230105059Y-72682107D01*
X230105059Y-73101154D02*
X230105059Y-72301154D01*
X230638392Y-72301154D02*
X230790773Y-72301154D01*
X230866964Y-72339250D01*
X230943154Y-72415440D01*
X230981250Y-72567821D01*
X230981250Y-72834488D01*
X230943154Y-72986869D01*
X230866964Y-73063059D01*
X230790773Y-73101154D01*
X230638392Y-73101154D01*
X230562202Y-73063059D01*
X230486011Y-72986869D01*
X230447916Y-72834488D01*
X230447916Y-72567821D01*
X230486011Y-72415440D01*
X230562202Y-72339250D01*
X230638392Y-72301154D01*
X231705059Y-73101154D02*
X231324107Y-73101154D01*
X231324107Y-72301154D01*
X231971726Y-72682107D02*
X232238392Y-72682107D01*
X232352678Y-73101154D02*
X231971726Y-73101154D01*
X231971726Y-72301154D01*
X232352678Y-72301154D01*
D13*
X226916945Y-74797859D02*
X226916945Y-75184907D01*
X226104145Y-75184907D01*
X226491192Y-74526926D02*
X226491192Y-74255992D01*
X226916945Y-74139878D02*
X226916945Y-74526926D01*
X226104145Y-74526926D01*
X226104145Y-74139878D01*
X226916945Y-73791535D02*
X226104145Y-73791535D01*
X226104145Y-73598011D01*
X226142850Y-73481897D01*
X226220259Y-73404488D01*
X226297669Y-73365783D01*
X226452488Y-73327078D01*
X226568602Y-73327078D01*
X226723421Y-73365783D01*
X226800830Y-73404488D01*
X226878240Y-73481897D01*
X226916945Y-73598011D01*
X226916945Y-73791535D01*
X226916945Y-72552983D02*
X226916945Y-73017440D01*
X226916945Y-72785211D02*
X226104145Y-72785211D01*
X226220259Y-72862621D01*
X226297669Y-72940030D01*
X226336373Y-73017440D01*
X226452488Y-72088526D02*
X226413783Y-72165935D01*
X226375078Y-72204640D01*
X226297669Y-72243345D01*
X226258964Y-72243345D01*
X226181554Y-72204640D01*
X226142850Y-72165935D01*
X226104145Y-72088526D01*
X226104145Y-71933707D01*
X226142850Y-71856297D01*
X226181554Y-71817592D01*
X226258964Y-71778888D01*
X226297669Y-71778888D01*
X226375078Y-71817592D01*
X226413783Y-71856297D01*
X226452488Y-71933707D01*
X226452488Y-72088526D01*
X226491192Y-72165935D01*
X226529897Y-72204640D01*
X226607307Y-72243345D01*
X226762126Y-72243345D01*
X226839535Y-72204640D01*
X226878240Y-72165935D01*
X226916945Y-72088526D01*
X226916945Y-71933707D01*
X226878240Y-71856297D01*
X226839535Y-71817592D01*
X226762126Y-71778888D01*
X226607307Y-71778888D01*
X226529897Y-71817592D01*
X226491192Y-71856297D01*
X226452488Y-71933707D01*
%TO.C,LED17*%
D10*
X201072916Y-73101154D02*
X201072916Y-72301154D01*
X201072916Y-72682107D02*
X201530059Y-72682107D01*
X201530059Y-73101154D02*
X201530059Y-72301154D01*
X202063392Y-72301154D02*
X202215773Y-72301154D01*
X202291964Y-72339250D01*
X202368154Y-72415440D01*
X202406250Y-72567821D01*
X202406250Y-72834488D01*
X202368154Y-72986869D01*
X202291964Y-73063059D01*
X202215773Y-73101154D01*
X202063392Y-73101154D01*
X201987202Y-73063059D01*
X201911011Y-72986869D01*
X201872916Y-72834488D01*
X201872916Y-72567821D01*
X201911011Y-72415440D01*
X201987202Y-72339250D01*
X202063392Y-72301154D01*
X203130059Y-73101154D02*
X202749107Y-73101154D01*
X202749107Y-72301154D01*
X203396726Y-72682107D02*
X203663392Y-72682107D01*
X203777678Y-73101154D02*
X203396726Y-73101154D01*
X203396726Y-72301154D01*
X203777678Y-72301154D01*
D13*
X198341945Y-74797859D02*
X198341945Y-75184907D01*
X197529145Y-75184907D01*
X197916192Y-74526926D02*
X197916192Y-74255992D01*
X198341945Y-74139878D02*
X198341945Y-74526926D01*
X197529145Y-74526926D01*
X197529145Y-74139878D01*
X198341945Y-73791535D02*
X197529145Y-73791535D01*
X197529145Y-73598011D01*
X197567850Y-73481897D01*
X197645259Y-73404488D01*
X197722669Y-73365783D01*
X197877488Y-73327078D01*
X197993602Y-73327078D01*
X198148421Y-73365783D01*
X198225830Y-73404488D01*
X198303240Y-73481897D01*
X198341945Y-73598011D01*
X198341945Y-73791535D01*
X198341945Y-72552983D02*
X198341945Y-73017440D01*
X198341945Y-72785211D02*
X197529145Y-72785211D01*
X197645259Y-72862621D01*
X197722669Y-72940030D01*
X197761373Y-73017440D01*
X197529145Y-72282050D02*
X197529145Y-71740183D01*
X198341945Y-72088526D01*
%TO.C,LED16*%
D10*
X182022916Y-73101154D02*
X182022916Y-72301154D01*
X182022916Y-72682107D02*
X182480059Y-72682107D01*
X182480059Y-73101154D02*
X182480059Y-72301154D01*
X183013392Y-72301154D02*
X183165773Y-72301154D01*
X183241964Y-72339250D01*
X183318154Y-72415440D01*
X183356250Y-72567821D01*
X183356250Y-72834488D01*
X183318154Y-72986869D01*
X183241964Y-73063059D01*
X183165773Y-73101154D01*
X183013392Y-73101154D01*
X182937202Y-73063059D01*
X182861011Y-72986869D01*
X182822916Y-72834488D01*
X182822916Y-72567821D01*
X182861011Y-72415440D01*
X182937202Y-72339250D01*
X183013392Y-72301154D01*
X184080059Y-73101154D02*
X183699107Y-73101154D01*
X183699107Y-72301154D01*
X184346726Y-72682107D02*
X184613392Y-72682107D01*
X184727678Y-73101154D02*
X184346726Y-73101154D01*
X184346726Y-72301154D01*
X184727678Y-72301154D01*
D13*
X179291945Y-74797859D02*
X179291945Y-75184907D01*
X178479145Y-75184907D01*
X178866192Y-74526926D02*
X178866192Y-74255992D01*
X179291945Y-74139878D02*
X179291945Y-74526926D01*
X178479145Y-74526926D01*
X178479145Y-74139878D01*
X179291945Y-73791535D02*
X178479145Y-73791535D01*
X178479145Y-73598011D01*
X178517850Y-73481897D01*
X178595259Y-73404488D01*
X178672669Y-73365783D01*
X178827488Y-73327078D01*
X178943602Y-73327078D01*
X179098421Y-73365783D01*
X179175830Y-73404488D01*
X179253240Y-73481897D01*
X179291945Y-73598011D01*
X179291945Y-73791535D01*
X179291945Y-72552983D02*
X179291945Y-73017440D01*
X179291945Y-72785211D02*
X178479145Y-72785211D01*
X178595259Y-72862621D01*
X178672669Y-72940030D01*
X178711373Y-73017440D01*
X178479145Y-71856297D02*
X178479145Y-72011116D01*
X178517850Y-72088526D01*
X178556554Y-72127230D01*
X178672669Y-72204640D01*
X178827488Y-72243345D01*
X179137126Y-72243345D01*
X179214535Y-72204640D01*
X179253240Y-72165935D01*
X179291945Y-72088526D01*
X179291945Y-71933707D01*
X179253240Y-71856297D01*
X179214535Y-71817592D01*
X179137126Y-71778888D01*
X178943602Y-71778888D01*
X178866192Y-71817592D01*
X178827488Y-71856297D01*
X178788783Y-71933707D01*
X178788783Y-72088526D01*
X178827488Y-72165935D01*
X178866192Y-72204640D01*
X178943602Y-72243345D01*
%TO.C,LED15*%
D10*
X162972916Y-73101154D02*
X162972916Y-72301154D01*
X162972916Y-72682107D02*
X163430059Y-72682107D01*
X163430059Y-73101154D02*
X163430059Y-72301154D01*
X163963392Y-72301154D02*
X164115773Y-72301154D01*
X164191964Y-72339250D01*
X164268154Y-72415440D01*
X164306250Y-72567821D01*
X164306250Y-72834488D01*
X164268154Y-72986869D01*
X164191964Y-73063059D01*
X164115773Y-73101154D01*
X163963392Y-73101154D01*
X163887202Y-73063059D01*
X163811011Y-72986869D01*
X163772916Y-72834488D01*
X163772916Y-72567821D01*
X163811011Y-72415440D01*
X163887202Y-72339250D01*
X163963392Y-72301154D01*
X165030059Y-73101154D02*
X164649107Y-73101154D01*
X164649107Y-72301154D01*
X165296726Y-72682107D02*
X165563392Y-72682107D01*
X165677678Y-73101154D02*
X165296726Y-73101154D01*
X165296726Y-72301154D01*
X165677678Y-72301154D01*
D13*
X160241945Y-74797859D02*
X160241945Y-75184907D01*
X159429145Y-75184907D01*
X159816192Y-74526926D02*
X159816192Y-74255992D01*
X160241945Y-74139878D02*
X160241945Y-74526926D01*
X159429145Y-74526926D01*
X159429145Y-74139878D01*
X160241945Y-73791535D02*
X159429145Y-73791535D01*
X159429145Y-73598011D01*
X159467850Y-73481897D01*
X159545259Y-73404488D01*
X159622669Y-73365783D01*
X159777488Y-73327078D01*
X159893602Y-73327078D01*
X160048421Y-73365783D01*
X160125830Y-73404488D01*
X160203240Y-73481897D01*
X160241945Y-73598011D01*
X160241945Y-73791535D01*
X160241945Y-72552983D02*
X160241945Y-73017440D01*
X160241945Y-72785211D02*
X159429145Y-72785211D01*
X159545259Y-72862621D01*
X159622669Y-72940030D01*
X159661373Y-73017440D01*
X159429145Y-71817592D02*
X159429145Y-72204640D01*
X159816192Y-72243345D01*
X159777488Y-72204640D01*
X159738783Y-72127230D01*
X159738783Y-71933707D01*
X159777488Y-71856297D01*
X159816192Y-71817592D01*
X159893602Y-71778888D01*
X160087126Y-71778888D01*
X160164535Y-71817592D01*
X160203240Y-71856297D01*
X160241945Y-71933707D01*
X160241945Y-72127230D01*
X160203240Y-72204640D01*
X160164535Y-72243345D01*
%TO.C,LED14*%
D10*
X143922916Y-73101154D02*
X143922916Y-72301154D01*
X143922916Y-72682107D02*
X144380059Y-72682107D01*
X144380059Y-73101154D02*
X144380059Y-72301154D01*
X144913392Y-72301154D02*
X145065773Y-72301154D01*
X145141964Y-72339250D01*
X145218154Y-72415440D01*
X145256250Y-72567821D01*
X145256250Y-72834488D01*
X145218154Y-72986869D01*
X145141964Y-73063059D01*
X145065773Y-73101154D01*
X144913392Y-73101154D01*
X144837202Y-73063059D01*
X144761011Y-72986869D01*
X144722916Y-72834488D01*
X144722916Y-72567821D01*
X144761011Y-72415440D01*
X144837202Y-72339250D01*
X144913392Y-72301154D01*
X145980059Y-73101154D02*
X145599107Y-73101154D01*
X145599107Y-72301154D01*
X146246726Y-72682107D02*
X146513392Y-72682107D01*
X146627678Y-73101154D02*
X146246726Y-73101154D01*
X146246726Y-72301154D01*
X146627678Y-72301154D01*
D13*
X141191945Y-74797859D02*
X141191945Y-75184907D01*
X140379145Y-75184907D01*
X140766192Y-74526926D02*
X140766192Y-74255992D01*
X141191945Y-74139878D02*
X141191945Y-74526926D01*
X140379145Y-74526926D01*
X140379145Y-74139878D01*
X141191945Y-73791535D02*
X140379145Y-73791535D01*
X140379145Y-73598011D01*
X140417850Y-73481897D01*
X140495259Y-73404488D01*
X140572669Y-73365783D01*
X140727488Y-73327078D01*
X140843602Y-73327078D01*
X140998421Y-73365783D01*
X141075830Y-73404488D01*
X141153240Y-73481897D01*
X141191945Y-73598011D01*
X141191945Y-73791535D01*
X141191945Y-72552983D02*
X141191945Y-73017440D01*
X141191945Y-72785211D02*
X140379145Y-72785211D01*
X140495259Y-72862621D01*
X140572669Y-72940030D01*
X140611373Y-73017440D01*
X140650078Y-71856297D02*
X141191945Y-71856297D01*
X140340440Y-72049821D02*
X140921011Y-72243345D01*
X140921011Y-71740183D01*
%TO.C,LED13*%
D10*
X124872916Y-73101154D02*
X124872916Y-72301154D01*
X124872916Y-72682107D02*
X125330059Y-72682107D01*
X125330059Y-73101154D02*
X125330059Y-72301154D01*
X125863392Y-72301154D02*
X126015773Y-72301154D01*
X126091964Y-72339250D01*
X126168154Y-72415440D01*
X126206250Y-72567821D01*
X126206250Y-72834488D01*
X126168154Y-72986869D01*
X126091964Y-73063059D01*
X126015773Y-73101154D01*
X125863392Y-73101154D01*
X125787202Y-73063059D01*
X125711011Y-72986869D01*
X125672916Y-72834488D01*
X125672916Y-72567821D01*
X125711011Y-72415440D01*
X125787202Y-72339250D01*
X125863392Y-72301154D01*
X126930059Y-73101154D02*
X126549107Y-73101154D01*
X126549107Y-72301154D01*
X127196726Y-72682107D02*
X127463392Y-72682107D01*
X127577678Y-73101154D02*
X127196726Y-73101154D01*
X127196726Y-72301154D01*
X127577678Y-72301154D01*
D13*
X122141945Y-74797859D02*
X122141945Y-75184907D01*
X121329145Y-75184907D01*
X121716192Y-74526926D02*
X121716192Y-74255992D01*
X122141945Y-74139878D02*
X122141945Y-74526926D01*
X121329145Y-74526926D01*
X121329145Y-74139878D01*
X122141945Y-73791535D02*
X121329145Y-73791535D01*
X121329145Y-73598011D01*
X121367850Y-73481897D01*
X121445259Y-73404488D01*
X121522669Y-73365783D01*
X121677488Y-73327078D01*
X121793602Y-73327078D01*
X121948421Y-73365783D01*
X122025830Y-73404488D01*
X122103240Y-73481897D01*
X122141945Y-73598011D01*
X122141945Y-73791535D01*
X122141945Y-72552983D02*
X122141945Y-73017440D01*
X122141945Y-72785211D02*
X121329145Y-72785211D01*
X121445259Y-72862621D01*
X121522669Y-72940030D01*
X121561373Y-73017440D01*
X121329145Y-72282050D02*
X121329145Y-71778888D01*
X121638783Y-72049821D01*
X121638783Y-71933707D01*
X121677488Y-71856297D01*
X121716192Y-71817592D01*
X121793602Y-71778888D01*
X121987126Y-71778888D01*
X122064535Y-71817592D01*
X122103240Y-71856297D01*
X122141945Y-71933707D01*
X122141945Y-72165935D01*
X122103240Y-72243345D01*
X122064535Y-72282050D01*
%TO.C,LED12*%
D10*
X105822916Y-73101154D02*
X105822916Y-72301154D01*
X105822916Y-72682107D02*
X106280059Y-72682107D01*
X106280059Y-73101154D02*
X106280059Y-72301154D01*
X106813392Y-72301154D02*
X106965773Y-72301154D01*
X107041964Y-72339250D01*
X107118154Y-72415440D01*
X107156250Y-72567821D01*
X107156250Y-72834488D01*
X107118154Y-72986869D01*
X107041964Y-73063059D01*
X106965773Y-73101154D01*
X106813392Y-73101154D01*
X106737202Y-73063059D01*
X106661011Y-72986869D01*
X106622916Y-72834488D01*
X106622916Y-72567821D01*
X106661011Y-72415440D01*
X106737202Y-72339250D01*
X106813392Y-72301154D01*
X107880059Y-73101154D02*
X107499107Y-73101154D01*
X107499107Y-72301154D01*
X108146726Y-72682107D02*
X108413392Y-72682107D01*
X108527678Y-73101154D02*
X108146726Y-73101154D01*
X108146726Y-72301154D01*
X108527678Y-72301154D01*
D13*
X103091945Y-74797859D02*
X103091945Y-75184907D01*
X102279145Y-75184907D01*
X102666192Y-74526926D02*
X102666192Y-74255992D01*
X103091945Y-74139878D02*
X103091945Y-74526926D01*
X102279145Y-74526926D01*
X102279145Y-74139878D01*
X103091945Y-73791535D02*
X102279145Y-73791535D01*
X102279145Y-73598011D01*
X102317850Y-73481897D01*
X102395259Y-73404488D01*
X102472669Y-73365783D01*
X102627488Y-73327078D01*
X102743602Y-73327078D01*
X102898421Y-73365783D01*
X102975830Y-73404488D01*
X103053240Y-73481897D01*
X103091945Y-73598011D01*
X103091945Y-73791535D01*
X103091945Y-72552983D02*
X103091945Y-73017440D01*
X103091945Y-72785211D02*
X102279145Y-72785211D01*
X102395259Y-72862621D01*
X102472669Y-72940030D01*
X102511373Y-73017440D01*
X102356554Y-72243345D02*
X102317850Y-72204640D01*
X102279145Y-72127230D01*
X102279145Y-71933707D01*
X102317850Y-71856297D01*
X102356554Y-71817592D01*
X102433964Y-71778888D01*
X102511373Y-71778888D01*
X102627488Y-71817592D01*
X103091945Y-72282050D01*
X103091945Y-71778888D01*
%TO.C,LED11*%
D10*
X229647916Y-55575154D02*
X229647916Y-54775154D01*
X229647916Y-55156107D02*
X230105059Y-55156107D01*
X230105059Y-55575154D02*
X230105059Y-54775154D01*
X230638392Y-54775154D02*
X230790773Y-54775154D01*
X230866964Y-54813250D01*
X230943154Y-54889440D01*
X230981250Y-55041821D01*
X230981250Y-55308488D01*
X230943154Y-55460869D01*
X230866964Y-55537059D01*
X230790773Y-55575154D01*
X230638392Y-55575154D01*
X230562202Y-55537059D01*
X230486011Y-55460869D01*
X230447916Y-55308488D01*
X230447916Y-55041821D01*
X230486011Y-54889440D01*
X230562202Y-54813250D01*
X230638392Y-54775154D01*
X231705059Y-55575154D02*
X231324107Y-55575154D01*
X231324107Y-54775154D01*
X231971726Y-55156107D02*
X232238392Y-55156107D01*
X232352678Y-55575154D02*
X231971726Y-55575154D01*
X231971726Y-54775154D01*
X232352678Y-54775154D01*
D13*
X235780945Y-55747859D02*
X235780945Y-56134907D01*
X234968145Y-56134907D01*
X235355192Y-55476926D02*
X235355192Y-55205992D01*
X235780945Y-55089878D02*
X235780945Y-55476926D01*
X234968145Y-55476926D01*
X234968145Y-55089878D01*
X235780945Y-54741535D02*
X234968145Y-54741535D01*
X234968145Y-54548011D01*
X235006850Y-54431897D01*
X235084259Y-54354488D01*
X235161669Y-54315783D01*
X235316488Y-54277078D01*
X235432602Y-54277078D01*
X235587421Y-54315783D01*
X235664830Y-54354488D01*
X235742240Y-54431897D01*
X235780945Y-54548011D01*
X235780945Y-54741535D01*
X235780945Y-53502983D02*
X235780945Y-53967440D01*
X235780945Y-53735211D02*
X234968145Y-53735211D01*
X235084259Y-53812621D01*
X235161669Y-53890030D01*
X235200373Y-53967440D01*
X235780945Y-52728888D02*
X235780945Y-53193345D01*
X235780945Y-52961116D02*
X234968145Y-52961116D01*
X235084259Y-53038526D01*
X235161669Y-53115935D01*
X235200373Y-53193345D01*
%TO.C,LED10*%
D10*
X201072916Y-55575154D02*
X201072916Y-54775154D01*
X201072916Y-55156107D02*
X201530059Y-55156107D01*
X201530059Y-55575154D02*
X201530059Y-54775154D01*
X202063392Y-54775154D02*
X202215773Y-54775154D01*
X202291964Y-54813250D01*
X202368154Y-54889440D01*
X202406250Y-55041821D01*
X202406250Y-55308488D01*
X202368154Y-55460869D01*
X202291964Y-55537059D01*
X202215773Y-55575154D01*
X202063392Y-55575154D01*
X201987202Y-55537059D01*
X201911011Y-55460869D01*
X201872916Y-55308488D01*
X201872916Y-55041821D01*
X201911011Y-54889440D01*
X201987202Y-54813250D01*
X202063392Y-54775154D01*
X203130059Y-55575154D02*
X202749107Y-55575154D01*
X202749107Y-54775154D01*
X203396726Y-55156107D02*
X203663392Y-55156107D01*
X203777678Y-55575154D02*
X203396726Y-55575154D01*
X203396726Y-54775154D01*
X203777678Y-54775154D01*
D13*
X207205945Y-55747859D02*
X207205945Y-56134907D01*
X206393145Y-56134907D01*
X206780192Y-55476926D02*
X206780192Y-55205992D01*
X207205945Y-55089878D02*
X207205945Y-55476926D01*
X206393145Y-55476926D01*
X206393145Y-55089878D01*
X207205945Y-54741535D02*
X206393145Y-54741535D01*
X206393145Y-54548011D01*
X206431850Y-54431897D01*
X206509259Y-54354488D01*
X206586669Y-54315783D01*
X206741488Y-54277078D01*
X206857602Y-54277078D01*
X207012421Y-54315783D01*
X207089830Y-54354488D01*
X207167240Y-54431897D01*
X207205945Y-54548011D01*
X207205945Y-54741535D01*
X207205945Y-53502983D02*
X207205945Y-53967440D01*
X207205945Y-53735211D02*
X206393145Y-53735211D01*
X206509259Y-53812621D01*
X206586669Y-53890030D01*
X206625373Y-53967440D01*
X206393145Y-52999821D02*
X206393145Y-52922411D01*
X206431850Y-52845002D01*
X206470554Y-52806297D01*
X206547964Y-52767592D01*
X206702783Y-52728888D01*
X206896307Y-52728888D01*
X207051126Y-52767592D01*
X207128535Y-52806297D01*
X207167240Y-52845002D01*
X207205945Y-52922411D01*
X207205945Y-52999821D01*
X207167240Y-53077230D01*
X207128535Y-53115935D01*
X207051126Y-53154640D01*
X206896307Y-53193345D01*
X206702783Y-53193345D01*
X206547964Y-53154640D01*
X206470554Y-53115935D01*
X206431850Y-53077230D01*
X206393145Y-52999821D01*
%TO.C,LED9*%
D10*
X182022916Y-55575154D02*
X182022916Y-54775154D01*
X182022916Y-55156107D02*
X182480059Y-55156107D01*
X182480059Y-55575154D02*
X182480059Y-54775154D01*
X183013392Y-54775154D02*
X183165773Y-54775154D01*
X183241964Y-54813250D01*
X183318154Y-54889440D01*
X183356250Y-55041821D01*
X183356250Y-55308488D01*
X183318154Y-55460869D01*
X183241964Y-55537059D01*
X183165773Y-55575154D01*
X183013392Y-55575154D01*
X182937202Y-55537059D01*
X182861011Y-55460869D01*
X182822916Y-55308488D01*
X182822916Y-55041821D01*
X182861011Y-54889440D01*
X182937202Y-54813250D01*
X183013392Y-54775154D01*
X184080059Y-55575154D02*
X183699107Y-55575154D01*
X183699107Y-54775154D01*
X184346726Y-55156107D02*
X184613392Y-55156107D01*
X184727678Y-55575154D02*
X184346726Y-55575154D01*
X184346726Y-54775154D01*
X184727678Y-54775154D01*
D13*
X188155945Y-55360811D02*
X188155945Y-55747859D01*
X187343145Y-55747859D01*
X187730192Y-55089878D02*
X187730192Y-54818945D01*
X188155945Y-54702830D02*
X188155945Y-55089878D01*
X187343145Y-55089878D01*
X187343145Y-54702830D01*
X188155945Y-54354488D02*
X187343145Y-54354488D01*
X187343145Y-54160964D01*
X187381850Y-54044850D01*
X187459259Y-53967440D01*
X187536669Y-53928735D01*
X187691488Y-53890030D01*
X187807602Y-53890030D01*
X187962421Y-53928735D01*
X188039830Y-53967440D01*
X188117240Y-54044850D01*
X188155945Y-54160964D01*
X188155945Y-54354488D01*
X188155945Y-53502983D02*
X188155945Y-53348164D01*
X188117240Y-53270754D01*
X188078535Y-53232050D01*
X187962421Y-53154640D01*
X187807602Y-53115935D01*
X187497964Y-53115935D01*
X187420554Y-53154640D01*
X187381850Y-53193345D01*
X187343145Y-53270754D01*
X187343145Y-53425573D01*
X187381850Y-53502983D01*
X187420554Y-53541688D01*
X187497964Y-53580392D01*
X187691488Y-53580392D01*
X187768897Y-53541688D01*
X187807602Y-53502983D01*
X187846307Y-53425573D01*
X187846307Y-53270754D01*
X187807602Y-53193345D01*
X187768897Y-53154640D01*
X187691488Y-53115935D01*
%TO.C,LED8*%
D10*
X162972916Y-55575154D02*
X162972916Y-54775154D01*
X162972916Y-55156107D02*
X163430059Y-55156107D01*
X163430059Y-55575154D02*
X163430059Y-54775154D01*
X163963392Y-54775154D02*
X164115773Y-54775154D01*
X164191964Y-54813250D01*
X164268154Y-54889440D01*
X164306250Y-55041821D01*
X164306250Y-55308488D01*
X164268154Y-55460869D01*
X164191964Y-55537059D01*
X164115773Y-55575154D01*
X163963392Y-55575154D01*
X163887202Y-55537059D01*
X163811011Y-55460869D01*
X163772916Y-55308488D01*
X163772916Y-55041821D01*
X163811011Y-54889440D01*
X163887202Y-54813250D01*
X163963392Y-54775154D01*
X165030059Y-55575154D02*
X164649107Y-55575154D01*
X164649107Y-54775154D01*
X165296726Y-55156107D02*
X165563392Y-55156107D01*
X165677678Y-55575154D02*
X165296726Y-55575154D01*
X165296726Y-54775154D01*
X165677678Y-54775154D01*
D13*
X169105945Y-55360811D02*
X169105945Y-55747859D01*
X168293145Y-55747859D01*
X168680192Y-55089878D02*
X168680192Y-54818945D01*
X169105945Y-54702830D02*
X169105945Y-55089878D01*
X168293145Y-55089878D01*
X168293145Y-54702830D01*
X169105945Y-54354488D02*
X168293145Y-54354488D01*
X168293145Y-54160964D01*
X168331850Y-54044850D01*
X168409259Y-53967440D01*
X168486669Y-53928735D01*
X168641488Y-53890030D01*
X168757602Y-53890030D01*
X168912421Y-53928735D01*
X168989830Y-53967440D01*
X169067240Y-54044850D01*
X169105945Y-54160964D01*
X169105945Y-54354488D01*
X168641488Y-53425573D02*
X168602783Y-53502983D01*
X168564078Y-53541688D01*
X168486669Y-53580392D01*
X168447964Y-53580392D01*
X168370554Y-53541688D01*
X168331850Y-53502983D01*
X168293145Y-53425573D01*
X168293145Y-53270754D01*
X168331850Y-53193345D01*
X168370554Y-53154640D01*
X168447964Y-53115935D01*
X168486669Y-53115935D01*
X168564078Y-53154640D01*
X168602783Y-53193345D01*
X168641488Y-53270754D01*
X168641488Y-53425573D01*
X168680192Y-53502983D01*
X168718897Y-53541688D01*
X168796307Y-53580392D01*
X168951126Y-53580392D01*
X169028535Y-53541688D01*
X169067240Y-53502983D01*
X169105945Y-53425573D01*
X169105945Y-53270754D01*
X169067240Y-53193345D01*
X169028535Y-53154640D01*
X168951126Y-53115935D01*
X168796307Y-53115935D01*
X168718897Y-53154640D01*
X168680192Y-53193345D01*
X168641488Y-53270754D01*
%TO.C,LED7*%
D10*
X143922916Y-55575154D02*
X143922916Y-54775154D01*
X143922916Y-55156107D02*
X144380059Y-55156107D01*
X144380059Y-55575154D02*
X144380059Y-54775154D01*
X144913392Y-54775154D02*
X145065773Y-54775154D01*
X145141964Y-54813250D01*
X145218154Y-54889440D01*
X145256250Y-55041821D01*
X145256250Y-55308488D01*
X145218154Y-55460869D01*
X145141964Y-55537059D01*
X145065773Y-55575154D01*
X144913392Y-55575154D01*
X144837202Y-55537059D01*
X144761011Y-55460869D01*
X144722916Y-55308488D01*
X144722916Y-55041821D01*
X144761011Y-54889440D01*
X144837202Y-54813250D01*
X144913392Y-54775154D01*
X145980059Y-55575154D02*
X145599107Y-55575154D01*
X145599107Y-54775154D01*
X146246726Y-55156107D02*
X146513392Y-55156107D01*
X146627678Y-55575154D02*
X146246726Y-55575154D01*
X146246726Y-54775154D01*
X146627678Y-54775154D01*
D13*
X150055945Y-55360811D02*
X150055945Y-55747859D01*
X149243145Y-55747859D01*
X149630192Y-55089878D02*
X149630192Y-54818945D01*
X150055945Y-54702830D02*
X150055945Y-55089878D01*
X149243145Y-55089878D01*
X149243145Y-54702830D01*
X150055945Y-54354488D02*
X149243145Y-54354488D01*
X149243145Y-54160964D01*
X149281850Y-54044850D01*
X149359259Y-53967440D01*
X149436669Y-53928735D01*
X149591488Y-53890030D01*
X149707602Y-53890030D01*
X149862421Y-53928735D01*
X149939830Y-53967440D01*
X150017240Y-54044850D01*
X150055945Y-54160964D01*
X150055945Y-54354488D01*
X149243145Y-53619097D02*
X149243145Y-53077230D01*
X150055945Y-53425573D01*
%TO.C,LED6*%
D10*
X124872916Y-55575154D02*
X124872916Y-54775154D01*
X124872916Y-55156107D02*
X125330059Y-55156107D01*
X125330059Y-55575154D02*
X125330059Y-54775154D01*
X125863392Y-54775154D02*
X126015773Y-54775154D01*
X126091964Y-54813250D01*
X126168154Y-54889440D01*
X126206250Y-55041821D01*
X126206250Y-55308488D01*
X126168154Y-55460869D01*
X126091964Y-55537059D01*
X126015773Y-55575154D01*
X125863392Y-55575154D01*
X125787202Y-55537059D01*
X125711011Y-55460869D01*
X125672916Y-55308488D01*
X125672916Y-55041821D01*
X125711011Y-54889440D01*
X125787202Y-54813250D01*
X125863392Y-54775154D01*
X126930059Y-55575154D02*
X126549107Y-55575154D01*
X126549107Y-54775154D01*
X127196726Y-55156107D02*
X127463392Y-55156107D01*
X127577678Y-55575154D02*
X127196726Y-55575154D01*
X127196726Y-54775154D01*
X127577678Y-54775154D01*
D13*
X131005945Y-55360811D02*
X131005945Y-55747859D01*
X130193145Y-55747859D01*
X130580192Y-55089878D02*
X130580192Y-54818945D01*
X131005945Y-54702830D02*
X131005945Y-55089878D01*
X130193145Y-55089878D01*
X130193145Y-54702830D01*
X131005945Y-54354488D02*
X130193145Y-54354488D01*
X130193145Y-54160964D01*
X130231850Y-54044850D01*
X130309259Y-53967440D01*
X130386669Y-53928735D01*
X130541488Y-53890030D01*
X130657602Y-53890030D01*
X130812421Y-53928735D01*
X130889830Y-53967440D01*
X130967240Y-54044850D01*
X131005945Y-54160964D01*
X131005945Y-54354488D01*
X130193145Y-53193345D02*
X130193145Y-53348164D01*
X130231850Y-53425573D01*
X130270554Y-53464278D01*
X130386669Y-53541688D01*
X130541488Y-53580392D01*
X130851126Y-53580392D01*
X130928535Y-53541688D01*
X130967240Y-53502983D01*
X131005945Y-53425573D01*
X131005945Y-53270754D01*
X130967240Y-53193345D01*
X130928535Y-53154640D01*
X130851126Y-53115935D01*
X130657602Y-53115935D01*
X130580192Y-53154640D01*
X130541488Y-53193345D01*
X130502783Y-53270754D01*
X130502783Y-53425573D01*
X130541488Y-53502983D01*
X130580192Y-53541688D01*
X130657602Y-53580392D01*
%TO.C,LED5*%
D10*
X105822916Y-55575154D02*
X105822916Y-54775154D01*
X105822916Y-55156107D02*
X106280059Y-55156107D01*
X106280059Y-55575154D02*
X106280059Y-54775154D01*
X106813392Y-54775154D02*
X106965773Y-54775154D01*
X107041964Y-54813250D01*
X107118154Y-54889440D01*
X107156250Y-55041821D01*
X107156250Y-55308488D01*
X107118154Y-55460869D01*
X107041964Y-55537059D01*
X106965773Y-55575154D01*
X106813392Y-55575154D01*
X106737202Y-55537059D01*
X106661011Y-55460869D01*
X106622916Y-55308488D01*
X106622916Y-55041821D01*
X106661011Y-54889440D01*
X106737202Y-54813250D01*
X106813392Y-54775154D01*
X107880059Y-55575154D02*
X107499107Y-55575154D01*
X107499107Y-54775154D01*
X108146726Y-55156107D02*
X108413392Y-55156107D01*
X108527678Y-55575154D02*
X108146726Y-55575154D01*
X108146726Y-54775154D01*
X108527678Y-54775154D01*
D13*
X111955945Y-55360811D02*
X111955945Y-55747859D01*
X111143145Y-55747859D01*
X111530192Y-55089878D02*
X111530192Y-54818945D01*
X111955945Y-54702830D02*
X111955945Y-55089878D01*
X111143145Y-55089878D01*
X111143145Y-54702830D01*
X111955945Y-54354488D02*
X111143145Y-54354488D01*
X111143145Y-54160964D01*
X111181850Y-54044850D01*
X111259259Y-53967440D01*
X111336669Y-53928735D01*
X111491488Y-53890030D01*
X111607602Y-53890030D01*
X111762421Y-53928735D01*
X111839830Y-53967440D01*
X111917240Y-54044850D01*
X111955945Y-54160964D01*
X111955945Y-54354488D01*
X111143145Y-53154640D02*
X111143145Y-53541688D01*
X111530192Y-53580392D01*
X111491488Y-53541688D01*
X111452783Y-53464278D01*
X111452783Y-53270754D01*
X111491488Y-53193345D01*
X111530192Y-53154640D01*
X111607602Y-53115935D01*
X111801126Y-53115935D01*
X111878535Y-53154640D01*
X111917240Y-53193345D01*
X111955945Y-53270754D01*
X111955945Y-53464278D01*
X111917240Y-53541688D01*
X111878535Y-53580392D01*
%TO.C,LED4*%
X219842445Y-79490811D02*
X219842445Y-79877859D01*
X219029645Y-79877859D01*
X219416692Y-79219878D02*
X219416692Y-78948945D01*
X219842445Y-78832830D02*
X219842445Y-79219878D01*
X219029645Y-79219878D01*
X219029645Y-78832830D01*
X219842445Y-78484488D02*
X219029645Y-78484488D01*
X219029645Y-78290964D01*
X219068350Y-78174850D01*
X219145759Y-78097440D01*
X219223169Y-78058735D01*
X219377988Y-78020030D01*
X219494102Y-78020030D01*
X219648921Y-78058735D01*
X219726330Y-78097440D01*
X219803740Y-78174850D01*
X219842445Y-78290964D01*
X219842445Y-78484488D01*
X219300578Y-77323345D02*
X219842445Y-77323345D01*
X218990940Y-77516869D02*
X219571511Y-77710392D01*
X219571511Y-77207230D01*
D10*
X217817654Y-79914583D02*
X217017654Y-79914583D01*
X217398607Y-79914583D02*
X217398607Y-79457440D01*
X217817654Y-79457440D02*
X217017654Y-79457440D01*
X217017654Y-78924107D02*
X217017654Y-78771726D01*
X217055750Y-78695535D01*
X217131940Y-78619345D01*
X217284321Y-78581250D01*
X217550988Y-78581250D01*
X217703369Y-78619345D01*
X217779559Y-78695535D01*
X217817654Y-78771726D01*
X217817654Y-78924107D01*
X217779559Y-79000297D01*
X217703369Y-79076488D01*
X217550988Y-79114583D01*
X217284321Y-79114583D01*
X217131940Y-79076488D01*
X217055750Y-79000297D01*
X217017654Y-78924107D01*
X217817654Y-77857440D02*
X217817654Y-78238392D01*
X217017654Y-78238392D01*
X217398607Y-77590773D02*
X217398607Y-77324107D01*
X217817654Y-77209821D02*
X217817654Y-77590773D01*
X217017654Y-77590773D01*
X217017654Y-77209821D01*
%TO.C,LED3*%
D13*
X172921688Y-66642945D02*
X172534640Y-66642945D01*
X172534640Y-65830145D01*
X173192621Y-66217192D02*
X173463554Y-66217192D01*
X173579669Y-66642945D02*
X173192621Y-66642945D01*
X173192621Y-65830145D01*
X173579669Y-65830145D01*
X173928011Y-66642945D02*
X173928011Y-65830145D01*
X174121535Y-65830145D01*
X174237650Y-65868850D01*
X174315059Y-65946259D01*
X174353764Y-66023669D01*
X174392469Y-66178488D01*
X174392469Y-66294602D01*
X174353764Y-66449421D01*
X174315059Y-66526830D01*
X174237650Y-66604240D01*
X174121535Y-66642945D01*
X173928011Y-66642945D01*
X174663402Y-65830145D02*
X175166564Y-65830145D01*
X174895630Y-66139783D01*
X175011745Y-66139783D01*
X175089154Y-66178488D01*
X175127859Y-66217192D01*
X175166564Y-66294602D01*
X175166564Y-66488126D01*
X175127859Y-66565535D01*
X175089154Y-66604240D01*
X175011745Y-66642945D01*
X174779516Y-66642945D01*
X174702107Y-66604240D01*
X174663402Y-66565535D01*
D10*
X172497916Y-68656154D02*
X172497916Y-67856154D01*
X172497916Y-68237107D02*
X172955059Y-68237107D01*
X172955059Y-68656154D02*
X172955059Y-67856154D01*
X173488392Y-67856154D02*
X173640773Y-67856154D01*
X173716964Y-67894250D01*
X173793154Y-67970440D01*
X173831250Y-68122821D01*
X173831250Y-68389488D01*
X173793154Y-68541869D01*
X173716964Y-68618059D01*
X173640773Y-68656154D01*
X173488392Y-68656154D01*
X173412202Y-68618059D01*
X173336011Y-68541869D01*
X173297916Y-68389488D01*
X173297916Y-68122821D01*
X173336011Y-67970440D01*
X173412202Y-67894250D01*
X173488392Y-67856154D01*
X174555059Y-68656154D02*
X174174107Y-68656154D01*
X174174107Y-67856154D01*
X174821726Y-68237107D02*
X175088392Y-68237107D01*
X175202678Y-68656154D02*
X174821726Y-68656154D01*
X174821726Y-67856154D01*
X175202678Y-67856154D01*
%TO.C,LED2*%
D13*
X153871688Y-104742945D02*
X153484640Y-104742945D01*
X153484640Y-103930145D01*
X154142621Y-104317192D02*
X154413554Y-104317192D01*
X154529669Y-104742945D02*
X154142621Y-104742945D01*
X154142621Y-103930145D01*
X154529669Y-103930145D01*
X154878011Y-104742945D02*
X154878011Y-103930145D01*
X155071535Y-103930145D01*
X155187650Y-103968850D01*
X155265059Y-104046259D01*
X155303764Y-104123669D01*
X155342469Y-104278488D01*
X155342469Y-104394602D01*
X155303764Y-104549421D01*
X155265059Y-104626830D01*
X155187650Y-104704240D01*
X155071535Y-104742945D01*
X154878011Y-104742945D01*
X155652107Y-104007554D02*
X155690811Y-103968850D01*
X155768221Y-103930145D01*
X155961745Y-103930145D01*
X156039154Y-103968850D01*
X156077859Y-104007554D01*
X156116564Y-104084964D01*
X156116564Y-104162373D01*
X156077859Y-104278488D01*
X155613402Y-104742945D01*
X156116564Y-104742945D01*
D10*
X153447916Y-106756154D02*
X153447916Y-105956154D01*
X153447916Y-106337107D02*
X153905059Y-106337107D01*
X153905059Y-106756154D02*
X153905059Y-105956154D01*
X154438392Y-105956154D02*
X154590773Y-105956154D01*
X154666964Y-105994250D01*
X154743154Y-106070440D01*
X154781250Y-106222821D01*
X154781250Y-106489488D01*
X154743154Y-106641869D01*
X154666964Y-106718059D01*
X154590773Y-106756154D01*
X154438392Y-106756154D01*
X154362202Y-106718059D01*
X154286011Y-106641869D01*
X154247916Y-106489488D01*
X154247916Y-106222821D01*
X154286011Y-106070440D01*
X154362202Y-105994250D01*
X154438392Y-105956154D01*
X155505059Y-106756154D02*
X155124107Y-106756154D01*
X155124107Y-105956154D01*
X155771726Y-106337107D02*
X156038392Y-106337107D01*
X156152678Y-106756154D02*
X155771726Y-106756154D01*
X155771726Y-105956154D01*
X156152678Y-105956154D01*
%TO.C,LED1*%
D13*
X115771688Y-91254945D02*
X115384640Y-91254945D01*
X115384640Y-90442145D01*
X116042621Y-90829192D02*
X116313554Y-90829192D01*
X116429669Y-91254945D02*
X116042621Y-91254945D01*
X116042621Y-90442145D01*
X116429669Y-90442145D01*
X116778011Y-91254945D02*
X116778011Y-90442145D01*
X116971535Y-90442145D01*
X117087650Y-90480850D01*
X117165059Y-90558259D01*
X117203764Y-90635669D01*
X117242469Y-90790488D01*
X117242469Y-90906602D01*
X117203764Y-91061421D01*
X117165059Y-91138830D01*
X117087650Y-91216240D01*
X116971535Y-91254945D01*
X116778011Y-91254945D01*
X118016564Y-91254945D02*
X117552107Y-91254945D01*
X117784335Y-91254945D02*
X117784335Y-90442145D01*
X117706926Y-90558259D01*
X117629516Y-90635669D01*
X117552107Y-90674373D01*
D10*
X115347916Y-89230154D02*
X115347916Y-88430154D01*
X115347916Y-88811107D02*
X115805059Y-88811107D01*
X115805059Y-89230154D02*
X115805059Y-88430154D01*
X116338392Y-88430154D02*
X116490773Y-88430154D01*
X116566964Y-88468250D01*
X116643154Y-88544440D01*
X116681250Y-88696821D01*
X116681250Y-88963488D01*
X116643154Y-89115869D01*
X116566964Y-89192059D01*
X116490773Y-89230154D01*
X116338392Y-89230154D01*
X116262202Y-89192059D01*
X116186011Y-89115869D01*
X116147916Y-88963488D01*
X116147916Y-88696821D01*
X116186011Y-88544440D01*
X116262202Y-88468250D01*
X116338392Y-88430154D01*
X117405059Y-89230154D02*
X117024107Y-89230154D01*
X117024107Y-88430154D01*
X117671726Y-88811107D02*
X117938392Y-88811107D01*
X118052678Y-89230154D02*
X117671726Y-89230154D01*
X117671726Y-88430154D01*
X118052678Y-88430154D01*
%TO.C,U1*%
D13*
X215569723Y-61816895D02*
X215569723Y-62474876D01*
X215608428Y-62552285D01*
X215647133Y-62590990D01*
X215724542Y-62629695D01*
X215879361Y-62629695D01*
X215956771Y-62590990D01*
X215995476Y-62552285D01*
X216034180Y-62474876D01*
X216034180Y-61816895D01*
X216846980Y-62629695D02*
X216382523Y-62629695D01*
X216614752Y-62629695D02*
X216614752Y-61816895D01*
X216537342Y-61933009D01*
X216459933Y-62010419D01*
X216382523Y-62049123D01*
%TO.C,SW22*%
X251348723Y-81248990D02*
X251464838Y-81287695D01*
X251658361Y-81287695D01*
X251735771Y-81248990D01*
X251774476Y-81210285D01*
X251813180Y-81132876D01*
X251813180Y-81055466D01*
X251774476Y-80978057D01*
X251735771Y-80939352D01*
X251658361Y-80900647D01*
X251503542Y-80861942D01*
X251426133Y-80823238D01*
X251387428Y-80784533D01*
X251348723Y-80707123D01*
X251348723Y-80629714D01*
X251387428Y-80552304D01*
X251426133Y-80513600D01*
X251503542Y-80474895D01*
X251697066Y-80474895D01*
X251813180Y-80513600D01*
X252084114Y-80474895D02*
X252277638Y-81287695D01*
X252432457Y-80707123D01*
X252587276Y-81287695D01*
X252780800Y-80474895D01*
X252896914Y-81365104D02*
X253516190Y-81365104D01*
X253709714Y-81287695D02*
X253709714Y-80474895D01*
X254019352Y-80474895D01*
X254096761Y-80513600D01*
X254135466Y-80552304D01*
X254174171Y-80629714D01*
X254174171Y-80745828D01*
X254135466Y-80823238D01*
X254096761Y-80861942D01*
X254019352Y-80900647D01*
X253709714Y-80900647D01*
X254522514Y-80474895D02*
X254522514Y-81132876D01*
X254561219Y-81210285D01*
X254599923Y-81248990D01*
X254677333Y-81287695D01*
X254832152Y-81287695D01*
X254909561Y-81248990D01*
X254948266Y-81210285D01*
X254986971Y-81132876D01*
X254986971Y-80474895D01*
X255335314Y-81248990D02*
X255451428Y-81287695D01*
X255644952Y-81287695D01*
X255722361Y-81248990D01*
X255761066Y-81210285D01*
X255799771Y-81132876D01*
X255799771Y-81055466D01*
X255761066Y-80978057D01*
X255722361Y-80939352D01*
X255644952Y-80900647D01*
X255490133Y-80861942D01*
X255412723Y-80823238D01*
X255374019Y-80784533D01*
X255335314Y-80707123D01*
X255335314Y-80629714D01*
X255374019Y-80552304D01*
X255412723Y-80513600D01*
X255490133Y-80474895D01*
X255683657Y-80474895D01*
X255799771Y-80513600D01*
X256148114Y-81287695D02*
X256148114Y-80474895D01*
X256148114Y-80861942D02*
X256612571Y-80861942D01*
X256612571Y-81287695D02*
X256612571Y-80474895D01*
%TO.C,SW15*%
X214585240Y-103802030D02*
X214623945Y-103685916D01*
X214623945Y-103492392D01*
X214585240Y-103414983D01*
X214546535Y-103376278D01*
X214469126Y-103337573D01*
X214391716Y-103337573D01*
X214314307Y-103376278D01*
X214275602Y-103414983D01*
X214236897Y-103492392D01*
X214198192Y-103647211D01*
X214159488Y-103724621D01*
X214120783Y-103763326D01*
X214043373Y-103802030D01*
X213965964Y-103802030D01*
X213888554Y-103763326D01*
X213849850Y-103724621D01*
X213811145Y-103647211D01*
X213811145Y-103453688D01*
X213849850Y-103337573D01*
X213811145Y-103066640D02*
X214623945Y-102873116D01*
X214043373Y-102718297D01*
X214623945Y-102563478D01*
X213811145Y-102369954D01*
X214623945Y-101634564D02*
X214623945Y-102099021D01*
X214623945Y-101866792D02*
X213811145Y-101866792D01*
X213927259Y-101944202D01*
X214004669Y-102021611D01*
X214043373Y-102099021D01*
X213811145Y-100899173D02*
X213811145Y-101286221D01*
X214198192Y-101324926D01*
X214159488Y-101286221D01*
X214120783Y-101208811D01*
X214120783Y-101015288D01*
X214159488Y-100937878D01*
X214198192Y-100899173D01*
X214275602Y-100860469D01*
X214469126Y-100860469D01*
X214546535Y-100899173D01*
X214585240Y-100937878D01*
X214623945Y-101015288D01*
X214623945Y-101208811D01*
X214585240Y-101286221D01*
X214546535Y-101324926D01*
%TO.C,R6*%
X244969695Y-82349459D02*
X244582647Y-82620392D01*
X244969695Y-82813916D02*
X244156895Y-82813916D01*
X244156895Y-82504278D01*
X244195600Y-82426868D01*
X244234304Y-82388163D01*
X244311714Y-82349459D01*
X244427828Y-82349459D01*
X244505238Y-82388163D01*
X244543942Y-82426868D01*
X244582647Y-82504278D01*
X244582647Y-82813916D01*
X244156895Y-81652773D02*
X244156895Y-81807592D01*
X244195600Y-81885001D01*
X244234304Y-81923706D01*
X244350419Y-82001116D01*
X244505238Y-82039820D01*
X244814876Y-82039820D01*
X244892285Y-82001116D01*
X244930990Y-81962411D01*
X244969695Y-81885001D01*
X244969695Y-81730182D01*
X244930990Y-81652773D01*
X244892285Y-81614068D01*
X244814876Y-81575363D01*
X244621352Y-81575363D01*
X244543942Y-81614068D01*
X244505238Y-81652773D01*
X244466533Y-81730182D01*
X244466533Y-81885001D01*
X244505238Y-81962411D01*
X244543942Y-82001116D01*
X244621352Y-82039820D01*
%TO.C,R5*%
X235247540Y-109587695D02*
X234976607Y-109200647D01*
X234783083Y-109587695D02*
X234783083Y-108774895D01*
X235092721Y-108774895D01*
X235170131Y-108813600D01*
X235208836Y-108852304D01*
X235247540Y-108929714D01*
X235247540Y-109045828D01*
X235208836Y-109123238D01*
X235170131Y-109161942D01*
X235092721Y-109200647D01*
X234783083Y-109200647D01*
X235982931Y-108774895D02*
X235595883Y-108774895D01*
X235557179Y-109161942D01*
X235595883Y-109123238D01*
X235673293Y-109084533D01*
X235866817Y-109084533D01*
X235944226Y-109123238D01*
X235982931Y-109161942D01*
X236021636Y-109239352D01*
X236021636Y-109432876D01*
X235982931Y-109510285D01*
X235944226Y-109548990D01*
X235866817Y-109587695D01*
X235673293Y-109587695D01*
X235595883Y-109548990D01*
X235557179Y-109510285D01*
%TO.C,R4*%
X240406040Y-109587695D02*
X240135107Y-109200647D01*
X239941583Y-109587695D02*
X239941583Y-108774895D01*
X240251221Y-108774895D01*
X240328631Y-108813600D01*
X240367336Y-108852304D01*
X240406040Y-108929714D01*
X240406040Y-109045828D01*
X240367336Y-109123238D01*
X240328631Y-109161942D01*
X240251221Y-109200647D01*
X239941583Y-109200647D01*
X241102726Y-109045828D02*
X241102726Y-109587695D01*
X240909202Y-108736190D02*
X240715679Y-109316761D01*
X241218840Y-109316761D01*
%TO.C,R3*%
X247001695Y-73616459D02*
X246614647Y-73887392D01*
X247001695Y-74080916D02*
X246188895Y-74080916D01*
X246188895Y-73771278D01*
X246227600Y-73693868D01*
X246266304Y-73655163D01*
X246343714Y-73616459D01*
X246459828Y-73616459D01*
X246537238Y-73655163D01*
X246575942Y-73693868D01*
X246614647Y-73771278D01*
X246614647Y-74080916D01*
X246188895Y-73345525D02*
X246188895Y-72842363D01*
X246498533Y-73113297D01*
X246498533Y-72997182D01*
X246537238Y-72919773D01*
X246575942Y-72881068D01*
X246653352Y-72842363D01*
X246846876Y-72842363D01*
X246924285Y-72881068D01*
X246962990Y-72919773D01*
X247001695Y-72997182D01*
X247001695Y-73229411D01*
X246962990Y-73306820D01*
X246924285Y-73345525D01*
%TO.C,R2*%
X220340040Y-50056445D02*
X220069107Y-49669397D01*
X219875583Y-50056445D02*
X219875583Y-49243645D01*
X220185221Y-49243645D01*
X220262631Y-49282350D01*
X220301336Y-49321054D01*
X220340040Y-49398464D01*
X220340040Y-49514578D01*
X220301336Y-49591988D01*
X220262631Y-49630692D01*
X220185221Y-49669397D01*
X219875583Y-49669397D01*
X220649679Y-49321054D02*
X220688383Y-49282350D01*
X220765793Y-49243645D01*
X220959317Y-49243645D01*
X221036726Y-49282350D01*
X221075431Y-49321054D01*
X221114136Y-49398464D01*
X221114136Y-49475873D01*
X221075431Y-49591988D01*
X220610974Y-50056445D01*
X221114136Y-50056445D01*
%TO.C,J2*%
D10*
X255841380Y-65803333D02*
X256555666Y-65803333D01*
X256698523Y-65850952D01*
X256793761Y-65946190D01*
X256841380Y-66089047D01*
X256841380Y-66184285D01*
X255936619Y-65374761D02*
X255889000Y-65327142D01*
X255841380Y-65231904D01*
X255841380Y-64993809D01*
X255889000Y-64898571D01*
X255936619Y-64850952D01*
X256031857Y-64803333D01*
X256127095Y-64803333D01*
X256269952Y-64850952D01*
X256841380Y-65422380D01*
X256841380Y-64803333D01*
%TO.C,ISP1*%
X229433619Y-122602380D02*
X229433619Y-121602380D01*
X229862190Y-122554761D02*
X230005047Y-122602380D01*
X230243142Y-122602380D01*
X230338380Y-122554761D01*
X230386000Y-122507142D01*
X230433619Y-122411904D01*
X230433619Y-122316666D01*
X230386000Y-122221428D01*
X230338380Y-122173809D01*
X230243142Y-122126190D01*
X230052666Y-122078571D01*
X229957428Y-122030952D01*
X229909809Y-121983333D01*
X229862190Y-121888095D01*
X229862190Y-121792857D01*
X229909809Y-121697619D01*
X229957428Y-121650000D01*
X230052666Y-121602380D01*
X230290761Y-121602380D01*
X230433619Y-121650000D01*
X230862190Y-122602380D02*
X230862190Y-121602380D01*
X231243142Y-121602380D01*
X231338380Y-121650000D01*
X231386000Y-121697619D01*
X231433619Y-121792857D01*
X231433619Y-121935714D01*
X231386000Y-122030952D01*
X231338380Y-122078571D01*
X231243142Y-122126190D01*
X230862190Y-122126190D01*
X232386000Y-122602380D02*
X231814571Y-122602380D01*
X232100285Y-122602380D02*
X232100285Y-121602380D01*
X232005047Y-121745238D01*
X231909809Y-121840476D01*
X231814571Y-121888095D01*
%TO.C,F1*%
D13*
X221511517Y-70299942D02*
X221240583Y-70299942D01*
X221240583Y-70725695D02*
X221240583Y-69912895D01*
X221627631Y-69912895D01*
X222363021Y-70725695D02*
X221898564Y-70725695D01*
X222130793Y-70725695D02*
X222130793Y-69912895D01*
X222053383Y-70029009D01*
X221975974Y-70106419D01*
X221898564Y-70145123D01*
%TO.C,C19*%
X119670285Y-116483069D02*
X119708990Y-116521774D01*
X119747695Y-116637888D01*
X119747695Y-116715298D01*
X119708990Y-116831412D01*
X119631580Y-116908821D01*
X119554171Y-116947526D01*
X119399352Y-116986231D01*
X119283238Y-116986231D01*
X119128419Y-116947526D01*
X119051009Y-116908821D01*
X118973600Y-116831412D01*
X118934895Y-116715298D01*
X118934895Y-116637888D01*
X118973600Y-116521774D01*
X119012304Y-116483069D01*
X119747695Y-115708974D02*
X119747695Y-116173431D01*
X119747695Y-115941202D02*
X118934895Y-115941202D01*
X119051009Y-116018612D01*
X119128419Y-116096021D01*
X119167123Y-116173431D01*
X119747695Y-115321926D02*
X119747695Y-115167107D01*
X119708990Y-115089698D01*
X119670285Y-115050993D01*
X119554171Y-114973583D01*
X119399352Y-114934879D01*
X119089714Y-114934879D01*
X119012304Y-114973583D01*
X118973600Y-115012288D01*
X118934895Y-115089698D01*
X118934895Y-115244517D01*
X118973600Y-115321926D01*
X119012304Y-115360631D01*
X119089714Y-115399336D01*
X119283238Y-115399336D01*
X119360647Y-115360631D01*
X119399352Y-115321926D01*
X119438057Y-115244517D01*
X119438057Y-115089698D01*
X119399352Y-115012288D01*
X119360647Y-114973583D01*
X119283238Y-114934879D01*
%TO.C,C18*%
X233802040Y-90714285D02*
X233763336Y-90752990D01*
X233647221Y-90791695D01*
X233569812Y-90791695D01*
X233453698Y-90752990D01*
X233376288Y-90675580D01*
X233337583Y-90598171D01*
X233298879Y-90443352D01*
X233298879Y-90327238D01*
X233337583Y-90172419D01*
X233376288Y-90095009D01*
X233453698Y-90017600D01*
X233569812Y-89978895D01*
X233647221Y-89978895D01*
X233763336Y-90017600D01*
X233802040Y-90056304D01*
X234576136Y-90791695D02*
X234111679Y-90791695D01*
X234343907Y-90791695D02*
X234343907Y-89978895D01*
X234266498Y-90095009D01*
X234189088Y-90172419D01*
X234111679Y-90211123D01*
X235040593Y-90327238D02*
X234963183Y-90288533D01*
X234924479Y-90249828D01*
X234885774Y-90172419D01*
X234885774Y-90133714D01*
X234924479Y-90056304D01*
X234963183Y-90017600D01*
X235040593Y-89978895D01*
X235195412Y-89978895D01*
X235272821Y-90017600D01*
X235311526Y-90056304D01*
X235350231Y-90133714D01*
X235350231Y-90172419D01*
X235311526Y-90249828D01*
X235272821Y-90288533D01*
X235195412Y-90327238D01*
X235040593Y-90327238D01*
X234963183Y-90365942D01*
X234924479Y-90404647D01*
X234885774Y-90482057D01*
X234885774Y-90636876D01*
X234924479Y-90714285D01*
X234963183Y-90752990D01*
X235040593Y-90791695D01*
X235195412Y-90791695D01*
X235272821Y-90752990D01*
X235311526Y-90714285D01*
X235350231Y-90636876D01*
X235350231Y-90482057D01*
X235311526Y-90404647D01*
X235272821Y-90365942D01*
X235195412Y-90327238D01*
%TO.C,C17*%
X176566285Y-97179069D02*
X176604990Y-97217774D01*
X176643695Y-97333888D01*
X176643695Y-97411298D01*
X176604990Y-97527412D01*
X176527580Y-97604821D01*
X176450171Y-97643526D01*
X176295352Y-97682231D01*
X176179238Y-97682231D01*
X176024419Y-97643526D01*
X175947009Y-97604821D01*
X175869600Y-97527412D01*
X175830895Y-97411298D01*
X175830895Y-97333888D01*
X175869600Y-97217774D01*
X175908304Y-97179069D01*
X176643695Y-96404974D02*
X176643695Y-96869431D01*
X176643695Y-96637202D02*
X175830895Y-96637202D01*
X175947009Y-96714612D01*
X176024419Y-96792021D01*
X176063123Y-96869431D01*
X175830895Y-96134040D02*
X175830895Y-95592174D01*
X176643695Y-95940517D01*
%TO.C,C16*%
X138466285Y-97687069D02*
X138504990Y-97725774D01*
X138543695Y-97841888D01*
X138543695Y-97919298D01*
X138504990Y-98035412D01*
X138427580Y-98112821D01*
X138350171Y-98151526D01*
X138195352Y-98190231D01*
X138079238Y-98190231D01*
X137924419Y-98151526D01*
X137847009Y-98112821D01*
X137769600Y-98035412D01*
X137730895Y-97919298D01*
X137730895Y-97841888D01*
X137769600Y-97725774D01*
X137808304Y-97687069D01*
X138543695Y-96912974D02*
X138543695Y-97377431D01*
X138543695Y-97145202D02*
X137730895Y-97145202D01*
X137847009Y-97222612D01*
X137924419Y-97300021D01*
X137963123Y-97377431D01*
X137730895Y-96216288D02*
X137730895Y-96371107D01*
X137769600Y-96448517D01*
X137808304Y-96487221D01*
X137924419Y-96564631D01*
X138079238Y-96603336D01*
X138388876Y-96603336D01*
X138466285Y-96564631D01*
X138504990Y-96525926D01*
X138543695Y-96448517D01*
X138543695Y-96293698D01*
X138504990Y-96216288D01*
X138466285Y-96177583D01*
X138388876Y-96138879D01*
X138195352Y-96138879D01*
X138117942Y-96177583D01*
X138079238Y-96216288D01*
X138040533Y-96293698D01*
X138040533Y-96448517D01*
X138079238Y-96525926D01*
X138117942Y-96564631D01*
X138195352Y-96603336D01*
%TO.C,C14*%
X224318285Y-78383069D02*
X224356990Y-78421774D01*
X224395695Y-78537888D01*
X224395695Y-78615298D01*
X224356990Y-78731412D01*
X224279580Y-78808821D01*
X224202171Y-78847526D01*
X224047352Y-78886231D01*
X223931238Y-78886231D01*
X223776419Y-78847526D01*
X223699009Y-78808821D01*
X223621600Y-78731412D01*
X223582895Y-78615298D01*
X223582895Y-78537888D01*
X223621600Y-78421774D01*
X223660304Y-78383069D01*
X224395695Y-77608974D02*
X224395695Y-78073431D01*
X224395695Y-77841202D02*
X223582895Y-77841202D01*
X223699009Y-77918612D01*
X223776419Y-77996021D01*
X223815123Y-78073431D01*
X223853828Y-76912288D02*
X224395695Y-76912288D01*
X223544190Y-77105812D02*
X224124761Y-77299336D01*
X224124761Y-76796174D01*
%TO.C,C13*%
X176566285Y-78383069D02*
X176604990Y-78421774D01*
X176643695Y-78537888D01*
X176643695Y-78615298D01*
X176604990Y-78731412D01*
X176527580Y-78808821D01*
X176450171Y-78847526D01*
X176295352Y-78886231D01*
X176179238Y-78886231D01*
X176024419Y-78847526D01*
X175947009Y-78808821D01*
X175869600Y-78731412D01*
X175830895Y-78615298D01*
X175830895Y-78537888D01*
X175869600Y-78421774D01*
X175908304Y-78383069D01*
X176643695Y-77608974D02*
X176643695Y-78073431D01*
X176643695Y-77841202D02*
X175830895Y-77841202D01*
X175947009Y-77918612D01*
X176024419Y-77996021D01*
X176063123Y-78073431D01*
X175830895Y-77338040D02*
X175830895Y-76834879D01*
X176140533Y-77105812D01*
X176140533Y-76989698D01*
X176179238Y-76912288D01*
X176217942Y-76873583D01*
X176295352Y-76834879D01*
X176488876Y-76834879D01*
X176566285Y-76873583D01*
X176604990Y-76912288D01*
X176643695Y-76989698D01*
X176643695Y-77221926D01*
X176604990Y-77299336D01*
X176566285Y-77338040D01*
%TO.C,C12*%
X138466285Y-78383069D02*
X138504990Y-78421774D01*
X138543695Y-78537888D01*
X138543695Y-78615298D01*
X138504990Y-78731412D01*
X138427580Y-78808821D01*
X138350171Y-78847526D01*
X138195352Y-78886231D01*
X138079238Y-78886231D01*
X137924419Y-78847526D01*
X137847009Y-78808821D01*
X137769600Y-78731412D01*
X137730895Y-78615298D01*
X137730895Y-78537888D01*
X137769600Y-78421774D01*
X137808304Y-78383069D01*
X138543695Y-77608974D02*
X138543695Y-78073431D01*
X138543695Y-77841202D02*
X137730895Y-77841202D01*
X137847009Y-77918612D01*
X137924419Y-77996021D01*
X137963123Y-78073431D01*
X137808304Y-77299336D02*
X137769600Y-77260631D01*
X137730895Y-77183221D01*
X137730895Y-76989698D01*
X137769600Y-76912288D01*
X137808304Y-76873583D01*
X137885714Y-76834879D01*
X137963123Y-76834879D01*
X138079238Y-76873583D01*
X138543695Y-77338040D01*
X138543695Y-76834879D01*
%TO.C,C11*%
X224318285Y-59587069D02*
X224356990Y-59625774D01*
X224395695Y-59741888D01*
X224395695Y-59819298D01*
X224356990Y-59935412D01*
X224279580Y-60012821D01*
X224202171Y-60051526D01*
X224047352Y-60090231D01*
X223931238Y-60090231D01*
X223776419Y-60051526D01*
X223699009Y-60012821D01*
X223621600Y-59935412D01*
X223582895Y-59819298D01*
X223582895Y-59741888D01*
X223621600Y-59625774D01*
X223660304Y-59587069D01*
X224395695Y-58812974D02*
X224395695Y-59277431D01*
X224395695Y-59045202D02*
X223582895Y-59045202D01*
X223699009Y-59122612D01*
X223776419Y-59200021D01*
X223815123Y-59277431D01*
X224395695Y-58038879D02*
X224395695Y-58503336D01*
X224395695Y-58271107D02*
X223582895Y-58271107D01*
X223699009Y-58348517D01*
X223776419Y-58425926D01*
X223815123Y-58503336D01*
%TO.C,C10*%
X176566285Y-59587069D02*
X176604990Y-59625774D01*
X176643695Y-59741888D01*
X176643695Y-59819298D01*
X176604990Y-59935412D01*
X176527580Y-60012821D01*
X176450171Y-60051526D01*
X176295352Y-60090231D01*
X176179238Y-60090231D01*
X176024419Y-60051526D01*
X175947009Y-60012821D01*
X175869600Y-59935412D01*
X175830895Y-59819298D01*
X175830895Y-59741888D01*
X175869600Y-59625774D01*
X175908304Y-59587069D01*
X176643695Y-58812974D02*
X176643695Y-59277431D01*
X176643695Y-59045202D02*
X175830895Y-59045202D01*
X175947009Y-59122612D01*
X176024419Y-59200021D01*
X176063123Y-59277431D01*
X175830895Y-58309812D02*
X175830895Y-58232402D01*
X175869600Y-58154993D01*
X175908304Y-58116288D01*
X175985714Y-58077583D01*
X176140533Y-58038879D01*
X176334057Y-58038879D01*
X176488876Y-58077583D01*
X176566285Y-58116288D01*
X176604990Y-58154993D01*
X176643695Y-58232402D01*
X176643695Y-58309812D01*
X176604990Y-58387221D01*
X176566285Y-58425926D01*
X176488876Y-58464631D01*
X176334057Y-58503336D01*
X176140533Y-58503336D01*
X175985714Y-58464631D01*
X175908304Y-58425926D01*
X175869600Y-58387221D01*
X175830895Y-58309812D01*
%TO.C,C9*%
X138466285Y-58304974D02*
X138504990Y-58343679D01*
X138543695Y-58459793D01*
X138543695Y-58537202D01*
X138504990Y-58653317D01*
X138427580Y-58730726D01*
X138350171Y-58769431D01*
X138195352Y-58808136D01*
X138079238Y-58808136D01*
X137924419Y-58769431D01*
X137847009Y-58730726D01*
X137769600Y-58653317D01*
X137730895Y-58537202D01*
X137730895Y-58459793D01*
X137769600Y-58343679D01*
X137808304Y-58304974D01*
X138543695Y-57917926D02*
X138543695Y-57763107D01*
X138504990Y-57685698D01*
X138466285Y-57646993D01*
X138350171Y-57569583D01*
X138195352Y-57530879D01*
X137885714Y-57530879D01*
X137808304Y-57569583D01*
X137769600Y-57608288D01*
X137730895Y-57685698D01*
X137730895Y-57840517D01*
X137769600Y-57917926D01*
X137808304Y-57956631D01*
X137885714Y-57995336D01*
X138079238Y-57995336D01*
X138156647Y-57956631D01*
X138195352Y-57917926D01*
X138234057Y-57840517D01*
X138234057Y-57685698D01*
X138195352Y-57608288D01*
X138156647Y-57569583D01*
X138079238Y-57530879D01*
%TO.C,C8*%
X213142285Y-75061959D02*
X213180990Y-75100663D01*
X213219695Y-75216778D01*
X213219695Y-75294187D01*
X213180990Y-75410301D01*
X213103580Y-75487711D01*
X213026171Y-75526416D01*
X212871352Y-75565120D01*
X212755238Y-75565120D01*
X212600419Y-75526416D01*
X212523009Y-75487711D01*
X212445600Y-75410301D01*
X212406895Y-75294187D01*
X212406895Y-75216778D01*
X212445600Y-75100663D01*
X212484304Y-75061959D01*
X212755238Y-74597501D02*
X212716533Y-74674911D01*
X212677828Y-74713616D01*
X212600419Y-74752320D01*
X212561714Y-74752320D01*
X212484304Y-74713616D01*
X212445600Y-74674911D01*
X212406895Y-74597501D01*
X212406895Y-74442682D01*
X212445600Y-74365273D01*
X212484304Y-74326568D01*
X212561714Y-74287863D01*
X212600419Y-74287863D01*
X212677828Y-74326568D01*
X212716533Y-74365273D01*
X212755238Y-74442682D01*
X212755238Y-74597501D01*
X212793942Y-74674911D01*
X212832647Y-74713616D01*
X212910057Y-74752320D01*
X213064876Y-74752320D01*
X213142285Y-74713616D01*
X213180990Y-74674911D01*
X213219695Y-74597501D01*
X213219695Y-74442682D01*
X213180990Y-74365273D01*
X213142285Y-74326568D01*
X213064876Y-74287863D01*
X212910057Y-74287863D01*
X212832647Y-74326568D01*
X212793942Y-74365273D01*
X212755238Y-74442682D01*
%TO.C,C7*%
X160135025Y-107478285D02*
X160096320Y-107516990D01*
X159980206Y-107555695D01*
X159902797Y-107555695D01*
X159786682Y-107516990D01*
X159709273Y-107439580D01*
X159670568Y-107362171D01*
X159631863Y-107207352D01*
X159631863Y-107091238D01*
X159670568Y-106936419D01*
X159709273Y-106859009D01*
X159786682Y-106781600D01*
X159902797Y-106742895D01*
X159980206Y-106742895D01*
X160096320Y-106781600D01*
X160135025Y-106820304D01*
X160405959Y-106742895D02*
X160947825Y-106742895D01*
X160599482Y-107555695D01*
%TO.C,C15*%
X245545430Y-110272285D02*
X245506725Y-110310990D01*
X245390611Y-110349695D01*
X245313201Y-110349695D01*
X245197087Y-110310990D01*
X245119678Y-110233580D01*
X245080973Y-110156171D01*
X245042268Y-110001352D01*
X245042268Y-109885238D01*
X245080973Y-109730419D01*
X245119678Y-109653009D01*
X245197087Y-109575600D01*
X245313201Y-109536895D01*
X245390611Y-109536895D01*
X245506725Y-109575600D01*
X245545430Y-109614304D01*
X246319525Y-110349695D02*
X245855068Y-110349695D01*
X246087297Y-110349695D02*
X246087297Y-109536895D01*
X246009887Y-109653009D01*
X245932478Y-109730419D01*
X245855068Y-109769123D01*
X247054916Y-109536895D02*
X246667868Y-109536895D01*
X246629163Y-109923942D01*
X246667868Y-109885238D01*
X246745278Y-109846533D01*
X246938801Y-109846533D01*
X247016211Y-109885238D01*
X247054916Y-109923942D01*
X247093620Y-110001352D01*
X247093620Y-110194876D01*
X247054916Y-110272285D01*
X247016211Y-110310990D01*
X246938801Y-110349695D01*
X246745278Y-110349695D01*
X246667868Y-110310990D01*
X246629163Y-110272285D01*
%TO.C,C6*%
X241082285Y-102572459D02*
X241120990Y-102611163D01*
X241159695Y-102727278D01*
X241159695Y-102804687D01*
X241120990Y-102920801D01*
X241043580Y-102998211D01*
X240966171Y-103036916D01*
X240811352Y-103075620D01*
X240695238Y-103075620D01*
X240540419Y-103036916D01*
X240463009Y-102998211D01*
X240385600Y-102920801D01*
X240346895Y-102804687D01*
X240346895Y-102727278D01*
X240385600Y-102611163D01*
X240424304Y-102572459D01*
X240346895Y-101875773D02*
X240346895Y-102030592D01*
X240385600Y-102108001D01*
X240424304Y-102146706D01*
X240540419Y-102224116D01*
X240695238Y-102262820D01*
X241004876Y-102262820D01*
X241082285Y-102224116D01*
X241120990Y-102185411D01*
X241159695Y-102108001D01*
X241159695Y-101953182D01*
X241120990Y-101875773D01*
X241082285Y-101837068D01*
X241004876Y-101798363D01*
X240811352Y-101798363D01*
X240733942Y-101837068D01*
X240695238Y-101875773D01*
X240656533Y-101953182D01*
X240656533Y-102108001D01*
X240695238Y-102185411D01*
X240733942Y-102224116D01*
X240811352Y-102262820D01*
%TO.C,C5*%
X256329540Y-87920285D02*
X256290836Y-87958990D01*
X256174721Y-87997695D01*
X256097312Y-87997695D01*
X255981198Y-87958990D01*
X255903788Y-87881580D01*
X255865083Y-87804171D01*
X255826379Y-87649352D01*
X255826379Y-87533238D01*
X255865083Y-87378419D01*
X255903788Y-87301009D01*
X255981198Y-87223600D01*
X256097312Y-87184895D01*
X256174721Y-87184895D01*
X256290836Y-87223600D01*
X256329540Y-87262304D01*
X257064931Y-87184895D02*
X256677883Y-87184895D01*
X256639179Y-87571942D01*
X256677883Y-87533238D01*
X256755293Y-87494533D01*
X256948817Y-87494533D01*
X257026226Y-87533238D01*
X257064931Y-87571942D01*
X257103636Y-87649352D01*
X257103636Y-87842876D01*
X257064931Y-87920285D01*
X257026226Y-87958990D01*
X256948817Y-87997695D01*
X256755293Y-87997695D01*
X256677883Y-87958990D01*
X256639179Y-87920285D01*
%TO.C,C4*%
X255433285Y-107446959D02*
X255471990Y-107485663D01*
X255510695Y-107601778D01*
X255510695Y-107679187D01*
X255471990Y-107795301D01*
X255394580Y-107872711D01*
X255317171Y-107911416D01*
X255162352Y-107950120D01*
X255046238Y-107950120D01*
X254891419Y-107911416D01*
X254814009Y-107872711D01*
X254736600Y-107795301D01*
X254697895Y-107679187D01*
X254697895Y-107601778D01*
X254736600Y-107485663D01*
X254775304Y-107446959D01*
X254968828Y-106750273D02*
X255510695Y-106750273D01*
X254659190Y-106943797D02*
X255239761Y-107137320D01*
X255239761Y-106634159D01*
%TO.C,C3*%
X241844285Y-96737474D02*
X241882990Y-96776179D01*
X241921695Y-96892293D01*
X241921695Y-96969702D01*
X241882990Y-97085817D01*
X241805580Y-97163226D01*
X241728171Y-97201931D01*
X241573352Y-97240636D01*
X241457238Y-97240636D01*
X241302419Y-97201931D01*
X241225009Y-97163226D01*
X241147600Y-97085817D01*
X241108895Y-96969702D01*
X241108895Y-96892293D01*
X241147600Y-96776179D01*
X241186304Y-96737474D01*
X241108895Y-96466540D02*
X241108895Y-95963379D01*
X241418533Y-96234312D01*
X241418533Y-96118198D01*
X241457238Y-96040788D01*
X241495942Y-96002083D01*
X241573352Y-95963379D01*
X241766876Y-95963379D01*
X241844285Y-96002083D01*
X241882990Y-96040788D01*
X241921695Y-96118198D01*
X241921695Y-96350426D01*
X241882990Y-96427836D01*
X241844285Y-96466540D01*
%TO.C,C2*%
X254544285Y-82427959D02*
X254582990Y-82466663D01*
X254621695Y-82582778D01*
X254621695Y-82660187D01*
X254582990Y-82776301D01*
X254505580Y-82853711D01*
X254428171Y-82892416D01*
X254273352Y-82931120D01*
X254157238Y-82931120D01*
X254002419Y-82892416D01*
X253925009Y-82853711D01*
X253847600Y-82776301D01*
X253808895Y-82660187D01*
X253808895Y-82582778D01*
X253847600Y-82466663D01*
X253886304Y-82427959D01*
X253886304Y-82118320D02*
X253847600Y-82079616D01*
X253808895Y-82002206D01*
X253808895Y-81808682D01*
X253847600Y-81731273D01*
X253886304Y-81692568D01*
X253963714Y-81653863D01*
X254041123Y-81653863D01*
X254157238Y-81692568D01*
X254621695Y-82157025D01*
X254621695Y-81653863D01*
%TO.C,C1*%
X247432285Y-87006974D02*
X247470990Y-87045679D01*
X247509695Y-87161793D01*
X247509695Y-87239202D01*
X247470990Y-87355317D01*
X247393580Y-87432726D01*
X247316171Y-87471431D01*
X247161352Y-87510136D01*
X247045238Y-87510136D01*
X246890419Y-87471431D01*
X246813009Y-87432726D01*
X246735600Y-87355317D01*
X246696895Y-87239202D01*
X246696895Y-87161793D01*
X246735600Y-87045679D01*
X246774304Y-87006974D01*
X247509695Y-86232879D02*
X247509695Y-86697336D01*
X247509695Y-86465107D02*
X246696895Y-86465107D01*
X246813009Y-86542517D01*
X246890419Y-86619926D01*
X246929123Y-86697336D01*
%TD*%
M02*
