%TF.GenerationSoftware,KiCad,Pcbnew,(5.1.9-0-10_14)*%
%TF.CreationDate,2021-01-21T14:35:16+08:00*%
%TF.ProjectId,kb-split,6b622d73-706c-4697-942e-6b696361645f,rev?*%
%TF.SameCoordinates,Original*%
%TF.FileFunction,Legend,Bot*%
%TF.FilePolarity,Positive*%
%FSLAX46Y46*%
G04 Gerber Fmt 4.6, Leading zero omitted, Abs format (unit mm)*
G04 Created by KiCad (PCBNEW (5.1.9-0-10_14)) date 2021-01-21 14:35:16*
%MOMM*%
%LPD*%
G01*
G04 APERTURE LIST*
%ADD10C,0.150000*%
%ADD11C,0.160000*%
%ADD12C,0.120000*%
%ADD13C,0.152400*%
G04 APERTURE END LIST*
D10*
X250903761Y-50998380D02*
X250903761Y-50331714D01*
X250903761Y-49998380D02*
X250951380Y-50046000D01*
X250903761Y-50093619D01*
X250856142Y-50046000D01*
X250903761Y-49998380D01*
X250903761Y-50093619D01*
X250427571Y-50331714D02*
X250427571Y-50998380D01*
X250427571Y-50426952D02*
X250379952Y-50379333D01*
X250284714Y-50331714D01*
X250141857Y-50331714D01*
X250046619Y-50379333D01*
X249999000Y-50474571D01*
X249999000Y-50998380D01*
X249665666Y-50331714D02*
X249284714Y-50331714D01*
X249522809Y-49998380D02*
X249522809Y-50855523D01*
X249475190Y-50950761D01*
X249379952Y-50998380D01*
X249284714Y-50998380D01*
X248808523Y-50998380D02*
X248903761Y-50950761D01*
X248951380Y-50903142D01*
X248999000Y-50807904D01*
X248999000Y-50522190D01*
X248951380Y-50426952D01*
X248903761Y-50379333D01*
X248808523Y-50331714D01*
X248665666Y-50331714D01*
X248570428Y-50379333D01*
X248522809Y-50426952D01*
X248475190Y-50522190D01*
X248475190Y-50807904D01*
X248522809Y-50903142D01*
X248570428Y-50950761D01*
X248665666Y-50998380D01*
X248808523Y-50998380D01*
X248094238Y-50950761D02*
X247999000Y-50998380D01*
X247808523Y-50998380D01*
X247713285Y-50950761D01*
X247665666Y-50855523D01*
X247665666Y-50807904D01*
X247713285Y-50712666D01*
X247808523Y-50665047D01*
X247951380Y-50665047D01*
X248046619Y-50617428D01*
X248094238Y-50522190D01*
X248094238Y-50474571D01*
X248046619Y-50379333D01*
X247951380Y-50331714D01*
X247808523Y-50331714D01*
X247713285Y-50379333D01*
X247237095Y-50998380D02*
X247237095Y-50331714D01*
X247237095Y-49998380D02*
X247284714Y-50046000D01*
X247237095Y-50093619D01*
X247189476Y-50046000D01*
X247237095Y-49998380D01*
X247237095Y-50093619D01*
X246903761Y-50331714D02*
X246522809Y-50331714D01*
X246760904Y-49998380D02*
X246760904Y-50855523D01*
X246713285Y-50950761D01*
X246618047Y-50998380D01*
X246522809Y-50998380D01*
X245808523Y-50950761D02*
X245903761Y-50998380D01*
X246094238Y-50998380D01*
X246189476Y-50950761D01*
X246237095Y-50855523D01*
X246237095Y-50474571D01*
X246189476Y-50379333D01*
X246094238Y-50331714D01*
X245903761Y-50331714D01*
X245808523Y-50379333D01*
X245760904Y-50474571D01*
X245760904Y-50569809D01*
X246237095Y-50665047D01*
X244570428Y-50998380D02*
X244570428Y-50331714D01*
X244570428Y-50522190D02*
X244522809Y-50426952D01*
X244475190Y-50379333D01*
X244379952Y-50331714D01*
X244284714Y-50331714D01*
X243570428Y-50950761D02*
X243665666Y-50998380D01*
X243856142Y-50998380D01*
X243951380Y-50950761D01*
X243999000Y-50855523D01*
X243999000Y-50474571D01*
X243951380Y-50379333D01*
X243856142Y-50331714D01*
X243665666Y-50331714D01*
X243570428Y-50379333D01*
X243522809Y-50474571D01*
X243522809Y-50569809D01*
X243999000Y-50665047D01*
X243189476Y-50331714D02*
X242951380Y-50998380D01*
X242713285Y-50331714D01*
X241046619Y-50998380D02*
X241618047Y-50998380D01*
X241332333Y-50998380D02*
X241332333Y-49998380D01*
X241427571Y-50141238D01*
X241522809Y-50236476D01*
X241618047Y-50284095D01*
D11*
%TO.C,J3*%
X253746000Y-60833000D02*
X251968000Y-60833000D01*
X256921000Y-60833000D02*
X255524000Y-60833000D01*
X259715000Y-60833000D02*
X258699000Y-60833000D01*
X259715000Y-61341000D02*
X259715000Y-60833000D01*
X262255000Y-61341000D02*
X259715000Y-61341000D01*
X262255000Y-66675000D02*
X262255000Y-61341000D01*
X259715000Y-66675000D02*
X262255000Y-66675000D01*
X259715000Y-67183000D02*
X259715000Y-66675000D01*
X258699000Y-67183000D02*
X259715000Y-67183000D01*
X255524000Y-67183000D02*
X256921000Y-67183000D01*
X251968000Y-67183000D02*
X253746000Y-67183000D01*
X247904000Y-67183000D02*
X250190000Y-67183000D01*
X247904000Y-60833000D02*
X247904000Y-67183000D01*
X250190000Y-60833000D02*
X247904000Y-60833000D01*
D12*
%TO.C,Y1*%
X252698000Y-82932000D02*
X252698000Y-86232000D01*
X248698000Y-86232000D02*
X252698000Y-86232000D01*
D11*
%TO.C,R1*%
X214869000Y-50088750D02*
X214751500Y-49288750D01*
X214751500Y-49288750D02*
X214615000Y-50088750D01*
X214615000Y-50088750D02*
X214488000Y-49288750D01*
X214488000Y-49288750D02*
X214351500Y-50088750D01*
X214351500Y-50088750D02*
X214234000Y-49288750D01*
%TO.C,LED25*%
G36*
X230632000Y-101219000D02*
G01*
X231267000Y-101219000D01*
X231267000Y-101854000D01*
X230632000Y-101219000D01*
G37*
X230632000Y-101219000D02*
X231267000Y-101219000D01*
X231267000Y-101854000D01*
X230632000Y-101219000D01*
%TO.C,D27*%
X212902800Y-124231400D02*
X212902800Y-125704600D01*
G36*
X211582000Y-125349000D02*
G01*
X212217000Y-124968000D01*
X211582000Y-124587000D01*
X211582000Y-125349000D01*
G37*
X211582000Y-125349000D02*
X212217000Y-124968000D01*
X211582000Y-124587000D01*
X211582000Y-125349000D01*
X212902800Y-125704600D02*
X214071200Y-125704600D01*
X212877400Y-124968000D02*
X212217000Y-124968000D01*
X212217000Y-124561600D02*
X212217000Y-125374400D01*
X214071200Y-124231400D02*
X212902800Y-124231400D01*
X211582000Y-124587000D02*
X211582000Y-125349000D01*
X212217000Y-124968000D02*
X211582000Y-124587000D01*
X214071200Y-125704600D02*
X214071200Y-124231400D01*
X211582000Y-124968000D02*
X210718400Y-124968000D01*
X211582000Y-125349000D02*
X212217000Y-124968000D01*
%TO.C,D26*%
X184454800Y-124231400D02*
X184454800Y-125704600D01*
G36*
X183134000Y-125349000D02*
G01*
X183769000Y-124968000D01*
X183134000Y-124587000D01*
X183134000Y-125349000D01*
G37*
X183134000Y-125349000D02*
X183769000Y-124968000D01*
X183134000Y-124587000D01*
X183134000Y-125349000D01*
X184454800Y-125704600D02*
X185623200Y-125704600D01*
X184429400Y-124968000D02*
X183769000Y-124968000D01*
X183769000Y-124561600D02*
X183769000Y-125374400D01*
X185623200Y-124231400D02*
X184454800Y-124231400D01*
X183134000Y-124587000D02*
X183134000Y-125349000D01*
X183769000Y-124968000D02*
X183134000Y-124587000D01*
X185623200Y-125704600D02*
X185623200Y-124231400D01*
X183134000Y-124968000D02*
X182270400Y-124968000D01*
X183134000Y-125349000D02*
X183769000Y-124968000D01*
%TO.C,D25*%
X165658800Y-124231400D02*
X165658800Y-125704600D01*
G36*
X164338000Y-125349000D02*
G01*
X164973000Y-124968000D01*
X164338000Y-124587000D01*
X164338000Y-125349000D01*
G37*
X164338000Y-125349000D02*
X164973000Y-124968000D01*
X164338000Y-124587000D01*
X164338000Y-125349000D01*
X165658800Y-125704600D02*
X166827200Y-125704600D01*
X165633400Y-124968000D02*
X164973000Y-124968000D01*
X164973000Y-124561600D02*
X164973000Y-125374400D01*
X166827200Y-124231400D02*
X165658800Y-124231400D01*
X164338000Y-124587000D02*
X164338000Y-125349000D01*
X164973000Y-124968000D02*
X164338000Y-124587000D01*
X166827200Y-125704600D02*
X166827200Y-124231400D01*
X164338000Y-124968000D02*
X163474400Y-124968000D01*
X164338000Y-125349000D02*
X164973000Y-124968000D01*
%TO.C,D24*%
X146354800Y-124231400D02*
X146354800Y-125704600D01*
G36*
X145034000Y-125349000D02*
G01*
X145669000Y-124968000D01*
X145034000Y-124587000D01*
X145034000Y-125349000D01*
G37*
X145034000Y-125349000D02*
X145669000Y-124968000D01*
X145034000Y-124587000D01*
X145034000Y-125349000D01*
X146354800Y-125704600D02*
X147523200Y-125704600D01*
X146329400Y-124968000D02*
X145669000Y-124968000D01*
X145669000Y-124561600D02*
X145669000Y-125374400D01*
X147523200Y-124231400D02*
X146354800Y-124231400D01*
X145034000Y-124587000D02*
X145034000Y-125349000D01*
X145669000Y-124968000D02*
X145034000Y-124587000D01*
X147523200Y-125704600D02*
X147523200Y-124231400D01*
X145034000Y-124968000D02*
X144170400Y-124968000D01*
X145034000Y-125349000D02*
X145669000Y-124968000D01*
%TO.C,D23*%
X127050800Y-124231400D02*
X127050800Y-125704600D01*
G36*
X125730000Y-125349000D02*
G01*
X126365000Y-124968000D01*
X125730000Y-124587000D01*
X125730000Y-125349000D01*
G37*
X125730000Y-125349000D02*
X126365000Y-124968000D01*
X125730000Y-124587000D01*
X125730000Y-125349000D01*
X127050800Y-125704600D02*
X128219200Y-125704600D01*
X127025400Y-124968000D02*
X126365000Y-124968000D01*
X126365000Y-124561600D02*
X126365000Y-125374400D01*
X128219200Y-124231400D02*
X127050800Y-124231400D01*
X125730000Y-124587000D02*
X125730000Y-125349000D01*
X126365000Y-124968000D02*
X125730000Y-124587000D01*
X128219200Y-125704600D02*
X128219200Y-124231400D01*
X125730000Y-124968000D02*
X124866400Y-124968000D01*
X125730000Y-125349000D02*
X126365000Y-124968000D01*
%TO.C,D22*%
X108254800Y-124231400D02*
X108254800Y-125704600D01*
G36*
X106934000Y-125349000D02*
G01*
X107569000Y-124968000D01*
X106934000Y-124587000D01*
X106934000Y-125349000D01*
G37*
X106934000Y-125349000D02*
X107569000Y-124968000D01*
X106934000Y-124587000D01*
X106934000Y-125349000D01*
X108254800Y-125704600D02*
X109423200Y-125704600D01*
X108229400Y-124968000D02*
X107569000Y-124968000D01*
X107569000Y-124561600D02*
X107569000Y-125374400D01*
X109423200Y-124231400D02*
X108254800Y-124231400D01*
X106934000Y-124587000D02*
X106934000Y-125349000D01*
X107569000Y-124968000D02*
X106934000Y-124587000D01*
X109423200Y-125704600D02*
X109423200Y-124231400D01*
X106934000Y-124968000D02*
X106070400Y-124968000D01*
X106934000Y-125349000D02*
X107569000Y-124968000D01*
%TO.C,D21*%
X212801200Y-89636600D02*
X212801200Y-88163400D01*
G36*
X214122000Y-88519000D02*
G01*
X213487000Y-88900000D01*
X214122000Y-89281000D01*
X214122000Y-88519000D01*
G37*
X214122000Y-88519000D02*
X213487000Y-88900000D01*
X214122000Y-89281000D01*
X214122000Y-88519000D01*
X212801200Y-88163400D02*
X211632800Y-88163400D01*
X212826600Y-88900000D02*
X213487000Y-88900000D01*
X213487000Y-89306400D02*
X213487000Y-88493600D01*
X211632800Y-89636600D02*
X212801200Y-89636600D01*
X214122000Y-89281000D02*
X214122000Y-88519000D01*
X213487000Y-88900000D02*
X214122000Y-89281000D01*
X211632800Y-88163400D02*
X211632800Y-89636600D01*
X214122000Y-88900000D02*
X214985600Y-88900000D01*
X214122000Y-88519000D02*
X213487000Y-88900000D01*
%TO.C,D20*%
X196138800Y-107467400D02*
X196138800Y-108940600D01*
G36*
X194818000Y-108585000D02*
G01*
X195453000Y-108204000D01*
X194818000Y-107823000D01*
X194818000Y-108585000D01*
G37*
X194818000Y-108585000D02*
X195453000Y-108204000D01*
X194818000Y-107823000D01*
X194818000Y-108585000D01*
X196138800Y-108940600D02*
X197307200Y-108940600D01*
X196113400Y-108204000D02*
X195453000Y-108204000D01*
X195453000Y-107797600D02*
X195453000Y-108610400D01*
X197307200Y-107467400D02*
X196138800Y-107467400D01*
X194818000Y-107823000D02*
X194818000Y-108585000D01*
X195453000Y-108204000D02*
X194818000Y-107823000D01*
X197307200Y-108940600D02*
X197307200Y-107467400D01*
X194818000Y-108204000D02*
X193954400Y-108204000D01*
X194818000Y-108585000D02*
X195453000Y-108204000D01*
%TO.C,D19*%
X184454800Y-105435400D02*
X184454800Y-106908600D01*
G36*
X183134000Y-106553000D02*
G01*
X183769000Y-106172000D01*
X183134000Y-105791000D01*
X183134000Y-106553000D01*
G37*
X183134000Y-106553000D02*
X183769000Y-106172000D01*
X183134000Y-105791000D01*
X183134000Y-106553000D01*
X184454800Y-106908600D02*
X185623200Y-106908600D01*
X184429400Y-106172000D02*
X183769000Y-106172000D01*
X183769000Y-105765600D02*
X183769000Y-106578400D01*
X185623200Y-105435400D02*
X184454800Y-105435400D01*
X183134000Y-105791000D02*
X183134000Y-106553000D01*
X183769000Y-106172000D02*
X183134000Y-105791000D01*
X185623200Y-106908600D02*
X185623200Y-105435400D01*
X183134000Y-106172000D02*
X182270400Y-106172000D01*
X183134000Y-106553000D02*
X183769000Y-106172000D01*
%TO.C,D18*%
X168706800Y-105943400D02*
X168706800Y-107416600D01*
G36*
X167386000Y-107061000D02*
G01*
X168021000Y-106680000D01*
X167386000Y-106299000D01*
X167386000Y-107061000D01*
G37*
X167386000Y-107061000D02*
X168021000Y-106680000D01*
X167386000Y-106299000D01*
X167386000Y-107061000D01*
X168706800Y-107416600D02*
X169875200Y-107416600D01*
X168681400Y-106680000D02*
X168021000Y-106680000D01*
X168021000Y-106273600D02*
X168021000Y-107086400D01*
X169875200Y-105943400D02*
X168706800Y-105943400D01*
X167386000Y-106299000D02*
X167386000Y-107061000D01*
X168021000Y-106680000D02*
X167386000Y-106299000D01*
X169875200Y-107416600D02*
X169875200Y-105943400D01*
X167386000Y-106680000D02*
X166522400Y-106680000D01*
X167386000Y-107061000D02*
X168021000Y-106680000D01*
%TO.C,D17*%
X146354800Y-105435400D02*
X146354800Y-106908600D01*
G36*
X145034000Y-106553000D02*
G01*
X145669000Y-106172000D01*
X145034000Y-105791000D01*
X145034000Y-106553000D01*
G37*
X145034000Y-106553000D02*
X145669000Y-106172000D01*
X145034000Y-105791000D01*
X145034000Y-106553000D01*
X146354800Y-106908600D02*
X147523200Y-106908600D01*
X146329400Y-106172000D02*
X145669000Y-106172000D01*
X145669000Y-105765600D02*
X145669000Y-106578400D01*
X147523200Y-105435400D02*
X146354800Y-105435400D01*
X145034000Y-105791000D02*
X145034000Y-106553000D01*
X145669000Y-106172000D02*
X145034000Y-105791000D01*
X147523200Y-106908600D02*
X147523200Y-105435400D01*
X145034000Y-106172000D02*
X144170400Y-106172000D01*
X145034000Y-106553000D02*
X145669000Y-106172000D01*
%TO.C,D16*%
X127050800Y-105435400D02*
X127050800Y-106908600D01*
G36*
X125730000Y-106553000D02*
G01*
X126365000Y-106172000D01*
X125730000Y-105791000D01*
X125730000Y-106553000D01*
G37*
X125730000Y-106553000D02*
X126365000Y-106172000D01*
X125730000Y-105791000D01*
X125730000Y-106553000D01*
X127050800Y-106908600D02*
X128219200Y-106908600D01*
X127025400Y-106172000D02*
X126365000Y-106172000D01*
X126365000Y-105765600D02*
X126365000Y-106578400D01*
X128219200Y-105435400D02*
X127050800Y-105435400D01*
X125730000Y-105791000D02*
X125730000Y-106553000D01*
X126365000Y-106172000D02*
X125730000Y-105791000D01*
X128219200Y-106908600D02*
X128219200Y-105435400D01*
X125730000Y-106172000D02*
X124866400Y-106172000D01*
X125730000Y-106553000D02*
X126365000Y-106172000D01*
%TO.C,D15*%
X108254800Y-105435400D02*
X108254800Y-106908600D01*
G36*
X106934000Y-106553000D02*
G01*
X107569000Y-106172000D01*
X106934000Y-105791000D01*
X106934000Y-106553000D01*
G37*
X106934000Y-106553000D02*
X107569000Y-106172000D01*
X106934000Y-105791000D01*
X106934000Y-106553000D01*
X108254800Y-106908600D02*
X109423200Y-106908600D01*
X108229400Y-106172000D02*
X107569000Y-106172000D01*
X107569000Y-105765600D02*
X107569000Y-106578400D01*
X109423200Y-105435400D02*
X108254800Y-105435400D01*
X106934000Y-105791000D02*
X106934000Y-106553000D01*
X107569000Y-106172000D02*
X106934000Y-105791000D01*
X109423200Y-106908600D02*
X109423200Y-105435400D01*
X106934000Y-106172000D02*
X106070400Y-106172000D01*
X106934000Y-106553000D02*
X107569000Y-106172000D01*
%TO.C,D14*%
X232206800Y-86131400D02*
X232206800Y-87604600D01*
G36*
X230886000Y-87249000D02*
G01*
X231521000Y-86868000D01*
X230886000Y-86487000D01*
X230886000Y-87249000D01*
G37*
X230886000Y-87249000D02*
X231521000Y-86868000D01*
X230886000Y-86487000D01*
X230886000Y-87249000D01*
X232206800Y-87604600D02*
X233375200Y-87604600D01*
X232181400Y-86868000D02*
X231521000Y-86868000D01*
X231521000Y-86461600D02*
X231521000Y-87274400D01*
X233375200Y-86131400D02*
X232206800Y-86131400D01*
X230886000Y-86487000D02*
X230886000Y-87249000D01*
X231521000Y-86868000D02*
X230886000Y-86487000D01*
X233375200Y-87604600D02*
X233375200Y-86131400D01*
X230886000Y-86868000D02*
X230022400Y-86868000D01*
X230886000Y-87249000D02*
X231521000Y-86868000D01*
%TO.C,D13*%
X203758800Y-86131400D02*
X203758800Y-87604600D01*
G36*
X202438000Y-87249000D02*
G01*
X203073000Y-86868000D01*
X202438000Y-86487000D01*
X202438000Y-87249000D01*
G37*
X202438000Y-87249000D02*
X203073000Y-86868000D01*
X202438000Y-86487000D01*
X202438000Y-87249000D01*
X203758800Y-87604600D02*
X204927200Y-87604600D01*
X203733400Y-86868000D02*
X203073000Y-86868000D01*
X203073000Y-86461600D02*
X203073000Y-87274400D01*
X204927200Y-86131400D02*
X203758800Y-86131400D01*
X202438000Y-86487000D02*
X202438000Y-87249000D01*
X203073000Y-86868000D02*
X202438000Y-86487000D01*
X204927200Y-87604600D02*
X204927200Y-86131400D01*
X202438000Y-86868000D02*
X201574400Y-86868000D01*
X202438000Y-87249000D02*
X203073000Y-86868000D01*
%TO.C,D12*%
X184454800Y-86131400D02*
X184454800Y-87604600D01*
G36*
X183134000Y-87249000D02*
G01*
X183769000Y-86868000D01*
X183134000Y-86487000D01*
X183134000Y-87249000D01*
G37*
X183134000Y-87249000D02*
X183769000Y-86868000D01*
X183134000Y-86487000D01*
X183134000Y-87249000D01*
X184454800Y-87604600D02*
X185623200Y-87604600D01*
X184429400Y-86868000D02*
X183769000Y-86868000D01*
X183769000Y-86461600D02*
X183769000Y-87274400D01*
X185623200Y-86131400D02*
X184454800Y-86131400D01*
X183134000Y-86487000D02*
X183134000Y-87249000D01*
X183769000Y-86868000D02*
X183134000Y-86487000D01*
X185623200Y-87604600D02*
X185623200Y-86131400D01*
X183134000Y-86868000D02*
X182270400Y-86868000D01*
X183134000Y-87249000D02*
X183769000Y-86868000D01*
%TO.C,D11*%
X165150800Y-86131400D02*
X165150800Y-87604600D01*
G36*
X163830000Y-87249000D02*
G01*
X164465000Y-86868000D01*
X163830000Y-86487000D01*
X163830000Y-87249000D01*
G37*
X163830000Y-87249000D02*
X164465000Y-86868000D01*
X163830000Y-86487000D01*
X163830000Y-87249000D01*
X165150800Y-87604600D02*
X166319200Y-87604600D01*
X165125400Y-86868000D02*
X164465000Y-86868000D01*
X164465000Y-86461600D02*
X164465000Y-87274400D01*
X166319200Y-86131400D02*
X165150800Y-86131400D01*
X163830000Y-86487000D02*
X163830000Y-87249000D01*
X164465000Y-86868000D02*
X163830000Y-86487000D01*
X166319200Y-87604600D02*
X166319200Y-86131400D01*
X163830000Y-86868000D02*
X162966400Y-86868000D01*
X163830000Y-87249000D02*
X164465000Y-86868000D01*
%TO.C,D10*%
X146354800Y-86131400D02*
X146354800Y-87604600D01*
G36*
X145034000Y-87249000D02*
G01*
X145669000Y-86868000D01*
X145034000Y-86487000D01*
X145034000Y-87249000D01*
G37*
X145034000Y-87249000D02*
X145669000Y-86868000D01*
X145034000Y-86487000D01*
X145034000Y-87249000D01*
X146354800Y-87604600D02*
X147523200Y-87604600D01*
X146329400Y-86868000D02*
X145669000Y-86868000D01*
X145669000Y-86461600D02*
X145669000Y-87274400D01*
X147523200Y-86131400D02*
X146354800Y-86131400D01*
X145034000Y-86487000D02*
X145034000Y-87249000D01*
X145669000Y-86868000D02*
X145034000Y-86487000D01*
X147523200Y-87604600D02*
X147523200Y-86131400D01*
X145034000Y-86868000D02*
X144170400Y-86868000D01*
X145034000Y-87249000D02*
X145669000Y-86868000D01*
%TO.C,D9*%
X127050800Y-86131400D02*
X127050800Y-87604600D01*
G36*
X125730000Y-87249000D02*
G01*
X126365000Y-86868000D01*
X125730000Y-86487000D01*
X125730000Y-87249000D01*
G37*
X125730000Y-87249000D02*
X126365000Y-86868000D01*
X125730000Y-86487000D01*
X125730000Y-87249000D01*
X127050800Y-87604600D02*
X128219200Y-87604600D01*
X127025400Y-86868000D02*
X126365000Y-86868000D01*
X126365000Y-86461600D02*
X126365000Y-87274400D01*
X128219200Y-86131400D02*
X127050800Y-86131400D01*
X125730000Y-86487000D02*
X125730000Y-87249000D01*
X126365000Y-86868000D02*
X125730000Y-86487000D01*
X128219200Y-87604600D02*
X128219200Y-86131400D01*
X125730000Y-86868000D02*
X124866400Y-86868000D01*
X125730000Y-87249000D02*
X126365000Y-86868000D01*
%TO.C,D8*%
X108254800Y-86131400D02*
X108254800Y-87604600D01*
G36*
X106934000Y-87249000D02*
G01*
X107569000Y-86868000D01*
X106934000Y-86487000D01*
X106934000Y-87249000D01*
G37*
X106934000Y-87249000D02*
X107569000Y-86868000D01*
X106934000Y-86487000D01*
X106934000Y-87249000D01*
X108254800Y-87604600D02*
X109423200Y-87604600D01*
X108229400Y-86868000D02*
X107569000Y-86868000D01*
X107569000Y-86461600D02*
X107569000Y-87274400D01*
X109423200Y-86131400D02*
X108254800Y-86131400D01*
X106934000Y-86487000D02*
X106934000Y-87249000D01*
X107569000Y-86868000D02*
X106934000Y-86487000D01*
X109423200Y-87604600D02*
X109423200Y-86131400D01*
X106934000Y-86868000D02*
X106070400Y-86868000D01*
X106934000Y-87249000D02*
X107569000Y-86868000D01*
%TO.C,D7*%
X232206800Y-67335400D02*
X232206800Y-68808600D01*
G36*
X230886000Y-68453000D02*
G01*
X231521000Y-68072000D01*
X230886000Y-67691000D01*
X230886000Y-68453000D01*
G37*
X230886000Y-68453000D02*
X231521000Y-68072000D01*
X230886000Y-67691000D01*
X230886000Y-68453000D01*
X232206800Y-68808600D02*
X233375200Y-68808600D01*
X232181400Y-68072000D02*
X231521000Y-68072000D01*
X231521000Y-67665600D02*
X231521000Y-68478400D01*
X233375200Y-67335400D02*
X232206800Y-67335400D01*
X230886000Y-67691000D02*
X230886000Y-68453000D01*
X231521000Y-68072000D02*
X230886000Y-67691000D01*
X233375200Y-68808600D02*
X233375200Y-67335400D01*
X230886000Y-68072000D02*
X230022400Y-68072000D01*
X230886000Y-68453000D02*
X231521000Y-68072000D01*
%TO.C,D6*%
X203250800Y-67335400D02*
X203250800Y-68808600D01*
G36*
X201930000Y-68453000D02*
G01*
X202565000Y-68072000D01*
X201930000Y-67691000D01*
X201930000Y-68453000D01*
G37*
X201930000Y-68453000D02*
X202565000Y-68072000D01*
X201930000Y-67691000D01*
X201930000Y-68453000D01*
X203250800Y-68808600D02*
X204419200Y-68808600D01*
X203225400Y-68072000D02*
X202565000Y-68072000D01*
X202565000Y-67665600D02*
X202565000Y-68478400D01*
X204419200Y-67335400D02*
X203250800Y-67335400D01*
X201930000Y-67691000D02*
X201930000Y-68453000D01*
X202565000Y-68072000D02*
X201930000Y-67691000D01*
X204419200Y-68808600D02*
X204419200Y-67335400D01*
X201930000Y-68072000D02*
X201066400Y-68072000D01*
X201930000Y-68453000D02*
X202565000Y-68072000D01*
%TO.C,D5*%
X184454800Y-67335400D02*
X184454800Y-68808600D01*
G36*
X183134000Y-68453000D02*
G01*
X183769000Y-68072000D01*
X183134000Y-67691000D01*
X183134000Y-68453000D01*
G37*
X183134000Y-68453000D02*
X183769000Y-68072000D01*
X183134000Y-67691000D01*
X183134000Y-68453000D01*
X184454800Y-68808600D02*
X185623200Y-68808600D01*
X184429400Y-68072000D02*
X183769000Y-68072000D01*
X183769000Y-67665600D02*
X183769000Y-68478400D01*
X185623200Y-67335400D02*
X184454800Y-67335400D01*
X183134000Y-67691000D02*
X183134000Y-68453000D01*
X183769000Y-68072000D02*
X183134000Y-67691000D01*
X185623200Y-68808600D02*
X185623200Y-67335400D01*
X183134000Y-68072000D02*
X182270400Y-68072000D01*
X183134000Y-68453000D02*
X183769000Y-68072000D01*
%TO.C,D4*%
X165150800Y-67335400D02*
X165150800Y-68808600D01*
G36*
X163830000Y-68453000D02*
G01*
X164465000Y-68072000D01*
X163830000Y-67691000D01*
X163830000Y-68453000D01*
G37*
X163830000Y-68453000D02*
X164465000Y-68072000D01*
X163830000Y-67691000D01*
X163830000Y-68453000D01*
X165150800Y-68808600D02*
X166319200Y-68808600D01*
X165125400Y-68072000D02*
X164465000Y-68072000D01*
X164465000Y-67665600D02*
X164465000Y-68478400D01*
X166319200Y-67335400D02*
X165150800Y-67335400D01*
X163830000Y-67691000D02*
X163830000Y-68453000D01*
X164465000Y-68072000D02*
X163830000Y-67691000D01*
X166319200Y-68808600D02*
X166319200Y-67335400D01*
X163830000Y-68072000D02*
X162966400Y-68072000D01*
X163830000Y-68453000D02*
X164465000Y-68072000D01*
%TO.C,D3*%
X146354800Y-67335400D02*
X146354800Y-68808600D01*
G36*
X145034000Y-68453000D02*
G01*
X145669000Y-68072000D01*
X145034000Y-67691000D01*
X145034000Y-68453000D01*
G37*
X145034000Y-68453000D02*
X145669000Y-68072000D01*
X145034000Y-67691000D01*
X145034000Y-68453000D01*
X146354800Y-68808600D02*
X147523200Y-68808600D01*
X146329400Y-68072000D02*
X145669000Y-68072000D01*
X145669000Y-67665600D02*
X145669000Y-68478400D01*
X147523200Y-67335400D02*
X146354800Y-67335400D01*
X145034000Y-67691000D02*
X145034000Y-68453000D01*
X145669000Y-68072000D02*
X145034000Y-67691000D01*
X147523200Y-68808600D02*
X147523200Y-67335400D01*
X145034000Y-68072000D02*
X144170400Y-68072000D01*
X145034000Y-68453000D02*
X145669000Y-68072000D01*
%TO.C,D2*%
X127558800Y-67335400D02*
X127558800Y-68808600D01*
G36*
X126238000Y-68453000D02*
G01*
X126873000Y-68072000D01*
X126238000Y-67691000D01*
X126238000Y-68453000D01*
G37*
X126238000Y-68453000D02*
X126873000Y-68072000D01*
X126238000Y-67691000D01*
X126238000Y-68453000D01*
X127558800Y-68808600D02*
X128727200Y-68808600D01*
X127533400Y-68072000D02*
X126873000Y-68072000D01*
X126873000Y-67665600D02*
X126873000Y-68478400D01*
X128727200Y-67335400D02*
X127558800Y-67335400D01*
X126238000Y-67691000D02*
X126238000Y-68453000D01*
X126873000Y-68072000D02*
X126238000Y-67691000D01*
X128727200Y-68808600D02*
X128727200Y-67335400D01*
X126238000Y-68072000D02*
X125374400Y-68072000D01*
X126238000Y-68453000D02*
X126873000Y-68072000D01*
%TO.C,D1*%
X108254800Y-67335400D02*
X108254800Y-68808600D01*
G36*
X106934000Y-68453000D02*
G01*
X107569000Y-68072000D01*
X106934000Y-67691000D01*
X106934000Y-68453000D01*
G37*
X106934000Y-68453000D02*
X107569000Y-68072000D01*
X106934000Y-67691000D01*
X106934000Y-68453000D01*
X108254800Y-68808600D02*
X109423200Y-68808600D01*
X108229400Y-68072000D02*
X107569000Y-68072000D01*
X107569000Y-67665600D02*
X107569000Y-68478400D01*
X109423200Y-67335400D02*
X108254800Y-67335400D01*
X106934000Y-67691000D02*
X106934000Y-68453000D01*
X107569000Y-68072000D02*
X106934000Y-67691000D01*
X109423200Y-68808600D02*
X109423200Y-67335400D01*
X106934000Y-68072000D02*
X106070400Y-68072000D01*
X106934000Y-68453000D02*
X107569000Y-68072000D01*
%TO.C,LED31*%
G36*
X215614250Y-112617250D02*
G01*
X215614250Y-111982250D01*
X216249250Y-111982250D01*
X215614250Y-112617250D01*
G37*
X215614250Y-112617250D02*
X215614250Y-111982250D01*
X216249250Y-111982250D01*
X215614250Y-112617250D01*
%TO.C,LED30*%
G36*
X187039250Y-112617250D02*
G01*
X187039250Y-111982250D01*
X187674250Y-111982250D01*
X187039250Y-112617250D01*
G37*
X187039250Y-112617250D02*
X187039250Y-111982250D01*
X187674250Y-111982250D01*
X187039250Y-112617250D01*
%TO.C,LED29*%
G36*
X167989250Y-112617250D02*
G01*
X167989250Y-111982250D01*
X168624250Y-111982250D01*
X167989250Y-112617250D01*
G37*
X167989250Y-112617250D02*
X167989250Y-111982250D01*
X168624250Y-111982250D01*
X167989250Y-112617250D01*
%TO.C,LED28*%
G36*
X148939250Y-112617250D02*
G01*
X148939250Y-111982250D01*
X149574250Y-111982250D01*
X148939250Y-112617250D01*
G37*
X148939250Y-112617250D02*
X148939250Y-111982250D01*
X149574250Y-111982250D01*
X148939250Y-112617250D01*
%TO.C,LED27*%
G36*
X129889250Y-112617250D02*
G01*
X129889250Y-111982250D01*
X130524250Y-111982250D01*
X129889250Y-112617250D01*
G37*
X129889250Y-112617250D02*
X129889250Y-111982250D01*
X130524250Y-111982250D01*
X129889250Y-112617250D01*
%TO.C,LED26*%
G36*
X110839250Y-112617250D02*
G01*
X110839250Y-111982250D01*
X111474250Y-111982250D01*
X110839250Y-112617250D01*
G37*
X110839250Y-112617250D02*
X110839250Y-111982250D01*
X111474250Y-111982250D01*
X110839250Y-112617250D01*
%TO.C,LED24*%
G36*
X198088250Y-92170250D02*
G01*
X198723250Y-92170250D01*
X198723250Y-91535250D01*
X198088250Y-92170250D01*
G37*
X198088250Y-92170250D02*
X198723250Y-92170250D01*
X198723250Y-91535250D01*
X198088250Y-92170250D01*
%TO.C,LED23*%
G36*
X179038250Y-92170250D02*
G01*
X179673250Y-92170250D01*
X179673250Y-91535250D01*
X179038250Y-92170250D01*
G37*
X179038250Y-92170250D02*
X179673250Y-92170250D01*
X179673250Y-91535250D01*
X179038250Y-92170250D01*
%TO.C,LED22*%
G36*
X159988250Y-92170250D02*
G01*
X160623250Y-92170250D01*
X160623250Y-91535250D01*
X159988250Y-92170250D01*
G37*
X159988250Y-92170250D02*
X160623250Y-92170250D01*
X160623250Y-91535250D01*
X159988250Y-92170250D01*
%TO.C,LED21*%
G36*
X140938250Y-92170250D02*
G01*
X141573250Y-92170250D01*
X141573250Y-91535250D01*
X140938250Y-92170250D01*
G37*
X140938250Y-92170250D02*
X141573250Y-92170250D01*
X141573250Y-91535250D01*
X140938250Y-92170250D01*
%TO.C,LED20*%
G36*
X121888250Y-92170250D02*
G01*
X122523250Y-92170250D01*
X122523250Y-91535250D01*
X121888250Y-92170250D01*
G37*
X121888250Y-92170250D02*
X122523250Y-92170250D01*
X122523250Y-91535250D01*
X121888250Y-92170250D01*
%TO.C,LED19*%
G36*
X102838250Y-92170250D02*
G01*
X103473250Y-92170250D01*
X103473250Y-91535250D01*
X102838250Y-92170250D01*
G37*
X102838250Y-92170250D02*
X103473250Y-92170250D01*
X103473250Y-91535250D01*
X102838250Y-92170250D01*
%TO.C,LED18*%
G36*
X234664250Y-74517250D02*
G01*
X234664250Y-73882250D01*
X235299250Y-73882250D01*
X234664250Y-74517250D01*
G37*
X234664250Y-74517250D02*
X234664250Y-73882250D01*
X235299250Y-73882250D01*
X234664250Y-74517250D01*
%TO.C,LED17*%
G36*
X206089250Y-74517250D02*
G01*
X206089250Y-73882250D01*
X206724250Y-73882250D01*
X206089250Y-74517250D01*
G37*
X206089250Y-74517250D02*
X206089250Y-73882250D01*
X206724250Y-73882250D01*
X206089250Y-74517250D01*
%TO.C,LED16*%
G36*
X187039250Y-74517250D02*
G01*
X187039250Y-73882250D01*
X187674250Y-73882250D01*
X187039250Y-74517250D01*
G37*
X187039250Y-74517250D02*
X187039250Y-73882250D01*
X187674250Y-73882250D01*
X187039250Y-74517250D01*
%TO.C,LED15*%
G36*
X167989250Y-74517250D02*
G01*
X167989250Y-73882250D01*
X168624250Y-73882250D01*
X167989250Y-74517250D01*
G37*
X167989250Y-74517250D02*
X167989250Y-73882250D01*
X168624250Y-73882250D01*
X167989250Y-74517250D01*
%TO.C,LED14*%
G36*
X148939250Y-74517250D02*
G01*
X148939250Y-73882250D01*
X149574250Y-73882250D01*
X148939250Y-74517250D01*
G37*
X148939250Y-74517250D02*
X148939250Y-73882250D01*
X149574250Y-73882250D01*
X148939250Y-74517250D01*
%TO.C,LED13*%
G36*
X129889250Y-74517250D02*
G01*
X129889250Y-73882250D01*
X130524250Y-73882250D01*
X129889250Y-74517250D01*
G37*
X129889250Y-74517250D02*
X129889250Y-73882250D01*
X130524250Y-73882250D01*
X129889250Y-74517250D01*
%TO.C,LED12*%
G36*
X110839250Y-74517250D02*
G01*
X110839250Y-73882250D01*
X111474250Y-73882250D01*
X110839250Y-74517250D01*
G37*
X110839250Y-74517250D02*
X110839250Y-73882250D01*
X111474250Y-73882250D01*
X110839250Y-74517250D01*
%TO.C,LED11*%
G36*
X226663250Y-54070250D02*
G01*
X227298250Y-54070250D01*
X227298250Y-53435250D01*
X226663250Y-54070250D01*
G37*
X226663250Y-54070250D02*
X227298250Y-54070250D01*
X227298250Y-53435250D01*
X226663250Y-54070250D01*
%TO.C,LED10*%
G36*
X198088250Y-54070250D02*
G01*
X198723250Y-54070250D01*
X198723250Y-53435250D01*
X198088250Y-54070250D01*
G37*
X198088250Y-54070250D02*
X198723250Y-54070250D01*
X198723250Y-53435250D01*
X198088250Y-54070250D01*
%TO.C,LED9*%
G36*
X179038250Y-54070250D02*
G01*
X179673250Y-54070250D01*
X179673250Y-53435250D01*
X179038250Y-54070250D01*
G37*
X179038250Y-54070250D02*
X179673250Y-54070250D01*
X179673250Y-53435250D01*
X179038250Y-54070250D01*
%TO.C,LED8*%
G36*
X159988250Y-54070250D02*
G01*
X160623250Y-54070250D01*
X160623250Y-53435250D01*
X159988250Y-54070250D01*
G37*
X159988250Y-54070250D02*
X160623250Y-54070250D01*
X160623250Y-53435250D01*
X159988250Y-54070250D01*
%TO.C,LED7*%
G36*
X140938250Y-54070250D02*
G01*
X141573250Y-54070250D01*
X141573250Y-53435250D01*
X140938250Y-54070250D01*
G37*
X140938250Y-54070250D02*
X141573250Y-54070250D01*
X141573250Y-53435250D01*
X140938250Y-54070250D01*
%TO.C,LED6*%
G36*
X121888250Y-54070250D02*
G01*
X122523250Y-54070250D01*
X122523250Y-53435250D01*
X121888250Y-54070250D01*
G37*
X121888250Y-54070250D02*
X122523250Y-54070250D01*
X122523250Y-53435250D01*
X121888250Y-54070250D01*
%TO.C,LED5*%
G36*
X102838250Y-54070250D02*
G01*
X103473250Y-54070250D01*
X103473250Y-53435250D01*
X102838250Y-54070250D01*
G37*
X102838250Y-54070250D02*
X103473250Y-54070250D01*
X103473250Y-53435250D01*
X102838250Y-54070250D01*
%TO.C,LED4*%
G36*
X215677750Y-82264250D02*
G01*
X216312750Y-82264250D01*
X216312750Y-82899250D01*
X215677750Y-82264250D01*
G37*
X215677750Y-82264250D02*
X216312750Y-82264250D01*
X216312750Y-82899250D01*
X215677750Y-82264250D01*
%TO.C,LED3*%
G36*
X177514250Y-70072250D02*
G01*
X177514250Y-69437250D01*
X178149250Y-69437250D01*
X177514250Y-70072250D01*
G37*
X177514250Y-70072250D02*
X177514250Y-69437250D01*
X178149250Y-69437250D01*
X177514250Y-70072250D01*
%TO.C,LED2*%
G36*
X158464250Y-108172250D02*
G01*
X158464250Y-107537250D01*
X159099250Y-107537250D01*
X158464250Y-108172250D01*
G37*
X158464250Y-108172250D02*
X158464250Y-107537250D01*
X159099250Y-107537250D01*
X158464250Y-108172250D01*
%TO.C,LED1*%
G36*
X112998250Y-87090250D02*
G01*
X112998250Y-87725250D01*
X112363250Y-87725250D01*
X112998250Y-87090250D01*
G37*
X112998250Y-87090250D02*
X112998250Y-87725250D01*
X112363250Y-87725250D01*
X112998250Y-87090250D01*
%TO.C,U1*%
X217170000Y-65278000D02*
G75*
G03*
X217170000Y-65278000I-127000J0D01*
G01*
X217932000Y-65532000D02*
X216789000Y-65532000D01*
X217932000Y-62992000D02*
X217932000Y-65532000D01*
X216789000Y-62992000D02*
X217932000Y-62992000D01*
X216789000Y-65532000D02*
X216789000Y-62992000D01*
%TO.C,SW22*%
X255700000Y-75170000D02*
X255250000Y-74720000D01*
X252300000Y-75170000D02*
X252750000Y-74720000D01*
X252300000Y-79770000D02*
X252750000Y-80220000D01*
X255700000Y-79770000D02*
X255250000Y-80220000D01*
X251250000Y-78470000D02*
X251250000Y-76470000D01*
X255250000Y-74720000D02*
X252750000Y-74720000D01*
X256750000Y-78470000D02*
X256750000Y-76470000D01*
X255250000Y-80220000D02*
X252750000Y-80220000D01*
%TO.C,SW15*%
X227356250Y-95631250D02*
X227356250Y-91531250D01*
X222756250Y-91531250D02*
X220156250Y-91531250D01*
X227356250Y-91531250D02*
X224956250Y-91531250D01*
X227356250Y-103731250D02*
X215556250Y-103731250D01*
X225256250Y-105131250D02*
X225556250Y-105431250D01*
X225556250Y-105431250D02*
X225556250Y-104831250D01*
X225556250Y-104831250D02*
X225256250Y-105131250D01*
X215556250Y-91531250D02*
X215556250Y-95631250D01*
X215556250Y-99631250D02*
X215556250Y-103731250D01*
X227356250Y-99631250D02*
X227356250Y-103731250D01*
X217956250Y-91531250D02*
X215556250Y-91531250D01*
X221456250Y-93631250D02*
X221956250Y-94131250D01*
X221456250Y-93631250D02*
X221956250Y-93131250D01*
X219277694Y-94276568D02*
G75*
G03*
X221456250Y-93631250I2178556J-3354682D01*
G01*
%TO.C,R6*%
X244202000Y-84821000D02*
X245002000Y-84703500D01*
X245002000Y-84703500D02*
X244202000Y-84567000D01*
X244202000Y-84567000D02*
X245002000Y-84440000D01*
X245002000Y-84440000D02*
X244202000Y-84303500D01*
X244202000Y-84303500D02*
X245002000Y-84186000D01*
%TO.C,R5*%
X232776000Y-108820000D02*
X232893500Y-109620000D01*
X232893500Y-109620000D02*
X233030000Y-108820000D01*
X233030000Y-108820000D02*
X233157000Y-109620000D01*
X233157000Y-109620000D02*
X233293500Y-108820000D01*
X233293500Y-108820000D02*
X233411000Y-109620000D01*
%TO.C,R4*%
X237934500Y-108820000D02*
X238052000Y-109620000D01*
X238052000Y-109620000D02*
X238188500Y-108820000D01*
X238188500Y-108820000D02*
X238315500Y-109620000D01*
X238315500Y-109620000D02*
X238452000Y-108820000D01*
X238452000Y-108820000D02*
X238569500Y-109620000D01*
%TO.C,R3*%
X246234000Y-76088000D02*
X247034000Y-75970500D01*
X247034000Y-75970500D02*
X246234000Y-75834000D01*
X246234000Y-75834000D02*
X247034000Y-75707000D01*
X247034000Y-75707000D02*
X246234000Y-75570500D01*
X246234000Y-75570500D02*
X247034000Y-75453000D01*
%TO.C,R2*%
X217868500Y-49288750D02*
X217986000Y-50088750D01*
X217986000Y-50088750D02*
X218122500Y-49288750D01*
X218122500Y-49288750D02*
X218249500Y-50088750D01*
X218249500Y-50088750D02*
X218386000Y-49288750D01*
X218386000Y-49288750D02*
X218503500Y-50088750D01*
%TO.C,F1*%
X219456000Y-70358000D02*
X219710000Y-70358000D01*
X218440000Y-70358000D02*
X218186000Y-70358000D01*
X218948000Y-70358000D02*
G75*
G03*
X218440000Y-70358000I-254000J0D01*
G01*
X218948000Y-70358000D02*
G75*
G03*
X219456000Y-70358000I254000J0D01*
G01*
%TO.C,C19*%
X119638578Y-113082000D02*
X119121422Y-113082000D01*
X119638578Y-113486000D02*
X119121422Y-113486000D01*
X119380000Y-113665000D02*
X119380000Y-113487200D01*
X119380000Y-113080800D02*
X119380000Y-112903000D01*
%TO.C,C18*%
X231446000Y-90165422D02*
X231446000Y-90682578D01*
X231850000Y-90165422D02*
X231850000Y-90682578D01*
X232029000Y-90424000D02*
X231851200Y-90424000D01*
X231444800Y-90424000D02*
X231267000Y-90424000D01*
%TO.C,C17*%
X176534578Y-93778000D02*
X176017422Y-93778000D01*
X176534578Y-94182000D02*
X176017422Y-94182000D01*
X176276000Y-94361000D02*
X176276000Y-94183200D01*
X176276000Y-93776800D02*
X176276000Y-93599000D01*
%TO.C,C16*%
X138434578Y-94286000D02*
X137917422Y-94286000D01*
X138434578Y-94690000D02*
X137917422Y-94690000D01*
X138176000Y-94869000D02*
X138176000Y-94691200D01*
X138176000Y-94284800D02*
X138176000Y-94107000D01*
%TO.C,C14*%
X224286578Y-74982000D02*
X223769422Y-74982000D01*
X224286578Y-75386000D02*
X223769422Y-75386000D01*
X224028000Y-75565000D02*
X224028000Y-75387200D01*
X224028000Y-74980800D02*
X224028000Y-74803000D01*
%TO.C,C13*%
X176534578Y-74982000D02*
X176017422Y-74982000D01*
X176534578Y-75386000D02*
X176017422Y-75386000D01*
X176276000Y-75565000D02*
X176276000Y-75387200D01*
X176276000Y-74980800D02*
X176276000Y-74803000D01*
%TO.C,C12*%
X138434578Y-74982000D02*
X137917422Y-74982000D01*
X138434578Y-75386000D02*
X137917422Y-75386000D01*
X138176000Y-75565000D02*
X138176000Y-75387200D01*
X138176000Y-74980800D02*
X138176000Y-74803000D01*
%TO.C,C11*%
X224286578Y-56186000D02*
X223769422Y-56186000D01*
X224286578Y-56590000D02*
X223769422Y-56590000D01*
X224028000Y-56769000D02*
X224028000Y-56591200D01*
X224028000Y-56184800D02*
X224028000Y-56007000D01*
%TO.C,C10*%
X176534578Y-56186000D02*
X176017422Y-56186000D01*
X176534578Y-56590000D02*
X176017422Y-56590000D01*
X176276000Y-56769000D02*
X176276000Y-56591200D01*
X176276000Y-56184800D02*
X176276000Y-56007000D01*
%TO.C,C9*%
X138434578Y-55678000D02*
X137917422Y-55678000D01*
X138434578Y-56082000D02*
X137917422Y-56082000D01*
X138176000Y-56261000D02*
X138176000Y-56083200D01*
X138176000Y-55676800D02*
X138176000Y-55499000D01*
%TO.C,C8*%
X212593422Y-77418000D02*
X213110578Y-77418000D01*
X212593422Y-77014000D02*
X213110578Y-77014000D01*
X212852000Y-76835000D02*
X212852000Y-77012800D01*
X212852000Y-77419200D02*
X212852000Y-77597000D01*
%TO.C,C7*%
X162762000Y-107446578D02*
X162762000Y-106929422D01*
X162358000Y-107446578D02*
X162358000Y-106929422D01*
X162179000Y-107188000D02*
X162356800Y-107188000D01*
X162763200Y-107188000D02*
X162941000Y-107188000D01*
%TO.C,C15*%
X248946500Y-110240578D02*
X248946500Y-109723422D01*
X248542500Y-110240578D02*
X248542500Y-109723422D01*
X248363500Y-109982000D02*
X248541300Y-109982000D01*
X248947700Y-109982000D02*
X249125500Y-109982000D01*
%TO.C,C6*%
X240533422Y-104928500D02*
X241050578Y-104928500D01*
X240533422Y-104524500D02*
X241050578Y-104524500D01*
X240792000Y-104345500D02*
X240792000Y-104523300D01*
X240792000Y-104929700D02*
X240792000Y-105107500D01*
%TO.C,C5*%
X253973500Y-87371422D02*
X253973500Y-87888578D01*
X254377500Y-87371422D02*
X254377500Y-87888578D01*
X254556500Y-87630000D02*
X254378700Y-87630000D01*
X253972300Y-87630000D02*
X253794500Y-87630000D01*
%TO.C,C4*%
X257275500Y-107183422D02*
X257275500Y-107700578D01*
X257679500Y-107183422D02*
X257679500Y-107700578D01*
X257858500Y-107442000D02*
X257680700Y-107442000D01*
X257274300Y-107442000D02*
X257096500Y-107442000D01*
%TO.C,C3*%
X241812578Y-94110500D02*
X241295422Y-94110500D01*
X241812578Y-94514500D02*
X241295422Y-94514500D01*
X241554000Y-94693500D02*
X241554000Y-94515700D01*
X241554000Y-94109300D02*
X241554000Y-93931500D01*
%TO.C,C2*%
X253995422Y-84784000D02*
X254512578Y-84784000D01*
X253995422Y-84380000D02*
X254512578Y-84380000D01*
X254254000Y-84201000D02*
X254254000Y-84378800D01*
X254254000Y-84785200D02*
X254254000Y-84963000D01*
%TO.C,C1*%
X247400578Y-84380000D02*
X246883422Y-84380000D01*
X247400578Y-84784000D02*
X246883422Y-84784000D01*
X247142000Y-84963000D02*
X247142000Y-84785200D01*
X247142000Y-84378800D02*
X247142000Y-84201000D01*
%TO.C,J3*%
D13*
X246633395Y-63737066D02*
X247213966Y-63737066D01*
X247330080Y-63698361D01*
X247407490Y-63620952D01*
X247446195Y-63504838D01*
X247446195Y-63427428D01*
X246633395Y-64046704D02*
X246633395Y-64549866D01*
X246943033Y-64278933D01*
X246943033Y-64395047D01*
X246981738Y-64472457D01*
X247020442Y-64511161D01*
X247097852Y-64549866D01*
X247291376Y-64549866D01*
X247368785Y-64511161D01*
X247407490Y-64472457D01*
X247446195Y-64395047D01*
X247446195Y-64162819D01*
X247407490Y-64085409D01*
X247368785Y-64046704D01*
%TO.C,Y1*%
D10*
X251764666Y-81243904D02*
X252031333Y-80862952D01*
X252221809Y-81243904D02*
X252221809Y-80443904D01*
X251917047Y-80443904D01*
X251840857Y-80482000D01*
X251802761Y-80520095D01*
X251764666Y-80596285D01*
X251764666Y-80710571D01*
X251802761Y-80786761D01*
X251840857Y-80824857D01*
X251917047Y-80862952D01*
X252221809Y-80862952D01*
X251421809Y-80824857D02*
X251155142Y-80824857D01*
X251040857Y-81243904D02*
X251421809Y-81243904D01*
X251421809Y-80443904D01*
X251040857Y-80443904D01*
X250431333Y-80824857D02*
X250698000Y-80824857D01*
X250698000Y-81243904D02*
X250698000Y-80443904D01*
X250317047Y-80443904D01*
X249898000Y-80443904D02*
X249898000Y-80634380D01*
X250088476Y-80558190D02*
X249898000Y-80634380D01*
X249707523Y-80558190D01*
X250012285Y-80786761D02*
X249898000Y-80634380D01*
X249783714Y-80786761D01*
X249288476Y-80443904D02*
X249288476Y-80634380D01*
X249478952Y-80558190D02*
X249288476Y-80634380D01*
X249098000Y-80558190D01*
X249402761Y-80786761D02*
X249288476Y-80634380D01*
X249174190Y-80786761D01*
%TO.C,J1*%
D13*
X216678933Y-47981865D02*
X216678933Y-48562436D01*
X216717638Y-48678550D01*
X216795047Y-48755960D01*
X216911161Y-48794665D01*
X216988571Y-48794665D01*
X215866133Y-48794665D02*
X216330590Y-48794665D01*
X216098361Y-48794665D02*
X216098361Y-47981865D01*
X216175771Y-48097979D01*
X216253180Y-48175389D01*
X216330590Y-48214093D01*
%TO.C,R1*%
X212397459Y-50056445D02*
X212668392Y-49669397D01*
X212861916Y-50056445D02*
X212861916Y-49243645D01*
X212552278Y-49243645D01*
X212474868Y-49282350D01*
X212436163Y-49321054D01*
X212397459Y-49398464D01*
X212397459Y-49514578D01*
X212436163Y-49591988D01*
X212474868Y-49630692D01*
X212552278Y-49669397D01*
X212861916Y-49669397D01*
X211623363Y-50056445D02*
X212087820Y-50056445D01*
X211855592Y-50056445D02*
X211855592Y-49243645D01*
X211933001Y-49359759D01*
X212010411Y-49437169D01*
X212087820Y-49475873D01*
%TO.C,LED25*%
X234796695Y-96239390D02*
X234796695Y-95852342D01*
X233983895Y-95852342D01*
X234370942Y-96510323D02*
X234370942Y-96781257D01*
X234796695Y-96897371D02*
X234796695Y-96510323D01*
X233983895Y-96510323D01*
X233983895Y-96897371D01*
X234796695Y-97245714D02*
X233983895Y-97245714D01*
X233983895Y-97439238D01*
X234022600Y-97555352D01*
X234100009Y-97632761D01*
X234177419Y-97671466D01*
X234332238Y-97710171D01*
X234448352Y-97710171D01*
X234603171Y-97671466D01*
X234680580Y-97632761D01*
X234757990Y-97555352D01*
X234796695Y-97439238D01*
X234796695Y-97245714D01*
X234061304Y-98019809D02*
X234022600Y-98058514D01*
X233983895Y-98135923D01*
X233983895Y-98329447D01*
X234022600Y-98406857D01*
X234061304Y-98445561D01*
X234138714Y-98484266D01*
X234216123Y-98484266D01*
X234332238Y-98445561D01*
X234796695Y-97981104D01*
X234796695Y-98484266D01*
X233983895Y-99219657D02*
X233983895Y-98832609D01*
X234370942Y-98793904D01*
X234332238Y-98832609D01*
X234293533Y-98910019D01*
X234293533Y-99103542D01*
X234332238Y-99180952D01*
X234370942Y-99219657D01*
X234448352Y-99258361D01*
X234641876Y-99258361D01*
X234719285Y-99219657D01*
X234757990Y-99180952D01*
X234796695Y-99103542D01*
X234796695Y-98910019D01*
X234757990Y-98832609D01*
X234719285Y-98793904D01*
D10*
X231247904Y-96202666D02*
X230447904Y-96202666D01*
X230828857Y-96202666D02*
X230828857Y-96659809D01*
X231247904Y-96659809D02*
X230447904Y-96659809D01*
X230447904Y-97193142D02*
X230447904Y-97345523D01*
X230486000Y-97421714D01*
X230562190Y-97497904D01*
X230714571Y-97536000D01*
X230981238Y-97536000D01*
X231133619Y-97497904D01*
X231209809Y-97421714D01*
X231247904Y-97345523D01*
X231247904Y-97193142D01*
X231209809Y-97116952D01*
X231133619Y-97040761D01*
X230981238Y-97002666D01*
X230714571Y-97002666D01*
X230562190Y-97040761D01*
X230486000Y-97116952D01*
X230447904Y-97193142D01*
X231247904Y-98259809D02*
X231247904Y-97878857D01*
X230447904Y-97878857D01*
X230828857Y-98526476D02*
X230828857Y-98793142D01*
X231247904Y-98907428D02*
X231247904Y-98526476D01*
X230447904Y-98526476D01*
X230447904Y-98907428D01*
%TO.C,D27*%
D13*
X209511416Y-125335695D02*
X209511416Y-124522895D01*
X209317892Y-124522895D01*
X209201778Y-124561600D01*
X209124368Y-124639009D01*
X209085663Y-124716419D01*
X209046959Y-124871238D01*
X209046959Y-124987352D01*
X209085663Y-125142171D01*
X209124368Y-125219580D01*
X209201778Y-125296990D01*
X209317892Y-125335695D01*
X209511416Y-125335695D01*
X208737320Y-124600304D02*
X208698616Y-124561600D01*
X208621206Y-124522895D01*
X208427682Y-124522895D01*
X208350273Y-124561600D01*
X208311568Y-124600304D01*
X208272863Y-124677714D01*
X208272863Y-124755123D01*
X208311568Y-124871238D01*
X208776025Y-125335695D01*
X208272863Y-125335695D01*
X208001930Y-124522895D02*
X207460063Y-124522895D01*
X207808406Y-125335695D01*
%TO.C,D26*%
X181063416Y-125335695D02*
X181063416Y-124522895D01*
X180869892Y-124522895D01*
X180753778Y-124561600D01*
X180676368Y-124639009D01*
X180637663Y-124716419D01*
X180598959Y-124871238D01*
X180598959Y-124987352D01*
X180637663Y-125142171D01*
X180676368Y-125219580D01*
X180753778Y-125296990D01*
X180869892Y-125335695D01*
X181063416Y-125335695D01*
X180289320Y-124600304D02*
X180250616Y-124561600D01*
X180173206Y-124522895D01*
X179979682Y-124522895D01*
X179902273Y-124561600D01*
X179863568Y-124600304D01*
X179824863Y-124677714D01*
X179824863Y-124755123D01*
X179863568Y-124871238D01*
X180328025Y-125335695D01*
X179824863Y-125335695D01*
X179128178Y-124522895D02*
X179282997Y-124522895D01*
X179360406Y-124561600D01*
X179399111Y-124600304D01*
X179476520Y-124716419D01*
X179515225Y-124871238D01*
X179515225Y-125180876D01*
X179476520Y-125258285D01*
X179437816Y-125296990D01*
X179360406Y-125335695D01*
X179205587Y-125335695D01*
X179128178Y-125296990D01*
X179089473Y-125258285D01*
X179050768Y-125180876D01*
X179050768Y-124987352D01*
X179089473Y-124909942D01*
X179128178Y-124871238D01*
X179205587Y-124832533D01*
X179360406Y-124832533D01*
X179437816Y-124871238D01*
X179476520Y-124909942D01*
X179515225Y-124987352D01*
%TO.C,D25*%
X162267416Y-125335695D02*
X162267416Y-124522895D01*
X162073892Y-124522895D01*
X161957778Y-124561600D01*
X161880368Y-124639009D01*
X161841663Y-124716419D01*
X161802959Y-124871238D01*
X161802959Y-124987352D01*
X161841663Y-125142171D01*
X161880368Y-125219580D01*
X161957778Y-125296990D01*
X162073892Y-125335695D01*
X162267416Y-125335695D01*
X161493320Y-124600304D02*
X161454616Y-124561600D01*
X161377206Y-124522895D01*
X161183682Y-124522895D01*
X161106273Y-124561600D01*
X161067568Y-124600304D01*
X161028863Y-124677714D01*
X161028863Y-124755123D01*
X161067568Y-124871238D01*
X161532025Y-125335695D01*
X161028863Y-125335695D01*
X160293473Y-124522895D02*
X160680520Y-124522895D01*
X160719225Y-124909942D01*
X160680520Y-124871238D01*
X160603111Y-124832533D01*
X160409587Y-124832533D01*
X160332178Y-124871238D01*
X160293473Y-124909942D01*
X160254768Y-124987352D01*
X160254768Y-125180876D01*
X160293473Y-125258285D01*
X160332178Y-125296990D01*
X160409587Y-125335695D01*
X160603111Y-125335695D01*
X160680520Y-125296990D01*
X160719225Y-125258285D01*
%TO.C,D24*%
X142963416Y-125335695D02*
X142963416Y-124522895D01*
X142769892Y-124522895D01*
X142653778Y-124561600D01*
X142576368Y-124639009D01*
X142537663Y-124716419D01*
X142498959Y-124871238D01*
X142498959Y-124987352D01*
X142537663Y-125142171D01*
X142576368Y-125219580D01*
X142653778Y-125296990D01*
X142769892Y-125335695D01*
X142963416Y-125335695D01*
X142189320Y-124600304D02*
X142150616Y-124561600D01*
X142073206Y-124522895D01*
X141879682Y-124522895D01*
X141802273Y-124561600D01*
X141763568Y-124600304D01*
X141724863Y-124677714D01*
X141724863Y-124755123D01*
X141763568Y-124871238D01*
X142228025Y-125335695D01*
X141724863Y-125335695D01*
X141028178Y-124793828D02*
X141028178Y-125335695D01*
X141221701Y-124484190D02*
X141415225Y-125064761D01*
X140912063Y-125064761D01*
%TO.C,D23*%
X123659416Y-125335695D02*
X123659416Y-124522895D01*
X123465892Y-124522895D01*
X123349778Y-124561600D01*
X123272368Y-124639009D01*
X123233663Y-124716419D01*
X123194959Y-124871238D01*
X123194959Y-124987352D01*
X123233663Y-125142171D01*
X123272368Y-125219580D01*
X123349778Y-125296990D01*
X123465892Y-125335695D01*
X123659416Y-125335695D01*
X122885320Y-124600304D02*
X122846616Y-124561600D01*
X122769206Y-124522895D01*
X122575682Y-124522895D01*
X122498273Y-124561600D01*
X122459568Y-124600304D01*
X122420863Y-124677714D01*
X122420863Y-124755123D01*
X122459568Y-124871238D01*
X122924025Y-125335695D01*
X122420863Y-125335695D01*
X122149930Y-124522895D02*
X121646768Y-124522895D01*
X121917701Y-124832533D01*
X121801587Y-124832533D01*
X121724178Y-124871238D01*
X121685473Y-124909942D01*
X121646768Y-124987352D01*
X121646768Y-125180876D01*
X121685473Y-125258285D01*
X121724178Y-125296990D01*
X121801587Y-125335695D01*
X122033816Y-125335695D01*
X122111225Y-125296990D01*
X122149930Y-125258285D01*
%TO.C,D22*%
X104863416Y-125335695D02*
X104863416Y-124522895D01*
X104669892Y-124522895D01*
X104553778Y-124561600D01*
X104476368Y-124639009D01*
X104437663Y-124716419D01*
X104398959Y-124871238D01*
X104398959Y-124987352D01*
X104437663Y-125142171D01*
X104476368Y-125219580D01*
X104553778Y-125296990D01*
X104669892Y-125335695D01*
X104863416Y-125335695D01*
X104089320Y-124600304D02*
X104050616Y-124561600D01*
X103973206Y-124522895D01*
X103779682Y-124522895D01*
X103702273Y-124561600D01*
X103663568Y-124600304D01*
X103624863Y-124677714D01*
X103624863Y-124755123D01*
X103663568Y-124871238D01*
X104128025Y-125335695D01*
X103624863Y-125335695D01*
X103315225Y-124600304D02*
X103276520Y-124561600D01*
X103199111Y-124522895D01*
X103005587Y-124522895D01*
X102928178Y-124561600D01*
X102889473Y-124600304D01*
X102850768Y-124677714D01*
X102850768Y-124755123D01*
X102889473Y-124871238D01*
X103353930Y-125335695D01*
X102850768Y-125335695D01*
%TO.C,D21*%
X218166526Y-89267695D02*
X218166526Y-88454895D01*
X217973002Y-88454895D01*
X217856888Y-88493600D01*
X217779479Y-88571009D01*
X217740774Y-88648419D01*
X217702069Y-88803238D01*
X217702069Y-88919352D01*
X217740774Y-89074171D01*
X217779479Y-89151580D01*
X217856888Y-89228990D01*
X217973002Y-89267695D01*
X218166526Y-89267695D01*
X217392431Y-88532304D02*
X217353726Y-88493600D01*
X217276317Y-88454895D01*
X217082793Y-88454895D01*
X217005383Y-88493600D01*
X216966679Y-88532304D01*
X216927974Y-88609714D01*
X216927974Y-88687123D01*
X216966679Y-88803238D01*
X217431136Y-89267695D01*
X216927974Y-89267695D01*
X216153879Y-89267695D02*
X216618336Y-89267695D01*
X216386107Y-89267695D02*
X216386107Y-88454895D01*
X216463517Y-88571009D01*
X216540926Y-88648419D01*
X216618336Y-88687123D01*
%TO.C,D20*%
X192747416Y-108571695D02*
X192747416Y-107758895D01*
X192553892Y-107758895D01*
X192437778Y-107797600D01*
X192360368Y-107875009D01*
X192321663Y-107952419D01*
X192282959Y-108107238D01*
X192282959Y-108223352D01*
X192321663Y-108378171D01*
X192360368Y-108455580D01*
X192437778Y-108532990D01*
X192553892Y-108571695D01*
X192747416Y-108571695D01*
X191973320Y-107836304D02*
X191934616Y-107797600D01*
X191857206Y-107758895D01*
X191663682Y-107758895D01*
X191586273Y-107797600D01*
X191547568Y-107836304D01*
X191508863Y-107913714D01*
X191508863Y-107991123D01*
X191547568Y-108107238D01*
X192012025Y-108571695D01*
X191508863Y-108571695D01*
X191005701Y-107758895D02*
X190928292Y-107758895D01*
X190850882Y-107797600D01*
X190812178Y-107836304D01*
X190773473Y-107913714D01*
X190734768Y-108068533D01*
X190734768Y-108262057D01*
X190773473Y-108416876D01*
X190812178Y-108494285D01*
X190850882Y-108532990D01*
X190928292Y-108571695D01*
X191005701Y-108571695D01*
X191083111Y-108532990D01*
X191121816Y-108494285D01*
X191160520Y-108416876D01*
X191199225Y-108262057D01*
X191199225Y-108068533D01*
X191160520Y-107913714D01*
X191121816Y-107836304D01*
X191083111Y-107797600D01*
X191005701Y-107758895D01*
%TO.C,D19*%
X181063416Y-106539695D02*
X181063416Y-105726895D01*
X180869892Y-105726895D01*
X180753778Y-105765600D01*
X180676368Y-105843009D01*
X180637663Y-105920419D01*
X180598959Y-106075238D01*
X180598959Y-106191352D01*
X180637663Y-106346171D01*
X180676368Y-106423580D01*
X180753778Y-106500990D01*
X180869892Y-106539695D01*
X181063416Y-106539695D01*
X179824863Y-106539695D02*
X180289320Y-106539695D01*
X180057092Y-106539695D02*
X180057092Y-105726895D01*
X180134501Y-105843009D01*
X180211911Y-105920419D01*
X180289320Y-105959123D01*
X179437816Y-106539695D02*
X179282997Y-106539695D01*
X179205587Y-106500990D01*
X179166882Y-106462285D01*
X179089473Y-106346171D01*
X179050768Y-106191352D01*
X179050768Y-105881714D01*
X179089473Y-105804304D01*
X179128178Y-105765600D01*
X179205587Y-105726895D01*
X179360406Y-105726895D01*
X179437816Y-105765600D01*
X179476520Y-105804304D01*
X179515225Y-105881714D01*
X179515225Y-106075238D01*
X179476520Y-106152647D01*
X179437816Y-106191352D01*
X179360406Y-106230057D01*
X179205587Y-106230057D01*
X179128178Y-106191352D01*
X179089473Y-106152647D01*
X179050768Y-106075238D01*
%TO.C,D18*%
X165315416Y-107047695D02*
X165315416Y-106234895D01*
X165121892Y-106234895D01*
X165005778Y-106273600D01*
X164928368Y-106351009D01*
X164889663Y-106428419D01*
X164850959Y-106583238D01*
X164850959Y-106699352D01*
X164889663Y-106854171D01*
X164928368Y-106931580D01*
X165005778Y-107008990D01*
X165121892Y-107047695D01*
X165315416Y-107047695D01*
X164076863Y-107047695D02*
X164541320Y-107047695D01*
X164309092Y-107047695D02*
X164309092Y-106234895D01*
X164386501Y-106351009D01*
X164463911Y-106428419D01*
X164541320Y-106467123D01*
X163612406Y-106583238D02*
X163689816Y-106544533D01*
X163728520Y-106505828D01*
X163767225Y-106428419D01*
X163767225Y-106389714D01*
X163728520Y-106312304D01*
X163689816Y-106273600D01*
X163612406Y-106234895D01*
X163457587Y-106234895D01*
X163380178Y-106273600D01*
X163341473Y-106312304D01*
X163302768Y-106389714D01*
X163302768Y-106428419D01*
X163341473Y-106505828D01*
X163380178Y-106544533D01*
X163457587Y-106583238D01*
X163612406Y-106583238D01*
X163689816Y-106621942D01*
X163728520Y-106660647D01*
X163767225Y-106738057D01*
X163767225Y-106892876D01*
X163728520Y-106970285D01*
X163689816Y-107008990D01*
X163612406Y-107047695D01*
X163457587Y-107047695D01*
X163380178Y-107008990D01*
X163341473Y-106970285D01*
X163302768Y-106892876D01*
X163302768Y-106738057D01*
X163341473Y-106660647D01*
X163380178Y-106621942D01*
X163457587Y-106583238D01*
%TO.C,D17*%
X142963416Y-106539695D02*
X142963416Y-105726895D01*
X142769892Y-105726895D01*
X142653778Y-105765600D01*
X142576368Y-105843009D01*
X142537663Y-105920419D01*
X142498959Y-106075238D01*
X142498959Y-106191352D01*
X142537663Y-106346171D01*
X142576368Y-106423580D01*
X142653778Y-106500990D01*
X142769892Y-106539695D01*
X142963416Y-106539695D01*
X141724863Y-106539695D02*
X142189320Y-106539695D01*
X141957092Y-106539695D02*
X141957092Y-105726895D01*
X142034501Y-105843009D01*
X142111911Y-105920419D01*
X142189320Y-105959123D01*
X141453930Y-105726895D02*
X140912063Y-105726895D01*
X141260406Y-106539695D01*
%TO.C,D16*%
X123659416Y-106539695D02*
X123659416Y-105726895D01*
X123465892Y-105726895D01*
X123349778Y-105765600D01*
X123272368Y-105843009D01*
X123233663Y-105920419D01*
X123194959Y-106075238D01*
X123194959Y-106191352D01*
X123233663Y-106346171D01*
X123272368Y-106423580D01*
X123349778Y-106500990D01*
X123465892Y-106539695D01*
X123659416Y-106539695D01*
X122420863Y-106539695D02*
X122885320Y-106539695D01*
X122653092Y-106539695D02*
X122653092Y-105726895D01*
X122730501Y-105843009D01*
X122807911Y-105920419D01*
X122885320Y-105959123D01*
X121724178Y-105726895D02*
X121878997Y-105726895D01*
X121956406Y-105765600D01*
X121995111Y-105804304D01*
X122072520Y-105920419D01*
X122111225Y-106075238D01*
X122111225Y-106384876D01*
X122072520Y-106462285D01*
X122033816Y-106500990D01*
X121956406Y-106539695D01*
X121801587Y-106539695D01*
X121724178Y-106500990D01*
X121685473Y-106462285D01*
X121646768Y-106384876D01*
X121646768Y-106191352D01*
X121685473Y-106113942D01*
X121724178Y-106075238D01*
X121801587Y-106036533D01*
X121956406Y-106036533D01*
X122033816Y-106075238D01*
X122072520Y-106113942D01*
X122111225Y-106191352D01*
%TO.C,D15*%
X104863416Y-106539695D02*
X104863416Y-105726895D01*
X104669892Y-105726895D01*
X104553778Y-105765600D01*
X104476368Y-105843009D01*
X104437663Y-105920419D01*
X104398959Y-106075238D01*
X104398959Y-106191352D01*
X104437663Y-106346171D01*
X104476368Y-106423580D01*
X104553778Y-106500990D01*
X104669892Y-106539695D01*
X104863416Y-106539695D01*
X103624863Y-106539695D02*
X104089320Y-106539695D01*
X103857092Y-106539695D02*
X103857092Y-105726895D01*
X103934501Y-105843009D01*
X104011911Y-105920419D01*
X104089320Y-105959123D01*
X102889473Y-105726895D02*
X103276520Y-105726895D01*
X103315225Y-106113942D01*
X103276520Y-106075238D01*
X103199111Y-106036533D01*
X103005587Y-106036533D01*
X102928178Y-106075238D01*
X102889473Y-106113942D01*
X102850768Y-106191352D01*
X102850768Y-106384876D01*
X102889473Y-106462285D01*
X102928178Y-106500990D01*
X103005587Y-106539695D01*
X103199111Y-106539695D01*
X103276520Y-106500990D01*
X103315225Y-106462285D01*
%TO.C,D14*%
X228815416Y-87235695D02*
X228815416Y-86422895D01*
X228621892Y-86422895D01*
X228505778Y-86461600D01*
X228428368Y-86539009D01*
X228389663Y-86616419D01*
X228350959Y-86771238D01*
X228350959Y-86887352D01*
X228389663Y-87042171D01*
X228428368Y-87119580D01*
X228505778Y-87196990D01*
X228621892Y-87235695D01*
X228815416Y-87235695D01*
X227576863Y-87235695D02*
X228041320Y-87235695D01*
X227809092Y-87235695D02*
X227809092Y-86422895D01*
X227886501Y-86539009D01*
X227963911Y-86616419D01*
X228041320Y-86655123D01*
X226880178Y-86693828D02*
X226880178Y-87235695D01*
X227073701Y-86384190D02*
X227267225Y-86964761D01*
X226764063Y-86964761D01*
%TO.C,D13*%
X200367416Y-87235695D02*
X200367416Y-86422895D01*
X200173892Y-86422895D01*
X200057778Y-86461600D01*
X199980368Y-86539009D01*
X199941663Y-86616419D01*
X199902959Y-86771238D01*
X199902959Y-86887352D01*
X199941663Y-87042171D01*
X199980368Y-87119580D01*
X200057778Y-87196990D01*
X200173892Y-87235695D01*
X200367416Y-87235695D01*
X199128863Y-87235695D02*
X199593320Y-87235695D01*
X199361092Y-87235695D02*
X199361092Y-86422895D01*
X199438501Y-86539009D01*
X199515911Y-86616419D01*
X199593320Y-86655123D01*
X198857930Y-86422895D02*
X198354768Y-86422895D01*
X198625701Y-86732533D01*
X198509587Y-86732533D01*
X198432178Y-86771238D01*
X198393473Y-86809942D01*
X198354768Y-86887352D01*
X198354768Y-87080876D01*
X198393473Y-87158285D01*
X198432178Y-87196990D01*
X198509587Y-87235695D01*
X198741816Y-87235695D01*
X198819225Y-87196990D01*
X198857930Y-87158285D01*
%TO.C,D12*%
X181063416Y-87235695D02*
X181063416Y-86422895D01*
X180869892Y-86422895D01*
X180753778Y-86461600D01*
X180676368Y-86539009D01*
X180637663Y-86616419D01*
X180598959Y-86771238D01*
X180598959Y-86887352D01*
X180637663Y-87042171D01*
X180676368Y-87119580D01*
X180753778Y-87196990D01*
X180869892Y-87235695D01*
X181063416Y-87235695D01*
X179824863Y-87235695D02*
X180289320Y-87235695D01*
X180057092Y-87235695D02*
X180057092Y-86422895D01*
X180134501Y-86539009D01*
X180211911Y-86616419D01*
X180289320Y-86655123D01*
X179515225Y-86500304D02*
X179476520Y-86461600D01*
X179399111Y-86422895D01*
X179205587Y-86422895D01*
X179128178Y-86461600D01*
X179089473Y-86500304D01*
X179050768Y-86577714D01*
X179050768Y-86655123D01*
X179089473Y-86771238D01*
X179553930Y-87235695D01*
X179050768Y-87235695D01*
%TO.C,D11*%
X161759416Y-87235695D02*
X161759416Y-86422895D01*
X161565892Y-86422895D01*
X161449778Y-86461600D01*
X161372368Y-86539009D01*
X161333663Y-86616419D01*
X161294959Y-86771238D01*
X161294959Y-86887352D01*
X161333663Y-87042171D01*
X161372368Y-87119580D01*
X161449778Y-87196990D01*
X161565892Y-87235695D01*
X161759416Y-87235695D01*
X160520863Y-87235695D02*
X160985320Y-87235695D01*
X160753092Y-87235695D02*
X160753092Y-86422895D01*
X160830501Y-86539009D01*
X160907911Y-86616419D01*
X160985320Y-86655123D01*
X159746768Y-87235695D02*
X160211225Y-87235695D01*
X159978997Y-87235695D02*
X159978997Y-86422895D01*
X160056406Y-86539009D01*
X160133816Y-86616419D01*
X160211225Y-86655123D01*
%TO.C,D10*%
X142963416Y-87235695D02*
X142963416Y-86422895D01*
X142769892Y-86422895D01*
X142653778Y-86461600D01*
X142576368Y-86539009D01*
X142537663Y-86616419D01*
X142498959Y-86771238D01*
X142498959Y-86887352D01*
X142537663Y-87042171D01*
X142576368Y-87119580D01*
X142653778Y-87196990D01*
X142769892Y-87235695D01*
X142963416Y-87235695D01*
X141724863Y-87235695D02*
X142189320Y-87235695D01*
X141957092Y-87235695D02*
X141957092Y-86422895D01*
X142034501Y-86539009D01*
X142111911Y-86616419D01*
X142189320Y-86655123D01*
X141221701Y-86422895D02*
X141144292Y-86422895D01*
X141066882Y-86461600D01*
X141028178Y-86500304D01*
X140989473Y-86577714D01*
X140950768Y-86732533D01*
X140950768Y-86926057D01*
X140989473Y-87080876D01*
X141028178Y-87158285D01*
X141066882Y-87196990D01*
X141144292Y-87235695D01*
X141221701Y-87235695D01*
X141299111Y-87196990D01*
X141337816Y-87158285D01*
X141376520Y-87080876D01*
X141415225Y-86926057D01*
X141415225Y-86732533D01*
X141376520Y-86577714D01*
X141337816Y-86500304D01*
X141299111Y-86461600D01*
X141221701Y-86422895D01*
%TO.C,D9*%
X123659416Y-87235695D02*
X123659416Y-86422895D01*
X123465892Y-86422895D01*
X123349778Y-86461600D01*
X123272368Y-86539009D01*
X123233663Y-86616419D01*
X123194959Y-86771238D01*
X123194959Y-86887352D01*
X123233663Y-87042171D01*
X123272368Y-87119580D01*
X123349778Y-87196990D01*
X123465892Y-87235695D01*
X123659416Y-87235695D01*
X122807911Y-87235695D02*
X122653092Y-87235695D01*
X122575682Y-87196990D01*
X122536978Y-87158285D01*
X122459568Y-87042171D01*
X122420863Y-86887352D01*
X122420863Y-86577714D01*
X122459568Y-86500304D01*
X122498273Y-86461600D01*
X122575682Y-86422895D01*
X122730501Y-86422895D01*
X122807911Y-86461600D01*
X122846616Y-86500304D01*
X122885320Y-86577714D01*
X122885320Y-86771238D01*
X122846616Y-86848647D01*
X122807911Y-86887352D01*
X122730501Y-86926057D01*
X122575682Y-86926057D01*
X122498273Y-86887352D01*
X122459568Y-86848647D01*
X122420863Y-86771238D01*
%TO.C,D8*%
X104863416Y-87235695D02*
X104863416Y-86422895D01*
X104669892Y-86422895D01*
X104553778Y-86461600D01*
X104476368Y-86539009D01*
X104437663Y-86616419D01*
X104398959Y-86771238D01*
X104398959Y-86887352D01*
X104437663Y-87042171D01*
X104476368Y-87119580D01*
X104553778Y-87196990D01*
X104669892Y-87235695D01*
X104863416Y-87235695D01*
X103934501Y-86771238D02*
X104011911Y-86732533D01*
X104050616Y-86693828D01*
X104089320Y-86616419D01*
X104089320Y-86577714D01*
X104050616Y-86500304D01*
X104011911Y-86461600D01*
X103934501Y-86422895D01*
X103779682Y-86422895D01*
X103702273Y-86461600D01*
X103663568Y-86500304D01*
X103624863Y-86577714D01*
X103624863Y-86616419D01*
X103663568Y-86693828D01*
X103702273Y-86732533D01*
X103779682Y-86771238D01*
X103934501Y-86771238D01*
X104011911Y-86809942D01*
X104050616Y-86848647D01*
X104089320Y-86926057D01*
X104089320Y-87080876D01*
X104050616Y-87158285D01*
X104011911Y-87196990D01*
X103934501Y-87235695D01*
X103779682Y-87235695D01*
X103702273Y-87196990D01*
X103663568Y-87158285D01*
X103624863Y-87080876D01*
X103624863Y-86926057D01*
X103663568Y-86848647D01*
X103702273Y-86809942D01*
X103779682Y-86771238D01*
%TO.C,D7*%
X228815416Y-68439695D02*
X228815416Y-67626895D01*
X228621892Y-67626895D01*
X228505778Y-67665600D01*
X228428368Y-67743009D01*
X228389663Y-67820419D01*
X228350959Y-67975238D01*
X228350959Y-68091352D01*
X228389663Y-68246171D01*
X228428368Y-68323580D01*
X228505778Y-68400990D01*
X228621892Y-68439695D01*
X228815416Y-68439695D01*
X228080025Y-67626895D02*
X227538159Y-67626895D01*
X227886501Y-68439695D01*
%TO.C,D6*%
X199859416Y-68439695D02*
X199859416Y-67626895D01*
X199665892Y-67626895D01*
X199549778Y-67665600D01*
X199472368Y-67743009D01*
X199433663Y-67820419D01*
X199394959Y-67975238D01*
X199394959Y-68091352D01*
X199433663Y-68246171D01*
X199472368Y-68323580D01*
X199549778Y-68400990D01*
X199665892Y-68439695D01*
X199859416Y-68439695D01*
X198698273Y-67626895D02*
X198853092Y-67626895D01*
X198930501Y-67665600D01*
X198969206Y-67704304D01*
X199046616Y-67820419D01*
X199085320Y-67975238D01*
X199085320Y-68284876D01*
X199046616Y-68362285D01*
X199007911Y-68400990D01*
X198930501Y-68439695D01*
X198775682Y-68439695D01*
X198698273Y-68400990D01*
X198659568Y-68362285D01*
X198620863Y-68284876D01*
X198620863Y-68091352D01*
X198659568Y-68013942D01*
X198698273Y-67975238D01*
X198775682Y-67936533D01*
X198930501Y-67936533D01*
X199007911Y-67975238D01*
X199046616Y-68013942D01*
X199085320Y-68091352D01*
%TO.C,D5*%
X181063416Y-68439695D02*
X181063416Y-67626895D01*
X180869892Y-67626895D01*
X180753778Y-67665600D01*
X180676368Y-67743009D01*
X180637663Y-67820419D01*
X180598959Y-67975238D01*
X180598959Y-68091352D01*
X180637663Y-68246171D01*
X180676368Y-68323580D01*
X180753778Y-68400990D01*
X180869892Y-68439695D01*
X181063416Y-68439695D01*
X179863568Y-67626895D02*
X180250616Y-67626895D01*
X180289320Y-68013942D01*
X180250616Y-67975238D01*
X180173206Y-67936533D01*
X179979682Y-67936533D01*
X179902273Y-67975238D01*
X179863568Y-68013942D01*
X179824863Y-68091352D01*
X179824863Y-68284876D01*
X179863568Y-68362285D01*
X179902273Y-68400990D01*
X179979682Y-68439695D01*
X180173206Y-68439695D01*
X180250616Y-68400990D01*
X180289320Y-68362285D01*
%TO.C,D4*%
X161759416Y-68439695D02*
X161759416Y-67626895D01*
X161565892Y-67626895D01*
X161449778Y-67665600D01*
X161372368Y-67743009D01*
X161333663Y-67820419D01*
X161294959Y-67975238D01*
X161294959Y-68091352D01*
X161333663Y-68246171D01*
X161372368Y-68323580D01*
X161449778Y-68400990D01*
X161565892Y-68439695D01*
X161759416Y-68439695D01*
X160598273Y-67897828D02*
X160598273Y-68439695D01*
X160791797Y-67588190D02*
X160985320Y-68168761D01*
X160482159Y-68168761D01*
%TO.C,D3*%
X142963416Y-68439695D02*
X142963416Y-67626895D01*
X142769892Y-67626895D01*
X142653778Y-67665600D01*
X142576368Y-67743009D01*
X142537663Y-67820419D01*
X142498959Y-67975238D01*
X142498959Y-68091352D01*
X142537663Y-68246171D01*
X142576368Y-68323580D01*
X142653778Y-68400990D01*
X142769892Y-68439695D01*
X142963416Y-68439695D01*
X142228025Y-67626895D02*
X141724863Y-67626895D01*
X141995797Y-67936533D01*
X141879682Y-67936533D01*
X141802273Y-67975238D01*
X141763568Y-68013942D01*
X141724863Y-68091352D01*
X141724863Y-68284876D01*
X141763568Y-68362285D01*
X141802273Y-68400990D01*
X141879682Y-68439695D01*
X142111911Y-68439695D01*
X142189320Y-68400990D01*
X142228025Y-68362285D01*
%TO.C,D2*%
X124167416Y-68439695D02*
X124167416Y-67626895D01*
X123973892Y-67626895D01*
X123857778Y-67665600D01*
X123780368Y-67743009D01*
X123741663Y-67820419D01*
X123702959Y-67975238D01*
X123702959Y-68091352D01*
X123741663Y-68246171D01*
X123780368Y-68323580D01*
X123857778Y-68400990D01*
X123973892Y-68439695D01*
X124167416Y-68439695D01*
X123393320Y-67704304D02*
X123354616Y-67665600D01*
X123277206Y-67626895D01*
X123083682Y-67626895D01*
X123006273Y-67665600D01*
X122967568Y-67704304D01*
X122928863Y-67781714D01*
X122928863Y-67859123D01*
X122967568Y-67975238D01*
X123432025Y-68439695D01*
X122928863Y-68439695D01*
%TO.C,D1*%
X104863416Y-68439695D02*
X104863416Y-67626895D01*
X104669892Y-67626895D01*
X104553778Y-67665600D01*
X104476368Y-67743009D01*
X104437663Y-67820419D01*
X104398959Y-67975238D01*
X104398959Y-68091352D01*
X104437663Y-68246171D01*
X104476368Y-68323580D01*
X104553778Y-68400990D01*
X104669892Y-68439695D01*
X104863416Y-68439695D01*
X103624863Y-68439695D02*
X104089320Y-68439695D01*
X103857092Y-68439695D02*
X103857092Y-67626895D01*
X103934501Y-67743009D01*
X104011911Y-67820419D01*
X104089320Y-67859123D01*
%TO.C,LED31*%
D10*
X213264583Y-112725154D02*
X213264583Y-111925154D01*
X213264583Y-112306107D02*
X212807440Y-112306107D01*
X212807440Y-112725154D02*
X212807440Y-111925154D01*
X212274107Y-111925154D02*
X212121726Y-111925154D01*
X212045535Y-111963250D01*
X211969345Y-112039440D01*
X211931250Y-112191821D01*
X211931250Y-112458488D01*
X211969345Y-112610869D01*
X212045535Y-112687059D01*
X212121726Y-112725154D01*
X212274107Y-112725154D01*
X212350297Y-112687059D01*
X212426488Y-112610869D01*
X212464583Y-112458488D01*
X212464583Y-112191821D01*
X212426488Y-112039440D01*
X212350297Y-111963250D01*
X212274107Y-111925154D01*
X211207440Y-112725154D02*
X211588392Y-112725154D01*
X211588392Y-111925154D01*
X210940773Y-112306107D02*
X210674107Y-112306107D01*
X210559821Y-112725154D02*
X210940773Y-112725154D01*
X210940773Y-111925154D01*
X210559821Y-111925154D01*
D13*
X207866945Y-110304640D02*
X207866945Y-109917592D01*
X207054145Y-109917592D01*
X207441192Y-110575573D02*
X207441192Y-110846507D01*
X207866945Y-110962621D02*
X207866945Y-110575573D01*
X207054145Y-110575573D01*
X207054145Y-110962621D01*
X207866945Y-111310964D02*
X207054145Y-111310964D01*
X207054145Y-111504488D01*
X207092850Y-111620602D01*
X207170259Y-111698011D01*
X207247669Y-111736716D01*
X207402488Y-111775421D01*
X207518602Y-111775421D01*
X207673421Y-111736716D01*
X207750830Y-111698011D01*
X207828240Y-111620602D01*
X207866945Y-111504488D01*
X207866945Y-111310964D01*
X207054145Y-112046354D02*
X207054145Y-112549516D01*
X207363783Y-112278583D01*
X207363783Y-112394697D01*
X207402488Y-112472107D01*
X207441192Y-112510811D01*
X207518602Y-112549516D01*
X207712126Y-112549516D01*
X207789535Y-112510811D01*
X207828240Y-112472107D01*
X207866945Y-112394697D01*
X207866945Y-112162469D01*
X207828240Y-112085059D01*
X207789535Y-112046354D01*
X207866945Y-113323611D02*
X207866945Y-112859154D01*
X207866945Y-113091383D02*
X207054145Y-113091383D01*
X207170259Y-113013973D01*
X207247669Y-112936564D01*
X207286373Y-112859154D01*
%TO.C,LED30*%
D10*
X184689583Y-112725154D02*
X184689583Y-111925154D01*
X184689583Y-112306107D02*
X184232440Y-112306107D01*
X184232440Y-112725154D02*
X184232440Y-111925154D01*
X183699107Y-111925154D02*
X183546726Y-111925154D01*
X183470535Y-111963250D01*
X183394345Y-112039440D01*
X183356250Y-112191821D01*
X183356250Y-112458488D01*
X183394345Y-112610869D01*
X183470535Y-112687059D01*
X183546726Y-112725154D01*
X183699107Y-112725154D01*
X183775297Y-112687059D01*
X183851488Y-112610869D01*
X183889583Y-112458488D01*
X183889583Y-112191821D01*
X183851488Y-112039440D01*
X183775297Y-111963250D01*
X183699107Y-111925154D01*
X182632440Y-112725154D02*
X183013392Y-112725154D01*
X183013392Y-111925154D01*
X182365773Y-112306107D02*
X182099107Y-112306107D01*
X181984821Y-112725154D02*
X182365773Y-112725154D01*
X182365773Y-111925154D01*
X181984821Y-111925154D01*
D13*
X179291945Y-110304640D02*
X179291945Y-109917592D01*
X178479145Y-109917592D01*
X178866192Y-110575573D02*
X178866192Y-110846507D01*
X179291945Y-110962621D02*
X179291945Y-110575573D01*
X178479145Y-110575573D01*
X178479145Y-110962621D01*
X179291945Y-111310964D02*
X178479145Y-111310964D01*
X178479145Y-111504488D01*
X178517850Y-111620602D01*
X178595259Y-111698011D01*
X178672669Y-111736716D01*
X178827488Y-111775421D01*
X178943602Y-111775421D01*
X179098421Y-111736716D01*
X179175830Y-111698011D01*
X179253240Y-111620602D01*
X179291945Y-111504488D01*
X179291945Y-111310964D01*
X178479145Y-112046354D02*
X178479145Y-112549516D01*
X178788783Y-112278583D01*
X178788783Y-112394697D01*
X178827488Y-112472107D01*
X178866192Y-112510811D01*
X178943602Y-112549516D01*
X179137126Y-112549516D01*
X179214535Y-112510811D01*
X179253240Y-112472107D01*
X179291945Y-112394697D01*
X179291945Y-112162469D01*
X179253240Y-112085059D01*
X179214535Y-112046354D01*
X178479145Y-113052678D02*
X178479145Y-113130088D01*
X178517850Y-113207497D01*
X178556554Y-113246202D01*
X178633964Y-113284907D01*
X178788783Y-113323611D01*
X178982307Y-113323611D01*
X179137126Y-113284907D01*
X179214535Y-113246202D01*
X179253240Y-113207497D01*
X179291945Y-113130088D01*
X179291945Y-113052678D01*
X179253240Y-112975269D01*
X179214535Y-112936564D01*
X179137126Y-112897859D01*
X178982307Y-112859154D01*
X178788783Y-112859154D01*
X178633964Y-112897859D01*
X178556554Y-112936564D01*
X178517850Y-112975269D01*
X178479145Y-113052678D01*
%TO.C,LED29*%
D10*
X165639583Y-112725154D02*
X165639583Y-111925154D01*
X165639583Y-112306107D02*
X165182440Y-112306107D01*
X165182440Y-112725154D02*
X165182440Y-111925154D01*
X164649107Y-111925154D02*
X164496726Y-111925154D01*
X164420535Y-111963250D01*
X164344345Y-112039440D01*
X164306250Y-112191821D01*
X164306250Y-112458488D01*
X164344345Y-112610869D01*
X164420535Y-112687059D01*
X164496726Y-112725154D01*
X164649107Y-112725154D01*
X164725297Y-112687059D01*
X164801488Y-112610869D01*
X164839583Y-112458488D01*
X164839583Y-112191821D01*
X164801488Y-112039440D01*
X164725297Y-111963250D01*
X164649107Y-111925154D01*
X163582440Y-112725154D02*
X163963392Y-112725154D01*
X163963392Y-111925154D01*
X163315773Y-112306107D02*
X163049107Y-112306107D01*
X162934821Y-112725154D02*
X163315773Y-112725154D01*
X163315773Y-111925154D01*
X162934821Y-111925154D01*
D13*
X160241945Y-110304640D02*
X160241945Y-109917592D01*
X159429145Y-109917592D01*
X159816192Y-110575573D02*
X159816192Y-110846507D01*
X160241945Y-110962621D02*
X160241945Y-110575573D01*
X159429145Y-110575573D01*
X159429145Y-110962621D01*
X160241945Y-111310964D02*
X159429145Y-111310964D01*
X159429145Y-111504488D01*
X159467850Y-111620602D01*
X159545259Y-111698011D01*
X159622669Y-111736716D01*
X159777488Y-111775421D01*
X159893602Y-111775421D01*
X160048421Y-111736716D01*
X160125830Y-111698011D01*
X160203240Y-111620602D01*
X160241945Y-111504488D01*
X160241945Y-111310964D01*
X159506554Y-112085059D02*
X159467850Y-112123764D01*
X159429145Y-112201173D01*
X159429145Y-112394697D01*
X159467850Y-112472107D01*
X159506554Y-112510811D01*
X159583964Y-112549516D01*
X159661373Y-112549516D01*
X159777488Y-112510811D01*
X160241945Y-112046354D01*
X160241945Y-112549516D01*
X160241945Y-112936564D02*
X160241945Y-113091383D01*
X160203240Y-113168792D01*
X160164535Y-113207497D01*
X160048421Y-113284907D01*
X159893602Y-113323611D01*
X159583964Y-113323611D01*
X159506554Y-113284907D01*
X159467850Y-113246202D01*
X159429145Y-113168792D01*
X159429145Y-113013973D01*
X159467850Y-112936564D01*
X159506554Y-112897859D01*
X159583964Y-112859154D01*
X159777488Y-112859154D01*
X159854897Y-112897859D01*
X159893602Y-112936564D01*
X159932307Y-113013973D01*
X159932307Y-113168792D01*
X159893602Y-113246202D01*
X159854897Y-113284907D01*
X159777488Y-113323611D01*
%TO.C,LED28*%
D10*
X146589583Y-112725154D02*
X146589583Y-111925154D01*
X146589583Y-112306107D02*
X146132440Y-112306107D01*
X146132440Y-112725154D02*
X146132440Y-111925154D01*
X145599107Y-111925154D02*
X145446726Y-111925154D01*
X145370535Y-111963250D01*
X145294345Y-112039440D01*
X145256250Y-112191821D01*
X145256250Y-112458488D01*
X145294345Y-112610869D01*
X145370535Y-112687059D01*
X145446726Y-112725154D01*
X145599107Y-112725154D01*
X145675297Y-112687059D01*
X145751488Y-112610869D01*
X145789583Y-112458488D01*
X145789583Y-112191821D01*
X145751488Y-112039440D01*
X145675297Y-111963250D01*
X145599107Y-111925154D01*
X144532440Y-112725154D02*
X144913392Y-112725154D01*
X144913392Y-111925154D01*
X144265773Y-112306107D02*
X143999107Y-112306107D01*
X143884821Y-112725154D02*
X144265773Y-112725154D01*
X144265773Y-111925154D01*
X143884821Y-111925154D01*
D13*
X141191945Y-110304640D02*
X141191945Y-109917592D01*
X140379145Y-109917592D01*
X140766192Y-110575573D02*
X140766192Y-110846507D01*
X141191945Y-110962621D02*
X141191945Y-110575573D01*
X140379145Y-110575573D01*
X140379145Y-110962621D01*
X141191945Y-111310964D02*
X140379145Y-111310964D01*
X140379145Y-111504488D01*
X140417850Y-111620602D01*
X140495259Y-111698011D01*
X140572669Y-111736716D01*
X140727488Y-111775421D01*
X140843602Y-111775421D01*
X140998421Y-111736716D01*
X141075830Y-111698011D01*
X141153240Y-111620602D01*
X141191945Y-111504488D01*
X141191945Y-111310964D01*
X140456554Y-112085059D02*
X140417850Y-112123764D01*
X140379145Y-112201173D01*
X140379145Y-112394697D01*
X140417850Y-112472107D01*
X140456554Y-112510811D01*
X140533964Y-112549516D01*
X140611373Y-112549516D01*
X140727488Y-112510811D01*
X141191945Y-112046354D01*
X141191945Y-112549516D01*
X140727488Y-113013973D02*
X140688783Y-112936564D01*
X140650078Y-112897859D01*
X140572669Y-112859154D01*
X140533964Y-112859154D01*
X140456554Y-112897859D01*
X140417850Y-112936564D01*
X140379145Y-113013973D01*
X140379145Y-113168792D01*
X140417850Y-113246202D01*
X140456554Y-113284907D01*
X140533964Y-113323611D01*
X140572669Y-113323611D01*
X140650078Y-113284907D01*
X140688783Y-113246202D01*
X140727488Y-113168792D01*
X140727488Y-113013973D01*
X140766192Y-112936564D01*
X140804897Y-112897859D01*
X140882307Y-112859154D01*
X141037126Y-112859154D01*
X141114535Y-112897859D01*
X141153240Y-112936564D01*
X141191945Y-113013973D01*
X141191945Y-113168792D01*
X141153240Y-113246202D01*
X141114535Y-113284907D01*
X141037126Y-113323611D01*
X140882307Y-113323611D01*
X140804897Y-113284907D01*
X140766192Y-113246202D01*
X140727488Y-113168792D01*
%TO.C,LED27*%
D10*
X127539583Y-112725154D02*
X127539583Y-111925154D01*
X127539583Y-112306107D02*
X127082440Y-112306107D01*
X127082440Y-112725154D02*
X127082440Y-111925154D01*
X126549107Y-111925154D02*
X126396726Y-111925154D01*
X126320535Y-111963250D01*
X126244345Y-112039440D01*
X126206250Y-112191821D01*
X126206250Y-112458488D01*
X126244345Y-112610869D01*
X126320535Y-112687059D01*
X126396726Y-112725154D01*
X126549107Y-112725154D01*
X126625297Y-112687059D01*
X126701488Y-112610869D01*
X126739583Y-112458488D01*
X126739583Y-112191821D01*
X126701488Y-112039440D01*
X126625297Y-111963250D01*
X126549107Y-111925154D01*
X125482440Y-112725154D02*
X125863392Y-112725154D01*
X125863392Y-111925154D01*
X125215773Y-112306107D02*
X124949107Y-112306107D01*
X124834821Y-112725154D02*
X125215773Y-112725154D01*
X125215773Y-111925154D01*
X124834821Y-111925154D01*
D13*
X122141945Y-110304640D02*
X122141945Y-109917592D01*
X121329145Y-109917592D01*
X121716192Y-110575573D02*
X121716192Y-110846507D01*
X122141945Y-110962621D02*
X122141945Y-110575573D01*
X121329145Y-110575573D01*
X121329145Y-110962621D01*
X122141945Y-111310964D02*
X121329145Y-111310964D01*
X121329145Y-111504488D01*
X121367850Y-111620602D01*
X121445259Y-111698011D01*
X121522669Y-111736716D01*
X121677488Y-111775421D01*
X121793602Y-111775421D01*
X121948421Y-111736716D01*
X122025830Y-111698011D01*
X122103240Y-111620602D01*
X122141945Y-111504488D01*
X122141945Y-111310964D01*
X121406554Y-112085059D02*
X121367850Y-112123764D01*
X121329145Y-112201173D01*
X121329145Y-112394697D01*
X121367850Y-112472107D01*
X121406554Y-112510811D01*
X121483964Y-112549516D01*
X121561373Y-112549516D01*
X121677488Y-112510811D01*
X122141945Y-112046354D01*
X122141945Y-112549516D01*
X121329145Y-112820450D02*
X121329145Y-113362316D01*
X122141945Y-113013973D01*
%TO.C,LED26*%
D10*
X108489583Y-112725154D02*
X108489583Y-111925154D01*
X108489583Y-112306107D02*
X108032440Y-112306107D01*
X108032440Y-112725154D02*
X108032440Y-111925154D01*
X107499107Y-111925154D02*
X107346726Y-111925154D01*
X107270535Y-111963250D01*
X107194345Y-112039440D01*
X107156250Y-112191821D01*
X107156250Y-112458488D01*
X107194345Y-112610869D01*
X107270535Y-112687059D01*
X107346726Y-112725154D01*
X107499107Y-112725154D01*
X107575297Y-112687059D01*
X107651488Y-112610869D01*
X107689583Y-112458488D01*
X107689583Y-112191821D01*
X107651488Y-112039440D01*
X107575297Y-111963250D01*
X107499107Y-111925154D01*
X106432440Y-112725154D02*
X106813392Y-112725154D01*
X106813392Y-111925154D01*
X106165773Y-112306107D02*
X105899107Y-112306107D01*
X105784821Y-112725154D02*
X106165773Y-112725154D01*
X106165773Y-111925154D01*
X105784821Y-111925154D01*
D13*
X103091945Y-110304640D02*
X103091945Y-109917592D01*
X102279145Y-109917592D01*
X102666192Y-110575573D02*
X102666192Y-110846507D01*
X103091945Y-110962621D02*
X103091945Y-110575573D01*
X102279145Y-110575573D01*
X102279145Y-110962621D01*
X103091945Y-111310964D02*
X102279145Y-111310964D01*
X102279145Y-111504488D01*
X102317850Y-111620602D01*
X102395259Y-111698011D01*
X102472669Y-111736716D01*
X102627488Y-111775421D01*
X102743602Y-111775421D01*
X102898421Y-111736716D01*
X102975830Y-111698011D01*
X103053240Y-111620602D01*
X103091945Y-111504488D01*
X103091945Y-111310964D01*
X102356554Y-112085059D02*
X102317850Y-112123764D01*
X102279145Y-112201173D01*
X102279145Y-112394697D01*
X102317850Y-112472107D01*
X102356554Y-112510811D01*
X102433964Y-112549516D01*
X102511373Y-112549516D01*
X102627488Y-112510811D01*
X103091945Y-112046354D01*
X103091945Y-112549516D01*
X102279145Y-113246202D02*
X102279145Y-113091383D01*
X102317850Y-113013973D01*
X102356554Y-112975269D01*
X102472669Y-112897859D01*
X102627488Y-112859154D01*
X102937126Y-112859154D01*
X103014535Y-112897859D01*
X103053240Y-112936564D01*
X103091945Y-113013973D01*
X103091945Y-113168792D01*
X103053240Y-113246202D01*
X103014535Y-113284907D01*
X102937126Y-113323611D01*
X102743602Y-113323611D01*
X102666192Y-113284907D01*
X102627488Y-113246202D01*
X102588783Y-113168792D01*
X102588783Y-113013973D01*
X102627488Y-112936564D01*
X102666192Y-112897859D01*
X102743602Y-112859154D01*
%TO.C,LED24*%
D10*
X203739583Y-92151154D02*
X203739583Y-91351154D01*
X203739583Y-91732107D02*
X203282440Y-91732107D01*
X203282440Y-92151154D02*
X203282440Y-91351154D01*
X202749107Y-91351154D02*
X202596726Y-91351154D01*
X202520535Y-91389250D01*
X202444345Y-91465440D01*
X202406250Y-91617821D01*
X202406250Y-91884488D01*
X202444345Y-92036869D01*
X202520535Y-92113059D01*
X202596726Y-92151154D01*
X202749107Y-92151154D01*
X202825297Y-92113059D01*
X202901488Y-92036869D01*
X202939583Y-91884488D01*
X202939583Y-91617821D01*
X202901488Y-91465440D01*
X202825297Y-91389250D01*
X202749107Y-91351154D01*
X201682440Y-92151154D02*
X202063392Y-92151154D01*
X202063392Y-91351154D01*
X201415773Y-91732107D02*
X201149107Y-91732107D01*
X201034821Y-92151154D02*
X201415773Y-92151154D01*
X201415773Y-91351154D01*
X201034821Y-91351154D01*
D13*
X207205945Y-91254640D02*
X207205945Y-90867592D01*
X206393145Y-90867592D01*
X206780192Y-91525573D02*
X206780192Y-91796507D01*
X207205945Y-91912621D02*
X207205945Y-91525573D01*
X206393145Y-91525573D01*
X206393145Y-91912621D01*
X207205945Y-92260964D02*
X206393145Y-92260964D01*
X206393145Y-92454488D01*
X206431850Y-92570602D01*
X206509259Y-92648011D01*
X206586669Y-92686716D01*
X206741488Y-92725421D01*
X206857602Y-92725421D01*
X207012421Y-92686716D01*
X207089830Y-92648011D01*
X207167240Y-92570602D01*
X207205945Y-92454488D01*
X207205945Y-92260964D01*
X206470554Y-93035059D02*
X206431850Y-93073764D01*
X206393145Y-93151173D01*
X206393145Y-93344697D01*
X206431850Y-93422107D01*
X206470554Y-93460811D01*
X206547964Y-93499516D01*
X206625373Y-93499516D01*
X206741488Y-93460811D01*
X207205945Y-92996354D01*
X207205945Y-93499516D01*
X206664078Y-94196202D02*
X207205945Y-94196202D01*
X206354440Y-94002678D02*
X206935011Y-93809154D01*
X206935011Y-94312316D01*
%TO.C,LED23*%
D10*
X184689583Y-92151154D02*
X184689583Y-91351154D01*
X184689583Y-91732107D02*
X184232440Y-91732107D01*
X184232440Y-92151154D02*
X184232440Y-91351154D01*
X183699107Y-91351154D02*
X183546726Y-91351154D01*
X183470535Y-91389250D01*
X183394345Y-91465440D01*
X183356250Y-91617821D01*
X183356250Y-91884488D01*
X183394345Y-92036869D01*
X183470535Y-92113059D01*
X183546726Y-92151154D01*
X183699107Y-92151154D01*
X183775297Y-92113059D01*
X183851488Y-92036869D01*
X183889583Y-91884488D01*
X183889583Y-91617821D01*
X183851488Y-91465440D01*
X183775297Y-91389250D01*
X183699107Y-91351154D01*
X182632440Y-92151154D02*
X183013392Y-92151154D01*
X183013392Y-91351154D01*
X182365773Y-91732107D02*
X182099107Y-91732107D01*
X181984821Y-92151154D02*
X182365773Y-92151154D01*
X182365773Y-91351154D01*
X181984821Y-91351154D01*
D13*
X188155945Y-91254640D02*
X188155945Y-90867592D01*
X187343145Y-90867592D01*
X187730192Y-91525573D02*
X187730192Y-91796507D01*
X188155945Y-91912621D02*
X188155945Y-91525573D01*
X187343145Y-91525573D01*
X187343145Y-91912621D01*
X188155945Y-92260964D02*
X187343145Y-92260964D01*
X187343145Y-92454488D01*
X187381850Y-92570602D01*
X187459259Y-92648011D01*
X187536669Y-92686716D01*
X187691488Y-92725421D01*
X187807602Y-92725421D01*
X187962421Y-92686716D01*
X188039830Y-92648011D01*
X188117240Y-92570602D01*
X188155945Y-92454488D01*
X188155945Y-92260964D01*
X187420554Y-93035059D02*
X187381850Y-93073764D01*
X187343145Y-93151173D01*
X187343145Y-93344697D01*
X187381850Y-93422107D01*
X187420554Y-93460811D01*
X187497964Y-93499516D01*
X187575373Y-93499516D01*
X187691488Y-93460811D01*
X188155945Y-92996354D01*
X188155945Y-93499516D01*
X187343145Y-93770450D02*
X187343145Y-94273611D01*
X187652783Y-94002678D01*
X187652783Y-94118792D01*
X187691488Y-94196202D01*
X187730192Y-94234907D01*
X187807602Y-94273611D01*
X188001126Y-94273611D01*
X188078535Y-94234907D01*
X188117240Y-94196202D01*
X188155945Y-94118792D01*
X188155945Y-93886564D01*
X188117240Y-93809154D01*
X188078535Y-93770450D01*
%TO.C,LED22*%
D10*
X165639583Y-92151154D02*
X165639583Y-91351154D01*
X165639583Y-91732107D02*
X165182440Y-91732107D01*
X165182440Y-92151154D02*
X165182440Y-91351154D01*
X164649107Y-91351154D02*
X164496726Y-91351154D01*
X164420535Y-91389250D01*
X164344345Y-91465440D01*
X164306250Y-91617821D01*
X164306250Y-91884488D01*
X164344345Y-92036869D01*
X164420535Y-92113059D01*
X164496726Y-92151154D01*
X164649107Y-92151154D01*
X164725297Y-92113059D01*
X164801488Y-92036869D01*
X164839583Y-91884488D01*
X164839583Y-91617821D01*
X164801488Y-91465440D01*
X164725297Y-91389250D01*
X164649107Y-91351154D01*
X163582440Y-92151154D02*
X163963392Y-92151154D01*
X163963392Y-91351154D01*
X163315773Y-91732107D02*
X163049107Y-91732107D01*
X162934821Y-92151154D02*
X163315773Y-92151154D01*
X163315773Y-91351154D01*
X162934821Y-91351154D01*
D13*
X169105945Y-91254640D02*
X169105945Y-90867592D01*
X168293145Y-90867592D01*
X168680192Y-91525573D02*
X168680192Y-91796507D01*
X169105945Y-91912621D02*
X169105945Y-91525573D01*
X168293145Y-91525573D01*
X168293145Y-91912621D01*
X169105945Y-92260964D02*
X168293145Y-92260964D01*
X168293145Y-92454488D01*
X168331850Y-92570602D01*
X168409259Y-92648011D01*
X168486669Y-92686716D01*
X168641488Y-92725421D01*
X168757602Y-92725421D01*
X168912421Y-92686716D01*
X168989830Y-92648011D01*
X169067240Y-92570602D01*
X169105945Y-92454488D01*
X169105945Y-92260964D01*
X168370554Y-93035059D02*
X168331850Y-93073764D01*
X168293145Y-93151173D01*
X168293145Y-93344697D01*
X168331850Y-93422107D01*
X168370554Y-93460811D01*
X168447964Y-93499516D01*
X168525373Y-93499516D01*
X168641488Y-93460811D01*
X169105945Y-92996354D01*
X169105945Y-93499516D01*
X168370554Y-93809154D02*
X168331850Y-93847859D01*
X168293145Y-93925269D01*
X168293145Y-94118792D01*
X168331850Y-94196202D01*
X168370554Y-94234907D01*
X168447964Y-94273611D01*
X168525373Y-94273611D01*
X168641488Y-94234907D01*
X169105945Y-93770450D01*
X169105945Y-94273611D01*
%TO.C,LED21*%
D10*
X146589583Y-92151154D02*
X146589583Y-91351154D01*
X146589583Y-91732107D02*
X146132440Y-91732107D01*
X146132440Y-92151154D02*
X146132440Y-91351154D01*
X145599107Y-91351154D02*
X145446726Y-91351154D01*
X145370535Y-91389250D01*
X145294345Y-91465440D01*
X145256250Y-91617821D01*
X145256250Y-91884488D01*
X145294345Y-92036869D01*
X145370535Y-92113059D01*
X145446726Y-92151154D01*
X145599107Y-92151154D01*
X145675297Y-92113059D01*
X145751488Y-92036869D01*
X145789583Y-91884488D01*
X145789583Y-91617821D01*
X145751488Y-91465440D01*
X145675297Y-91389250D01*
X145599107Y-91351154D01*
X144532440Y-92151154D02*
X144913392Y-92151154D01*
X144913392Y-91351154D01*
X144265773Y-91732107D02*
X143999107Y-91732107D01*
X143884821Y-92151154D02*
X144265773Y-92151154D01*
X144265773Y-91351154D01*
X143884821Y-91351154D01*
D13*
X150055945Y-91254640D02*
X150055945Y-90867592D01*
X149243145Y-90867592D01*
X149630192Y-91525573D02*
X149630192Y-91796507D01*
X150055945Y-91912621D02*
X150055945Y-91525573D01*
X149243145Y-91525573D01*
X149243145Y-91912621D01*
X150055945Y-92260964D02*
X149243145Y-92260964D01*
X149243145Y-92454488D01*
X149281850Y-92570602D01*
X149359259Y-92648011D01*
X149436669Y-92686716D01*
X149591488Y-92725421D01*
X149707602Y-92725421D01*
X149862421Y-92686716D01*
X149939830Y-92648011D01*
X150017240Y-92570602D01*
X150055945Y-92454488D01*
X150055945Y-92260964D01*
X149320554Y-93035059D02*
X149281850Y-93073764D01*
X149243145Y-93151173D01*
X149243145Y-93344697D01*
X149281850Y-93422107D01*
X149320554Y-93460811D01*
X149397964Y-93499516D01*
X149475373Y-93499516D01*
X149591488Y-93460811D01*
X150055945Y-92996354D01*
X150055945Y-93499516D01*
X150055945Y-94273611D02*
X150055945Y-93809154D01*
X150055945Y-94041383D02*
X149243145Y-94041383D01*
X149359259Y-93963973D01*
X149436669Y-93886564D01*
X149475373Y-93809154D01*
%TO.C,LED20*%
D10*
X127539583Y-92151154D02*
X127539583Y-91351154D01*
X127539583Y-91732107D02*
X127082440Y-91732107D01*
X127082440Y-92151154D02*
X127082440Y-91351154D01*
X126549107Y-91351154D02*
X126396726Y-91351154D01*
X126320535Y-91389250D01*
X126244345Y-91465440D01*
X126206250Y-91617821D01*
X126206250Y-91884488D01*
X126244345Y-92036869D01*
X126320535Y-92113059D01*
X126396726Y-92151154D01*
X126549107Y-92151154D01*
X126625297Y-92113059D01*
X126701488Y-92036869D01*
X126739583Y-91884488D01*
X126739583Y-91617821D01*
X126701488Y-91465440D01*
X126625297Y-91389250D01*
X126549107Y-91351154D01*
X125482440Y-92151154D02*
X125863392Y-92151154D01*
X125863392Y-91351154D01*
X125215773Y-91732107D02*
X124949107Y-91732107D01*
X124834821Y-92151154D02*
X125215773Y-92151154D01*
X125215773Y-91351154D01*
X124834821Y-91351154D01*
D13*
X131005945Y-91254640D02*
X131005945Y-90867592D01*
X130193145Y-90867592D01*
X130580192Y-91525573D02*
X130580192Y-91796507D01*
X131005945Y-91912621D02*
X131005945Y-91525573D01*
X130193145Y-91525573D01*
X130193145Y-91912621D01*
X131005945Y-92260964D02*
X130193145Y-92260964D01*
X130193145Y-92454488D01*
X130231850Y-92570602D01*
X130309259Y-92648011D01*
X130386669Y-92686716D01*
X130541488Y-92725421D01*
X130657602Y-92725421D01*
X130812421Y-92686716D01*
X130889830Y-92648011D01*
X130967240Y-92570602D01*
X131005945Y-92454488D01*
X131005945Y-92260964D01*
X130270554Y-93035059D02*
X130231850Y-93073764D01*
X130193145Y-93151173D01*
X130193145Y-93344697D01*
X130231850Y-93422107D01*
X130270554Y-93460811D01*
X130347964Y-93499516D01*
X130425373Y-93499516D01*
X130541488Y-93460811D01*
X131005945Y-92996354D01*
X131005945Y-93499516D01*
X130193145Y-94002678D02*
X130193145Y-94080088D01*
X130231850Y-94157497D01*
X130270554Y-94196202D01*
X130347964Y-94234907D01*
X130502783Y-94273611D01*
X130696307Y-94273611D01*
X130851126Y-94234907D01*
X130928535Y-94196202D01*
X130967240Y-94157497D01*
X131005945Y-94080088D01*
X131005945Y-94002678D01*
X130967240Y-93925269D01*
X130928535Y-93886564D01*
X130851126Y-93847859D01*
X130696307Y-93809154D01*
X130502783Y-93809154D01*
X130347964Y-93847859D01*
X130270554Y-93886564D01*
X130231850Y-93925269D01*
X130193145Y-94002678D01*
%TO.C,LED19*%
D10*
X108489583Y-92151154D02*
X108489583Y-91351154D01*
X108489583Y-91732107D02*
X108032440Y-91732107D01*
X108032440Y-92151154D02*
X108032440Y-91351154D01*
X107499107Y-91351154D02*
X107346726Y-91351154D01*
X107270535Y-91389250D01*
X107194345Y-91465440D01*
X107156250Y-91617821D01*
X107156250Y-91884488D01*
X107194345Y-92036869D01*
X107270535Y-92113059D01*
X107346726Y-92151154D01*
X107499107Y-92151154D01*
X107575297Y-92113059D01*
X107651488Y-92036869D01*
X107689583Y-91884488D01*
X107689583Y-91617821D01*
X107651488Y-91465440D01*
X107575297Y-91389250D01*
X107499107Y-91351154D01*
X106432440Y-92151154D02*
X106813392Y-92151154D01*
X106813392Y-91351154D01*
X106165773Y-91732107D02*
X105899107Y-91732107D01*
X105784821Y-92151154D02*
X106165773Y-92151154D01*
X106165773Y-91351154D01*
X105784821Y-91351154D01*
D13*
X111955945Y-91254640D02*
X111955945Y-90867592D01*
X111143145Y-90867592D01*
X111530192Y-91525573D02*
X111530192Y-91796507D01*
X111955945Y-91912621D02*
X111955945Y-91525573D01*
X111143145Y-91525573D01*
X111143145Y-91912621D01*
X111955945Y-92260964D02*
X111143145Y-92260964D01*
X111143145Y-92454488D01*
X111181850Y-92570602D01*
X111259259Y-92648011D01*
X111336669Y-92686716D01*
X111491488Y-92725421D01*
X111607602Y-92725421D01*
X111762421Y-92686716D01*
X111839830Y-92648011D01*
X111917240Y-92570602D01*
X111955945Y-92454488D01*
X111955945Y-92260964D01*
X111955945Y-93499516D02*
X111955945Y-93035059D01*
X111955945Y-93267288D02*
X111143145Y-93267288D01*
X111259259Y-93189878D01*
X111336669Y-93112469D01*
X111375373Y-93035059D01*
X111955945Y-93886564D02*
X111955945Y-94041383D01*
X111917240Y-94118792D01*
X111878535Y-94157497D01*
X111762421Y-94234907D01*
X111607602Y-94273611D01*
X111297964Y-94273611D01*
X111220554Y-94234907D01*
X111181850Y-94196202D01*
X111143145Y-94118792D01*
X111143145Y-93963973D01*
X111181850Y-93886564D01*
X111220554Y-93847859D01*
X111297964Y-93809154D01*
X111491488Y-93809154D01*
X111568897Y-93847859D01*
X111607602Y-93886564D01*
X111646307Y-93963973D01*
X111646307Y-94118792D01*
X111607602Y-94196202D01*
X111568897Y-94234907D01*
X111491488Y-94273611D01*
%TO.C,LED18*%
D10*
X232314583Y-74625154D02*
X232314583Y-73825154D01*
X232314583Y-74206107D02*
X231857440Y-74206107D01*
X231857440Y-74625154D02*
X231857440Y-73825154D01*
X231324107Y-73825154D02*
X231171726Y-73825154D01*
X231095535Y-73863250D01*
X231019345Y-73939440D01*
X230981250Y-74091821D01*
X230981250Y-74358488D01*
X231019345Y-74510869D01*
X231095535Y-74587059D01*
X231171726Y-74625154D01*
X231324107Y-74625154D01*
X231400297Y-74587059D01*
X231476488Y-74510869D01*
X231514583Y-74358488D01*
X231514583Y-74091821D01*
X231476488Y-73939440D01*
X231400297Y-73863250D01*
X231324107Y-73825154D01*
X230257440Y-74625154D02*
X230638392Y-74625154D01*
X230638392Y-73825154D01*
X229990773Y-74206107D02*
X229724107Y-74206107D01*
X229609821Y-74625154D02*
X229990773Y-74625154D01*
X229990773Y-73825154D01*
X229609821Y-73825154D01*
D13*
X226916945Y-72204640D02*
X226916945Y-71817592D01*
X226104145Y-71817592D01*
X226491192Y-72475573D02*
X226491192Y-72746507D01*
X226916945Y-72862621D02*
X226916945Y-72475573D01*
X226104145Y-72475573D01*
X226104145Y-72862621D01*
X226916945Y-73210964D02*
X226104145Y-73210964D01*
X226104145Y-73404488D01*
X226142850Y-73520602D01*
X226220259Y-73598011D01*
X226297669Y-73636716D01*
X226452488Y-73675421D01*
X226568602Y-73675421D01*
X226723421Y-73636716D01*
X226800830Y-73598011D01*
X226878240Y-73520602D01*
X226916945Y-73404488D01*
X226916945Y-73210964D01*
X226916945Y-74449516D02*
X226916945Y-73985059D01*
X226916945Y-74217288D02*
X226104145Y-74217288D01*
X226220259Y-74139878D01*
X226297669Y-74062469D01*
X226336373Y-73985059D01*
X226452488Y-74913973D02*
X226413783Y-74836564D01*
X226375078Y-74797859D01*
X226297669Y-74759154D01*
X226258964Y-74759154D01*
X226181554Y-74797859D01*
X226142850Y-74836564D01*
X226104145Y-74913973D01*
X226104145Y-75068792D01*
X226142850Y-75146202D01*
X226181554Y-75184907D01*
X226258964Y-75223611D01*
X226297669Y-75223611D01*
X226375078Y-75184907D01*
X226413783Y-75146202D01*
X226452488Y-75068792D01*
X226452488Y-74913973D01*
X226491192Y-74836564D01*
X226529897Y-74797859D01*
X226607307Y-74759154D01*
X226762126Y-74759154D01*
X226839535Y-74797859D01*
X226878240Y-74836564D01*
X226916945Y-74913973D01*
X226916945Y-75068792D01*
X226878240Y-75146202D01*
X226839535Y-75184907D01*
X226762126Y-75223611D01*
X226607307Y-75223611D01*
X226529897Y-75184907D01*
X226491192Y-75146202D01*
X226452488Y-75068792D01*
%TO.C,LED17*%
D10*
X203739583Y-74625154D02*
X203739583Y-73825154D01*
X203739583Y-74206107D02*
X203282440Y-74206107D01*
X203282440Y-74625154D02*
X203282440Y-73825154D01*
X202749107Y-73825154D02*
X202596726Y-73825154D01*
X202520535Y-73863250D01*
X202444345Y-73939440D01*
X202406250Y-74091821D01*
X202406250Y-74358488D01*
X202444345Y-74510869D01*
X202520535Y-74587059D01*
X202596726Y-74625154D01*
X202749107Y-74625154D01*
X202825297Y-74587059D01*
X202901488Y-74510869D01*
X202939583Y-74358488D01*
X202939583Y-74091821D01*
X202901488Y-73939440D01*
X202825297Y-73863250D01*
X202749107Y-73825154D01*
X201682440Y-74625154D02*
X202063392Y-74625154D01*
X202063392Y-73825154D01*
X201415773Y-74206107D02*
X201149107Y-74206107D01*
X201034821Y-74625154D02*
X201415773Y-74625154D01*
X201415773Y-73825154D01*
X201034821Y-73825154D01*
D13*
X198341945Y-72204640D02*
X198341945Y-71817592D01*
X197529145Y-71817592D01*
X197916192Y-72475573D02*
X197916192Y-72746507D01*
X198341945Y-72862621D02*
X198341945Y-72475573D01*
X197529145Y-72475573D01*
X197529145Y-72862621D01*
X198341945Y-73210964D02*
X197529145Y-73210964D01*
X197529145Y-73404488D01*
X197567850Y-73520602D01*
X197645259Y-73598011D01*
X197722669Y-73636716D01*
X197877488Y-73675421D01*
X197993602Y-73675421D01*
X198148421Y-73636716D01*
X198225830Y-73598011D01*
X198303240Y-73520602D01*
X198341945Y-73404488D01*
X198341945Y-73210964D01*
X198341945Y-74449516D02*
X198341945Y-73985059D01*
X198341945Y-74217288D02*
X197529145Y-74217288D01*
X197645259Y-74139878D01*
X197722669Y-74062469D01*
X197761373Y-73985059D01*
X197529145Y-74720450D02*
X197529145Y-75262316D01*
X198341945Y-74913973D01*
%TO.C,LED16*%
D10*
X184689583Y-74625154D02*
X184689583Y-73825154D01*
X184689583Y-74206107D02*
X184232440Y-74206107D01*
X184232440Y-74625154D02*
X184232440Y-73825154D01*
X183699107Y-73825154D02*
X183546726Y-73825154D01*
X183470535Y-73863250D01*
X183394345Y-73939440D01*
X183356250Y-74091821D01*
X183356250Y-74358488D01*
X183394345Y-74510869D01*
X183470535Y-74587059D01*
X183546726Y-74625154D01*
X183699107Y-74625154D01*
X183775297Y-74587059D01*
X183851488Y-74510869D01*
X183889583Y-74358488D01*
X183889583Y-74091821D01*
X183851488Y-73939440D01*
X183775297Y-73863250D01*
X183699107Y-73825154D01*
X182632440Y-74625154D02*
X183013392Y-74625154D01*
X183013392Y-73825154D01*
X182365773Y-74206107D02*
X182099107Y-74206107D01*
X181984821Y-74625154D02*
X182365773Y-74625154D01*
X182365773Y-73825154D01*
X181984821Y-73825154D01*
D13*
X179291945Y-72204640D02*
X179291945Y-71817592D01*
X178479145Y-71817592D01*
X178866192Y-72475573D02*
X178866192Y-72746507D01*
X179291945Y-72862621D02*
X179291945Y-72475573D01*
X178479145Y-72475573D01*
X178479145Y-72862621D01*
X179291945Y-73210964D02*
X178479145Y-73210964D01*
X178479145Y-73404488D01*
X178517850Y-73520602D01*
X178595259Y-73598011D01*
X178672669Y-73636716D01*
X178827488Y-73675421D01*
X178943602Y-73675421D01*
X179098421Y-73636716D01*
X179175830Y-73598011D01*
X179253240Y-73520602D01*
X179291945Y-73404488D01*
X179291945Y-73210964D01*
X179291945Y-74449516D02*
X179291945Y-73985059D01*
X179291945Y-74217288D02*
X178479145Y-74217288D01*
X178595259Y-74139878D01*
X178672669Y-74062469D01*
X178711373Y-73985059D01*
X178479145Y-75146202D02*
X178479145Y-74991383D01*
X178517850Y-74913973D01*
X178556554Y-74875269D01*
X178672669Y-74797859D01*
X178827488Y-74759154D01*
X179137126Y-74759154D01*
X179214535Y-74797859D01*
X179253240Y-74836564D01*
X179291945Y-74913973D01*
X179291945Y-75068792D01*
X179253240Y-75146202D01*
X179214535Y-75184907D01*
X179137126Y-75223611D01*
X178943602Y-75223611D01*
X178866192Y-75184907D01*
X178827488Y-75146202D01*
X178788783Y-75068792D01*
X178788783Y-74913973D01*
X178827488Y-74836564D01*
X178866192Y-74797859D01*
X178943602Y-74759154D01*
%TO.C,LED15*%
D10*
X165639583Y-74625154D02*
X165639583Y-73825154D01*
X165639583Y-74206107D02*
X165182440Y-74206107D01*
X165182440Y-74625154D02*
X165182440Y-73825154D01*
X164649107Y-73825154D02*
X164496726Y-73825154D01*
X164420535Y-73863250D01*
X164344345Y-73939440D01*
X164306250Y-74091821D01*
X164306250Y-74358488D01*
X164344345Y-74510869D01*
X164420535Y-74587059D01*
X164496726Y-74625154D01*
X164649107Y-74625154D01*
X164725297Y-74587059D01*
X164801488Y-74510869D01*
X164839583Y-74358488D01*
X164839583Y-74091821D01*
X164801488Y-73939440D01*
X164725297Y-73863250D01*
X164649107Y-73825154D01*
X163582440Y-74625154D02*
X163963392Y-74625154D01*
X163963392Y-73825154D01*
X163315773Y-74206107D02*
X163049107Y-74206107D01*
X162934821Y-74625154D02*
X163315773Y-74625154D01*
X163315773Y-73825154D01*
X162934821Y-73825154D01*
D13*
X160241945Y-72204640D02*
X160241945Y-71817592D01*
X159429145Y-71817592D01*
X159816192Y-72475573D02*
X159816192Y-72746507D01*
X160241945Y-72862621D02*
X160241945Y-72475573D01*
X159429145Y-72475573D01*
X159429145Y-72862621D01*
X160241945Y-73210964D02*
X159429145Y-73210964D01*
X159429145Y-73404488D01*
X159467850Y-73520602D01*
X159545259Y-73598011D01*
X159622669Y-73636716D01*
X159777488Y-73675421D01*
X159893602Y-73675421D01*
X160048421Y-73636716D01*
X160125830Y-73598011D01*
X160203240Y-73520602D01*
X160241945Y-73404488D01*
X160241945Y-73210964D01*
X160241945Y-74449516D02*
X160241945Y-73985059D01*
X160241945Y-74217288D02*
X159429145Y-74217288D01*
X159545259Y-74139878D01*
X159622669Y-74062469D01*
X159661373Y-73985059D01*
X159429145Y-75184907D02*
X159429145Y-74797859D01*
X159816192Y-74759154D01*
X159777488Y-74797859D01*
X159738783Y-74875269D01*
X159738783Y-75068792D01*
X159777488Y-75146202D01*
X159816192Y-75184907D01*
X159893602Y-75223611D01*
X160087126Y-75223611D01*
X160164535Y-75184907D01*
X160203240Y-75146202D01*
X160241945Y-75068792D01*
X160241945Y-74875269D01*
X160203240Y-74797859D01*
X160164535Y-74759154D01*
%TO.C,LED14*%
D10*
X146589583Y-74625154D02*
X146589583Y-73825154D01*
X146589583Y-74206107D02*
X146132440Y-74206107D01*
X146132440Y-74625154D02*
X146132440Y-73825154D01*
X145599107Y-73825154D02*
X145446726Y-73825154D01*
X145370535Y-73863250D01*
X145294345Y-73939440D01*
X145256250Y-74091821D01*
X145256250Y-74358488D01*
X145294345Y-74510869D01*
X145370535Y-74587059D01*
X145446726Y-74625154D01*
X145599107Y-74625154D01*
X145675297Y-74587059D01*
X145751488Y-74510869D01*
X145789583Y-74358488D01*
X145789583Y-74091821D01*
X145751488Y-73939440D01*
X145675297Y-73863250D01*
X145599107Y-73825154D01*
X144532440Y-74625154D02*
X144913392Y-74625154D01*
X144913392Y-73825154D01*
X144265773Y-74206107D02*
X143999107Y-74206107D01*
X143884821Y-74625154D02*
X144265773Y-74625154D01*
X144265773Y-73825154D01*
X143884821Y-73825154D01*
D13*
X141191945Y-72204640D02*
X141191945Y-71817592D01*
X140379145Y-71817592D01*
X140766192Y-72475573D02*
X140766192Y-72746507D01*
X141191945Y-72862621D02*
X141191945Y-72475573D01*
X140379145Y-72475573D01*
X140379145Y-72862621D01*
X141191945Y-73210964D02*
X140379145Y-73210964D01*
X140379145Y-73404488D01*
X140417850Y-73520602D01*
X140495259Y-73598011D01*
X140572669Y-73636716D01*
X140727488Y-73675421D01*
X140843602Y-73675421D01*
X140998421Y-73636716D01*
X141075830Y-73598011D01*
X141153240Y-73520602D01*
X141191945Y-73404488D01*
X141191945Y-73210964D01*
X141191945Y-74449516D02*
X141191945Y-73985059D01*
X141191945Y-74217288D02*
X140379145Y-74217288D01*
X140495259Y-74139878D01*
X140572669Y-74062469D01*
X140611373Y-73985059D01*
X140650078Y-75146202D02*
X141191945Y-75146202D01*
X140340440Y-74952678D02*
X140921011Y-74759154D01*
X140921011Y-75262316D01*
%TO.C,LED13*%
D10*
X127539583Y-74625154D02*
X127539583Y-73825154D01*
X127539583Y-74206107D02*
X127082440Y-74206107D01*
X127082440Y-74625154D02*
X127082440Y-73825154D01*
X126549107Y-73825154D02*
X126396726Y-73825154D01*
X126320535Y-73863250D01*
X126244345Y-73939440D01*
X126206250Y-74091821D01*
X126206250Y-74358488D01*
X126244345Y-74510869D01*
X126320535Y-74587059D01*
X126396726Y-74625154D01*
X126549107Y-74625154D01*
X126625297Y-74587059D01*
X126701488Y-74510869D01*
X126739583Y-74358488D01*
X126739583Y-74091821D01*
X126701488Y-73939440D01*
X126625297Y-73863250D01*
X126549107Y-73825154D01*
X125482440Y-74625154D02*
X125863392Y-74625154D01*
X125863392Y-73825154D01*
X125215773Y-74206107D02*
X124949107Y-74206107D01*
X124834821Y-74625154D02*
X125215773Y-74625154D01*
X125215773Y-73825154D01*
X124834821Y-73825154D01*
D13*
X122141945Y-72204640D02*
X122141945Y-71817592D01*
X121329145Y-71817592D01*
X121716192Y-72475573D02*
X121716192Y-72746507D01*
X122141945Y-72862621D02*
X122141945Y-72475573D01*
X121329145Y-72475573D01*
X121329145Y-72862621D01*
X122141945Y-73210964D02*
X121329145Y-73210964D01*
X121329145Y-73404488D01*
X121367850Y-73520602D01*
X121445259Y-73598011D01*
X121522669Y-73636716D01*
X121677488Y-73675421D01*
X121793602Y-73675421D01*
X121948421Y-73636716D01*
X122025830Y-73598011D01*
X122103240Y-73520602D01*
X122141945Y-73404488D01*
X122141945Y-73210964D01*
X122141945Y-74449516D02*
X122141945Y-73985059D01*
X122141945Y-74217288D02*
X121329145Y-74217288D01*
X121445259Y-74139878D01*
X121522669Y-74062469D01*
X121561373Y-73985059D01*
X121329145Y-74720450D02*
X121329145Y-75223611D01*
X121638783Y-74952678D01*
X121638783Y-75068792D01*
X121677488Y-75146202D01*
X121716192Y-75184907D01*
X121793602Y-75223611D01*
X121987126Y-75223611D01*
X122064535Y-75184907D01*
X122103240Y-75146202D01*
X122141945Y-75068792D01*
X122141945Y-74836564D01*
X122103240Y-74759154D01*
X122064535Y-74720450D01*
%TO.C,LED12*%
D10*
X108489583Y-74625154D02*
X108489583Y-73825154D01*
X108489583Y-74206107D02*
X108032440Y-74206107D01*
X108032440Y-74625154D02*
X108032440Y-73825154D01*
X107499107Y-73825154D02*
X107346726Y-73825154D01*
X107270535Y-73863250D01*
X107194345Y-73939440D01*
X107156250Y-74091821D01*
X107156250Y-74358488D01*
X107194345Y-74510869D01*
X107270535Y-74587059D01*
X107346726Y-74625154D01*
X107499107Y-74625154D01*
X107575297Y-74587059D01*
X107651488Y-74510869D01*
X107689583Y-74358488D01*
X107689583Y-74091821D01*
X107651488Y-73939440D01*
X107575297Y-73863250D01*
X107499107Y-73825154D01*
X106432440Y-74625154D02*
X106813392Y-74625154D01*
X106813392Y-73825154D01*
X106165773Y-74206107D02*
X105899107Y-74206107D01*
X105784821Y-74625154D02*
X106165773Y-74625154D01*
X106165773Y-73825154D01*
X105784821Y-73825154D01*
D13*
X103091945Y-72204640D02*
X103091945Y-71817592D01*
X102279145Y-71817592D01*
X102666192Y-72475573D02*
X102666192Y-72746507D01*
X103091945Y-72862621D02*
X103091945Y-72475573D01*
X102279145Y-72475573D01*
X102279145Y-72862621D01*
X103091945Y-73210964D02*
X102279145Y-73210964D01*
X102279145Y-73404488D01*
X102317850Y-73520602D01*
X102395259Y-73598011D01*
X102472669Y-73636716D01*
X102627488Y-73675421D01*
X102743602Y-73675421D01*
X102898421Y-73636716D01*
X102975830Y-73598011D01*
X103053240Y-73520602D01*
X103091945Y-73404488D01*
X103091945Y-73210964D01*
X103091945Y-74449516D02*
X103091945Y-73985059D01*
X103091945Y-74217288D02*
X102279145Y-74217288D01*
X102395259Y-74139878D01*
X102472669Y-74062469D01*
X102511373Y-73985059D01*
X102356554Y-74759154D02*
X102317850Y-74797859D01*
X102279145Y-74875269D01*
X102279145Y-75068792D01*
X102317850Y-75146202D01*
X102356554Y-75184907D01*
X102433964Y-75223611D01*
X102511373Y-75223611D01*
X102627488Y-75184907D01*
X103091945Y-74720450D01*
X103091945Y-75223611D01*
%TO.C,LED11*%
D10*
X232314583Y-54051154D02*
X232314583Y-53251154D01*
X232314583Y-53632107D02*
X231857440Y-53632107D01*
X231857440Y-54051154D02*
X231857440Y-53251154D01*
X231324107Y-53251154D02*
X231171726Y-53251154D01*
X231095535Y-53289250D01*
X231019345Y-53365440D01*
X230981250Y-53517821D01*
X230981250Y-53784488D01*
X231019345Y-53936869D01*
X231095535Y-54013059D01*
X231171726Y-54051154D01*
X231324107Y-54051154D01*
X231400297Y-54013059D01*
X231476488Y-53936869D01*
X231514583Y-53784488D01*
X231514583Y-53517821D01*
X231476488Y-53365440D01*
X231400297Y-53289250D01*
X231324107Y-53251154D01*
X230257440Y-54051154D02*
X230638392Y-54051154D01*
X230638392Y-53251154D01*
X229990773Y-53632107D02*
X229724107Y-53632107D01*
X229609821Y-54051154D02*
X229990773Y-54051154D01*
X229990773Y-53251154D01*
X229609821Y-53251154D01*
D13*
X235780945Y-53154640D02*
X235780945Y-52767592D01*
X234968145Y-52767592D01*
X235355192Y-53425573D02*
X235355192Y-53696507D01*
X235780945Y-53812621D02*
X235780945Y-53425573D01*
X234968145Y-53425573D01*
X234968145Y-53812621D01*
X235780945Y-54160964D02*
X234968145Y-54160964D01*
X234968145Y-54354488D01*
X235006850Y-54470602D01*
X235084259Y-54548011D01*
X235161669Y-54586716D01*
X235316488Y-54625421D01*
X235432602Y-54625421D01*
X235587421Y-54586716D01*
X235664830Y-54548011D01*
X235742240Y-54470602D01*
X235780945Y-54354488D01*
X235780945Y-54160964D01*
X235780945Y-55399516D02*
X235780945Y-54935059D01*
X235780945Y-55167288D02*
X234968145Y-55167288D01*
X235084259Y-55089878D01*
X235161669Y-55012469D01*
X235200373Y-54935059D01*
X235780945Y-56173611D02*
X235780945Y-55709154D01*
X235780945Y-55941383D02*
X234968145Y-55941383D01*
X235084259Y-55863973D01*
X235161669Y-55786564D01*
X235200373Y-55709154D01*
%TO.C,LED10*%
D10*
X203739583Y-54051154D02*
X203739583Y-53251154D01*
X203739583Y-53632107D02*
X203282440Y-53632107D01*
X203282440Y-54051154D02*
X203282440Y-53251154D01*
X202749107Y-53251154D02*
X202596726Y-53251154D01*
X202520535Y-53289250D01*
X202444345Y-53365440D01*
X202406250Y-53517821D01*
X202406250Y-53784488D01*
X202444345Y-53936869D01*
X202520535Y-54013059D01*
X202596726Y-54051154D01*
X202749107Y-54051154D01*
X202825297Y-54013059D01*
X202901488Y-53936869D01*
X202939583Y-53784488D01*
X202939583Y-53517821D01*
X202901488Y-53365440D01*
X202825297Y-53289250D01*
X202749107Y-53251154D01*
X201682440Y-54051154D02*
X202063392Y-54051154D01*
X202063392Y-53251154D01*
X201415773Y-53632107D02*
X201149107Y-53632107D01*
X201034821Y-54051154D02*
X201415773Y-54051154D01*
X201415773Y-53251154D01*
X201034821Y-53251154D01*
D13*
X207205945Y-53154640D02*
X207205945Y-52767592D01*
X206393145Y-52767592D01*
X206780192Y-53425573D02*
X206780192Y-53696507D01*
X207205945Y-53812621D02*
X207205945Y-53425573D01*
X206393145Y-53425573D01*
X206393145Y-53812621D01*
X207205945Y-54160964D02*
X206393145Y-54160964D01*
X206393145Y-54354488D01*
X206431850Y-54470602D01*
X206509259Y-54548011D01*
X206586669Y-54586716D01*
X206741488Y-54625421D01*
X206857602Y-54625421D01*
X207012421Y-54586716D01*
X207089830Y-54548011D01*
X207167240Y-54470602D01*
X207205945Y-54354488D01*
X207205945Y-54160964D01*
X207205945Y-55399516D02*
X207205945Y-54935059D01*
X207205945Y-55167288D02*
X206393145Y-55167288D01*
X206509259Y-55089878D01*
X206586669Y-55012469D01*
X206625373Y-54935059D01*
X206393145Y-55902678D02*
X206393145Y-55980088D01*
X206431850Y-56057497D01*
X206470554Y-56096202D01*
X206547964Y-56134907D01*
X206702783Y-56173611D01*
X206896307Y-56173611D01*
X207051126Y-56134907D01*
X207128535Y-56096202D01*
X207167240Y-56057497D01*
X207205945Y-55980088D01*
X207205945Y-55902678D01*
X207167240Y-55825269D01*
X207128535Y-55786564D01*
X207051126Y-55747859D01*
X206896307Y-55709154D01*
X206702783Y-55709154D01*
X206547964Y-55747859D01*
X206470554Y-55786564D01*
X206431850Y-55825269D01*
X206393145Y-55902678D01*
%TO.C,LED9*%
D10*
X184689583Y-54051154D02*
X184689583Y-53251154D01*
X184689583Y-53632107D02*
X184232440Y-53632107D01*
X184232440Y-54051154D02*
X184232440Y-53251154D01*
X183699107Y-53251154D02*
X183546726Y-53251154D01*
X183470535Y-53289250D01*
X183394345Y-53365440D01*
X183356250Y-53517821D01*
X183356250Y-53784488D01*
X183394345Y-53936869D01*
X183470535Y-54013059D01*
X183546726Y-54051154D01*
X183699107Y-54051154D01*
X183775297Y-54013059D01*
X183851488Y-53936869D01*
X183889583Y-53784488D01*
X183889583Y-53517821D01*
X183851488Y-53365440D01*
X183775297Y-53289250D01*
X183699107Y-53251154D01*
X182632440Y-54051154D02*
X183013392Y-54051154D01*
X183013392Y-53251154D01*
X182365773Y-53632107D02*
X182099107Y-53632107D01*
X181984821Y-54051154D02*
X182365773Y-54051154D01*
X182365773Y-53251154D01*
X181984821Y-53251154D01*
D13*
X188155945Y-53541688D02*
X188155945Y-53154640D01*
X187343145Y-53154640D01*
X187730192Y-53812621D02*
X187730192Y-54083554D01*
X188155945Y-54199669D02*
X188155945Y-53812621D01*
X187343145Y-53812621D01*
X187343145Y-54199669D01*
X188155945Y-54548011D02*
X187343145Y-54548011D01*
X187343145Y-54741535D01*
X187381850Y-54857650D01*
X187459259Y-54935059D01*
X187536669Y-54973764D01*
X187691488Y-55012469D01*
X187807602Y-55012469D01*
X187962421Y-54973764D01*
X188039830Y-54935059D01*
X188117240Y-54857650D01*
X188155945Y-54741535D01*
X188155945Y-54548011D01*
X188155945Y-55399516D02*
X188155945Y-55554335D01*
X188117240Y-55631745D01*
X188078535Y-55670450D01*
X187962421Y-55747859D01*
X187807602Y-55786564D01*
X187497964Y-55786564D01*
X187420554Y-55747859D01*
X187381850Y-55709154D01*
X187343145Y-55631745D01*
X187343145Y-55476926D01*
X187381850Y-55399516D01*
X187420554Y-55360811D01*
X187497964Y-55322107D01*
X187691488Y-55322107D01*
X187768897Y-55360811D01*
X187807602Y-55399516D01*
X187846307Y-55476926D01*
X187846307Y-55631745D01*
X187807602Y-55709154D01*
X187768897Y-55747859D01*
X187691488Y-55786564D01*
%TO.C,LED8*%
D10*
X165639583Y-54051154D02*
X165639583Y-53251154D01*
X165639583Y-53632107D02*
X165182440Y-53632107D01*
X165182440Y-54051154D02*
X165182440Y-53251154D01*
X164649107Y-53251154D02*
X164496726Y-53251154D01*
X164420535Y-53289250D01*
X164344345Y-53365440D01*
X164306250Y-53517821D01*
X164306250Y-53784488D01*
X164344345Y-53936869D01*
X164420535Y-54013059D01*
X164496726Y-54051154D01*
X164649107Y-54051154D01*
X164725297Y-54013059D01*
X164801488Y-53936869D01*
X164839583Y-53784488D01*
X164839583Y-53517821D01*
X164801488Y-53365440D01*
X164725297Y-53289250D01*
X164649107Y-53251154D01*
X163582440Y-54051154D02*
X163963392Y-54051154D01*
X163963392Y-53251154D01*
X163315773Y-53632107D02*
X163049107Y-53632107D01*
X162934821Y-54051154D02*
X163315773Y-54051154D01*
X163315773Y-53251154D01*
X162934821Y-53251154D01*
D13*
X169105945Y-53541688D02*
X169105945Y-53154640D01*
X168293145Y-53154640D01*
X168680192Y-53812621D02*
X168680192Y-54083554D01*
X169105945Y-54199669D02*
X169105945Y-53812621D01*
X168293145Y-53812621D01*
X168293145Y-54199669D01*
X169105945Y-54548011D02*
X168293145Y-54548011D01*
X168293145Y-54741535D01*
X168331850Y-54857650D01*
X168409259Y-54935059D01*
X168486669Y-54973764D01*
X168641488Y-55012469D01*
X168757602Y-55012469D01*
X168912421Y-54973764D01*
X168989830Y-54935059D01*
X169067240Y-54857650D01*
X169105945Y-54741535D01*
X169105945Y-54548011D01*
X168641488Y-55476926D02*
X168602783Y-55399516D01*
X168564078Y-55360811D01*
X168486669Y-55322107D01*
X168447964Y-55322107D01*
X168370554Y-55360811D01*
X168331850Y-55399516D01*
X168293145Y-55476926D01*
X168293145Y-55631745D01*
X168331850Y-55709154D01*
X168370554Y-55747859D01*
X168447964Y-55786564D01*
X168486669Y-55786564D01*
X168564078Y-55747859D01*
X168602783Y-55709154D01*
X168641488Y-55631745D01*
X168641488Y-55476926D01*
X168680192Y-55399516D01*
X168718897Y-55360811D01*
X168796307Y-55322107D01*
X168951126Y-55322107D01*
X169028535Y-55360811D01*
X169067240Y-55399516D01*
X169105945Y-55476926D01*
X169105945Y-55631745D01*
X169067240Y-55709154D01*
X169028535Y-55747859D01*
X168951126Y-55786564D01*
X168796307Y-55786564D01*
X168718897Y-55747859D01*
X168680192Y-55709154D01*
X168641488Y-55631745D01*
%TO.C,LED7*%
D10*
X146589583Y-54051154D02*
X146589583Y-53251154D01*
X146589583Y-53632107D02*
X146132440Y-53632107D01*
X146132440Y-54051154D02*
X146132440Y-53251154D01*
X145599107Y-53251154D02*
X145446726Y-53251154D01*
X145370535Y-53289250D01*
X145294345Y-53365440D01*
X145256250Y-53517821D01*
X145256250Y-53784488D01*
X145294345Y-53936869D01*
X145370535Y-54013059D01*
X145446726Y-54051154D01*
X145599107Y-54051154D01*
X145675297Y-54013059D01*
X145751488Y-53936869D01*
X145789583Y-53784488D01*
X145789583Y-53517821D01*
X145751488Y-53365440D01*
X145675297Y-53289250D01*
X145599107Y-53251154D01*
X144532440Y-54051154D02*
X144913392Y-54051154D01*
X144913392Y-53251154D01*
X144265773Y-53632107D02*
X143999107Y-53632107D01*
X143884821Y-54051154D02*
X144265773Y-54051154D01*
X144265773Y-53251154D01*
X143884821Y-53251154D01*
D13*
X150055945Y-53541688D02*
X150055945Y-53154640D01*
X149243145Y-53154640D01*
X149630192Y-53812621D02*
X149630192Y-54083554D01*
X150055945Y-54199669D02*
X150055945Y-53812621D01*
X149243145Y-53812621D01*
X149243145Y-54199669D01*
X150055945Y-54548011D02*
X149243145Y-54548011D01*
X149243145Y-54741535D01*
X149281850Y-54857650D01*
X149359259Y-54935059D01*
X149436669Y-54973764D01*
X149591488Y-55012469D01*
X149707602Y-55012469D01*
X149862421Y-54973764D01*
X149939830Y-54935059D01*
X150017240Y-54857650D01*
X150055945Y-54741535D01*
X150055945Y-54548011D01*
X149243145Y-55283402D02*
X149243145Y-55825269D01*
X150055945Y-55476926D01*
%TO.C,LED6*%
D10*
X127539583Y-54051154D02*
X127539583Y-53251154D01*
X127539583Y-53632107D02*
X127082440Y-53632107D01*
X127082440Y-54051154D02*
X127082440Y-53251154D01*
X126549107Y-53251154D02*
X126396726Y-53251154D01*
X126320535Y-53289250D01*
X126244345Y-53365440D01*
X126206250Y-53517821D01*
X126206250Y-53784488D01*
X126244345Y-53936869D01*
X126320535Y-54013059D01*
X126396726Y-54051154D01*
X126549107Y-54051154D01*
X126625297Y-54013059D01*
X126701488Y-53936869D01*
X126739583Y-53784488D01*
X126739583Y-53517821D01*
X126701488Y-53365440D01*
X126625297Y-53289250D01*
X126549107Y-53251154D01*
X125482440Y-54051154D02*
X125863392Y-54051154D01*
X125863392Y-53251154D01*
X125215773Y-53632107D02*
X124949107Y-53632107D01*
X124834821Y-54051154D02*
X125215773Y-54051154D01*
X125215773Y-53251154D01*
X124834821Y-53251154D01*
D13*
X131005945Y-53541688D02*
X131005945Y-53154640D01*
X130193145Y-53154640D01*
X130580192Y-53812621D02*
X130580192Y-54083554D01*
X131005945Y-54199669D02*
X131005945Y-53812621D01*
X130193145Y-53812621D01*
X130193145Y-54199669D01*
X131005945Y-54548011D02*
X130193145Y-54548011D01*
X130193145Y-54741535D01*
X130231850Y-54857650D01*
X130309259Y-54935059D01*
X130386669Y-54973764D01*
X130541488Y-55012469D01*
X130657602Y-55012469D01*
X130812421Y-54973764D01*
X130889830Y-54935059D01*
X130967240Y-54857650D01*
X131005945Y-54741535D01*
X131005945Y-54548011D01*
X130193145Y-55709154D02*
X130193145Y-55554335D01*
X130231850Y-55476926D01*
X130270554Y-55438221D01*
X130386669Y-55360811D01*
X130541488Y-55322107D01*
X130851126Y-55322107D01*
X130928535Y-55360811D01*
X130967240Y-55399516D01*
X131005945Y-55476926D01*
X131005945Y-55631745D01*
X130967240Y-55709154D01*
X130928535Y-55747859D01*
X130851126Y-55786564D01*
X130657602Y-55786564D01*
X130580192Y-55747859D01*
X130541488Y-55709154D01*
X130502783Y-55631745D01*
X130502783Y-55476926D01*
X130541488Y-55399516D01*
X130580192Y-55360811D01*
X130657602Y-55322107D01*
%TO.C,LED5*%
D10*
X108489583Y-54051154D02*
X108489583Y-53251154D01*
X108489583Y-53632107D02*
X108032440Y-53632107D01*
X108032440Y-54051154D02*
X108032440Y-53251154D01*
X107499107Y-53251154D02*
X107346726Y-53251154D01*
X107270535Y-53289250D01*
X107194345Y-53365440D01*
X107156250Y-53517821D01*
X107156250Y-53784488D01*
X107194345Y-53936869D01*
X107270535Y-54013059D01*
X107346726Y-54051154D01*
X107499107Y-54051154D01*
X107575297Y-54013059D01*
X107651488Y-53936869D01*
X107689583Y-53784488D01*
X107689583Y-53517821D01*
X107651488Y-53365440D01*
X107575297Y-53289250D01*
X107499107Y-53251154D01*
X106432440Y-54051154D02*
X106813392Y-54051154D01*
X106813392Y-53251154D01*
X106165773Y-53632107D02*
X105899107Y-53632107D01*
X105784821Y-54051154D02*
X106165773Y-54051154D01*
X106165773Y-53251154D01*
X105784821Y-53251154D01*
D13*
X111955945Y-53541688D02*
X111955945Y-53154640D01*
X111143145Y-53154640D01*
X111530192Y-53812621D02*
X111530192Y-54083554D01*
X111955945Y-54199669D02*
X111955945Y-53812621D01*
X111143145Y-53812621D01*
X111143145Y-54199669D01*
X111955945Y-54548011D02*
X111143145Y-54548011D01*
X111143145Y-54741535D01*
X111181850Y-54857650D01*
X111259259Y-54935059D01*
X111336669Y-54973764D01*
X111491488Y-55012469D01*
X111607602Y-55012469D01*
X111762421Y-54973764D01*
X111839830Y-54935059D01*
X111917240Y-54857650D01*
X111955945Y-54741535D01*
X111955945Y-54548011D01*
X111143145Y-55747859D02*
X111143145Y-55360811D01*
X111530192Y-55322107D01*
X111491488Y-55360811D01*
X111452783Y-55438221D01*
X111452783Y-55631745D01*
X111491488Y-55709154D01*
X111530192Y-55747859D01*
X111607602Y-55786564D01*
X111801126Y-55786564D01*
X111878535Y-55747859D01*
X111917240Y-55709154D01*
X111955945Y-55631745D01*
X111955945Y-55438221D01*
X111917240Y-55360811D01*
X111878535Y-55322107D01*
%TO.C,LED4*%
X219842445Y-77671688D02*
X219842445Y-77284640D01*
X219029645Y-77284640D01*
X219416692Y-77942621D02*
X219416692Y-78213554D01*
X219842445Y-78329669D02*
X219842445Y-77942621D01*
X219029645Y-77942621D01*
X219029645Y-78329669D01*
X219842445Y-78678011D02*
X219029645Y-78678011D01*
X219029645Y-78871535D01*
X219068350Y-78987650D01*
X219145759Y-79065059D01*
X219223169Y-79103764D01*
X219377988Y-79142469D01*
X219494102Y-79142469D01*
X219648921Y-79103764D01*
X219726330Y-79065059D01*
X219803740Y-78987650D01*
X219842445Y-78871535D01*
X219842445Y-78678011D01*
X219300578Y-79839154D02*
X219842445Y-79839154D01*
X218990940Y-79645630D02*
X219571511Y-79452107D01*
X219571511Y-79955269D01*
D10*
X216293654Y-77247916D02*
X215493654Y-77247916D01*
X215874607Y-77247916D02*
X215874607Y-77705059D01*
X216293654Y-77705059D02*
X215493654Y-77705059D01*
X215493654Y-78238392D02*
X215493654Y-78390773D01*
X215531750Y-78466964D01*
X215607940Y-78543154D01*
X215760321Y-78581250D01*
X216026988Y-78581250D01*
X216179369Y-78543154D01*
X216255559Y-78466964D01*
X216293654Y-78390773D01*
X216293654Y-78238392D01*
X216255559Y-78162202D01*
X216179369Y-78086011D01*
X216026988Y-78047916D01*
X215760321Y-78047916D01*
X215607940Y-78086011D01*
X215531750Y-78162202D01*
X215493654Y-78238392D01*
X216293654Y-79305059D02*
X216293654Y-78924107D01*
X215493654Y-78924107D01*
X215874607Y-79571726D02*
X215874607Y-79838392D01*
X216293654Y-79952678D02*
X216293654Y-79571726D01*
X215493654Y-79571726D01*
X215493654Y-79952678D01*
%TO.C,LED3*%
D13*
X174740811Y-66642945D02*
X175127859Y-66642945D01*
X175127859Y-65830145D01*
X174469878Y-66217192D02*
X174198945Y-66217192D01*
X174082830Y-66642945D02*
X174469878Y-66642945D01*
X174469878Y-65830145D01*
X174082830Y-65830145D01*
X173734488Y-66642945D02*
X173734488Y-65830145D01*
X173540964Y-65830145D01*
X173424850Y-65868850D01*
X173347440Y-65946259D01*
X173308735Y-66023669D01*
X173270030Y-66178488D01*
X173270030Y-66294602D01*
X173308735Y-66449421D01*
X173347440Y-66526830D01*
X173424850Y-66604240D01*
X173540964Y-66642945D01*
X173734488Y-66642945D01*
X172999097Y-65830145D02*
X172495935Y-65830145D01*
X172766869Y-66139783D01*
X172650754Y-66139783D01*
X172573345Y-66178488D01*
X172534640Y-66217192D01*
X172495935Y-66294602D01*
X172495935Y-66488126D01*
X172534640Y-66565535D01*
X172573345Y-66604240D01*
X172650754Y-66642945D01*
X172882983Y-66642945D01*
X172960392Y-66604240D01*
X172999097Y-66565535D01*
D10*
X175164583Y-70180154D02*
X175164583Y-69380154D01*
X175164583Y-69761107D02*
X174707440Y-69761107D01*
X174707440Y-70180154D02*
X174707440Y-69380154D01*
X174174107Y-69380154D02*
X174021726Y-69380154D01*
X173945535Y-69418250D01*
X173869345Y-69494440D01*
X173831250Y-69646821D01*
X173831250Y-69913488D01*
X173869345Y-70065869D01*
X173945535Y-70142059D01*
X174021726Y-70180154D01*
X174174107Y-70180154D01*
X174250297Y-70142059D01*
X174326488Y-70065869D01*
X174364583Y-69913488D01*
X174364583Y-69646821D01*
X174326488Y-69494440D01*
X174250297Y-69418250D01*
X174174107Y-69380154D01*
X173107440Y-70180154D02*
X173488392Y-70180154D01*
X173488392Y-69380154D01*
X172840773Y-69761107D02*
X172574107Y-69761107D01*
X172459821Y-70180154D02*
X172840773Y-70180154D01*
X172840773Y-69380154D01*
X172459821Y-69380154D01*
%TO.C,LED2*%
D13*
X155690811Y-104742945D02*
X156077859Y-104742945D01*
X156077859Y-103930145D01*
X155419878Y-104317192D02*
X155148945Y-104317192D01*
X155032830Y-104742945D02*
X155419878Y-104742945D01*
X155419878Y-103930145D01*
X155032830Y-103930145D01*
X154684488Y-104742945D02*
X154684488Y-103930145D01*
X154490964Y-103930145D01*
X154374850Y-103968850D01*
X154297440Y-104046259D01*
X154258735Y-104123669D01*
X154220030Y-104278488D01*
X154220030Y-104394602D01*
X154258735Y-104549421D01*
X154297440Y-104626830D01*
X154374850Y-104704240D01*
X154490964Y-104742945D01*
X154684488Y-104742945D01*
X153910392Y-104007554D02*
X153871688Y-103968850D01*
X153794278Y-103930145D01*
X153600754Y-103930145D01*
X153523345Y-103968850D01*
X153484640Y-104007554D01*
X153445935Y-104084964D01*
X153445935Y-104162373D01*
X153484640Y-104278488D01*
X153949097Y-104742945D01*
X153445935Y-104742945D01*
D10*
X156114583Y-108280154D02*
X156114583Y-107480154D01*
X156114583Y-107861107D02*
X155657440Y-107861107D01*
X155657440Y-108280154D02*
X155657440Y-107480154D01*
X155124107Y-107480154D02*
X154971726Y-107480154D01*
X154895535Y-107518250D01*
X154819345Y-107594440D01*
X154781250Y-107746821D01*
X154781250Y-108013488D01*
X154819345Y-108165869D01*
X154895535Y-108242059D01*
X154971726Y-108280154D01*
X155124107Y-108280154D01*
X155200297Y-108242059D01*
X155276488Y-108165869D01*
X155314583Y-108013488D01*
X155314583Y-107746821D01*
X155276488Y-107594440D01*
X155200297Y-107518250D01*
X155124107Y-107480154D01*
X154057440Y-108280154D02*
X154438392Y-108280154D01*
X154438392Y-107480154D01*
X153790773Y-107861107D02*
X153524107Y-107861107D01*
X153409821Y-108280154D02*
X153790773Y-108280154D01*
X153790773Y-107480154D01*
X153409821Y-107480154D01*
%TO.C,LED1*%
D13*
X117590811Y-91254945D02*
X117977859Y-91254945D01*
X117977859Y-90442145D01*
X117319878Y-90829192D02*
X117048945Y-90829192D01*
X116932830Y-91254945D02*
X117319878Y-91254945D01*
X117319878Y-90442145D01*
X116932830Y-90442145D01*
X116584488Y-91254945D02*
X116584488Y-90442145D01*
X116390964Y-90442145D01*
X116274850Y-90480850D01*
X116197440Y-90558259D01*
X116158735Y-90635669D01*
X116120030Y-90790488D01*
X116120030Y-90906602D01*
X116158735Y-91061421D01*
X116197440Y-91138830D01*
X116274850Y-91216240D01*
X116390964Y-91254945D01*
X116584488Y-91254945D01*
X115345935Y-91254945D02*
X115810392Y-91254945D01*
X115578164Y-91254945D02*
X115578164Y-90442145D01*
X115655573Y-90558259D01*
X115732983Y-90635669D01*
X115810392Y-90674373D01*
D10*
X118014583Y-87706154D02*
X118014583Y-86906154D01*
X118014583Y-87287107D02*
X117557440Y-87287107D01*
X117557440Y-87706154D02*
X117557440Y-86906154D01*
X117024107Y-86906154D02*
X116871726Y-86906154D01*
X116795535Y-86944250D01*
X116719345Y-87020440D01*
X116681250Y-87172821D01*
X116681250Y-87439488D01*
X116719345Y-87591869D01*
X116795535Y-87668059D01*
X116871726Y-87706154D01*
X117024107Y-87706154D01*
X117100297Y-87668059D01*
X117176488Y-87591869D01*
X117214583Y-87439488D01*
X117214583Y-87172821D01*
X117176488Y-87020440D01*
X117100297Y-86944250D01*
X117024107Y-86906154D01*
X115957440Y-87706154D02*
X116338392Y-87706154D01*
X116338392Y-86906154D01*
X115690773Y-87287107D02*
X115424107Y-87287107D01*
X115309821Y-87706154D02*
X115690773Y-87706154D01*
X115690773Y-86906154D01*
X115309821Y-86906154D01*
%TO.C,U1*%
D13*
X218008276Y-61816895D02*
X218008276Y-62474876D01*
X217969571Y-62552285D01*
X217930866Y-62590990D01*
X217853457Y-62629695D01*
X217698638Y-62629695D01*
X217621228Y-62590990D01*
X217582523Y-62552285D01*
X217543819Y-62474876D01*
X217543819Y-61816895D01*
X216731019Y-62629695D02*
X217195476Y-62629695D01*
X216963247Y-62629695D02*
X216963247Y-61816895D01*
X217040657Y-61933009D01*
X217118066Y-62010419D01*
X217195476Y-62049123D01*
%TO.C,SW22*%
X256651276Y-81248990D02*
X256535161Y-81287695D01*
X256341638Y-81287695D01*
X256264228Y-81248990D01*
X256225523Y-81210285D01*
X256186819Y-81132876D01*
X256186819Y-81055466D01*
X256225523Y-80978057D01*
X256264228Y-80939352D01*
X256341638Y-80900647D01*
X256496457Y-80861942D01*
X256573866Y-80823238D01*
X256612571Y-80784533D01*
X256651276Y-80707123D01*
X256651276Y-80629714D01*
X256612571Y-80552304D01*
X256573866Y-80513600D01*
X256496457Y-80474895D01*
X256302933Y-80474895D01*
X256186819Y-80513600D01*
X255915885Y-80474895D02*
X255722361Y-81287695D01*
X255567542Y-80707123D01*
X255412723Y-81287695D01*
X255219200Y-80474895D01*
X255103085Y-81365104D02*
X254483809Y-81365104D01*
X254290285Y-81287695D02*
X254290285Y-80474895D01*
X253980647Y-80474895D01*
X253903238Y-80513600D01*
X253864533Y-80552304D01*
X253825828Y-80629714D01*
X253825828Y-80745828D01*
X253864533Y-80823238D01*
X253903238Y-80861942D01*
X253980647Y-80900647D01*
X254290285Y-80900647D01*
X253477485Y-80474895D02*
X253477485Y-81132876D01*
X253438780Y-81210285D01*
X253400076Y-81248990D01*
X253322666Y-81287695D01*
X253167847Y-81287695D01*
X253090438Y-81248990D01*
X253051733Y-81210285D01*
X253013028Y-81132876D01*
X253013028Y-80474895D01*
X252664685Y-81248990D02*
X252548571Y-81287695D01*
X252355047Y-81287695D01*
X252277638Y-81248990D01*
X252238933Y-81210285D01*
X252200228Y-81132876D01*
X252200228Y-81055466D01*
X252238933Y-80978057D01*
X252277638Y-80939352D01*
X252355047Y-80900647D01*
X252509866Y-80861942D01*
X252587276Y-80823238D01*
X252625980Y-80784533D01*
X252664685Y-80707123D01*
X252664685Y-80629714D01*
X252625980Y-80552304D01*
X252587276Y-80513600D01*
X252509866Y-80474895D01*
X252316342Y-80474895D01*
X252200228Y-80513600D01*
X251851885Y-81287695D02*
X251851885Y-80474895D01*
X251851885Y-80861942D02*
X251387428Y-80861942D01*
X251387428Y-81287695D02*
X251387428Y-80474895D01*
%TO.C,SW15*%
X229023945Y-101247516D02*
X228636897Y-100976583D01*
X229023945Y-100783059D02*
X228211145Y-100783059D01*
X228211145Y-101092697D01*
X228249850Y-101170107D01*
X228288554Y-101208811D01*
X228365964Y-101247516D01*
X228482078Y-101247516D01*
X228559488Y-101208811D01*
X228598192Y-101170107D01*
X228636897Y-101092697D01*
X228636897Y-100783059D01*
X228598192Y-101595859D02*
X228598192Y-101866792D01*
X229023945Y-101982907D02*
X229023945Y-101595859D01*
X228211145Y-101595859D01*
X228211145Y-101982907D01*
X228598192Y-102602183D02*
X228598192Y-102331250D01*
X229023945Y-102331250D02*
X228211145Y-102331250D01*
X228211145Y-102718297D01*
X228211145Y-103144050D02*
X228404669Y-103144050D01*
X228327259Y-102950526D02*
X228404669Y-103144050D01*
X228327259Y-103337573D01*
X228559488Y-103027935D02*
X228404669Y-103144050D01*
X228559488Y-103260164D01*
X228211145Y-103763326D02*
X228404669Y-103763326D01*
X228327259Y-103569802D02*
X228404669Y-103763326D01*
X228327259Y-103956850D01*
X228559488Y-103647211D02*
X228404669Y-103763326D01*
X228559488Y-103879440D01*
%TO.C,R6*%
X244969695Y-82078525D02*
X244582647Y-81807592D01*
X244969695Y-81614068D02*
X244156895Y-81614068D01*
X244156895Y-81923706D01*
X244195600Y-82001116D01*
X244234304Y-82039820D01*
X244311714Y-82078525D01*
X244427828Y-82078525D01*
X244505238Y-82039820D01*
X244543942Y-82001116D01*
X244582647Y-81923706D01*
X244582647Y-81614068D01*
X244156895Y-82775211D02*
X244156895Y-82620392D01*
X244195600Y-82542982D01*
X244234304Y-82504278D01*
X244350419Y-82426868D01*
X244505238Y-82388163D01*
X244814876Y-82388163D01*
X244892285Y-82426868D01*
X244930990Y-82465573D01*
X244969695Y-82542982D01*
X244969695Y-82697801D01*
X244930990Y-82775211D01*
X244892285Y-82813916D01*
X244814876Y-82852620D01*
X244621352Y-82852620D01*
X244543942Y-82813916D01*
X244505238Y-82775211D01*
X244466533Y-82697801D01*
X244466533Y-82542982D01*
X244505238Y-82465573D01*
X244543942Y-82426868D01*
X244621352Y-82388163D01*
%TO.C,R5*%
X235518474Y-109587695D02*
X235789407Y-109200647D01*
X235982931Y-109587695D02*
X235982931Y-108774895D01*
X235673293Y-108774895D01*
X235595883Y-108813600D01*
X235557179Y-108852304D01*
X235518474Y-108929714D01*
X235518474Y-109045828D01*
X235557179Y-109123238D01*
X235595883Y-109161942D01*
X235673293Y-109200647D01*
X235982931Y-109200647D01*
X234783083Y-108774895D02*
X235170131Y-108774895D01*
X235208836Y-109161942D01*
X235170131Y-109123238D01*
X235092721Y-109084533D01*
X234899198Y-109084533D01*
X234821788Y-109123238D01*
X234783083Y-109161942D01*
X234744379Y-109239352D01*
X234744379Y-109432876D01*
X234783083Y-109510285D01*
X234821788Y-109548990D01*
X234899198Y-109587695D01*
X235092721Y-109587695D01*
X235170131Y-109548990D01*
X235208836Y-109510285D01*
%TO.C,R4*%
X240676974Y-109587695D02*
X240947907Y-109200647D01*
X241141431Y-109587695D02*
X241141431Y-108774895D01*
X240831793Y-108774895D01*
X240754383Y-108813600D01*
X240715679Y-108852304D01*
X240676974Y-108929714D01*
X240676974Y-109045828D01*
X240715679Y-109123238D01*
X240754383Y-109161942D01*
X240831793Y-109200647D01*
X241141431Y-109200647D01*
X239980288Y-109045828D02*
X239980288Y-109587695D01*
X240173812Y-108736190D02*
X240367336Y-109316761D01*
X239864174Y-109316761D01*
%TO.C,R3*%
X247001695Y-73345525D02*
X246614647Y-73074592D01*
X247001695Y-72881068D02*
X246188895Y-72881068D01*
X246188895Y-73190706D01*
X246227600Y-73268116D01*
X246266304Y-73306820D01*
X246343714Y-73345525D01*
X246459828Y-73345525D01*
X246537238Y-73306820D01*
X246575942Y-73268116D01*
X246614647Y-73190706D01*
X246614647Y-72881068D01*
X246188895Y-73616459D02*
X246188895Y-74119620D01*
X246498533Y-73848687D01*
X246498533Y-73964801D01*
X246537238Y-74042211D01*
X246575942Y-74080916D01*
X246653352Y-74119620D01*
X246846876Y-74119620D01*
X246924285Y-74080916D01*
X246962990Y-74042211D01*
X247001695Y-73964801D01*
X247001695Y-73732573D01*
X246962990Y-73655163D01*
X246924285Y-73616459D01*
%TO.C,R2*%
X220610974Y-50056445D02*
X220881907Y-49669397D01*
X221075431Y-50056445D02*
X221075431Y-49243645D01*
X220765793Y-49243645D01*
X220688383Y-49282350D01*
X220649679Y-49321054D01*
X220610974Y-49398464D01*
X220610974Y-49514578D01*
X220649679Y-49591988D01*
X220688383Y-49630692D01*
X220765793Y-49669397D01*
X221075431Y-49669397D01*
X220301336Y-49321054D02*
X220262631Y-49282350D01*
X220185221Y-49243645D01*
X219991698Y-49243645D01*
X219914288Y-49282350D01*
X219875583Y-49321054D01*
X219836879Y-49398464D01*
X219836879Y-49475873D01*
X219875583Y-49591988D01*
X220340040Y-50056445D01*
X219836879Y-50056445D01*
%TO.C,F1*%
X222053383Y-70299942D02*
X222324317Y-70299942D01*
X222324317Y-70725695D02*
X222324317Y-69912895D01*
X221937269Y-69912895D01*
X221201879Y-70725695D02*
X221666336Y-70725695D01*
X221434107Y-70725695D02*
X221434107Y-69912895D01*
X221511517Y-70029009D01*
X221588926Y-70106419D01*
X221666336Y-70145123D01*
%TO.C,C19*%
X119670285Y-115438040D02*
X119708990Y-115399336D01*
X119747695Y-115283221D01*
X119747695Y-115205812D01*
X119708990Y-115089698D01*
X119631580Y-115012288D01*
X119554171Y-114973583D01*
X119399352Y-114934879D01*
X119283238Y-114934879D01*
X119128419Y-114973583D01*
X119051009Y-115012288D01*
X118973600Y-115089698D01*
X118934895Y-115205812D01*
X118934895Y-115283221D01*
X118973600Y-115399336D01*
X119012304Y-115438040D01*
X119747695Y-116212136D02*
X119747695Y-115747679D01*
X119747695Y-115979907D02*
X118934895Y-115979907D01*
X119051009Y-115902498D01*
X119128419Y-115825088D01*
X119167123Y-115747679D01*
X119747695Y-116599183D02*
X119747695Y-116754002D01*
X119708990Y-116831412D01*
X119670285Y-116870117D01*
X119554171Y-116947526D01*
X119399352Y-116986231D01*
X119089714Y-116986231D01*
X119012304Y-116947526D01*
X118973600Y-116908821D01*
X118934895Y-116831412D01*
X118934895Y-116676593D01*
X118973600Y-116599183D01*
X119012304Y-116560479D01*
X119089714Y-116521774D01*
X119283238Y-116521774D01*
X119360647Y-116560479D01*
X119399352Y-116599183D01*
X119438057Y-116676593D01*
X119438057Y-116831412D01*
X119399352Y-116908821D01*
X119360647Y-116947526D01*
X119283238Y-116986231D01*
%TO.C,C18*%
X234847069Y-90714285D02*
X234885774Y-90752990D01*
X235001888Y-90791695D01*
X235079298Y-90791695D01*
X235195412Y-90752990D01*
X235272821Y-90675580D01*
X235311526Y-90598171D01*
X235350231Y-90443352D01*
X235350231Y-90327238D01*
X235311526Y-90172419D01*
X235272821Y-90095009D01*
X235195412Y-90017600D01*
X235079298Y-89978895D01*
X235001888Y-89978895D01*
X234885774Y-90017600D01*
X234847069Y-90056304D01*
X234072974Y-90791695D02*
X234537431Y-90791695D01*
X234305202Y-90791695D02*
X234305202Y-89978895D01*
X234382612Y-90095009D01*
X234460021Y-90172419D01*
X234537431Y-90211123D01*
X233608517Y-90327238D02*
X233685926Y-90288533D01*
X233724631Y-90249828D01*
X233763336Y-90172419D01*
X233763336Y-90133714D01*
X233724631Y-90056304D01*
X233685926Y-90017600D01*
X233608517Y-89978895D01*
X233453698Y-89978895D01*
X233376288Y-90017600D01*
X233337583Y-90056304D01*
X233298879Y-90133714D01*
X233298879Y-90172419D01*
X233337583Y-90249828D01*
X233376288Y-90288533D01*
X233453698Y-90327238D01*
X233608517Y-90327238D01*
X233685926Y-90365942D01*
X233724631Y-90404647D01*
X233763336Y-90482057D01*
X233763336Y-90636876D01*
X233724631Y-90714285D01*
X233685926Y-90752990D01*
X233608517Y-90791695D01*
X233453698Y-90791695D01*
X233376288Y-90752990D01*
X233337583Y-90714285D01*
X233298879Y-90636876D01*
X233298879Y-90482057D01*
X233337583Y-90404647D01*
X233376288Y-90365942D01*
X233453698Y-90327238D01*
%TO.C,C17*%
X176566285Y-96134040D02*
X176604990Y-96095336D01*
X176643695Y-95979221D01*
X176643695Y-95901812D01*
X176604990Y-95785698D01*
X176527580Y-95708288D01*
X176450171Y-95669583D01*
X176295352Y-95630879D01*
X176179238Y-95630879D01*
X176024419Y-95669583D01*
X175947009Y-95708288D01*
X175869600Y-95785698D01*
X175830895Y-95901812D01*
X175830895Y-95979221D01*
X175869600Y-96095336D01*
X175908304Y-96134040D01*
X176643695Y-96908136D02*
X176643695Y-96443679D01*
X176643695Y-96675907D02*
X175830895Y-96675907D01*
X175947009Y-96598498D01*
X176024419Y-96521088D01*
X176063123Y-96443679D01*
X175830895Y-97179069D02*
X175830895Y-97720936D01*
X176643695Y-97372593D01*
%TO.C,C16*%
X138466285Y-96642040D02*
X138504990Y-96603336D01*
X138543695Y-96487221D01*
X138543695Y-96409812D01*
X138504990Y-96293698D01*
X138427580Y-96216288D01*
X138350171Y-96177583D01*
X138195352Y-96138879D01*
X138079238Y-96138879D01*
X137924419Y-96177583D01*
X137847009Y-96216288D01*
X137769600Y-96293698D01*
X137730895Y-96409812D01*
X137730895Y-96487221D01*
X137769600Y-96603336D01*
X137808304Y-96642040D01*
X138543695Y-97416136D02*
X138543695Y-96951679D01*
X138543695Y-97183907D02*
X137730895Y-97183907D01*
X137847009Y-97106498D01*
X137924419Y-97029088D01*
X137963123Y-96951679D01*
X137730895Y-98112821D02*
X137730895Y-97958002D01*
X137769600Y-97880593D01*
X137808304Y-97841888D01*
X137924419Y-97764479D01*
X138079238Y-97725774D01*
X138388876Y-97725774D01*
X138466285Y-97764479D01*
X138504990Y-97803183D01*
X138543695Y-97880593D01*
X138543695Y-98035412D01*
X138504990Y-98112821D01*
X138466285Y-98151526D01*
X138388876Y-98190231D01*
X138195352Y-98190231D01*
X138117942Y-98151526D01*
X138079238Y-98112821D01*
X138040533Y-98035412D01*
X138040533Y-97880593D01*
X138079238Y-97803183D01*
X138117942Y-97764479D01*
X138195352Y-97725774D01*
%TO.C,C14*%
X224318285Y-77338040D02*
X224356990Y-77299336D01*
X224395695Y-77183221D01*
X224395695Y-77105812D01*
X224356990Y-76989698D01*
X224279580Y-76912288D01*
X224202171Y-76873583D01*
X224047352Y-76834879D01*
X223931238Y-76834879D01*
X223776419Y-76873583D01*
X223699009Y-76912288D01*
X223621600Y-76989698D01*
X223582895Y-77105812D01*
X223582895Y-77183221D01*
X223621600Y-77299336D01*
X223660304Y-77338040D01*
X224395695Y-78112136D02*
X224395695Y-77647679D01*
X224395695Y-77879907D02*
X223582895Y-77879907D01*
X223699009Y-77802498D01*
X223776419Y-77725088D01*
X223815123Y-77647679D01*
X223853828Y-78808821D02*
X224395695Y-78808821D01*
X223544190Y-78615298D02*
X224124761Y-78421774D01*
X224124761Y-78924936D01*
%TO.C,C13*%
X176566285Y-77338040D02*
X176604990Y-77299336D01*
X176643695Y-77183221D01*
X176643695Y-77105812D01*
X176604990Y-76989698D01*
X176527580Y-76912288D01*
X176450171Y-76873583D01*
X176295352Y-76834879D01*
X176179238Y-76834879D01*
X176024419Y-76873583D01*
X175947009Y-76912288D01*
X175869600Y-76989698D01*
X175830895Y-77105812D01*
X175830895Y-77183221D01*
X175869600Y-77299336D01*
X175908304Y-77338040D01*
X176643695Y-78112136D02*
X176643695Y-77647679D01*
X176643695Y-77879907D02*
X175830895Y-77879907D01*
X175947009Y-77802498D01*
X176024419Y-77725088D01*
X176063123Y-77647679D01*
X175830895Y-78383069D02*
X175830895Y-78886231D01*
X176140533Y-78615298D01*
X176140533Y-78731412D01*
X176179238Y-78808821D01*
X176217942Y-78847526D01*
X176295352Y-78886231D01*
X176488876Y-78886231D01*
X176566285Y-78847526D01*
X176604990Y-78808821D01*
X176643695Y-78731412D01*
X176643695Y-78499183D01*
X176604990Y-78421774D01*
X176566285Y-78383069D01*
%TO.C,C12*%
X138466285Y-77338040D02*
X138504990Y-77299336D01*
X138543695Y-77183221D01*
X138543695Y-77105812D01*
X138504990Y-76989698D01*
X138427580Y-76912288D01*
X138350171Y-76873583D01*
X138195352Y-76834879D01*
X138079238Y-76834879D01*
X137924419Y-76873583D01*
X137847009Y-76912288D01*
X137769600Y-76989698D01*
X137730895Y-77105812D01*
X137730895Y-77183221D01*
X137769600Y-77299336D01*
X137808304Y-77338040D01*
X138543695Y-78112136D02*
X138543695Y-77647679D01*
X138543695Y-77879907D02*
X137730895Y-77879907D01*
X137847009Y-77802498D01*
X137924419Y-77725088D01*
X137963123Y-77647679D01*
X137808304Y-78421774D02*
X137769600Y-78460479D01*
X137730895Y-78537888D01*
X137730895Y-78731412D01*
X137769600Y-78808821D01*
X137808304Y-78847526D01*
X137885714Y-78886231D01*
X137963123Y-78886231D01*
X138079238Y-78847526D01*
X138543695Y-78383069D01*
X138543695Y-78886231D01*
%TO.C,C11*%
X224318285Y-58542040D02*
X224356990Y-58503336D01*
X224395695Y-58387221D01*
X224395695Y-58309812D01*
X224356990Y-58193698D01*
X224279580Y-58116288D01*
X224202171Y-58077583D01*
X224047352Y-58038879D01*
X223931238Y-58038879D01*
X223776419Y-58077583D01*
X223699009Y-58116288D01*
X223621600Y-58193698D01*
X223582895Y-58309812D01*
X223582895Y-58387221D01*
X223621600Y-58503336D01*
X223660304Y-58542040D01*
X224395695Y-59316136D02*
X224395695Y-58851679D01*
X224395695Y-59083907D02*
X223582895Y-59083907D01*
X223699009Y-59006498D01*
X223776419Y-58929088D01*
X223815123Y-58851679D01*
X224395695Y-60090231D02*
X224395695Y-59625774D01*
X224395695Y-59858002D02*
X223582895Y-59858002D01*
X223699009Y-59780593D01*
X223776419Y-59703183D01*
X223815123Y-59625774D01*
%TO.C,C10*%
X176566285Y-58542040D02*
X176604990Y-58503336D01*
X176643695Y-58387221D01*
X176643695Y-58309812D01*
X176604990Y-58193698D01*
X176527580Y-58116288D01*
X176450171Y-58077583D01*
X176295352Y-58038879D01*
X176179238Y-58038879D01*
X176024419Y-58077583D01*
X175947009Y-58116288D01*
X175869600Y-58193698D01*
X175830895Y-58309812D01*
X175830895Y-58387221D01*
X175869600Y-58503336D01*
X175908304Y-58542040D01*
X176643695Y-59316136D02*
X176643695Y-58851679D01*
X176643695Y-59083907D02*
X175830895Y-59083907D01*
X175947009Y-59006498D01*
X176024419Y-58929088D01*
X176063123Y-58851679D01*
X175830895Y-59819298D02*
X175830895Y-59896707D01*
X175869600Y-59974117D01*
X175908304Y-60012821D01*
X175985714Y-60051526D01*
X176140533Y-60090231D01*
X176334057Y-60090231D01*
X176488876Y-60051526D01*
X176566285Y-60012821D01*
X176604990Y-59974117D01*
X176643695Y-59896707D01*
X176643695Y-59819298D01*
X176604990Y-59741888D01*
X176566285Y-59703183D01*
X176488876Y-59664479D01*
X176334057Y-59625774D01*
X176140533Y-59625774D01*
X175985714Y-59664479D01*
X175908304Y-59703183D01*
X175869600Y-59741888D01*
X175830895Y-59819298D01*
%TO.C,C9*%
X138466285Y-58034040D02*
X138504990Y-57995336D01*
X138543695Y-57879221D01*
X138543695Y-57801812D01*
X138504990Y-57685698D01*
X138427580Y-57608288D01*
X138350171Y-57569583D01*
X138195352Y-57530879D01*
X138079238Y-57530879D01*
X137924419Y-57569583D01*
X137847009Y-57608288D01*
X137769600Y-57685698D01*
X137730895Y-57801812D01*
X137730895Y-57879221D01*
X137769600Y-57995336D01*
X137808304Y-58034040D01*
X138543695Y-58421088D02*
X138543695Y-58575907D01*
X138504990Y-58653317D01*
X138466285Y-58692021D01*
X138350171Y-58769431D01*
X138195352Y-58808136D01*
X137885714Y-58808136D01*
X137808304Y-58769431D01*
X137769600Y-58730726D01*
X137730895Y-58653317D01*
X137730895Y-58498498D01*
X137769600Y-58421088D01*
X137808304Y-58382383D01*
X137885714Y-58343679D01*
X138079238Y-58343679D01*
X138156647Y-58382383D01*
X138195352Y-58421088D01*
X138234057Y-58498498D01*
X138234057Y-58653317D01*
X138195352Y-58730726D01*
X138156647Y-58769431D01*
X138079238Y-58808136D01*
%TO.C,C8*%
X213142285Y-74791025D02*
X213180990Y-74752320D01*
X213219695Y-74636206D01*
X213219695Y-74558797D01*
X213180990Y-74442682D01*
X213103580Y-74365273D01*
X213026171Y-74326568D01*
X212871352Y-74287863D01*
X212755238Y-74287863D01*
X212600419Y-74326568D01*
X212523009Y-74365273D01*
X212445600Y-74442682D01*
X212406895Y-74558797D01*
X212406895Y-74636206D01*
X212445600Y-74752320D01*
X212484304Y-74791025D01*
X212755238Y-75255482D02*
X212716533Y-75178073D01*
X212677828Y-75139368D01*
X212600419Y-75100663D01*
X212561714Y-75100663D01*
X212484304Y-75139368D01*
X212445600Y-75178073D01*
X212406895Y-75255482D01*
X212406895Y-75410301D01*
X212445600Y-75487711D01*
X212484304Y-75526416D01*
X212561714Y-75565120D01*
X212600419Y-75565120D01*
X212677828Y-75526416D01*
X212716533Y-75487711D01*
X212755238Y-75410301D01*
X212755238Y-75255482D01*
X212793942Y-75178073D01*
X212832647Y-75139368D01*
X212910057Y-75100663D01*
X213064876Y-75100663D01*
X213142285Y-75139368D01*
X213180990Y-75178073D01*
X213219695Y-75255482D01*
X213219695Y-75410301D01*
X213180990Y-75487711D01*
X213142285Y-75526416D01*
X213064876Y-75565120D01*
X212910057Y-75565120D01*
X212832647Y-75526416D01*
X212793942Y-75487711D01*
X212755238Y-75410301D01*
%TO.C,C7*%
X160405959Y-107478285D02*
X160444663Y-107516990D01*
X160560778Y-107555695D01*
X160638187Y-107555695D01*
X160754301Y-107516990D01*
X160831711Y-107439580D01*
X160870416Y-107362171D01*
X160909120Y-107207352D01*
X160909120Y-107091238D01*
X160870416Y-106936419D01*
X160831711Y-106859009D01*
X160754301Y-106781600D01*
X160638187Y-106742895D01*
X160560778Y-106742895D01*
X160444663Y-106781600D01*
X160405959Y-106820304D01*
X160135025Y-106742895D02*
X159593159Y-106742895D01*
X159941501Y-107555695D01*
%TO.C,C15*%
X246590459Y-110272285D02*
X246629163Y-110310990D01*
X246745278Y-110349695D01*
X246822687Y-110349695D01*
X246938801Y-110310990D01*
X247016211Y-110233580D01*
X247054916Y-110156171D01*
X247093620Y-110001352D01*
X247093620Y-109885238D01*
X247054916Y-109730419D01*
X247016211Y-109653009D01*
X246938801Y-109575600D01*
X246822687Y-109536895D01*
X246745278Y-109536895D01*
X246629163Y-109575600D01*
X246590459Y-109614304D01*
X245816363Y-110349695D02*
X246280820Y-110349695D01*
X246048592Y-110349695D02*
X246048592Y-109536895D01*
X246126001Y-109653009D01*
X246203411Y-109730419D01*
X246280820Y-109769123D01*
X245080973Y-109536895D02*
X245468020Y-109536895D01*
X245506725Y-109923942D01*
X245468020Y-109885238D01*
X245390611Y-109846533D01*
X245197087Y-109846533D01*
X245119678Y-109885238D01*
X245080973Y-109923942D01*
X245042268Y-110001352D01*
X245042268Y-110194876D01*
X245080973Y-110272285D01*
X245119678Y-110310990D01*
X245197087Y-110349695D01*
X245390611Y-110349695D01*
X245468020Y-110310990D01*
X245506725Y-110272285D01*
%TO.C,C6*%
X241082285Y-102301525D02*
X241120990Y-102262820D01*
X241159695Y-102146706D01*
X241159695Y-102069297D01*
X241120990Y-101953182D01*
X241043580Y-101875773D01*
X240966171Y-101837068D01*
X240811352Y-101798363D01*
X240695238Y-101798363D01*
X240540419Y-101837068D01*
X240463009Y-101875773D01*
X240385600Y-101953182D01*
X240346895Y-102069297D01*
X240346895Y-102146706D01*
X240385600Y-102262820D01*
X240424304Y-102301525D01*
X240346895Y-102998211D02*
X240346895Y-102843392D01*
X240385600Y-102765982D01*
X240424304Y-102727278D01*
X240540419Y-102649868D01*
X240695238Y-102611163D01*
X241004876Y-102611163D01*
X241082285Y-102649868D01*
X241120990Y-102688573D01*
X241159695Y-102765982D01*
X241159695Y-102920801D01*
X241120990Y-102998211D01*
X241082285Y-103036916D01*
X241004876Y-103075620D01*
X240811352Y-103075620D01*
X240733942Y-103036916D01*
X240695238Y-102998211D01*
X240656533Y-102920801D01*
X240656533Y-102765982D01*
X240695238Y-102688573D01*
X240733942Y-102649868D01*
X240811352Y-102611163D01*
%TO.C,C5*%
X256600474Y-87920285D02*
X256639179Y-87958990D01*
X256755293Y-87997695D01*
X256832702Y-87997695D01*
X256948817Y-87958990D01*
X257026226Y-87881580D01*
X257064931Y-87804171D01*
X257103636Y-87649352D01*
X257103636Y-87533238D01*
X257064931Y-87378419D01*
X257026226Y-87301009D01*
X256948817Y-87223600D01*
X256832702Y-87184895D01*
X256755293Y-87184895D01*
X256639179Y-87223600D01*
X256600474Y-87262304D01*
X255865083Y-87184895D02*
X256252131Y-87184895D01*
X256290836Y-87571942D01*
X256252131Y-87533238D01*
X256174721Y-87494533D01*
X255981198Y-87494533D01*
X255903788Y-87533238D01*
X255865083Y-87571942D01*
X255826379Y-87649352D01*
X255826379Y-87842876D01*
X255865083Y-87920285D01*
X255903788Y-87958990D01*
X255981198Y-87997695D01*
X256174721Y-87997695D01*
X256252131Y-87958990D01*
X256290836Y-87920285D01*
%TO.C,C4*%
X255433285Y-107176025D02*
X255471990Y-107137320D01*
X255510695Y-107021206D01*
X255510695Y-106943797D01*
X255471990Y-106827682D01*
X255394580Y-106750273D01*
X255317171Y-106711568D01*
X255162352Y-106672863D01*
X255046238Y-106672863D01*
X254891419Y-106711568D01*
X254814009Y-106750273D01*
X254736600Y-106827682D01*
X254697895Y-106943797D01*
X254697895Y-107021206D01*
X254736600Y-107137320D01*
X254775304Y-107176025D01*
X254968828Y-107872711D02*
X255510695Y-107872711D01*
X254659190Y-107679187D02*
X255239761Y-107485663D01*
X255239761Y-107988825D01*
%TO.C,C3*%
X241844285Y-96466540D02*
X241882990Y-96427836D01*
X241921695Y-96311721D01*
X241921695Y-96234312D01*
X241882990Y-96118198D01*
X241805580Y-96040788D01*
X241728171Y-96002083D01*
X241573352Y-95963379D01*
X241457238Y-95963379D01*
X241302419Y-96002083D01*
X241225009Y-96040788D01*
X241147600Y-96118198D01*
X241108895Y-96234312D01*
X241108895Y-96311721D01*
X241147600Y-96427836D01*
X241186304Y-96466540D01*
X241108895Y-96737474D02*
X241108895Y-97240636D01*
X241418533Y-96969702D01*
X241418533Y-97085817D01*
X241457238Y-97163226D01*
X241495942Y-97201931D01*
X241573352Y-97240636D01*
X241766876Y-97240636D01*
X241844285Y-97201931D01*
X241882990Y-97163226D01*
X241921695Y-97085817D01*
X241921695Y-96853588D01*
X241882990Y-96776179D01*
X241844285Y-96737474D01*
%TO.C,C2*%
X254544285Y-82157025D02*
X254582990Y-82118320D01*
X254621695Y-82002206D01*
X254621695Y-81924797D01*
X254582990Y-81808682D01*
X254505580Y-81731273D01*
X254428171Y-81692568D01*
X254273352Y-81653863D01*
X254157238Y-81653863D01*
X254002419Y-81692568D01*
X253925009Y-81731273D01*
X253847600Y-81808682D01*
X253808895Y-81924797D01*
X253808895Y-82002206D01*
X253847600Y-82118320D01*
X253886304Y-82157025D01*
X253886304Y-82466663D02*
X253847600Y-82505368D01*
X253808895Y-82582778D01*
X253808895Y-82776301D01*
X253847600Y-82853711D01*
X253886304Y-82892416D01*
X253963714Y-82931120D01*
X254041123Y-82931120D01*
X254157238Y-82892416D01*
X254621695Y-82427959D01*
X254621695Y-82931120D01*
%TO.C,C1*%
X247432285Y-86736040D02*
X247470990Y-86697336D01*
X247509695Y-86581221D01*
X247509695Y-86503812D01*
X247470990Y-86387698D01*
X247393580Y-86310288D01*
X247316171Y-86271583D01*
X247161352Y-86232879D01*
X247045238Y-86232879D01*
X246890419Y-86271583D01*
X246813009Y-86310288D01*
X246735600Y-86387698D01*
X246696895Y-86503812D01*
X246696895Y-86581221D01*
X246735600Y-86697336D01*
X246774304Y-86736040D01*
X247509695Y-87510136D02*
X247509695Y-87045679D01*
X247509695Y-87277907D02*
X246696895Y-87277907D01*
X246813009Y-87200498D01*
X246890419Y-87123088D01*
X246929123Y-87045679D01*
%TD*%
M02*
