M48
; DRILL file {KiCad (5.1.9-0-10_14)} date Thursday, January 21, 2021 at 02:36:34 PM
; FORMAT={-:-/ absolute / inch / decimal}
; #@! TF.CreationDate,2021-01-21T14:36:34+08:00
; #@! TF.GenerationSoftware,Kicad,Pcbnew,(5.1.9-0-10_14)
; #@! TF.FileFunction,Plated,1,2,PTH
FMAT,2
INCH
T1C0.0118
T2C0.0157
T3C0.0236
T4C0.0315
T5C0.0394
T6C0.0591
T7C0.0906
%
G90
G05
T1
X4.0376Y-2.1004
X4.0376Y-2.1871
X4.0376Y-2.8504
X4.0376Y-2.9371
X4.0376Y-3.6004
X4.0376Y-3.6871
X4.0376Y-4.3504
X4.0376Y-4.4371
X4.0652Y-2.1437
X4.0652Y-2.8937
X4.0652Y-3.6437
X4.0652Y-4.3937
X4.1857Y-2.665
X4.1857Y-3.405
X4.1857Y-4.165
X4.1857Y-4.905
X4.255Y-2.695
X4.255Y-3.435
X4.255Y-4.195
X4.255Y-4.935
X4.3723Y-2.1437
X4.3723Y-2.8937
X4.3723Y-3.6437
X4.3723Y-4.3937
X4.3999Y-2.1004
X4.3999Y-2.1871
X4.3999Y-2.8504
X4.3999Y-2.9371
X4.3999Y-3.6004
X4.3999Y-3.6871
X4.3999Y-4.3504
X4.3999Y-4.4371
X4.4126Y-3.4254
X4.4126Y-3.5121
X4.4402Y-3.4688
X4.685Y-4.465
X4.715Y-4.455
X4.7473Y-3.4688
X4.7749Y-3.4254
X4.7749Y-3.5121
X4.7876Y-2.1004
X4.7876Y-2.1871
X4.7876Y-2.8504
X4.7876Y-2.9371
X4.7876Y-3.6004
X4.7876Y-3.6871
X4.7876Y-4.3504
X4.7876Y-4.4371
X4.8152Y-2.1437
X4.8152Y-2.8937
X4.8152Y-3.6437
X4.8152Y-4.3937
X4.9257Y-3.405
X4.9257Y-4.165
X4.9257Y-4.905
X4.9457Y-2.665
X4.995Y-3.435
X4.995Y-4.195
X4.995Y-4.935
X5.015Y-2.695
X5.1223Y-2.1437
X5.1223Y-2.8937
X5.1223Y-3.6437
X5.1223Y-4.3937
X5.1499Y-2.1004
X5.1499Y-2.1871
X5.1499Y-2.8504
X5.1499Y-2.9371
X5.1499Y-3.6004
X5.1499Y-3.6871
X5.1499Y-4.3504
X5.1499Y-4.4371
X5.425Y-2.205
X5.425Y-2.965
X5.425Y-3.725
X5.455Y-2.195
X5.455Y-2.955
X5.455Y-3.715
X5.5376Y-2.1004
X5.5376Y-2.1871
X5.5376Y-2.8504
X5.5376Y-2.9371
X5.5376Y-3.6004
X5.5376Y-3.6871
X5.5376Y-4.3504
X5.5376Y-4.4371
X5.5652Y-2.1437
X5.5652Y-2.8937
X5.5652Y-3.6437
X5.5652Y-4.3937
X5.6857Y-2.665
X5.6857Y-3.405
X5.6857Y-4.165
X5.6857Y-4.905
X5.755Y-2.695
X5.755Y-3.435
X5.755Y-4.195
X5.755Y-4.935
X5.8723Y-2.1437
X5.8723Y-2.8937
X5.8723Y-3.6437
X5.8723Y-4.3937
X5.8999Y-2.1004
X5.8999Y-2.1871
X5.8999Y-2.8504
X5.8999Y-2.9371
X5.8999Y-3.6004
X5.8999Y-3.6871
X5.8999Y-4.3504
X5.8999Y-4.4371
X5.9126Y-4.1754
X5.9126Y-4.2621
X5.9402Y-4.2188
X6.2473Y-4.2188
X6.2749Y-4.1754
X6.2749Y-4.2621
X6.2876Y-2.1004
X6.2876Y-2.1871
X6.2876Y-2.8504
X6.2876Y-2.9371
X6.2876Y-3.6004
X6.2876Y-3.6871
X6.2876Y-4.3504
X6.2876Y-4.4371
X6.3152Y-2.1437
X6.3152Y-2.8937
X6.3152Y-3.6437
X6.3152Y-4.3937
X6.395Y-4.205
X6.405Y-4.235
X6.4257Y-2.665
X6.4257Y-3.405
X6.4457Y-4.905
X6.495Y-2.695
X6.495Y-3.435
X6.515Y-4.935
X6.5657Y-4.185
X6.6223Y-2.1437
X6.6223Y-2.8937
X6.6223Y-3.6437
X6.6223Y-4.3937
X6.635Y-4.215
X6.6499Y-2.1004
X6.6499Y-2.1871
X6.6499Y-2.8504
X6.6499Y-2.9371
X6.6499Y-3.6004
X6.6499Y-3.6871
X6.6499Y-4.3504
X6.6499Y-4.4371
X6.6626Y-2.6754
X6.6626Y-2.7621
X6.6902Y-2.7188
X6.925Y-2.225
X6.925Y-2.965
X6.925Y-3.705
X6.955Y-2.215
X6.955Y-2.955
X6.955Y-3.695
X6.9973Y-2.7188
X7.0249Y-2.6754
X7.0249Y-2.7621
X7.0376Y-2.1004
X7.0376Y-2.1871
X7.0376Y-2.8504
X7.0376Y-2.9371
X7.0376Y-3.6004
X7.0376Y-3.6871
X7.0376Y-4.3504
X7.0376Y-4.4371
X7.0652Y-2.1437
X7.0652Y-2.8937
X7.0652Y-3.6437
X7.0652Y-4.3937
X7.1857Y-2.665
X7.1857Y-3.405
X7.1857Y-4.165
X7.1857Y-4.905
X7.255Y-2.695
X7.255Y-3.435
X7.255Y-4.195
X7.255Y-4.935
X7.3723Y-2.1437
X7.3723Y-2.8937
X7.3723Y-3.6437
X7.3723Y-4.3937
X7.3999Y-2.1004
X7.3999Y-2.1871
X7.3999Y-2.8504
X7.3999Y-2.9371
X7.3999Y-3.6004
X7.3999Y-3.6871
X7.3999Y-4.3504
X7.3999Y-4.4371
X7.6457Y-4.245
X7.715Y-4.275
X7.7876Y-2.1004
X7.7876Y-2.1871
X7.7876Y-2.8504
X7.7876Y-2.9371
X7.7876Y-3.6004
X7.7876Y-3.6871
X7.8152Y-2.1437
X7.8152Y-2.8937
X7.8152Y-3.6437
X7.9257Y-2.665
X7.9457Y-3.405
X7.995Y-2.695
X8.015Y-3.435
X8.1223Y-2.1437
X8.1223Y-2.8937
X8.1223Y-3.6437
X8.1499Y-2.1004
X8.1499Y-2.1871
X8.1499Y-2.8504
X8.1499Y-2.9371
X8.1499Y-3.6004
X8.1499Y-3.6871
X8.1626Y-4.3504
X8.1626Y-4.4371
X8.1902Y-4.3937
X8.3057Y-4.905
X8.365Y-3.045
X8.375Y-4.935
X8.3815Y-2.53
X8.385Y-3.485
X8.395Y-3.035
X8.4031Y-2.4906
X8.4031Y-2.5694
X8.4405Y-2.5182
X8.4419Y-1.9412
X8.4519Y-1.9712
X8.4543Y-3.515
X8.4879Y-2.9126
X8.4879Y-3.2749
X8.4973Y-4.3937
X8.5249Y-4.3504
X8.5249Y-4.4371
X8.5312Y-2.9402
X8.5312Y-3.2473
X8.5746Y-2.9126
X8.5746Y-3.2749
X8.585Y-1.9412
X8.595Y-1.9712
X8.598Y-2.746
X8.6295Y-2.5182
X8.6417Y-2.794
X8.6669Y-2.4906
X8.6669Y-2.5694
X8.6885Y-2.53
X8.805Y-2.225
X8.805Y-2.965
X8.835Y-2.215
X8.835Y-2.955
X8.9126Y-2.1004
X8.9126Y-2.1871
X8.9126Y-2.8504
X8.9126Y-2.9371
X8.9402Y-2.1437
X8.9402Y-2.8937
X9.0657Y-2.665
X9.0657Y-3.405
X9.0767Y-3.6589
X9.0767Y-4.0211
X9.115Y-3.545
X9.12Y-3.6865
X9.12Y-3.9935
X9.125Y-3.575
X9.135Y-2.695
X9.135Y-3.435
X9.1633Y-3.6589
X9.1633Y-4.0211
X9.1719Y-4.285
X9.1819Y-4.315
X9.2473Y-2.1437
X9.2473Y-2.8937
X9.2749Y-2.1004
X9.2749Y-2.1871
X9.2749Y-2.8504
X9.2749Y-2.9371
X9.375Y-4.285
X9.385Y-4.315
X9.465Y-4.1281
X9.495Y-3.7181
X9.495Y-4.1181
X9.525Y-3.7081
X9.615Y-3.3319
X9.645Y-3.3219
X9.695Y-2.9881
X9.715Y-3.335
X9.725Y-2.9781
X9.745Y-3.325
X9.7881Y-4.315
X9.7981Y-4.345
X9.8503Y-3.2276
X9.8582Y-3.4048
X9.8818Y-3.2552
X9.9015Y-3.4166
X9.995Y-3.335
X10.0019Y-3.435
X10.0119Y-3.465
X10.025Y-3.325
X10.1319Y-4.215
X10.1419Y-4.245
T2
X3.78Y-2.05
X3.78Y-2.82
X3.78Y-3.77
X3.81Y-3.53
X3.81Y-4.37
X3.8214Y-2.24
X3.83Y-2.87
X3.845Y-3.6
X3.85Y-2.1
X3.85Y-2.94
X3.85Y-4.435
X3.9087Y-2.3737
X3.9087Y-2.5137
X3.9087Y-3.1237
X3.9087Y-3.2637
X3.9087Y-3.8737
X3.9087Y-4.0137
X3.9087Y-4.6238
X3.9087Y-4.7637
X3.9438Y-2.6138
X3.9438Y-3.3638
X3.9438Y-4.1137
X3.9438Y-4.8637
X3.9638Y-2.3737
X3.9638Y-3.1237
X3.9638Y-3.8737
X3.9638Y-4.6238
X3.99Y-3.77
X3.9987Y-2.6138
X3.9987Y-3.3638
X3.9987Y-4.1137
X3.9987Y-4.8637
X4.0298Y-2.58
X4.0298Y-3.33
X4.0298Y-4.08
X4.0298Y-4.83
X4.34Y-3.54
X4.4077Y-2.58
X4.4077Y-3.33
X4.4077Y-4.08
X4.4077Y-4.83
X4.4387Y-2.6138
X4.4387Y-3.3638
X4.4387Y-4.1137
X4.4387Y-4.8637
X4.4737Y-2.3737
X4.4737Y-3.1237
X4.4737Y-3.8737
X4.4737Y-4.6238
X4.475Y-4.9851
X4.48Y-3.56
X4.4937Y-2.6138
X4.4937Y-3.3638
X4.4937Y-4.1137
X4.4937Y-4.8637
X4.5287Y-2.3737
X4.5287Y-2.5137
X4.5287Y-3.1237
X4.5287Y-3.2637
X4.5287Y-3.8737
X4.5287Y-4.0137
X4.5287Y-4.6238
X4.5287Y-4.7637
X4.5347Y-2.7188
X4.5347Y-4.2188
X4.552Y-2.677
X4.552Y-2.7605
X4.552Y-4.177
X4.552Y-4.2605
X4.59Y-3.58
X4.5938Y-2.6597
X4.5938Y-2.7778
X4.5938Y-4.1597
X4.5938Y-4.2778
X4.6355Y-2.677
X4.6355Y-2.7605
X4.6355Y-4.177
X4.6355Y-4.2605
X4.6528Y-2.7188
X4.6528Y-4.2188
X4.6587Y-2.3737
X4.6587Y-2.5137
X4.6587Y-3.1237
X4.6587Y-3.2637
X4.6587Y-3.8737
X4.6587Y-4.0137
X4.6587Y-4.6238
X4.6587Y-4.7637
X4.6937Y-2.6138
X4.6937Y-3.3638
X4.6937Y-4.1137
X4.6937Y-4.8637
X4.7138Y-2.3737
X4.7138Y-3.1237
X4.7138Y-3.8737
X4.7138Y-4.6238
X4.7488Y-2.6138
X4.7488Y-3.3638
X4.7488Y-4.1137
X4.7488Y-4.8637
X4.7798Y-2.58
X4.7798Y-3.33
X4.7798Y-4.08
X4.7798Y-4.83
X5.1577Y-2.58
X5.1577Y-3.33
X5.1577Y-4.08
X5.1577Y-4.83
X5.1887Y-2.6138
X5.1887Y-3.3638
X5.1887Y-4.1137
X5.1887Y-4.8637
X5.2237Y-2.3737
X5.2237Y-3.1237
X5.2237Y-3.8737
X5.2237Y-4.6238
X5.23Y-5.0086
X5.2437Y-2.6138
X5.2437Y-3.3638
X5.2437Y-4.1137
X5.2437Y-4.8637
X5.2787Y-2.3737
X5.2787Y-2.5137
X5.2787Y-3.1237
X5.2787Y-3.2637
X5.2787Y-3.8737
X5.2787Y-4.0137
X5.2787Y-4.6238
X5.2787Y-4.7637
X5.37Y-4.25
X5.4087Y-2.3737
X5.4087Y-2.5137
X5.4087Y-3.1237
X5.4087Y-3.2637
X5.4087Y-3.8737
X5.4087Y-4.0137
X5.4087Y-4.6238
X5.4087Y-4.7637
X5.4437Y-2.6138
X5.4437Y-3.3638
X5.4437Y-4.1137
X5.4437Y-4.8637
X5.4638Y-2.3737
X5.4638Y-3.1237
X5.4638Y-3.8737
X5.4638Y-4.6238
X5.4988Y-2.6138
X5.4988Y-3.3638
X5.4988Y-4.1137
X5.4988Y-4.8637
X5.5298Y-2.58
X5.5298Y-3.33
X5.5298Y-4.08
X5.5298Y-4.83
X5.58Y-4.57
X5.75Y-4.25
X5.9077Y-2.58
X5.9077Y-3.33
X5.9077Y-4.08
X5.9077Y-4.83
X5.9387Y-2.6138
X5.9387Y-3.3638
X5.9387Y-4.1137
X5.9387Y-4.8637
X5.9737Y-2.3737
X5.9737Y-3.1237
X5.9737Y-3.8737
X5.9737Y-4.6238
X5.98Y-5.0372
X5.9937Y-2.6138
X5.9937Y-3.3638
X5.9937Y-4.1137
X5.9937Y-4.8637
X6.0287Y-2.3737
X6.0287Y-2.5137
X6.0287Y-3.1237
X6.0287Y-3.2637
X6.0287Y-3.8737
X6.0287Y-4.0137
X6.0287Y-4.6238
X6.0287Y-4.7637
X6.1587Y-2.3737
X6.1587Y-2.5137
X6.1587Y-3.1237
X6.1587Y-3.2637
X6.1587Y-3.8737
X6.1587Y-4.0137
X6.1587Y-4.6238
X6.1587Y-4.7637
X6.19Y-4.33
X6.1937Y-2.6138
X6.1937Y-3.3638
X6.1937Y-4.1137
X6.1937Y-4.8637
X6.2138Y-2.3737
X6.2138Y-3.1237
X6.2138Y-3.8737
X6.2138Y-4.6238
X6.2488Y-2.6138
X6.2488Y-3.3638
X6.2488Y-4.1137
X6.2488Y-4.8637
X6.2798Y-2.58
X6.2798Y-3.33
X6.2798Y-4.08
X6.2798Y-4.83
X6.59Y-2.8
X6.6577Y-2.58
X6.6577Y-3.33
X6.6577Y-4.08
X6.6577Y-4.83
X6.6887Y-2.6138
X6.6887Y-3.3638
X6.6887Y-4.1137
X6.6887Y-4.8637
X6.72Y-2.85
X6.7237Y-2.3737
X6.7237Y-3.1237
X6.7237Y-3.8737
X6.7237Y-4.6238
X6.7437Y-2.6138
X6.7437Y-3.3638
X6.7437Y-4.1137
X6.7437Y-4.8637
X6.7787Y-2.3737
X6.7787Y-2.5137
X6.7787Y-3.1237
X6.7787Y-3.2637
X6.7787Y-3.8737
X6.7787Y-4.0137
X6.7787Y-4.6238
X6.7787Y-4.7637
X6.7847Y-3.4688
X6.802Y-3.427
X6.802Y-3.5105
X6.8438Y-3.4097
X6.8438Y-3.5278
X6.8855Y-3.427
X6.8855Y-3.5105
X6.9028Y-3.4688
X6.9087Y-2.3737
X6.9087Y-2.5137
X6.9087Y-3.1237
X6.9087Y-3.2637
X6.9087Y-3.8737
X6.9087Y-4.0137
X6.9087Y-4.6238
X6.9087Y-4.7637
X6.9437Y-2.6138
X6.9437Y-3.3638
X6.9437Y-4.1137
X6.9437Y-4.8637
X6.9638Y-2.3737
X6.9638Y-3.1237
X6.9638Y-3.8737
X6.9638Y-4.6238
X6.9988Y-2.6138
X6.9988Y-3.3638
X6.9988Y-4.1137
X6.9988Y-4.8637
X7.0298Y-2.58
X7.0298Y-3.33
X7.0298Y-4.08
X7.0298Y-4.83
X7.4077Y-2.58
X7.4077Y-3.33
X7.4077Y-4.08
X7.4077Y-4.83
X7.4387Y-2.6138
X7.4387Y-3.3638
X7.4387Y-4.1137
X7.4387Y-4.8637
X7.4737Y-2.3737
X7.4737Y-3.1237
X7.4737Y-3.8737
X7.4737Y-4.6238
X7.4937Y-2.6138
X7.4937Y-3.3638
X7.4937Y-4.1137
X7.4937Y-4.8637
X7.5287Y-2.3737
X7.5287Y-2.5137
X7.5287Y-3.1237
X7.5287Y-3.2637
X7.5287Y-3.8737
X7.5287Y-4.0137
X7.5287Y-4.6238
X7.5287Y-4.7637
X7.63Y-4.19
X7.6587Y-2.3737
X7.6587Y-2.5137
X7.6587Y-3.1237
X7.6587Y-3.2637
X7.6587Y-3.8737
X7.6587Y-4.0137
X7.6937Y-2.6138
X7.6937Y-3.3638
X7.6937Y-4.1137
X7.7138Y-2.3737
X7.7138Y-3.1237
X7.7138Y-3.8737
X7.7488Y-2.6138
X7.7488Y-3.3638
X7.7488Y-4.1137
X7.7798Y-2.58
X7.7798Y-3.33
X7.7798Y-4.08
X7.82Y-4.17
X7.9097Y-4.2188
X7.927Y-4.177
X7.927Y-4.2605
X7.9688Y-4.1597
X7.9688Y-4.2778
X8.0105Y-4.177
X8.0105Y-4.2605
X8.0278Y-4.2188
X8.0337Y-4.6238
X8.0337Y-4.7637
X8.05Y-4.35
X8.0687Y-4.8637
X8.0887Y-4.6238
X8.1237Y-4.8637
X8.1548Y-4.83
X8.1577Y-2.58
X8.1577Y-3.33
X8.1577Y-4.08
X8.1888Y-2.6138
X8.1888Y-3.3638
X8.1888Y-4.1137
X8.1915Y-2.2861
X8.2237Y-2.3737
X8.2237Y-3.1237
X8.2237Y-3.8737
X8.2438Y-2.6138
X8.2438Y-3.3638
X8.2438Y-4.1137
X8.2788Y-2.3737
X8.2788Y-2.5137
X8.2788Y-3.1237
X8.2788Y-3.2637
X8.2788Y-3.8737
X8.2788Y-4.0137
X8.2847Y-2.7188
X8.3Y-2.14
X8.3Y-2.28
X8.302Y-2.677
X8.302Y-2.7605
X8.3438Y-2.6597
X8.3438Y-2.7778
X8.35Y-4.235
X8.3521Y-3.6871
X8.3855Y-2.677
X8.3855Y-2.7605
X8.39Y-2.23
X8.4028Y-2.7188
X8.42Y-2.29
X8.445Y-2.02
X8.49Y-2.21
X8.5085Y-5.0086
X8.524Y-2.006
X8.5302Y-2.2102
X8.5327Y-4.83
X8.54Y-4.98
X8.5638Y-4.8637
X8.5668Y-2.225
X8.57Y-4.5
X8.5987Y-4.6238
X8.61Y-2.21
X8.6188Y-4.8637
X8.62Y-3.18
X8.63Y-2.44
X8.6538Y-4.6238
X8.6538Y-4.7637
X8.665Y-4.38
X8.68Y-4.9486
X8.71Y-2.32
X8.72Y-4.43
X8.7837Y-2.3737
X8.7837Y-2.5137
X8.7837Y-3.1237
X8.7837Y-3.2637
X8.815Y-4.4086
X8.8187Y-2.6138
X8.8187Y-3.3638
X8.8387Y-2.3737
X8.8387Y-3.1237
X8.8737Y-2.6138
X8.8737Y-3.3638
X8.9048Y-2.58
X8.9048Y-3.33
X8.91Y-4.55
X8.92Y-3.02
X9.025Y-3.67
X9.085Y-4.83
X9.105Y-4.2309
X9.12Y-4.175
X9.195Y-4.185
X9.25Y-3.51
X9.2827Y-2.58
X9.2827Y-3.33
X9.3138Y-2.6138
X9.3138Y-3.3638
X9.3487Y-2.3737
X9.3487Y-3.1237
X9.3688Y-2.6138
X9.3688Y-3.3638
X9.4038Y-2.3737
X9.4038Y-2.5137
X9.4038Y-3.1237
X9.4038Y-3.2637
X9.405Y-3.9
X9.44Y-3.485
X9.485Y-3.39
X9.525Y-3.125
X9.57Y-4.5501
X9.5984Y-4.2749
X9.645Y-4.145
X9.65Y-4.19
X9.6714Y-4.014
X9.7Y-3.93
X9.73Y-3.545
X9.73Y-3.895
X9.735Y-3.125
X9.76Y-3.575
X9.7602Y-3.5164
X9.78Y-4.055
X9.8513Y-3.948
X9.8518Y-4.0482
X9.87Y-3.51
X9.9Y-4.24
X9.9Y-4.385
X9.905Y-4.01
X9.94Y-3.85
X9.97Y-3.25
X9.975Y-3.91
X9.995Y-3.9814
X10.0Y-2.9752
X10.0Y-3.1248
X10.0784Y-3.665
X10.13Y-3.51
X10.16Y-3.25
X10.1886Y-3.6636
T5
X8.6203Y-3.5682
X8.6203Y-4.139
X8.7188Y-4.139
X8.8172Y-3.5682
X8.8172Y-4.139
X9.04Y-4.5
X9.04Y-4.6
X9.04Y-4.7
X9.14Y-4.5
X9.14Y-4.6
X9.14Y-4.7
X9.785Y-2.75
X9.885Y-2.75
X9.985Y-2.75
T7
X4.5938Y-2.7188
X4.5938Y-4.2188
X6.8438Y-3.4688
X7.9688Y-4.2188
X8.3438Y-2.7188
T3
G00X8.3499Y-1.9004
M15
G01X8.3499Y-1.8768
M16
G05
G00X8.3499Y-2.0748
M15
G01X8.3499Y-2.0315
M16
G05
G00X8.6901Y-1.9004
M15
G01X8.6901Y-1.8768
M16
G05
G00X8.6901Y-2.0748
M15
G01X8.6901Y-2.0315
M16
G05
T4
G00X9.8952Y-2.3861
M15
G01X9.8755Y-2.3861
M16
G05
G00X9.8952Y-2.6539
M15
G01X9.8755Y-2.6539
M16
G05
G00X10.033Y-2.3861
M15
G01X10.0133Y-2.3861
M16
G05
G00X10.033Y-2.6539
M15
G01X10.0133Y-2.6539
M16
G05
G00X10.159Y-2.3861
M15
G01X10.1393Y-2.3861
M16
G05
G00X10.159Y-2.6539
M15
G01X10.1393Y-2.6539
M16
G05
T6
G00X8.4983Y-3.8693
M15
G01X8.4983Y-3.8182
M16
G05
G00X8.9392Y-3.8693
M15
G01X8.9392Y-3.8182
M16
G05
T0
M30
