%TF.GenerationSoftware,KiCad,Pcbnew,(5.1.9-0-10_14)*%
%TF.CreationDate,2021-01-21T09:17:30+08:00*%
%TF.ProjectId,kb-split,6b622d73-706c-4697-942e-6b696361645f,rev?*%
%TF.SameCoordinates,Original*%
%TF.FileFunction,Profile,NP*%
%FSLAX46Y46*%
G04 Gerber Fmt 4.6, Leading zero omitted, Abs format (unit mm)*
G04 Created by KiCad (PCBNEW (5.1.9-0-10_14)) date 2021-01-21 09:17:30*
%MOMM*%
%LPD*%
G01*
G04 APERTURE LIST*
%TA.AperFunction,Profile*%
%ADD10C,0.100000*%
%TD*%
%TA.AperFunction,Profile*%
%ADD11C,0.050000*%
%TD*%
G04 APERTURE END LIST*
D10*
X256413000Y-55626000D02*
X256413000Y-58674000D01*
X245745000Y-55626000D02*
X256413000Y-55626000D01*
X245745000Y-58674000D02*
X245745000Y-55626000D01*
X256413000Y-58674000D02*
X245745000Y-58674000D01*
D11*
X97631250Y-47625000D02*
X250031250Y-47625000D01*
X259556250Y-109537500D02*
X259556250Y-57150000D01*
X250031250Y-47625000D02*
G75*
G02*
X259556250Y-57150000I0J-9525000D01*
G01*
X223837500Y-128587500D02*
X259556250Y-109537500D01*
X97631250Y-128587500D02*
G75*
G02*
X95250000Y-126206250I0J2381250D01*
G01*
X97631250Y-128587500D02*
X223837500Y-128587500D01*
X95250000Y-50006250D02*
X95250000Y-126206250D01*
X95250000Y-50006250D02*
G75*
G02*
X97631250Y-47625000I2381250J0D01*
G01*
D10*
%TO.C,LED25*%
X230148000Y-98236000D02*
X230148000Y-96836000D01*
X233148000Y-98236000D02*
X233148000Y-96836000D01*
X230148000Y-99236000D02*
X233148000Y-99236000D01*
X233148000Y-95836000D02*
X230148000Y-95836000D01*
X230148000Y-99236000D02*
G75*
G02*
X230148000Y-98236000I0J500000D01*
G01*
X230148000Y-96836000D02*
G75*
G02*
X230148000Y-95836000I0J500000D01*
G01*
X233148000Y-95836000D02*
G75*
G02*
X233148000Y-96836000I0J-500000D01*
G01*
X233148000Y-98236000D02*
G75*
G02*
X233148000Y-99236000I0J-500000D01*
G01*
%TO.C,LED31*%
X213631250Y-113101250D02*
X213631250Y-110101250D01*
X212631250Y-110101250D02*
X211231250Y-110101250D01*
X210231250Y-110101250D02*
X210231250Y-113101250D01*
X212631250Y-113101250D02*
X211231250Y-113101250D01*
X212631250Y-110101250D02*
G75*
G02*
X213631250Y-110101250I500000J0D01*
G01*
X211231250Y-113101250D02*
G75*
G02*
X210231250Y-113101250I-500000J0D01*
G01*
X210231250Y-110101250D02*
G75*
G02*
X211231250Y-110101250I500000J0D01*
G01*
X213631250Y-113101250D02*
G75*
G02*
X212631250Y-113101250I-500000J0D01*
G01*
%TO.C,LED30*%
X185056250Y-113101250D02*
X185056250Y-110101250D01*
X184056250Y-110101250D02*
X182656250Y-110101250D01*
X181656250Y-110101250D02*
X181656250Y-113101250D01*
X184056250Y-113101250D02*
X182656250Y-113101250D01*
X184056250Y-110101250D02*
G75*
G02*
X185056250Y-110101250I500000J0D01*
G01*
X182656250Y-113101250D02*
G75*
G02*
X181656250Y-113101250I-500000J0D01*
G01*
X181656250Y-110101250D02*
G75*
G02*
X182656250Y-110101250I500000J0D01*
G01*
X185056250Y-113101250D02*
G75*
G02*
X184056250Y-113101250I-500000J0D01*
G01*
%TO.C,LED29*%
X166006250Y-113101250D02*
X166006250Y-110101250D01*
X165006250Y-110101250D02*
X163606250Y-110101250D01*
X162606250Y-110101250D02*
X162606250Y-113101250D01*
X165006250Y-113101250D02*
X163606250Y-113101250D01*
X165006250Y-110101250D02*
G75*
G02*
X166006250Y-110101250I500000J0D01*
G01*
X163606250Y-113101250D02*
G75*
G02*
X162606250Y-113101250I-500000J0D01*
G01*
X162606250Y-110101250D02*
G75*
G02*
X163606250Y-110101250I500000J0D01*
G01*
X166006250Y-113101250D02*
G75*
G02*
X165006250Y-113101250I-500000J0D01*
G01*
%TO.C,LED28*%
X146956250Y-113101250D02*
X146956250Y-110101250D01*
X145956250Y-110101250D02*
X144556250Y-110101250D01*
X143556250Y-110101250D02*
X143556250Y-113101250D01*
X145956250Y-113101250D02*
X144556250Y-113101250D01*
X145956250Y-110101250D02*
G75*
G02*
X146956250Y-110101250I500000J0D01*
G01*
X144556250Y-113101250D02*
G75*
G02*
X143556250Y-113101250I-500000J0D01*
G01*
X143556250Y-110101250D02*
G75*
G02*
X144556250Y-110101250I500000J0D01*
G01*
X146956250Y-113101250D02*
G75*
G02*
X145956250Y-113101250I-500000J0D01*
G01*
%TO.C,LED27*%
X127906250Y-113101250D02*
X127906250Y-110101250D01*
X126906250Y-110101250D02*
X125506250Y-110101250D01*
X124506250Y-110101250D02*
X124506250Y-113101250D01*
X126906250Y-113101250D02*
X125506250Y-113101250D01*
X126906250Y-110101250D02*
G75*
G02*
X127906250Y-110101250I500000J0D01*
G01*
X125506250Y-113101250D02*
G75*
G02*
X124506250Y-113101250I-500000J0D01*
G01*
X124506250Y-110101250D02*
G75*
G02*
X125506250Y-110101250I500000J0D01*
G01*
X127906250Y-113101250D02*
G75*
G02*
X126906250Y-113101250I-500000J0D01*
G01*
%TO.C,LED26*%
X108856250Y-113101250D02*
X108856250Y-110101250D01*
X107856250Y-110101250D02*
X106456250Y-110101250D01*
X105456250Y-110101250D02*
X105456250Y-113101250D01*
X107856250Y-113101250D02*
X106456250Y-113101250D01*
X107856250Y-110101250D02*
G75*
G02*
X108856250Y-110101250I500000J0D01*
G01*
X106456250Y-113101250D02*
G75*
G02*
X105456250Y-113101250I-500000J0D01*
G01*
X105456250Y-110101250D02*
G75*
G02*
X106456250Y-110101250I500000J0D01*
G01*
X108856250Y-113101250D02*
G75*
G02*
X107856250Y-113101250I-500000J0D01*
G01*
%TO.C,LED24*%
X200706250Y-94051250D02*
X200706250Y-91051250D01*
X201706250Y-91051250D02*
X203106250Y-91051250D01*
X204106250Y-91051250D02*
X204106250Y-94051250D01*
X201706250Y-94051250D02*
X203106250Y-94051250D01*
X201706250Y-91051250D02*
G75*
G03*
X200706250Y-91051250I-500000J0D01*
G01*
X203106250Y-94051250D02*
G75*
G03*
X204106250Y-94051250I500000J0D01*
G01*
X204106250Y-91051250D02*
G75*
G03*
X203106250Y-91051250I-500000J0D01*
G01*
X200706250Y-94051250D02*
G75*
G03*
X201706250Y-94051250I500000J0D01*
G01*
%TO.C,LED23*%
X181656250Y-94051250D02*
X181656250Y-91051250D01*
X182656250Y-91051250D02*
X184056250Y-91051250D01*
X185056250Y-91051250D02*
X185056250Y-94051250D01*
X182656250Y-94051250D02*
X184056250Y-94051250D01*
X182656250Y-91051250D02*
G75*
G03*
X181656250Y-91051250I-500000J0D01*
G01*
X184056250Y-94051250D02*
G75*
G03*
X185056250Y-94051250I500000J0D01*
G01*
X185056250Y-91051250D02*
G75*
G03*
X184056250Y-91051250I-500000J0D01*
G01*
X181656250Y-94051250D02*
G75*
G03*
X182656250Y-94051250I500000J0D01*
G01*
%TO.C,LED22*%
X162606250Y-94051250D02*
X162606250Y-91051250D01*
X163606250Y-91051250D02*
X165006250Y-91051250D01*
X166006250Y-91051250D02*
X166006250Y-94051250D01*
X163606250Y-94051250D02*
X165006250Y-94051250D01*
X163606250Y-91051250D02*
G75*
G03*
X162606250Y-91051250I-500000J0D01*
G01*
X165006250Y-94051250D02*
G75*
G03*
X166006250Y-94051250I500000J0D01*
G01*
X166006250Y-91051250D02*
G75*
G03*
X165006250Y-91051250I-500000J0D01*
G01*
X162606250Y-94051250D02*
G75*
G03*
X163606250Y-94051250I500000J0D01*
G01*
%TO.C,LED21*%
X143556250Y-94051250D02*
X143556250Y-91051250D01*
X144556250Y-91051250D02*
X145956250Y-91051250D01*
X146956250Y-91051250D02*
X146956250Y-94051250D01*
X144556250Y-94051250D02*
X145956250Y-94051250D01*
X144556250Y-91051250D02*
G75*
G03*
X143556250Y-91051250I-500000J0D01*
G01*
X145956250Y-94051250D02*
G75*
G03*
X146956250Y-94051250I500000J0D01*
G01*
X146956250Y-91051250D02*
G75*
G03*
X145956250Y-91051250I-500000J0D01*
G01*
X143556250Y-94051250D02*
G75*
G03*
X144556250Y-94051250I500000J0D01*
G01*
%TO.C,LED20*%
X124506250Y-94051250D02*
X124506250Y-91051250D01*
X125506250Y-91051250D02*
X126906250Y-91051250D01*
X127906250Y-91051250D02*
X127906250Y-94051250D01*
X125506250Y-94051250D02*
X126906250Y-94051250D01*
X125506250Y-91051250D02*
G75*
G03*
X124506250Y-91051250I-500000J0D01*
G01*
X126906250Y-94051250D02*
G75*
G03*
X127906250Y-94051250I500000J0D01*
G01*
X127906250Y-91051250D02*
G75*
G03*
X126906250Y-91051250I-500000J0D01*
G01*
X124506250Y-94051250D02*
G75*
G03*
X125506250Y-94051250I500000J0D01*
G01*
%TO.C,LED19*%
X105456250Y-94051250D02*
X105456250Y-91051250D01*
X106456250Y-91051250D02*
X107856250Y-91051250D01*
X108856250Y-91051250D02*
X108856250Y-94051250D01*
X106456250Y-94051250D02*
X107856250Y-94051250D01*
X106456250Y-91051250D02*
G75*
G03*
X105456250Y-91051250I-500000J0D01*
G01*
X107856250Y-94051250D02*
G75*
G03*
X108856250Y-94051250I500000J0D01*
G01*
X108856250Y-91051250D02*
G75*
G03*
X107856250Y-91051250I-500000J0D01*
G01*
X105456250Y-94051250D02*
G75*
G03*
X106456250Y-94051250I500000J0D01*
G01*
%TO.C,LED18*%
X232681250Y-75001250D02*
X232681250Y-72001250D01*
X231681250Y-72001250D02*
X230281250Y-72001250D01*
X229281250Y-72001250D02*
X229281250Y-75001250D01*
X231681250Y-75001250D02*
X230281250Y-75001250D01*
X231681250Y-72001250D02*
G75*
G02*
X232681250Y-72001250I500000J0D01*
G01*
X230281250Y-75001250D02*
G75*
G02*
X229281250Y-75001250I-500000J0D01*
G01*
X229281250Y-72001250D02*
G75*
G02*
X230281250Y-72001250I500000J0D01*
G01*
X232681250Y-75001250D02*
G75*
G02*
X231681250Y-75001250I-500000J0D01*
G01*
%TO.C,LED17*%
X204106250Y-75001250D02*
X204106250Y-72001250D01*
X203106250Y-72001250D02*
X201706250Y-72001250D01*
X200706250Y-72001250D02*
X200706250Y-75001250D01*
X203106250Y-75001250D02*
X201706250Y-75001250D01*
X203106250Y-72001250D02*
G75*
G02*
X204106250Y-72001250I500000J0D01*
G01*
X201706250Y-75001250D02*
G75*
G02*
X200706250Y-75001250I-500000J0D01*
G01*
X200706250Y-72001250D02*
G75*
G02*
X201706250Y-72001250I500000J0D01*
G01*
X204106250Y-75001250D02*
G75*
G02*
X203106250Y-75001250I-500000J0D01*
G01*
%TO.C,LED16*%
X185056250Y-75001250D02*
X185056250Y-72001250D01*
X184056250Y-72001250D02*
X182656250Y-72001250D01*
X181656250Y-72001250D02*
X181656250Y-75001250D01*
X184056250Y-75001250D02*
X182656250Y-75001250D01*
X184056250Y-72001250D02*
G75*
G02*
X185056250Y-72001250I500000J0D01*
G01*
X182656250Y-75001250D02*
G75*
G02*
X181656250Y-75001250I-500000J0D01*
G01*
X181656250Y-72001250D02*
G75*
G02*
X182656250Y-72001250I500000J0D01*
G01*
X185056250Y-75001250D02*
G75*
G02*
X184056250Y-75001250I-500000J0D01*
G01*
%TO.C,LED15*%
X166006250Y-75001250D02*
X166006250Y-72001250D01*
X165006250Y-72001250D02*
X163606250Y-72001250D01*
X162606250Y-72001250D02*
X162606250Y-75001250D01*
X165006250Y-75001250D02*
X163606250Y-75001250D01*
X165006250Y-72001250D02*
G75*
G02*
X166006250Y-72001250I500000J0D01*
G01*
X163606250Y-75001250D02*
G75*
G02*
X162606250Y-75001250I-500000J0D01*
G01*
X162606250Y-72001250D02*
G75*
G02*
X163606250Y-72001250I500000J0D01*
G01*
X166006250Y-75001250D02*
G75*
G02*
X165006250Y-75001250I-500000J0D01*
G01*
%TO.C,LED14*%
X146956250Y-75001250D02*
X146956250Y-72001250D01*
X145956250Y-72001250D02*
X144556250Y-72001250D01*
X143556250Y-72001250D02*
X143556250Y-75001250D01*
X145956250Y-75001250D02*
X144556250Y-75001250D01*
X145956250Y-72001250D02*
G75*
G02*
X146956250Y-72001250I500000J0D01*
G01*
X144556250Y-75001250D02*
G75*
G02*
X143556250Y-75001250I-500000J0D01*
G01*
X143556250Y-72001250D02*
G75*
G02*
X144556250Y-72001250I500000J0D01*
G01*
X146956250Y-75001250D02*
G75*
G02*
X145956250Y-75001250I-500000J0D01*
G01*
%TO.C,LED13*%
X127906250Y-75001250D02*
X127906250Y-72001250D01*
X126906250Y-72001250D02*
X125506250Y-72001250D01*
X124506250Y-72001250D02*
X124506250Y-75001250D01*
X126906250Y-75001250D02*
X125506250Y-75001250D01*
X126906250Y-72001250D02*
G75*
G02*
X127906250Y-72001250I500000J0D01*
G01*
X125506250Y-75001250D02*
G75*
G02*
X124506250Y-75001250I-500000J0D01*
G01*
X124506250Y-72001250D02*
G75*
G02*
X125506250Y-72001250I500000J0D01*
G01*
X127906250Y-75001250D02*
G75*
G02*
X126906250Y-75001250I-500000J0D01*
G01*
%TO.C,LED12*%
X108856250Y-75001250D02*
X108856250Y-72001250D01*
X107856250Y-72001250D02*
X106456250Y-72001250D01*
X105456250Y-72001250D02*
X105456250Y-75001250D01*
X107856250Y-75001250D02*
X106456250Y-75001250D01*
X107856250Y-72001250D02*
G75*
G02*
X108856250Y-72001250I500000J0D01*
G01*
X106456250Y-75001250D02*
G75*
G02*
X105456250Y-75001250I-500000J0D01*
G01*
X105456250Y-72001250D02*
G75*
G02*
X106456250Y-72001250I500000J0D01*
G01*
X108856250Y-75001250D02*
G75*
G02*
X107856250Y-75001250I-500000J0D01*
G01*
%TO.C,LED11*%
X229281250Y-55951250D02*
X229281250Y-52951250D01*
X230281250Y-52951250D02*
X231681250Y-52951250D01*
X232681250Y-52951250D02*
X232681250Y-55951250D01*
X230281250Y-55951250D02*
X231681250Y-55951250D01*
X230281250Y-52951250D02*
G75*
G03*
X229281250Y-52951250I-500000J0D01*
G01*
X231681250Y-55951250D02*
G75*
G03*
X232681250Y-55951250I500000J0D01*
G01*
X232681250Y-52951250D02*
G75*
G03*
X231681250Y-52951250I-500000J0D01*
G01*
X229281250Y-55951250D02*
G75*
G03*
X230281250Y-55951250I500000J0D01*
G01*
%TO.C,LED10*%
X200706250Y-55951250D02*
X200706250Y-52951250D01*
X201706250Y-52951250D02*
X203106250Y-52951250D01*
X204106250Y-52951250D02*
X204106250Y-55951250D01*
X201706250Y-55951250D02*
X203106250Y-55951250D01*
X201706250Y-52951250D02*
G75*
G03*
X200706250Y-52951250I-500000J0D01*
G01*
X203106250Y-55951250D02*
G75*
G03*
X204106250Y-55951250I500000J0D01*
G01*
X204106250Y-52951250D02*
G75*
G03*
X203106250Y-52951250I-500000J0D01*
G01*
X200706250Y-55951250D02*
G75*
G03*
X201706250Y-55951250I500000J0D01*
G01*
%TO.C,LED9*%
X181656250Y-55951250D02*
X181656250Y-52951250D01*
X182656250Y-52951250D02*
X184056250Y-52951250D01*
X185056250Y-52951250D02*
X185056250Y-55951250D01*
X182656250Y-55951250D02*
X184056250Y-55951250D01*
X182656250Y-52951250D02*
G75*
G03*
X181656250Y-52951250I-500000J0D01*
G01*
X184056250Y-55951250D02*
G75*
G03*
X185056250Y-55951250I500000J0D01*
G01*
X185056250Y-52951250D02*
G75*
G03*
X184056250Y-52951250I-500000J0D01*
G01*
X181656250Y-55951250D02*
G75*
G03*
X182656250Y-55951250I500000J0D01*
G01*
%TO.C,LED8*%
X162606250Y-55951250D02*
X162606250Y-52951250D01*
X163606250Y-52951250D02*
X165006250Y-52951250D01*
X166006250Y-52951250D02*
X166006250Y-55951250D01*
X163606250Y-55951250D02*
X165006250Y-55951250D01*
X163606250Y-52951250D02*
G75*
G03*
X162606250Y-52951250I-500000J0D01*
G01*
X165006250Y-55951250D02*
G75*
G03*
X166006250Y-55951250I500000J0D01*
G01*
X166006250Y-52951250D02*
G75*
G03*
X165006250Y-52951250I-500000J0D01*
G01*
X162606250Y-55951250D02*
G75*
G03*
X163606250Y-55951250I500000J0D01*
G01*
%TO.C,LED7*%
X143556250Y-55951250D02*
X143556250Y-52951250D01*
X144556250Y-52951250D02*
X145956250Y-52951250D01*
X146956250Y-52951250D02*
X146956250Y-55951250D01*
X144556250Y-55951250D02*
X145956250Y-55951250D01*
X144556250Y-52951250D02*
G75*
G03*
X143556250Y-52951250I-500000J0D01*
G01*
X145956250Y-55951250D02*
G75*
G03*
X146956250Y-55951250I500000J0D01*
G01*
X146956250Y-52951250D02*
G75*
G03*
X145956250Y-52951250I-500000J0D01*
G01*
X143556250Y-55951250D02*
G75*
G03*
X144556250Y-55951250I500000J0D01*
G01*
%TO.C,LED6*%
X124506250Y-55951250D02*
X124506250Y-52951250D01*
X125506250Y-52951250D02*
X126906250Y-52951250D01*
X127906250Y-52951250D02*
X127906250Y-55951250D01*
X125506250Y-55951250D02*
X126906250Y-55951250D01*
X125506250Y-52951250D02*
G75*
G03*
X124506250Y-52951250I-500000J0D01*
G01*
X126906250Y-55951250D02*
G75*
G03*
X127906250Y-55951250I500000J0D01*
G01*
X127906250Y-52951250D02*
G75*
G03*
X126906250Y-52951250I-500000J0D01*
G01*
X124506250Y-55951250D02*
G75*
G03*
X125506250Y-55951250I500000J0D01*
G01*
%TO.C,LED5*%
X105456250Y-55951250D02*
X105456250Y-52951250D01*
X106456250Y-52951250D02*
X107856250Y-52951250D01*
X108856250Y-52951250D02*
X108856250Y-55951250D01*
X106456250Y-55951250D02*
X107856250Y-55951250D01*
X106456250Y-52951250D02*
G75*
G03*
X105456250Y-52951250I-500000J0D01*
G01*
X107856250Y-55951250D02*
G75*
G03*
X108856250Y-55951250I500000J0D01*
G01*
X108856250Y-52951250D02*
G75*
G03*
X107856250Y-52951250I-500000J0D01*
G01*
X105456250Y-55951250D02*
G75*
G03*
X106456250Y-55951250I500000J0D01*
G01*
%TO.C,LED4*%
X218193750Y-76881250D02*
X215193750Y-76881250D01*
X215193750Y-80281250D02*
X218193750Y-80281250D01*
X218193750Y-79281250D02*
X218193750Y-77881250D01*
X215193750Y-79281250D02*
X215193750Y-77881250D01*
X215193750Y-80281250D02*
G75*
G02*
X215193750Y-79281250I0J500000D01*
G01*
X215193750Y-77881250D02*
G75*
G02*
X215193750Y-76881250I0J500000D01*
G01*
X218193750Y-76881250D02*
G75*
G02*
X218193750Y-77881250I0J-500000D01*
G01*
X218193750Y-79281250D02*
G75*
G02*
X218193750Y-80281250I0J-500000D01*
G01*
%TO.C,LED3*%
X172131250Y-67556250D02*
X172131250Y-70556250D01*
X175531250Y-70556250D02*
X175531250Y-67556250D01*
X174531250Y-67556250D02*
X173131250Y-67556250D01*
X174531250Y-70556250D02*
X173131250Y-70556250D01*
X175531250Y-70556250D02*
G75*
G02*
X174531250Y-70556250I-500000J0D01*
G01*
X173131250Y-70556250D02*
G75*
G02*
X172131250Y-70556250I-500000J0D01*
G01*
X172131250Y-67556250D02*
G75*
G02*
X173131250Y-67556250I500000J0D01*
G01*
X174531250Y-67556250D02*
G75*
G02*
X175531250Y-67556250I500000J0D01*
G01*
%TO.C,LED2*%
X153081250Y-105656250D02*
X153081250Y-108656250D01*
X156481250Y-108656250D02*
X156481250Y-105656250D01*
X155481250Y-105656250D02*
X154081250Y-105656250D01*
X155481250Y-108656250D02*
X154081250Y-108656250D01*
X156481250Y-108656250D02*
G75*
G02*
X155481250Y-108656250I-500000J0D01*
G01*
X154081250Y-108656250D02*
G75*
G02*
X153081250Y-108656250I-500000J0D01*
G01*
X153081250Y-105656250D02*
G75*
G02*
X154081250Y-105656250I500000J0D01*
G01*
X155481250Y-105656250D02*
G75*
G02*
X156481250Y-105656250I500000J0D01*
G01*
%TO.C,LED1*%
X118381250Y-89606250D02*
X118381250Y-86606250D01*
X114981250Y-86606250D02*
X114981250Y-89606250D01*
X115981250Y-89606250D02*
X117381250Y-89606250D01*
X115981250Y-86606250D02*
X117381250Y-86606250D01*
X114981250Y-86606250D02*
G75*
G02*
X115981250Y-86606250I500000J0D01*
G01*
X117381250Y-86606250D02*
G75*
G02*
X118381250Y-86606250I500000J0D01*
G01*
X118381250Y-89606250D02*
G75*
G02*
X117381250Y-89606250I-500000J0D01*
G01*
X115981250Y-89606250D02*
G75*
G02*
X114981250Y-89606250I-500000J0D01*
G01*
%TO.C,SW28*%
X207653669Y-120646384D02*
G75*
G02*
X209542250Y-119701250I467581J1425134D01*
G01*
X207970170Y-121281491D02*
G75*
G03*
X207653669Y-120646385I-473920J160241D01*
G01*
X209860392Y-120336628D02*
G75*
G02*
X209542250Y-119701250I155858J475378D01*
G01*
X209860391Y-120336629D02*
G75*
G02*
X207970170Y-121281491I-469141J-1424621D01*
G01*
X216208831Y-120646384D02*
G75*
G03*
X214320250Y-119701250I-467581J1425134D01*
G01*
X214002108Y-120336628D02*
G75*
G03*
X214320250Y-119701250I-155858J475378D01*
G01*
X215892330Y-121281491D02*
G75*
G02*
X216208831Y-120646385I473920J160241D01*
G01*
X214002109Y-120336629D02*
G75*
G03*
X215892330Y-121281491I469141J-1424621D01*
G01*
%TO.C,SW27*%
X179078669Y-120646384D02*
G75*
G02*
X180967250Y-119701250I467581J1425134D01*
G01*
X179395170Y-121281491D02*
G75*
G03*
X179078669Y-120646385I-473920J160241D01*
G01*
X181285392Y-120336628D02*
G75*
G02*
X180967250Y-119701250I155858J475378D01*
G01*
X181285391Y-120336629D02*
G75*
G02*
X179395170Y-121281491I-469141J-1424621D01*
G01*
X187633831Y-120646384D02*
G75*
G03*
X185745250Y-119701250I-467581J1425134D01*
G01*
X185427108Y-120336628D02*
G75*
G03*
X185745250Y-119701250I-155858J475378D01*
G01*
X187317330Y-121281491D02*
G75*
G02*
X187633831Y-120646385I473920J160241D01*
G01*
X185427109Y-120336629D02*
G75*
G03*
X187317330Y-121281491I469141J-1424621D01*
G01*
%TO.C,SW26*%
X160028669Y-120646384D02*
G75*
G02*
X161917250Y-119701250I467581J1425134D01*
G01*
X160345170Y-121281491D02*
G75*
G03*
X160028669Y-120646385I-473920J160241D01*
G01*
X162235392Y-120336628D02*
G75*
G02*
X161917250Y-119701250I155858J475378D01*
G01*
X162235391Y-120336629D02*
G75*
G02*
X160345170Y-121281491I-469141J-1424621D01*
G01*
X168583831Y-120646384D02*
G75*
G03*
X166695250Y-119701250I-467581J1425134D01*
G01*
X166377108Y-120336628D02*
G75*
G03*
X166695250Y-119701250I-155858J475378D01*
G01*
X168267330Y-121281491D02*
G75*
G02*
X168583831Y-120646385I473920J160241D01*
G01*
X166377109Y-120336629D02*
G75*
G03*
X168267330Y-121281491I469141J-1424621D01*
G01*
%TO.C,SW25*%
X140978669Y-120646384D02*
G75*
G02*
X142867250Y-119701250I467581J1425134D01*
G01*
X141295170Y-121281491D02*
G75*
G03*
X140978669Y-120646385I-473920J160241D01*
G01*
X143185392Y-120336628D02*
G75*
G02*
X142867250Y-119701250I155858J475378D01*
G01*
X143185391Y-120336629D02*
G75*
G02*
X141295170Y-121281491I-469141J-1424621D01*
G01*
X149533831Y-120646384D02*
G75*
G03*
X147645250Y-119701250I-467581J1425134D01*
G01*
X147327108Y-120336628D02*
G75*
G03*
X147645250Y-119701250I-155858J475378D01*
G01*
X149217330Y-121281491D02*
G75*
G02*
X149533831Y-120646385I473920J160241D01*
G01*
X147327109Y-120336629D02*
G75*
G03*
X149217330Y-121281491I469141J-1424621D01*
G01*
%TO.C,SW24*%
X121928669Y-120646384D02*
G75*
G02*
X123817250Y-119701250I467581J1425134D01*
G01*
X122245170Y-121281491D02*
G75*
G03*
X121928669Y-120646385I-473920J160241D01*
G01*
X124135392Y-120336628D02*
G75*
G02*
X123817250Y-119701250I155858J475378D01*
G01*
X124135391Y-120336629D02*
G75*
G02*
X122245170Y-121281491I-469141J-1424621D01*
G01*
X130483831Y-120646384D02*
G75*
G03*
X128595250Y-119701250I-467581J1425134D01*
G01*
X128277108Y-120336628D02*
G75*
G03*
X128595250Y-119701250I-155858J475378D01*
G01*
X130167330Y-121281491D02*
G75*
G02*
X130483831Y-120646385I473920J160241D01*
G01*
X128277109Y-120336629D02*
G75*
G03*
X130167330Y-121281491I469141J-1424621D01*
G01*
%TO.C,SW23*%
X102878669Y-120646384D02*
G75*
G02*
X104767250Y-119701250I467581J1425134D01*
G01*
X103195170Y-121281491D02*
G75*
G03*
X102878669Y-120646385I-473920J160241D01*
G01*
X105085392Y-120336628D02*
G75*
G02*
X104767250Y-119701250I155858J475378D01*
G01*
X105085391Y-120336629D02*
G75*
G02*
X103195170Y-121281491I-469141J-1424621D01*
G01*
X111433831Y-120646384D02*
G75*
G03*
X109545250Y-119701250I-467581J1425134D01*
G01*
X109227108Y-120336628D02*
G75*
G03*
X109545250Y-119701250I-155858J475378D01*
G01*
X111117330Y-121281491D02*
G75*
G02*
X111433831Y-120646385I473920J160241D01*
G01*
X109227109Y-120336629D02*
G75*
G03*
X111117330Y-121281491I469141J-1424621D01*
G01*
%TO.C,SW21*%
X198128669Y-101596384D02*
G75*
G02*
X200017250Y-100651250I467581J1425134D01*
G01*
X198445170Y-102231491D02*
G75*
G03*
X198128669Y-101596385I-473920J160241D01*
G01*
X200335392Y-101286628D02*
G75*
G02*
X200017250Y-100651250I155858J475378D01*
G01*
X200335391Y-101286629D02*
G75*
G02*
X198445170Y-102231491I-469141J-1424621D01*
G01*
X206683831Y-101596384D02*
G75*
G03*
X204795250Y-100651250I-467581J1425134D01*
G01*
X204477108Y-101286628D02*
G75*
G03*
X204795250Y-100651250I-155858J475378D01*
G01*
X206367330Y-102231491D02*
G75*
G02*
X206683831Y-101596385I473920J160241D01*
G01*
X204477109Y-101286629D02*
G75*
G03*
X206367330Y-102231491I469141J-1424621D01*
G01*
%TO.C,SW20*%
X179078669Y-101596384D02*
G75*
G02*
X180967250Y-100651250I467581J1425134D01*
G01*
X179395170Y-102231491D02*
G75*
G03*
X179078669Y-101596385I-473920J160241D01*
G01*
X181285392Y-101286628D02*
G75*
G02*
X180967250Y-100651250I155858J475378D01*
G01*
X181285391Y-101286629D02*
G75*
G02*
X179395170Y-102231491I-469141J-1424621D01*
G01*
X187633831Y-101596384D02*
G75*
G03*
X185745250Y-100651250I-467581J1425134D01*
G01*
X185427108Y-101286628D02*
G75*
G03*
X185745250Y-100651250I-155858J475378D01*
G01*
X187317330Y-102231491D02*
G75*
G02*
X187633831Y-101596385I473920J160241D01*
G01*
X185427109Y-101286629D02*
G75*
G03*
X187317330Y-102231491I469141J-1424621D01*
G01*
%TO.C,SW19*%
X160028669Y-101596384D02*
G75*
G02*
X161917250Y-100651250I467581J1425134D01*
G01*
X160345170Y-102231491D02*
G75*
G03*
X160028669Y-101596385I-473920J160241D01*
G01*
X162235392Y-101286628D02*
G75*
G02*
X161917250Y-100651250I155858J475378D01*
G01*
X162235391Y-101286629D02*
G75*
G02*
X160345170Y-102231491I-469141J-1424621D01*
G01*
X168583831Y-101596384D02*
G75*
G03*
X166695250Y-100651250I-467581J1425134D01*
G01*
X166377108Y-101286628D02*
G75*
G03*
X166695250Y-100651250I-155858J475378D01*
G01*
X168267330Y-102231491D02*
G75*
G02*
X168583831Y-101596385I473920J160241D01*
G01*
X166377109Y-101286629D02*
G75*
G03*
X168267330Y-102231491I469141J-1424621D01*
G01*
%TO.C,SW18*%
X140978669Y-101596384D02*
G75*
G02*
X142867250Y-100651250I467581J1425134D01*
G01*
X141295170Y-102231491D02*
G75*
G03*
X140978669Y-101596385I-473920J160241D01*
G01*
X143185392Y-101286628D02*
G75*
G02*
X142867250Y-100651250I155858J475378D01*
G01*
X143185391Y-101286629D02*
G75*
G02*
X141295170Y-102231491I-469141J-1424621D01*
G01*
X149533831Y-101596384D02*
G75*
G03*
X147645250Y-100651250I-467581J1425134D01*
G01*
X147327108Y-101286628D02*
G75*
G03*
X147645250Y-100651250I-155858J475378D01*
G01*
X149217330Y-102231491D02*
G75*
G02*
X149533831Y-101596385I473920J160241D01*
G01*
X147327109Y-101286629D02*
G75*
G03*
X149217330Y-102231491I469141J-1424621D01*
G01*
%TO.C,SW17*%
X121928669Y-101596384D02*
G75*
G02*
X123817250Y-100651250I467581J1425134D01*
G01*
X122245170Y-102231491D02*
G75*
G03*
X121928669Y-101596385I-473920J160241D01*
G01*
X124135392Y-101286628D02*
G75*
G02*
X123817250Y-100651250I155858J475378D01*
G01*
X124135391Y-101286629D02*
G75*
G02*
X122245170Y-102231491I-469141J-1424621D01*
G01*
X130483831Y-101596384D02*
G75*
G03*
X128595250Y-100651250I-467581J1425134D01*
G01*
X128277108Y-101286628D02*
G75*
G03*
X128595250Y-100651250I-155858J475378D01*
G01*
X130167330Y-102231491D02*
G75*
G02*
X130483831Y-101596385I473920J160241D01*
G01*
X128277109Y-101286629D02*
G75*
G03*
X130167330Y-102231491I469141J-1424621D01*
G01*
%TO.C,SW16*%
X102878669Y-101596384D02*
G75*
G02*
X104767250Y-100651250I467581J1425134D01*
G01*
X103195170Y-102231491D02*
G75*
G03*
X102878669Y-101596385I-473920J160241D01*
G01*
X105085392Y-101286628D02*
G75*
G02*
X104767250Y-100651250I155858J475378D01*
G01*
X105085391Y-101286629D02*
G75*
G02*
X103195170Y-102231491I-469141J-1424621D01*
G01*
X111433831Y-101596384D02*
G75*
G03*
X109545250Y-100651250I-467581J1425134D01*
G01*
X109227108Y-101286628D02*
G75*
G03*
X109545250Y-100651250I-155858J475378D01*
G01*
X111117330Y-102231491D02*
G75*
G02*
X111433831Y-101596385I473920J160241D01*
G01*
X109227109Y-101286629D02*
G75*
G03*
X111117330Y-102231491I469141J-1424621D01*
G01*
%TO.C,SW14*%
X226703669Y-82546384D02*
G75*
G02*
X228592250Y-81601250I467581J1425134D01*
G01*
X227020170Y-83181491D02*
G75*
G03*
X226703669Y-82546385I-473920J160241D01*
G01*
X228910392Y-82236628D02*
G75*
G02*
X228592250Y-81601250I155858J475378D01*
G01*
X228910391Y-82236629D02*
G75*
G02*
X227020170Y-83181491I-469141J-1424621D01*
G01*
X235258831Y-82546384D02*
G75*
G03*
X233370250Y-81601250I-467581J1425134D01*
G01*
X233052108Y-82236628D02*
G75*
G03*
X233370250Y-81601250I-155858J475378D01*
G01*
X234942330Y-83181491D02*
G75*
G02*
X235258831Y-82546385I473920J160241D01*
G01*
X233052109Y-82236629D02*
G75*
G03*
X234942330Y-83181491I469141J-1424621D01*
G01*
%TO.C,SW13*%
X198128669Y-82546384D02*
G75*
G02*
X200017250Y-81601250I467581J1425134D01*
G01*
X198445170Y-83181491D02*
G75*
G03*
X198128669Y-82546385I-473920J160241D01*
G01*
X200335392Y-82236628D02*
G75*
G02*
X200017250Y-81601250I155858J475378D01*
G01*
X200335391Y-82236629D02*
G75*
G02*
X198445170Y-83181491I-469141J-1424621D01*
G01*
X206683831Y-82546384D02*
G75*
G03*
X204795250Y-81601250I-467581J1425134D01*
G01*
X204477108Y-82236628D02*
G75*
G03*
X204795250Y-81601250I-155858J475378D01*
G01*
X206367330Y-83181491D02*
G75*
G02*
X206683831Y-82546385I473920J160241D01*
G01*
X204477109Y-82236629D02*
G75*
G03*
X206367330Y-83181491I469141J-1424621D01*
G01*
%TO.C,SW12*%
X179078669Y-82546384D02*
G75*
G02*
X180967250Y-81601250I467581J1425134D01*
G01*
X179395170Y-83181491D02*
G75*
G03*
X179078669Y-82546385I-473920J160241D01*
G01*
X181285392Y-82236628D02*
G75*
G02*
X180967250Y-81601250I155858J475378D01*
G01*
X181285391Y-82236629D02*
G75*
G02*
X179395170Y-83181491I-469141J-1424621D01*
G01*
X187633831Y-82546384D02*
G75*
G03*
X185745250Y-81601250I-467581J1425134D01*
G01*
X185427108Y-82236628D02*
G75*
G03*
X185745250Y-81601250I-155858J475378D01*
G01*
X187317330Y-83181491D02*
G75*
G02*
X187633831Y-82546385I473920J160241D01*
G01*
X185427109Y-82236629D02*
G75*
G03*
X187317330Y-83181491I469141J-1424621D01*
G01*
%TO.C,SW11*%
X160028669Y-82546384D02*
G75*
G02*
X161917250Y-81601250I467581J1425134D01*
G01*
X160345170Y-83181491D02*
G75*
G03*
X160028669Y-82546385I-473920J160241D01*
G01*
X162235392Y-82236628D02*
G75*
G02*
X161917250Y-81601250I155858J475378D01*
G01*
X162235391Y-82236629D02*
G75*
G02*
X160345170Y-83181491I-469141J-1424621D01*
G01*
X168583831Y-82546384D02*
G75*
G03*
X166695250Y-81601250I-467581J1425134D01*
G01*
X166377108Y-82236628D02*
G75*
G03*
X166695250Y-81601250I-155858J475378D01*
G01*
X168267330Y-83181491D02*
G75*
G02*
X168583831Y-82546385I473920J160241D01*
G01*
X166377109Y-82236629D02*
G75*
G03*
X168267330Y-83181491I469141J-1424621D01*
G01*
%TO.C,SW10*%
X140978669Y-82546384D02*
G75*
G02*
X142867250Y-81601250I467581J1425134D01*
G01*
X141295170Y-83181491D02*
G75*
G03*
X140978669Y-82546385I-473920J160241D01*
G01*
X143185392Y-82236628D02*
G75*
G02*
X142867250Y-81601250I155858J475378D01*
G01*
X143185391Y-82236629D02*
G75*
G02*
X141295170Y-83181491I-469141J-1424621D01*
G01*
X149533831Y-82546384D02*
G75*
G03*
X147645250Y-81601250I-467581J1425134D01*
G01*
X147327108Y-82236628D02*
G75*
G03*
X147645250Y-81601250I-155858J475378D01*
G01*
X149217330Y-83181491D02*
G75*
G02*
X149533831Y-82546385I473920J160241D01*
G01*
X147327109Y-82236629D02*
G75*
G03*
X149217330Y-83181491I469141J-1424621D01*
G01*
%TO.C,SW9*%
X121928669Y-82546384D02*
G75*
G02*
X123817250Y-81601250I467581J1425134D01*
G01*
X122245170Y-83181491D02*
G75*
G03*
X121928669Y-82546385I-473920J160241D01*
G01*
X124135392Y-82236628D02*
G75*
G02*
X123817250Y-81601250I155858J475378D01*
G01*
X124135391Y-82236629D02*
G75*
G02*
X122245170Y-83181491I-469141J-1424621D01*
G01*
X130483831Y-82546384D02*
G75*
G03*
X128595250Y-81601250I-467581J1425134D01*
G01*
X128277108Y-82236628D02*
G75*
G03*
X128595250Y-81601250I-155858J475378D01*
G01*
X130167330Y-83181491D02*
G75*
G02*
X130483831Y-82546385I473920J160241D01*
G01*
X128277109Y-82236629D02*
G75*
G03*
X130167330Y-83181491I469141J-1424621D01*
G01*
%TO.C,SW8*%
X102878669Y-82546384D02*
G75*
G02*
X104767250Y-81601250I467581J1425134D01*
G01*
X103195170Y-83181491D02*
G75*
G03*
X102878669Y-82546385I-473920J160241D01*
G01*
X105085392Y-82236628D02*
G75*
G02*
X104767250Y-81601250I155858J475378D01*
G01*
X105085391Y-82236629D02*
G75*
G02*
X103195170Y-83181491I-469141J-1424621D01*
G01*
X111433831Y-82546384D02*
G75*
G03*
X109545250Y-81601250I-467581J1425134D01*
G01*
X109227108Y-82236628D02*
G75*
G03*
X109545250Y-81601250I-155858J475378D01*
G01*
X111117330Y-83181491D02*
G75*
G02*
X111433831Y-82546385I473920J160241D01*
G01*
X109227109Y-82236629D02*
G75*
G03*
X111117330Y-83181491I469141J-1424621D01*
G01*
%TO.C,SW7*%
X226703669Y-63496384D02*
G75*
G02*
X228592250Y-62551250I467581J1425134D01*
G01*
X227020170Y-64131491D02*
G75*
G03*
X226703669Y-63496385I-473920J160241D01*
G01*
X228910392Y-63186628D02*
G75*
G02*
X228592250Y-62551250I155858J475378D01*
G01*
X228910391Y-63186629D02*
G75*
G02*
X227020170Y-64131491I-469141J-1424621D01*
G01*
X235258831Y-63496384D02*
G75*
G03*
X233370250Y-62551250I-467581J1425134D01*
G01*
X233052108Y-63186628D02*
G75*
G03*
X233370250Y-62551250I-155858J475378D01*
G01*
X234942330Y-64131491D02*
G75*
G02*
X235258831Y-63496385I473920J160241D01*
G01*
X233052109Y-63186629D02*
G75*
G03*
X234942330Y-64131491I469141J-1424621D01*
G01*
%TO.C,SW6*%
X198128669Y-63496384D02*
G75*
G02*
X200017250Y-62551250I467581J1425134D01*
G01*
X198445170Y-64131491D02*
G75*
G03*
X198128669Y-63496385I-473920J160241D01*
G01*
X200335392Y-63186628D02*
G75*
G02*
X200017250Y-62551250I155858J475378D01*
G01*
X200335391Y-63186629D02*
G75*
G02*
X198445170Y-64131491I-469141J-1424621D01*
G01*
X206683831Y-63496384D02*
G75*
G03*
X204795250Y-62551250I-467581J1425134D01*
G01*
X204477108Y-63186628D02*
G75*
G03*
X204795250Y-62551250I-155858J475378D01*
G01*
X206367330Y-64131491D02*
G75*
G02*
X206683831Y-63496385I473920J160241D01*
G01*
X204477109Y-63186629D02*
G75*
G03*
X206367330Y-64131491I469141J-1424621D01*
G01*
%TO.C,SW5*%
X179078669Y-63496384D02*
G75*
G02*
X180967250Y-62551250I467581J1425134D01*
G01*
X179395170Y-64131491D02*
G75*
G03*
X179078669Y-63496385I-473920J160241D01*
G01*
X181285392Y-63186628D02*
G75*
G02*
X180967250Y-62551250I155858J475378D01*
G01*
X181285391Y-63186629D02*
G75*
G02*
X179395170Y-64131491I-469141J-1424621D01*
G01*
X187633831Y-63496384D02*
G75*
G03*
X185745250Y-62551250I-467581J1425134D01*
G01*
X185427108Y-63186628D02*
G75*
G03*
X185745250Y-62551250I-155858J475378D01*
G01*
X187317330Y-64131491D02*
G75*
G02*
X187633831Y-63496385I473920J160241D01*
G01*
X185427109Y-63186629D02*
G75*
G03*
X187317330Y-64131491I469141J-1424621D01*
G01*
%TO.C,SW4*%
X160028669Y-63496384D02*
G75*
G02*
X161917250Y-62551250I467581J1425134D01*
G01*
X160345170Y-64131491D02*
G75*
G03*
X160028669Y-63496385I-473920J160241D01*
G01*
X162235392Y-63186628D02*
G75*
G02*
X161917250Y-62551250I155858J475378D01*
G01*
X162235391Y-63186629D02*
G75*
G02*
X160345170Y-64131491I-469141J-1424621D01*
G01*
X168583831Y-63496384D02*
G75*
G03*
X166695250Y-62551250I-467581J1425134D01*
G01*
X166377108Y-63186628D02*
G75*
G03*
X166695250Y-62551250I-155858J475378D01*
G01*
X168267330Y-64131491D02*
G75*
G02*
X168583831Y-63496385I473920J160241D01*
G01*
X166377109Y-63186629D02*
G75*
G03*
X168267330Y-64131491I469141J-1424621D01*
G01*
%TO.C,SW3*%
X140978669Y-63496384D02*
G75*
G02*
X142867250Y-62551250I467581J1425134D01*
G01*
X141295170Y-64131491D02*
G75*
G03*
X140978669Y-63496385I-473920J160241D01*
G01*
X143185392Y-63186628D02*
G75*
G02*
X142867250Y-62551250I155858J475378D01*
G01*
X143185391Y-63186629D02*
G75*
G02*
X141295170Y-64131491I-469141J-1424621D01*
G01*
X149533831Y-63496384D02*
G75*
G03*
X147645250Y-62551250I-467581J1425134D01*
G01*
X147327108Y-63186628D02*
G75*
G03*
X147645250Y-62551250I-155858J475378D01*
G01*
X149217330Y-64131491D02*
G75*
G02*
X149533831Y-63496385I473920J160241D01*
G01*
X147327109Y-63186629D02*
G75*
G03*
X149217330Y-64131491I469141J-1424621D01*
G01*
%TO.C,SW2*%
X121928669Y-63496384D02*
G75*
G02*
X123817250Y-62551250I467581J1425134D01*
G01*
X122245170Y-64131491D02*
G75*
G03*
X121928669Y-63496385I-473920J160241D01*
G01*
X124135392Y-63186628D02*
G75*
G02*
X123817250Y-62551250I155858J475378D01*
G01*
X124135391Y-63186629D02*
G75*
G02*
X122245170Y-64131491I-469141J-1424621D01*
G01*
X130483831Y-63496384D02*
G75*
G03*
X128595250Y-62551250I-467581J1425134D01*
G01*
X128277108Y-63186628D02*
G75*
G03*
X128595250Y-62551250I-155858J475378D01*
G01*
X130167330Y-64131491D02*
G75*
G02*
X130483831Y-63496385I473920J160241D01*
G01*
X128277109Y-63186629D02*
G75*
G03*
X130167330Y-64131491I469141J-1424621D01*
G01*
%TO.C,SW1*%
X102878669Y-63496384D02*
G75*
G02*
X104767250Y-62551250I467581J1425134D01*
G01*
X103195170Y-64131491D02*
G75*
G03*
X102878669Y-63496385I-473920J160241D01*
G01*
X105085392Y-63186628D02*
G75*
G02*
X104767250Y-62551250I155858J475378D01*
G01*
X105085391Y-63186629D02*
G75*
G02*
X103195170Y-64131491I-469141J-1424621D01*
G01*
X111433831Y-63496384D02*
G75*
G03*
X109545250Y-62551250I-467581J1425134D01*
G01*
X109227108Y-63186628D02*
G75*
G03*
X109545250Y-62551250I-155858J475378D01*
G01*
X111117330Y-64131491D02*
G75*
G02*
X111433831Y-63496385I473920J160241D01*
G01*
X109227109Y-63186629D02*
G75*
G03*
X111117330Y-64131491I469141J-1424621D01*
G01*
%TD*%
M02*
