%TF.GenerationSoftware,KiCad,Pcbnew,(5.1.9-0-10_14)*%
%TF.CreationDate,2021-01-21T09:17:30+08:00*%
%TF.ProjectId,kb-split,6b622d73-706c-4697-942e-6b696361645f,rev?*%
%TF.SameCoordinates,Original*%
%TF.FileFunction,Soldermask,Top*%
%TF.FilePolarity,Negative*%
%FSLAX46Y46*%
G04 Gerber Fmt 4.6, Leading zero omitted, Abs format (unit mm)*
G04 Created by KiCad (PCBNEW (5.1.9-0-10_14)) date 2021-01-21 09:17:30*
%MOMM*%
%LPD*%
G01*
G04 APERTURE LIST*
%ADD10C,1.600000*%
%ADD11O,1.800000X1.300000*%
%ADD12C,0.100000*%
%ADD13R,1.400000X1.200000*%
%ADD14R,1.500000X0.550000*%
%ADD15R,0.550000X1.500000*%
%ADD16O,1.000000X2.100000*%
%ADD17O,1.000000X1.600000*%
%ADD18R,0.570000X2.450000*%
%ADD19R,0.300000X2.450000*%
%ADD20C,0.650000*%
%ADD21O,0.820000X1.800000*%
%ADD22C,0.500000*%
%ADD23C,4.000000*%
%ADD24O,1.800000X0.820000*%
%ADD25O,1.060000X0.650000*%
%ADD26C,0.600000*%
%ADD27R,1.700000X1.000000*%
%ADD28R,2.150000X2.500000*%
%ADD29R,2.350000X2.500000*%
%ADD30C,1.750000*%
%ADD31C,3.987800*%
%ADD32C,2.000000*%
%ADD33R,2.000000X3.200000*%
%ADD34O,1.700000X1.700000*%
%ADD35R,1.700000X1.700000*%
G04 APERTURE END LIST*
D10*
%TO.C,J3*%
X251088000Y-64008000D03*
X257088000Y-64008000D03*
D11*
X251088000Y-60608000D03*
X251088000Y-67408000D03*
X254588000Y-67408000D03*
X254588000Y-60608000D03*
X257788000Y-60608000D03*
X257788000Y-67408000D03*
%TD*%
D12*
%TO.C,Y1*%
G36*
X251008296Y-82582532D02*
G01*
X251017954Y-82584011D01*
X251027420Y-82586426D01*
X251036607Y-82589753D01*
X251045424Y-82593960D01*
X251053789Y-82599008D01*
X251061621Y-82604849D01*
X251068847Y-82611425D01*
X251075395Y-82618675D01*
X251081205Y-82626530D01*
X251681205Y-83526530D01*
X251681971Y-83527697D01*
X251682828Y-83529175D01*
X251683773Y-83530590D01*
X251685262Y-83533375D01*
X251686870Y-83536150D01*
X251687590Y-83537730D01*
X251688399Y-83539244D01*
X251689596Y-83542135D01*
X251690920Y-83545041D01*
X251691491Y-83546709D01*
X251692154Y-83548311D01*
X251693060Y-83551296D01*
X251694082Y-83554285D01*
X251694490Y-83556010D01*
X251695003Y-83557702D01*
X251695607Y-83560739D01*
X251696329Y-83563793D01*
X251696570Y-83565577D01*
X251696918Y-83567327D01*
X251697220Y-83570395D01*
X251697636Y-83573475D01*
X251697702Y-83575286D01*
X251697880Y-83577093D01*
X251697880Y-83580167D01*
X251697992Y-83583239D01*
X251697880Y-83585065D01*
X251697880Y-83586907D01*
X251697581Y-83589944D01*
X251697394Y-83592991D01*
X251697100Y-83594822D01*
X251696918Y-83596673D01*
X251696328Y-83599641D01*
X251695847Y-83602637D01*
X251695370Y-83604455D01*
X251695003Y-83606298D01*
X251694133Y-83609167D01*
X251693366Y-83612087D01*
X251692705Y-83613874D01*
X251692154Y-83615689D01*
X251691014Y-83618441D01*
X251689975Y-83621249D01*
X251689137Y-83622975D01*
X251688399Y-83624756D01*
X251686994Y-83627385D01*
X251685706Y-83630037D01*
X251684691Y-83631693D01*
X251683773Y-83633410D01*
X251682139Y-83635856D01*
X251680600Y-83638366D01*
X251679417Y-83639930D01*
X251678321Y-83641570D01*
X251676467Y-83643829D01*
X251674705Y-83646158D01*
X251673357Y-83647618D01*
X251672095Y-83649156D01*
X251670047Y-83651204D01*
X251668078Y-83653337D01*
X251666579Y-83654672D01*
X251665156Y-83656095D01*
X251662930Y-83657922D01*
X251660782Y-83659835D01*
X251659144Y-83661029D01*
X251657570Y-83662321D01*
X251655200Y-83663905D01*
X251652888Y-83665590D01*
X251651115Y-83666634D01*
X251649410Y-83667773D01*
X251646910Y-83669110D01*
X251644468Y-83670547D01*
X251642599Y-83671414D01*
X251640756Y-83672399D01*
X251638171Y-83673470D01*
X251635606Y-83674660D01*
X251633609Y-83675359D01*
X251631689Y-83676154D01*
X251629035Y-83676959D01*
X251626385Y-83677887D01*
X251624321Y-83678389D01*
X251622298Y-83679003D01*
X251619589Y-83679542D01*
X251616892Y-83680199D01*
X251614779Y-83680499D01*
X251612673Y-83680918D01*
X251609942Y-83681187D01*
X251607220Y-83681574D01*
X251605062Y-83681668D01*
X251602907Y-83681880D01*
X251600176Y-83681880D01*
X251597459Y-83681998D01*
X251595287Y-83681880D01*
X251593093Y-83681880D01*
X251590390Y-83681614D01*
X251587703Y-83681468D01*
X251585533Y-83681135D01*
X251583327Y-83680918D01*
X251580687Y-83680393D01*
X251578046Y-83679988D01*
X251575893Y-83679439D01*
X251573702Y-83679003D01*
X251571163Y-83678233D01*
X251568580Y-83677574D01*
X251566462Y-83676807D01*
X251564311Y-83676154D01*
X251561888Y-83675151D01*
X251559393Y-83674247D01*
X251557342Y-83673268D01*
X251555244Y-83672399D01*
X251552943Y-83671169D01*
X251550575Y-83670039D01*
X251548606Y-83668851D01*
X251546590Y-83667773D01*
X251544429Y-83666329D01*
X251542211Y-83664991D01*
X251540354Y-83663607D01*
X251538430Y-83662321D01*
X251536448Y-83660694D01*
X251534378Y-83659151D01*
X251532649Y-83657577D01*
X251530844Y-83656095D01*
X251529048Y-83654299D01*
X251527153Y-83652574D01*
X251525565Y-83650816D01*
X251523905Y-83649156D01*
X251522310Y-83647213D01*
X251520604Y-83645324D01*
X251519181Y-83643401D01*
X251517679Y-83641570D01*
X251516291Y-83639493D01*
X251514795Y-83637470D01*
X250914795Y-82737470D01*
X250914029Y-82736303D01*
X250909130Y-82727850D01*
X250905080Y-82718959D01*
X250901917Y-82709715D01*
X250899671Y-82700207D01*
X250898364Y-82690525D01*
X250898008Y-82680761D01*
X250898606Y-82671009D01*
X250900153Y-82661363D01*
X250902634Y-82651913D01*
X250906025Y-82642751D01*
X250910294Y-82633963D01*
X250915400Y-82625634D01*
X250921295Y-82617842D01*
X250927921Y-82610663D01*
X250935218Y-82604165D01*
X250943112Y-82598409D01*
X250951531Y-82593453D01*
X250960394Y-82589340D01*
X250969615Y-82586113D01*
X250979108Y-82583801D01*
X250988780Y-82582426D01*
X250998541Y-82582001D01*
X251008296Y-82582532D01*
G37*
D13*
X249598000Y-83732000D03*
X251798000Y-83732000D03*
X251798000Y-85432000D03*
X249598000Y-85432000D03*
%TD*%
D14*
%TO.C,U2*%
X244490000Y-102806000D03*
X244490000Y-102006000D03*
X244490000Y-101206000D03*
X244490000Y-100406000D03*
X244490000Y-99606000D03*
X244490000Y-98806000D03*
X244490000Y-98006000D03*
X244490000Y-97206000D03*
X244490000Y-96406000D03*
X244490000Y-95606000D03*
X244490000Y-94806000D03*
D15*
X246190000Y-93106000D03*
X246990000Y-93106000D03*
X247790000Y-93106000D03*
X248590000Y-93106000D03*
X249390000Y-93106000D03*
X250190000Y-93106000D03*
X250990000Y-93106000D03*
X251790000Y-93106000D03*
X252590000Y-93106000D03*
X253390000Y-93106000D03*
X254190000Y-93106000D03*
D14*
X255890000Y-94806000D03*
X255890000Y-95606000D03*
X255890000Y-96406000D03*
X255890000Y-97206000D03*
X255890000Y-98006000D03*
X255890000Y-98806000D03*
X255890000Y-99606000D03*
X255890000Y-100406000D03*
X255890000Y-101206000D03*
X255890000Y-102006000D03*
X255890000Y-102806000D03*
D15*
X254190000Y-104506000D03*
X253390000Y-104506000D03*
X252590000Y-104506000D03*
X251790000Y-104506000D03*
X250990000Y-104506000D03*
X250190000Y-104506000D03*
X249390000Y-104506000D03*
X248590000Y-104506000D03*
X247790000Y-104506000D03*
X246990000Y-104506000D03*
X246190000Y-104506000D03*
%TD*%
D16*
%TO.C,J1*%
X212088000Y-52150750D03*
D17*
X212088000Y-47970750D03*
D16*
X220728000Y-52150750D03*
D17*
X220728000Y-47970750D03*
D18*
X213183000Y-53565750D03*
X213958000Y-53565750D03*
D19*
X214658000Y-53565750D03*
X215158000Y-53565750D03*
X215658000Y-53565750D03*
X216158000Y-53565750D03*
X216658000Y-53565750D03*
X217158000Y-53565750D03*
X217658000Y-53565750D03*
X218158000Y-53565750D03*
D18*
X218858000Y-53565750D03*
X219633000Y-53565750D03*
D20*
X213518000Y-51620750D03*
X219298000Y-51620750D03*
%TD*%
%TO.C,R1*%
G36*
G01*
X214101500Y-49232500D02*
X214101500Y-50145000D01*
G75*
G02*
X213857750Y-50388750I-243750J0D01*
G01*
X213370250Y-50388750D01*
G75*
G02*
X213126500Y-50145000I0J243750D01*
G01*
X213126500Y-49232500D01*
G75*
G02*
X213370250Y-48988750I243750J0D01*
G01*
X213857750Y-48988750D01*
G75*
G02*
X214101500Y-49232500I0J-243750D01*
G01*
G37*
G36*
G01*
X215976500Y-49232500D02*
X215976500Y-50145000D01*
G75*
G02*
X215732750Y-50388750I-243750J0D01*
G01*
X215245250Y-50388750D01*
G75*
G02*
X215001500Y-50145000I0J243750D01*
G01*
X215001500Y-49232500D01*
G75*
G02*
X215245250Y-48988750I243750J0D01*
G01*
X215732750Y-48988750D01*
G75*
G02*
X215976500Y-49232500I0J-243750D01*
G01*
G37*
%TD*%
D21*
%TO.C,LED25*%
X231008000Y-94836000D03*
X232288000Y-94836000D03*
X232288000Y-100236000D03*
X231008000Y-100236000D03*
%TD*%
D22*
%TO.C,H5*%
X203466250Y-106096250D03*
X201346250Y-106096250D03*
X201346250Y-108216250D03*
X203466250Y-108216250D03*
X202406250Y-105656250D03*
X202406250Y-108656250D03*
X200906250Y-107156250D03*
X203906250Y-107156250D03*
D23*
X202406250Y-107156250D03*
%TD*%
D22*
%TO.C,H4*%
X117741250Y-106096250D03*
X115621250Y-106096250D03*
X115621250Y-108216250D03*
X117741250Y-108216250D03*
X116681250Y-105656250D03*
X116681250Y-108656250D03*
X115181250Y-107156250D03*
X118181250Y-107156250D03*
D23*
X116681250Y-107156250D03*
%TD*%
D22*
%TO.C,H3*%
X174891250Y-87046250D03*
X172771250Y-87046250D03*
X172771250Y-89166250D03*
X174891250Y-89166250D03*
X173831250Y-86606250D03*
X173831250Y-89606250D03*
X172331250Y-88106250D03*
X175331250Y-88106250D03*
D23*
X173831250Y-88106250D03*
%TD*%
D22*
%TO.C,H2*%
X212991250Y-67996250D03*
X210871250Y-67996250D03*
X210871250Y-70116250D03*
X212991250Y-70116250D03*
X211931250Y-67556250D03*
X211931250Y-70556250D03*
X210431250Y-69056250D03*
X213431250Y-69056250D03*
D23*
X211931250Y-69056250D03*
%TD*%
D22*
%TO.C,H1*%
X117741250Y-67996250D03*
X115621250Y-67996250D03*
X115621250Y-70116250D03*
X117741250Y-70116250D03*
X116681250Y-67556250D03*
X116681250Y-70556250D03*
X115181250Y-69056250D03*
X118181250Y-69056250D03*
D23*
X116681250Y-69056250D03*
%TD*%
%TO.C,D27*%
G36*
G01*
X213936000Y-124593000D02*
X213936000Y-125343000D01*
G75*
G02*
X213711000Y-125568000I-225000J0D01*
G01*
X213261000Y-125568000D01*
G75*
G02*
X213036000Y-125343000I0J225000D01*
G01*
X213036000Y-124593000D01*
G75*
G02*
X213261000Y-124368000I225000J0D01*
G01*
X213711000Y-124368000D01*
G75*
G02*
X213936000Y-124593000I0J-225000D01*
G01*
G37*
G36*
G01*
X210636000Y-124593000D02*
X210636000Y-125343000D01*
G75*
G02*
X210411000Y-125568000I-225000J0D01*
G01*
X209961000Y-125568000D01*
G75*
G02*
X209736000Y-125343000I0J225000D01*
G01*
X209736000Y-124593000D01*
G75*
G02*
X209961000Y-124368000I225000J0D01*
G01*
X210411000Y-124368000D01*
G75*
G02*
X210636000Y-124593000I0J-225000D01*
G01*
G37*
%TD*%
%TO.C,D26*%
G36*
G01*
X185488000Y-124593000D02*
X185488000Y-125343000D01*
G75*
G02*
X185263000Y-125568000I-225000J0D01*
G01*
X184813000Y-125568000D01*
G75*
G02*
X184588000Y-125343000I0J225000D01*
G01*
X184588000Y-124593000D01*
G75*
G02*
X184813000Y-124368000I225000J0D01*
G01*
X185263000Y-124368000D01*
G75*
G02*
X185488000Y-124593000I0J-225000D01*
G01*
G37*
G36*
G01*
X182188000Y-124593000D02*
X182188000Y-125343000D01*
G75*
G02*
X181963000Y-125568000I-225000J0D01*
G01*
X181513000Y-125568000D01*
G75*
G02*
X181288000Y-125343000I0J225000D01*
G01*
X181288000Y-124593000D01*
G75*
G02*
X181513000Y-124368000I225000J0D01*
G01*
X181963000Y-124368000D01*
G75*
G02*
X182188000Y-124593000I0J-225000D01*
G01*
G37*
%TD*%
%TO.C,D25*%
G36*
G01*
X166692000Y-124593000D02*
X166692000Y-125343000D01*
G75*
G02*
X166467000Y-125568000I-225000J0D01*
G01*
X166017000Y-125568000D01*
G75*
G02*
X165792000Y-125343000I0J225000D01*
G01*
X165792000Y-124593000D01*
G75*
G02*
X166017000Y-124368000I225000J0D01*
G01*
X166467000Y-124368000D01*
G75*
G02*
X166692000Y-124593000I0J-225000D01*
G01*
G37*
G36*
G01*
X163392000Y-124593000D02*
X163392000Y-125343000D01*
G75*
G02*
X163167000Y-125568000I-225000J0D01*
G01*
X162717000Y-125568000D01*
G75*
G02*
X162492000Y-125343000I0J225000D01*
G01*
X162492000Y-124593000D01*
G75*
G02*
X162717000Y-124368000I225000J0D01*
G01*
X163167000Y-124368000D01*
G75*
G02*
X163392000Y-124593000I0J-225000D01*
G01*
G37*
%TD*%
%TO.C,D24*%
G36*
G01*
X147388000Y-124593000D02*
X147388000Y-125343000D01*
G75*
G02*
X147163000Y-125568000I-225000J0D01*
G01*
X146713000Y-125568000D01*
G75*
G02*
X146488000Y-125343000I0J225000D01*
G01*
X146488000Y-124593000D01*
G75*
G02*
X146713000Y-124368000I225000J0D01*
G01*
X147163000Y-124368000D01*
G75*
G02*
X147388000Y-124593000I0J-225000D01*
G01*
G37*
G36*
G01*
X144088000Y-124593000D02*
X144088000Y-125343000D01*
G75*
G02*
X143863000Y-125568000I-225000J0D01*
G01*
X143413000Y-125568000D01*
G75*
G02*
X143188000Y-125343000I0J225000D01*
G01*
X143188000Y-124593000D01*
G75*
G02*
X143413000Y-124368000I225000J0D01*
G01*
X143863000Y-124368000D01*
G75*
G02*
X144088000Y-124593000I0J-225000D01*
G01*
G37*
%TD*%
%TO.C,D23*%
G36*
G01*
X128084000Y-124593000D02*
X128084000Y-125343000D01*
G75*
G02*
X127859000Y-125568000I-225000J0D01*
G01*
X127409000Y-125568000D01*
G75*
G02*
X127184000Y-125343000I0J225000D01*
G01*
X127184000Y-124593000D01*
G75*
G02*
X127409000Y-124368000I225000J0D01*
G01*
X127859000Y-124368000D01*
G75*
G02*
X128084000Y-124593000I0J-225000D01*
G01*
G37*
G36*
G01*
X124784000Y-124593000D02*
X124784000Y-125343000D01*
G75*
G02*
X124559000Y-125568000I-225000J0D01*
G01*
X124109000Y-125568000D01*
G75*
G02*
X123884000Y-125343000I0J225000D01*
G01*
X123884000Y-124593000D01*
G75*
G02*
X124109000Y-124368000I225000J0D01*
G01*
X124559000Y-124368000D01*
G75*
G02*
X124784000Y-124593000I0J-225000D01*
G01*
G37*
%TD*%
%TO.C,D22*%
G36*
G01*
X109288000Y-124593000D02*
X109288000Y-125343000D01*
G75*
G02*
X109063000Y-125568000I-225000J0D01*
G01*
X108613000Y-125568000D01*
G75*
G02*
X108388000Y-125343000I0J225000D01*
G01*
X108388000Y-124593000D01*
G75*
G02*
X108613000Y-124368000I225000J0D01*
G01*
X109063000Y-124368000D01*
G75*
G02*
X109288000Y-124593000I0J-225000D01*
G01*
G37*
G36*
G01*
X105988000Y-124593000D02*
X105988000Y-125343000D01*
G75*
G02*
X105763000Y-125568000I-225000J0D01*
G01*
X105313000Y-125568000D01*
G75*
G02*
X105088000Y-125343000I0J225000D01*
G01*
X105088000Y-124593000D01*
G75*
G02*
X105313000Y-124368000I225000J0D01*
G01*
X105763000Y-124368000D01*
G75*
G02*
X105988000Y-124593000I0J-225000D01*
G01*
G37*
%TD*%
%TO.C,D21*%
G36*
G01*
X211768000Y-89275000D02*
X211768000Y-88525000D01*
G75*
G02*
X211993000Y-88300000I225000J0D01*
G01*
X212443000Y-88300000D01*
G75*
G02*
X212668000Y-88525000I0J-225000D01*
G01*
X212668000Y-89275000D01*
G75*
G02*
X212443000Y-89500000I-225000J0D01*
G01*
X211993000Y-89500000D01*
G75*
G02*
X211768000Y-89275000I0J225000D01*
G01*
G37*
G36*
G01*
X215068000Y-89275000D02*
X215068000Y-88525000D01*
G75*
G02*
X215293000Y-88300000I225000J0D01*
G01*
X215743000Y-88300000D01*
G75*
G02*
X215968000Y-88525000I0J-225000D01*
G01*
X215968000Y-89275000D01*
G75*
G02*
X215743000Y-89500000I-225000J0D01*
G01*
X215293000Y-89500000D01*
G75*
G02*
X215068000Y-89275000I0J225000D01*
G01*
G37*
%TD*%
%TO.C,D20*%
G36*
G01*
X197172000Y-107829000D02*
X197172000Y-108579000D01*
G75*
G02*
X196947000Y-108804000I-225000J0D01*
G01*
X196497000Y-108804000D01*
G75*
G02*
X196272000Y-108579000I0J225000D01*
G01*
X196272000Y-107829000D01*
G75*
G02*
X196497000Y-107604000I225000J0D01*
G01*
X196947000Y-107604000D01*
G75*
G02*
X197172000Y-107829000I0J-225000D01*
G01*
G37*
G36*
G01*
X193872000Y-107829000D02*
X193872000Y-108579000D01*
G75*
G02*
X193647000Y-108804000I-225000J0D01*
G01*
X193197000Y-108804000D01*
G75*
G02*
X192972000Y-108579000I0J225000D01*
G01*
X192972000Y-107829000D01*
G75*
G02*
X193197000Y-107604000I225000J0D01*
G01*
X193647000Y-107604000D01*
G75*
G02*
X193872000Y-107829000I0J-225000D01*
G01*
G37*
%TD*%
%TO.C,D19*%
G36*
G01*
X185488000Y-105797000D02*
X185488000Y-106547000D01*
G75*
G02*
X185263000Y-106772000I-225000J0D01*
G01*
X184813000Y-106772000D01*
G75*
G02*
X184588000Y-106547000I0J225000D01*
G01*
X184588000Y-105797000D01*
G75*
G02*
X184813000Y-105572000I225000J0D01*
G01*
X185263000Y-105572000D01*
G75*
G02*
X185488000Y-105797000I0J-225000D01*
G01*
G37*
G36*
G01*
X182188000Y-105797000D02*
X182188000Y-106547000D01*
G75*
G02*
X181963000Y-106772000I-225000J0D01*
G01*
X181513000Y-106772000D01*
G75*
G02*
X181288000Y-106547000I0J225000D01*
G01*
X181288000Y-105797000D01*
G75*
G02*
X181513000Y-105572000I225000J0D01*
G01*
X181963000Y-105572000D01*
G75*
G02*
X182188000Y-105797000I0J-225000D01*
G01*
G37*
%TD*%
%TO.C,D18*%
G36*
G01*
X169740000Y-106305000D02*
X169740000Y-107055000D01*
G75*
G02*
X169515000Y-107280000I-225000J0D01*
G01*
X169065000Y-107280000D01*
G75*
G02*
X168840000Y-107055000I0J225000D01*
G01*
X168840000Y-106305000D01*
G75*
G02*
X169065000Y-106080000I225000J0D01*
G01*
X169515000Y-106080000D01*
G75*
G02*
X169740000Y-106305000I0J-225000D01*
G01*
G37*
G36*
G01*
X166440000Y-106305000D02*
X166440000Y-107055000D01*
G75*
G02*
X166215000Y-107280000I-225000J0D01*
G01*
X165765000Y-107280000D01*
G75*
G02*
X165540000Y-107055000I0J225000D01*
G01*
X165540000Y-106305000D01*
G75*
G02*
X165765000Y-106080000I225000J0D01*
G01*
X166215000Y-106080000D01*
G75*
G02*
X166440000Y-106305000I0J-225000D01*
G01*
G37*
%TD*%
%TO.C,D17*%
G36*
G01*
X147388000Y-105797000D02*
X147388000Y-106547000D01*
G75*
G02*
X147163000Y-106772000I-225000J0D01*
G01*
X146713000Y-106772000D01*
G75*
G02*
X146488000Y-106547000I0J225000D01*
G01*
X146488000Y-105797000D01*
G75*
G02*
X146713000Y-105572000I225000J0D01*
G01*
X147163000Y-105572000D01*
G75*
G02*
X147388000Y-105797000I0J-225000D01*
G01*
G37*
G36*
G01*
X144088000Y-105797000D02*
X144088000Y-106547000D01*
G75*
G02*
X143863000Y-106772000I-225000J0D01*
G01*
X143413000Y-106772000D01*
G75*
G02*
X143188000Y-106547000I0J225000D01*
G01*
X143188000Y-105797000D01*
G75*
G02*
X143413000Y-105572000I225000J0D01*
G01*
X143863000Y-105572000D01*
G75*
G02*
X144088000Y-105797000I0J-225000D01*
G01*
G37*
%TD*%
%TO.C,D16*%
G36*
G01*
X128084000Y-105797000D02*
X128084000Y-106547000D01*
G75*
G02*
X127859000Y-106772000I-225000J0D01*
G01*
X127409000Y-106772000D01*
G75*
G02*
X127184000Y-106547000I0J225000D01*
G01*
X127184000Y-105797000D01*
G75*
G02*
X127409000Y-105572000I225000J0D01*
G01*
X127859000Y-105572000D01*
G75*
G02*
X128084000Y-105797000I0J-225000D01*
G01*
G37*
G36*
G01*
X124784000Y-105797000D02*
X124784000Y-106547000D01*
G75*
G02*
X124559000Y-106772000I-225000J0D01*
G01*
X124109000Y-106772000D01*
G75*
G02*
X123884000Y-106547000I0J225000D01*
G01*
X123884000Y-105797000D01*
G75*
G02*
X124109000Y-105572000I225000J0D01*
G01*
X124559000Y-105572000D01*
G75*
G02*
X124784000Y-105797000I0J-225000D01*
G01*
G37*
%TD*%
%TO.C,D15*%
G36*
G01*
X109288000Y-105797000D02*
X109288000Y-106547000D01*
G75*
G02*
X109063000Y-106772000I-225000J0D01*
G01*
X108613000Y-106772000D01*
G75*
G02*
X108388000Y-106547000I0J225000D01*
G01*
X108388000Y-105797000D01*
G75*
G02*
X108613000Y-105572000I225000J0D01*
G01*
X109063000Y-105572000D01*
G75*
G02*
X109288000Y-105797000I0J-225000D01*
G01*
G37*
G36*
G01*
X105988000Y-105797000D02*
X105988000Y-106547000D01*
G75*
G02*
X105763000Y-106772000I-225000J0D01*
G01*
X105313000Y-106772000D01*
G75*
G02*
X105088000Y-106547000I0J225000D01*
G01*
X105088000Y-105797000D01*
G75*
G02*
X105313000Y-105572000I225000J0D01*
G01*
X105763000Y-105572000D01*
G75*
G02*
X105988000Y-105797000I0J-225000D01*
G01*
G37*
%TD*%
%TO.C,D14*%
G36*
G01*
X233240000Y-86493000D02*
X233240000Y-87243000D01*
G75*
G02*
X233015000Y-87468000I-225000J0D01*
G01*
X232565000Y-87468000D01*
G75*
G02*
X232340000Y-87243000I0J225000D01*
G01*
X232340000Y-86493000D01*
G75*
G02*
X232565000Y-86268000I225000J0D01*
G01*
X233015000Y-86268000D01*
G75*
G02*
X233240000Y-86493000I0J-225000D01*
G01*
G37*
G36*
G01*
X229940000Y-86493000D02*
X229940000Y-87243000D01*
G75*
G02*
X229715000Y-87468000I-225000J0D01*
G01*
X229265000Y-87468000D01*
G75*
G02*
X229040000Y-87243000I0J225000D01*
G01*
X229040000Y-86493000D01*
G75*
G02*
X229265000Y-86268000I225000J0D01*
G01*
X229715000Y-86268000D01*
G75*
G02*
X229940000Y-86493000I0J-225000D01*
G01*
G37*
%TD*%
%TO.C,D13*%
G36*
G01*
X204792000Y-86493000D02*
X204792000Y-87243000D01*
G75*
G02*
X204567000Y-87468000I-225000J0D01*
G01*
X204117000Y-87468000D01*
G75*
G02*
X203892000Y-87243000I0J225000D01*
G01*
X203892000Y-86493000D01*
G75*
G02*
X204117000Y-86268000I225000J0D01*
G01*
X204567000Y-86268000D01*
G75*
G02*
X204792000Y-86493000I0J-225000D01*
G01*
G37*
G36*
G01*
X201492000Y-86493000D02*
X201492000Y-87243000D01*
G75*
G02*
X201267000Y-87468000I-225000J0D01*
G01*
X200817000Y-87468000D01*
G75*
G02*
X200592000Y-87243000I0J225000D01*
G01*
X200592000Y-86493000D01*
G75*
G02*
X200817000Y-86268000I225000J0D01*
G01*
X201267000Y-86268000D01*
G75*
G02*
X201492000Y-86493000I0J-225000D01*
G01*
G37*
%TD*%
%TO.C,D12*%
G36*
G01*
X185488000Y-86493000D02*
X185488000Y-87243000D01*
G75*
G02*
X185263000Y-87468000I-225000J0D01*
G01*
X184813000Y-87468000D01*
G75*
G02*
X184588000Y-87243000I0J225000D01*
G01*
X184588000Y-86493000D01*
G75*
G02*
X184813000Y-86268000I225000J0D01*
G01*
X185263000Y-86268000D01*
G75*
G02*
X185488000Y-86493000I0J-225000D01*
G01*
G37*
G36*
G01*
X182188000Y-86493000D02*
X182188000Y-87243000D01*
G75*
G02*
X181963000Y-87468000I-225000J0D01*
G01*
X181513000Y-87468000D01*
G75*
G02*
X181288000Y-87243000I0J225000D01*
G01*
X181288000Y-86493000D01*
G75*
G02*
X181513000Y-86268000I225000J0D01*
G01*
X181963000Y-86268000D01*
G75*
G02*
X182188000Y-86493000I0J-225000D01*
G01*
G37*
%TD*%
%TO.C,D11*%
G36*
G01*
X166184000Y-86493000D02*
X166184000Y-87243000D01*
G75*
G02*
X165959000Y-87468000I-225000J0D01*
G01*
X165509000Y-87468000D01*
G75*
G02*
X165284000Y-87243000I0J225000D01*
G01*
X165284000Y-86493000D01*
G75*
G02*
X165509000Y-86268000I225000J0D01*
G01*
X165959000Y-86268000D01*
G75*
G02*
X166184000Y-86493000I0J-225000D01*
G01*
G37*
G36*
G01*
X162884000Y-86493000D02*
X162884000Y-87243000D01*
G75*
G02*
X162659000Y-87468000I-225000J0D01*
G01*
X162209000Y-87468000D01*
G75*
G02*
X161984000Y-87243000I0J225000D01*
G01*
X161984000Y-86493000D01*
G75*
G02*
X162209000Y-86268000I225000J0D01*
G01*
X162659000Y-86268000D01*
G75*
G02*
X162884000Y-86493000I0J-225000D01*
G01*
G37*
%TD*%
%TO.C,D10*%
G36*
G01*
X147388000Y-86493000D02*
X147388000Y-87243000D01*
G75*
G02*
X147163000Y-87468000I-225000J0D01*
G01*
X146713000Y-87468000D01*
G75*
G02*
X146488000Y-87243000I0J225000D01*
G01*
X146488000Y-86493000D01*
G75*
G02*
X146713000Y-86268000I225000J0D01*
G01*
X147163000Y-86268000D01*
G75*
G02*
X147388000Y-86493000I0J-225000D01*
G01*
G37*
G36*
G01*
X144088000Y-86493000D02*
X144088000Y-87243000D01*
G75*
G02*
X143863000Y-87468000I-225000J0D01*
G01*
X143413000Y-87468000D01*
G75*
G02*
X143188000Y-87243000I0J225000D01*
G01*
X143188000Y-86493000D01*
G75*
G02*
X143413000Y-86268000I225000J0D01*
G01*
X143863000Y-86268000D01*
G75*
G02*
X144088000Y-86493000I0J-225000D01*
G01*
G37*
%TD*%
%TO.C,D9*%
G36*
G01*
X128084000Y-86493000D02*
X128084000Y-87243000D01*
G75*
G02*
X127859000Y-87468000I-225000J0D01*
G01*
X127409000Y-87468000D01*
G75*
G02*
X127184000Y-87243000I0J225000D01*
G01*
X127184000Y-86493000D01*
G75*
G02*
X127409000Y-86268000I225000J0D01*
G01*
X127859000Y-86268000D01*
G75*
G02*
X128084000Y-86493000I0J-225000D01*
G01*
G37*
G36*
G01*
X124784000Y-86493000D02*
X124784000Y-87243000D01*
G75*
G02*
X124559000Y-87468000I-225000J0D01*
G01*
X124109000Y-87468000D01*
G75*
G02*
X123884000Y-87243000I0J225000D01*
G01*
X123884000Y-86493000D01*
G75*
G02*
X124109000Y-86268000I225000J0D01*
G01*
X124559000Y-86268000D01*
G75*
G02*
X124784000Y-86493000I0J-225000D01*
G01*
G37*
%TD*%
%TO.C,D8*%
G36*
G01*
X109288000Y-86493000D02*
X109288000Y-87243000D01*
G75*
G02*
X109063000Y-87468000I-225000J0D01*
G01*
X108613000Y-87468000D01*
G75*
G02*
X108388000Y-87243000I0J225000D01*
G01*
X108388000Y-86493000D01*
G75*
G02*
X108613000Y-86268000I225000J0D01*
G01*
X109063000Y-86268000D01*
G75*
G02*
X109288000Y-86493000I0J-225000D01*
G01*
G37*
G36*
G01*
X105988000Y-86493000D02*
X105988000Y-87243000D01*
G75*
G02*
X105763000Y-87468000I-225000J0D01*
G01*
X105313000Y-87468000D01*
G75*
G02*
X105088000Y-87243000I0J225000D01*
G01*
X105088000Y-86493000D01*
G75*
G02*
X105313000Y-86268000I225000J0D01*
G01*
X105763000Y-86268000D01*
G75*
G02*
X105988000Y-86493000I0J-225000D01*
G01*
G37*
%TD*%
%TO.C,D7*%
G36*
G01*
X233240000Y-67697000D02*
X233240000Y-68447000D01*
G75*
G02*
X233015000Y-68672000I-225000J0D01*
G01*
X232565000Y-68672000D01*
G75*
G02*
X232340000Y-68447000I0J225000D01*
G01*
X232340000Y-67697000D01*
G75*
G02*
X232565000Y-67472000I225000J0D01*
G01*
X233015000Y-67472000D01*
G75*
G02*
X233240000Y-67697000I0J-225000D01*
G01*
G37*
G36*
G01*
X229940000Y-67697000D02*
X229940000Y-68447000D01*
G75*
G02*
X229715000Y-68672000I-225000J0D01*
G01*
X229265000Y-68672000D01*
G75*
G02*
X229040000Y-68447000I0J225000D01*
G01*
X229040000Y-67697000D01*
G75*
G02*
X229265000Y-67472000I225000J0D01*
G01*
X229715000Y-67472000D01*
G75*
G02*
X229940000Y-67697000I0J-225000D01*
G01*
G37*
%TD*%
%TO.C,D6*%
G36*
G01*
X204284000Y-67697000D02*
X204284000Y-68447000D01*
G75*
G02*
X204059000Y-68672000I-225000J0D01*
G01*
X203609000Y-68672000D01*
G75*
G02*
X203384000Y-68447000I0J225000D01*
G01*
X203384000Y-67697000D01*
G75*
G02*
X203609000Y-67472000I225000J0D01*
G01*
X204059000Y-67472000D01*
G75*
G02*
X204284000Y-67697000I0J-225000D01*
G01*
G37*
G36*
G01*
X200984000Y-67697000D02*
X200984000Y-68447000D01*
G75*
G02*
X200759000Y-68672000I-225000J0D01*
G01*
X200309000Y-68672000D01*
G75*
G02*
X200084000Y-68447000I0J225000D01*
G01*
X200084000Y-67697000D01*
G75*
G02*
X200309000Y-67472000I225000J0D01*
G01*
X200759000Y-67472000D01*
G75*
G02*
X200984000Y-67697000I0J-225000D01*
G01*
G37*
%TD*%
%TO.C,D5*%
G36*
G01*
X185488000Y-67697000D02*
X185488000Y-68447000D01*
G75*
G02*
X185263000Y-68672000I-225000J0D01*
G01*
X184813000Y-68672000D01*
G75*
G02*
X184588000Y-68447000I0J225000D01*
G01*
X184588000Y-67697000D01*
G75*
G02*
X184813000Y-67472000I225000J0D01*
G01*
X185263000Y-67472000D01*
G75*
G02*
X185488000Y-67697000I0J-225000D01*
G01*
G37*
G36*
G01*
X182188000Y-67697000D02*
X182188000Y-68447000D01*
G75*
G02*
X181963000Y-68672000I-225000J0D01*
G01*
X181513000Y-68672000D01*
G75*
G02*
X181288000Y-68447000I0J225000D01*
G01*
X181288000Y-67697000D01*
G75*
G02*
X181513000Y-67472000I225000J0D01*
G01*
X181963000Y-67472000D01*
G75*
G02*
X182188000Y-67697000I0J-225000D01*
G01*
G37*
%TD*%
%TO.C,D4*%
G36*
G01*
X166184000Y-67697000D02*
X166184000Y-68447000D01*
G75*
G02*
X165959000Y-68672000I-225000J0D01*
G01*
X165509000Y-68672000D01*
G75*
G02*
X165284000Y-68447000I0J225000D01*
G01*
X165284000Y-67697000D01*
G75*
G02*
X165509000Y-67472000I225000J0D01*
G01*
X165959000Y-67472000D01*
G75*
G02*
X166184000Y-67697000I0J-225000D01*
G01*
G37*
G36*
G01*
X162884000Y-67697000D02*
X162884000Y-68447000D01*
G75*
G02*
X162659000Y-68672000I-225000J0D01*
G01*
X162209000Y-68672000D01*
G75*
G02*
X161984000Y-68447000I0J225000D01*
G01*
X161984000Y-67697000D01*
G75*
G02*
X162209000Y-67472000I225000J0D01*
G01*
X162659000Y-67472000D01*
G75*
G02*
X162884000Y-67697000I0J-225000D01*
G01*
G37*
%TD*%
%TO.C,D3*%
G36*
G01*
X147388000Y-67697000D02*
X147388000Y-68447000D01*
G75*
G02*
X147163000Y-68672000I-225000J0D01*
G01*
X146713000Y-68672000D01*
G75*
G02*
X146488000Y-68447000I0J225000D01*
G01*
X146488000Y-67697000D01*
G75*
G02*
X146713000Y-67472000I225000J0D01*
G01*
X147163000Y-67472000D01*
G75*
G02*
X147388000Y-67697000I0J-225000D01*
G01*
G37*
G36*
G01*
X144088000Y-67697000D02*
X144088000Y-68447000D01*
G75*
G02*
X143863000Y-68672000I-225000J0D01*
G01*
X143413000Y-68672000D01*
G75*
G02*
X143188000Y-68447000I0J225000D01*
G01*
X143188000Y-67697000D01*
G75*
G02*
X143413000Y-67472000I225000J0D01*
G01*
X143863000Y-67472000D01*
G75*
G02*
X144088000Y-67697000I0J-225000D01*
G01*
G37*
%TD*%
%TO.C,D2*%
G36*
G01*
X128592000Y-67697000D02*
X128592000Y-68447000D01*
G75*
G02*
X128367000Y-68672000I-225000J0D01*
G01*
X127917000Y-68672000D01*
G75*
G02*
X127692000Y-68447000I0J225000D01*
G01*
X127692000Y-67697000D01*
G75*
G02*
X127917000Y-67472000I225000J0D01*
G01*
X128367000Y-67472000D01*
G75*
G02*
X128592000Y-67697000I0J-225000D01*
G01*
G37*
G36*
G01*
X125292000Y-67697000D02*
X125292000Y-68447000D01*
G75*
G02*
X125067000Y-68672000I-225000J0D01*
G01*
X124617000Y-68672000D01*
G75*
G02*
X124392000Y-68447000I0J225000D01*
G01*
X124392000Y-67697000D01*
G75*
G02*
X124617000Y-67472000I225000J0D01*
G01*
X125067000Y-67472000D01*
G75*
G02*
X125292000Y-67697000I0J-225000D01*
G01*
G37*
%TD*%
%TO.C,D1*%
G36*
G01*
X109288000Y-67697000D02*
X109288000Y-68447000D01*
G75*
G02*
X109063000Y-68672000I-225000J0D01*
G01*
X108613000Y-68672000D01*
G75*
G02*
X108388000Y-68447000I0J225000D01*
G01*
X108388000Y-67697000D01*
G75*
G02*
X108613000Y-67472000I225000J0D01*
G01*
X109063000Y-67472000D01*
G75*
G02*
X109288000Y-67697000I0J-225000D01*
G01*
G37*
G36*
G01*
X105988000Y-67697000D02*
X105988000Y-68447000D01*
G75*
G02*
X105763000Y-68672000I-225000J0D01*
G01*
X105313000Y-68672000D01*
G75*
G02*
X105088000Y-68447000I0J225000D01*
G01*
X105088000Y-67697000D01*
G75*
G02*
X105313000Y-67472000I225000J0D01*
G01*
X105763000Y-67472000D01*
G75*
G02*
X105988000Y-67697000I0J-225000D01*
G01*
G37*
%TD*%
D24*
%TO.C,LED31*%
X214631250Y-112241250D03*
X214631250Y-110961250D03*
X209231250Y-110961250D03*
X209231250Y-112241250D03*
%TD*%
%TO.C,LED30*%
X186056250Y-112241250D03*
X186056250Y-110961250D03*
X180656250Y-110961250D03*
X180656250Y-112241250D03*
%TD*%
%TO.C,LED29*%
X167006250Y-112241250D03*
X167006250Y-110961250D03*
X161606250Y-110961250D03*
X161606250Y-112241250D03*
%TD*%
%TO.C,LED28*%
X147956250Y-112241250D03*
X147956250Y-110961250D03*
X142556250Y-110961250D03*
X142556250Y-112241250D03*
%TD*%
%TO.C,LED27*%
X128906250Y-112241250D03*
X128906250Y-110961250D03*
X123506250Y-110961250D03*
X123506250Y-112241250D03*
%TD*%
%TO.C,LED26*%
X109856250Y-112241250D03*
X109856250Y-110961250D03*
X104456250Y-110961250D03*
X104456250Y-112241250D03*
%TD*%
%TO.C,LED24*%
X199706250Y-91911250D03*
X199706250Y-93191250D03*
X205106250Y-93191250D03*
X205106250Y-91911250D03*
%TD*%
%TO.C,LED23*%
X180656250Y-91911250D03*
X180656250Y-93191250D03*
X186056250Y-93191250D03*
X186056250Y-91911250D03*
%TD*%
%TO.C,LED22*%
X161606250Y-91911250D03*
X161606250Y-93191250D03*
X167006250Y-93191250D03*
X167006250Y-91911250D03*
%TD*%
%TO.C,LED21*%
X142556250Y-91911250D03*
X142556250Y-93191250D03*
X147956250Y-93191250D03*
X147956250Y-91911250D03*
%TD*%
%TO.C,LED20*%
X123506250Y-91911250D03*
X123506250Y-93191250D03*
X128906250Y-93191250D03*
X128906250Y-91911250D03*
%TD*%
%TO.C,LED19*%
X104456250Y-91911250D03*
X104456250Y-93191250D03*
X109856250Y-93191250D03*
X109856250Y-91911250D03*
%TD*%
%TO.C,LED18*%
X233681250Y-74141250D03*
X233681250Y-72861250D03*
X228281250Y-72861250D03*
X228281250Y-74141250D03*
%TD*%
%TO.C,LED17*%
X205106250Y-74141250D03*
X205106250Y-72861250D03*
X199706250Y-72861250D03*
X199706250Y-74141250D03*
%TD*%
%TO.C,LED16*%
X186056250Y-74141250D03*
X186056250Y-72861250D03*
X180656250Y-72861250D03*
X180656250Y-74141250D03*
%TD*%
%TO.C,LED15*%
X167006250Y-74141250D03*
X167006250Y-72861250D03*
X161606250Y-72861250D03*
X161606250Y-74141250D03*
%TD*%
%TO.C,LED14*%
X147956250Y-74141250D03*
X147956250Y-72861250D03*
X142556250Y-72861250D03*
X142556250Y-74141250D03*
%TD*%
%TO.C,LED13*%
X128906250Y-74141250D03*
X128906250Y-72861250D03*
X123506250Y-72861250D03*
X123506250Y-74141250D03*
%TD*%
%TO.C,LED12*%
X109856250Y-74141250D03*
X109856250Y-72861250D03*
X104456250Y-72861250D03*
X104456250Y-74141250D03*
%TD*%
%TO.C,LED11*%
X228281250Y-53811250D03*
X228281250Y-55091250D03*
X233681250Y-55091250D03*
X233681250Y-53811250D03*
%TD*%
%TO.C,LED10*%
X199706250Y-53811250D03*
X199706250Y-55091250D03*
X205106250Y-55091250D03*
X205106250Y-53811250D03*
%TD*%
%TO.C,LED9*%
X180656250Y-53811250D03*
X180656250Y-55091250D03*
X186056250Y-55091250D03*
X186056250Y-53811250D03*
%TD*%
%TO.C,LED8*%
X161606250Y-53811250D03*
X161606250Y-55091250D03*
X167006250Y-55091250D03*
X167006250Y-53811250D03*
%TD*%
%TO.C,LED7*%
X142556250Y-53811250D03*
X142556250Y-55091250D03*
X147956250Y-55091250D03*
X147956250Y-53811250D03*
%TD*%
%TO.C,LED6*%
X123506250Y-53811250D03*
X123506250Y-55091250D03*
X128906250Y-55091250D03*
X128906250Y-53811250D03*
%TD*%
%TO.C,LED5*%
X104456250Y-53811250D03*
X104456250Y-55091250D03*
X109856250Y-55091250D03*
X109856250Y-53811250D03*
%TD*%
D21*
%TO.C,LED4*%
X216053750Y-75881250D03*
X217333750Y-75881250D03*
X217333750Y-81281250D03*
X216053750Y-81281250D03*
%TD*%
D24*
%TO.C,LED3*%
X171131250Y-69696250D03*
X171131250Y-68416250D03*
X176531250Y-68416250D03*
X176531250Y-69696250D03*
%TD*%
%TO.C,LED2*%
X152081250Y-107796250D03*
X152081250Y-106516250D03*
X157481250Y-106516250D03*
X157481250Y-107796250D03*
%TD*%
%TO.C,LED1*%
X119381250Y-87466250D03*
X119381250Y-88746250D03*
X113981250Y-88746250D03*
X113981250Y-87466250D03*
%TD*%
D25*
%TO.C,U1*%
X217289000Y-64262000D03*
X217289000Y-63312000D03*
X217289000Y-65212000D03*
X215089000Y-65212000D03*
X215089000Y-64262000D03*
X215089000Y-63312000D03*
%TD*%
D26*
%TO.C,SW22*%
X254000000Y-75570000D03*
X254000000Y-79370000D03*
D27*
X250850000Y-75570000D03*
X257150000Y-75570000D03*
X250850000Y-79370000D03*
X257150000Y-79370000D03*
%TD*%
D28*
%TO.C,SW28*%
X218330450Y-121748550D03*
D29*
X204719250Y-119221250D03*
D30*
X206851250Y-116681250D03*
X217011250Y-116681250D03*
D31*
X211931250Y-116681250D03*
%TD*%
D28*
%TO.C,SW27*%
X189755450Y-121748550D03*
D29*
X176144250Y-119221250D03*
D30*
X178276250Y-116681250D03*
X188436250Y-116681250D03*
D31*
X183356250Y-116681250D03*
%TD*%
D28*
%TO.C,SW26*%
X170705450Y-121748550D03*
D29*
X157094250Y-119221250D03*
D30*
X159226250Y-116681250D03*
X169386250Y-116681250D03*
D31*
X164306250Y-116681250D03*
%TD*%
D28*
%TO.C,SW25*%
X151655450Y-121748550D03*
D29*
X138044250Y-119221250D03*
D30*
X140176250Y-116681250D03*
X150336250Y-116681250D03*
D31*
X145256250Y-116681250D03*
%TD*%
D28*
%TO.C,SW24*%
X132605450Y-121748550D03*
D29*
X118994250Y-119221250D03*
D30*
X121126250Y-116681250D03*
X131286250Y-116681250D03*
D31*
X126206250Y-116681250D03*
%TD*%
D28*
%TO.C,SW23*%
X113555450Y-121748550D03*
D29*
X99944250Y-119221250D03*
D30*
X102076250Y-116681250D03*
X112236250Y-116681250D03*
D31*
X107156250Y-116681250D03*
%TD*%
D32*
%TO.C,SW15*%
X223956250Y-90631250D03*
X218956250Y-90631250D03*
D33*
X227056250Y-97631250D03*
X215856250Y-97631250D03*
D32*
X223956250Y-105131250D03*
X221456250Y-105131250D03*
X218956250Y-105131250D03*
%TD*%
D28*
%TO.C,SW21*%
X208805450Y-102698550D03*
D29*
X195194250Y-100171250D03*
D30*
X197326250Y-97631250D03*
X207486250Y-97631250D03*
D31*
X202406250Y-97631250D03*
%TD*%
D28*
%TO.C,SW20*%
X189755450Y-102698550D03*
D29*
X176144250Y-100171250D03*
D30*
X178276250Y-97631250D03*
X188436250Y-97631250D03*
D31*
X183356250Y-97631250D03*
%TD*%
D28*
%TO.C,SW19*%
X170705450Y-102698550D03*
D29*
X157094250Y-100171250D03*
D30*
X159226250Y-97631250D03*
X169386250Y-97631250D03*
D31*
X164306250Y-97631250D03*
%TD*%
D28*
%TO.C,SW18*%
X151655450Y-102698550D03*
D29*
X138044250Y-100171250D03*
D30*
X140176250Y-97631250D03*
X150336250Y-97631250D03*
D31*
X145256250Y-97631250D03*
%TD*%
D28*
%TO.C,SW17*%
X132605450Y-102698550D03*
D29*
X118994250Y-100171250D03*
D30*
X121126250Y-97631250D03*
X131286250Y-97631250D03*
D31*
X126206250Y-97631250D03*
%TD*%
D28*
%TO.C,SW16*%
X113555450Y-102698550D03*
D29*
X99944250Y-100171250D03*
D30*
X102076250Y-97631250D03*
X112236250Y-97631250D03*
D31*
X107156250Y-97631250D03*
%TD*%
D28*
%TO.C,SW14*%
X237380450Y-83648550D03*
D29*
X223769250Y-81121250D03*
D30*
X225901250Y-78581250D03*
X236061250Y-78581250D03*
D31*
X230981250Y-78581250D03*
%TD*%
D28*
%TO.C,SW13*%
X208805450Y-83648550D03*
D29*
X195194250Y-81121250D03*
D30*
X197326250Y-78581250D03*
X207486250Y-78581250D03*
D31*
X202406250Y-78581250D03*
%TD*%
D28*
%TO.C,SW12*%
X189755450Y-83648550D03*
D29*
X176144250Y-81121250D03*
D30*
X178276250Y-78581250D03*
X188436250Y-78581250D03*
D31*
X183356250Y-78581250D03*
%TD*%
D28*
%TO.C,SW11*%
X170705450Y-83648550D03*
D29*
X157094250Y-81121250D03*
D30*
X159226250Y-78581250D03*
X169386250Y-78581250D03*
D31*
X164306250Y-78581250D03*
%TD*%
D28*
%TO.C,SW10*%
X151655450Y-83648550D03*
D29*
X138044250Y-81121250D03*
D30*
X140176250Y-78581250D03*
X150336250Y-78581250D03*
D31*
X145256250Y-78581250D03*
%TD*%
D28*
%TO.C,SW9*%
X132605450Y-83648550D03*
D29*
X118994250Y-81121250D03*
D30*
X121126250Y-78581250D03*
X131286250Y-78581250D03*
D31*
X126206250Y-78581250D03*
%TD*%
D28*
%TO.C,SW8*%
X113555450Y-83648550D03*
D29*
X99944250Y-81121250D03*
D30*
X102076250Y-78581250D03*
X112236250Y-78581250D03*
D31*
X107156250Y-78581250D03*
%TD*%
D28*
%TO.C,SW7*%
X237380450Y-64598550D03*
D29*
X223769250Y-62071250D03*
D30*
X225901250Y-59531250D03*
X236061250Y-59531250D03*
D31*
X230981250Y-59531250D03*
%TD*%
D28*
%TO.C,SW6*%
X208805450Y-64598550D03*
D29*
X195194250Y-62071250D03*
D30*
X197326250Y-59531250D03*
X207486250Y-59531250D03*
D31*
X202406250Y-59531250D03*
%TD*%
D28*
%TO.C,SW5*%
X189755450Y-64598550D03*
D29*
X176144250Y-62071250D03*
D30*
X178276250Y-59531250D03*
X188436250Y-59531250D03*
D31*
X183356250Y-59531250D03*
%TD*%
D28*
%TO.C,SW4*%
X170705450Y-64598550D03*
D29*
X157094250Y-62071250D03*
D30*
X159226250Y-59531250D03*
X169386250Y-59531250D03*
D31*
X164306250Y-59531250D03*
%TD*%
D28*
%TO.C,SW3*%
X151655450Y-64598550D03*
D29*
X138044250Y-62071250D03*
D30*
X140176250Y-59531250D03*
X150336250Y-59531250D03*
D31*
X145256250Y-59531250D03*
%TD*%
D28*
%TO.C,SW2*%
X132605450Y-64598550D03*
D29*
X118994250Y-62071250D03*
D30*
X121126250Y-59531250D03*
X131286250Y-59531250D03*
D31*
X126206250Y-59531250D03*
%TD*%
D28*
%TO.C,SW1*%
X113555450Y-64598550D03*
D29*
X99944250Y-62071250D03*
D30*
X102076250Y-59531250D03*
X112236250Y-59531250D03*
D31*
X107156250Y-59531250D03*
%TD*%
%TO.C,R6*%
G36*
G01*
X245058250Y-84053500D02*
X244145750Y-84053500D01*
G75*
G02*
X243902000Y-83809750I0J243750D01*
G01*
X243902000Y-83322250D01*
G75*
G02*
X244145750Y-83078500I243750J0D01*
G01*
X245058250Y-83078500D01*
G75*
G02*
X245302000Y-83322250I0J-243750D01*
G01*
X245302000Y-83809750D01*
G75*
G02*
X245058250Y-84053500I-243750J0D01*
G01*
G37*
G36*
G01*
X245058250Y-85928500D02*
X244145750Y-85928500D01*
G75*
G02*
X243902000Y-85684750I0J243750D01*
G01*
X243902000Y-85197250D01*
G75*
G02*
X244145750Y-84953500I243750J0D01*
G01*
X245058250Y-84953500D01*
G75*
G02*
X245302000Y-85197250I0J-243750D01*
G01*
X245302000Y-85684750D01*
G75*
G02*
X245058250Y-85928500I-243750J0D01*
G01*
G37*
%TD*%
%TO.C,R5*%
G36*
G01*
X233543500Y-109676250D02*
X233543500Y-108763750D01*
G75*
G02*
X233787250Y-108520000I243750J0D01*
G01*
X234274750Y-108520000D01*
G75*
G02*
X234518500Y-108763750I0J-243750D01*
G01*
X234518500Y-109676250D01*
G75*
G02*
X234274750Y-109920000I-243750J0D01*
G01*
X233787250Y-109920000D01*
G75*
G02*
X233543500Y-109676250I0J243750D01*
G01*
G37*
G36*
G01*
X231668500Y-109676250D02*
X231668500Y-108763750D01*
G75*
G02*
X231912250Y-108520000I243750J0D01*
G01*
X232399750Y-108520000D01*
G75*
G02*
X232643500Y-108763750I0J-243750D01*
G01*
X232643500Y-109676250D01*
G75*
G02*
X232399750Y-109920000I-243750J0D01*
G01*
X231912250Y-109920000D01*
G75*
G02*
X231668500Y-109676250I0J243750D01*
G01*
G37*
%TD*%
%TO.C,R4*%
G36*
G01*
X238702000Y-109676250D02*
X238702000Y-108763750D01*
G75*
G02*
X238945750Y-108520000I243750J0D01*
G01*
X239433250Y-108520000D01*
G75*
G02*
X239677000Y-108763750I0J-243750D01*
G01*
X239677000Y-109676250D01*
G75*
G02*
X239433250Y-109920000I-243750J0D01*
G01*
X238945750Y-109920000D01*
G75*
G02*
X238702000Y-109676250I0J243750D01*
G01*
G37*
G36*
G01*
X236827000Y-109676250D02*
X236827000Y-108763750D01*
G75*
G02*
X237070750Y-108520000I243750J0D01*
G01*
X237558250Y-108520000D01*
G75*
G02*
X237802000Y-108763750I0J-243750D01*
G01*
X237802000Y-109676250D01*
G75*
G02*
X237558250Y-109920000I-243750J0D01*
G01*
X237070750Y-109920000D01*
G75*
G02*
X236827000Y-109676250I0J243750D01*
G01*
G37*
%TD*%
%TO.C,R3*%
G36*
G01*
X247090250Y-75320500D02*
X246177750Y-75320500D01*
G75*
G02*
X245934000Y-75076750I0J243750D01*
G01*
X245934000Y-74589250D01*
G75*
G02*
X246177750Y-74345500I243750J0D01*
G01*
X247090250Y-74345500D01*
G75*
G02*
X247334000Y-74589250I0J-243750D01*
G01*
X247334000Y-75076750D01*
G75*
G02*
X247090250Y-75320500I-243750J0D01*
G01*
G37*
G36*
G01*
X247090250Y-77195500D02*
X246177750Y-77195500D01*
G75*
G02*
X245934000Y-76951750I0J243750D01*
G01*
X245934000Y-76464250D01*
G75*
G02*
X246177750Y-76220500I243750J0D01*
G01*
X247090250Y-76220500D01*
G75*
G02*
X247334000Y-76464250I0J-243750D01*
G01*
X247334000Y-76951750D01*
G75*
G02*
X247090250Y-77195500I-243750J0D01*
G01*
G37*
%TD*%
%TO.C,R2*%
G36*
G01*
X218636000Y-50145000D02*
X218636000Y-49232500D01*
G75*
G02*
X218879750Y-48988750I243750J0D01*
G01*
X219367250Y-48988750D01*
G75*
G02*
X219611000Y-49232500I0J-243750D01*
G01*
X219611000Y-50145000D01*
G75*
G02*
X219367250Y-50388750I-243750J0D01*
G01*
X218879750Y-50388750D01*
G75*
G02*
X218636000Y-50145000I0J243750D01*
G01*
G37*
G36*
G01*
X216761000Y-50145000D02*
X216761000Y-49232500D01*
G75*
G02*
X217004750Y-48988750I243750J0D01*
G01*
X217492250Y-48988750D01*
G75*
G02*
X217736000Y-49232500I0J-243750D01*
G01*
X217736000Y-50145000D01*
G75*
G02*
X217492250Y-50388750I-243750J0D01*
G01*
X217004750Y-50388750D01*
G75*
G02*
X216761000Y-50145000I0J243750D01*
G01*
G37*
%TD*%
D34*
%TO.C,J2*%
X248539000Y-69850000D03*
X251079000Y-69850000D03*
D35*
X253619000Y-69850000D03*
%TD*%
D34*
%TO.C,ISP1*%
X232156000Y-114300000D03*
X229616000Y-114300000D03*
X232156000Y-116840000D03*
X229616000Y-116840000D03*
X232156000Y-119380000D03*
D35*
X229616000Y-119380000D03*
%TD*%
%TO.C,F1*%
G36*
G01*
X216923000Y-70983000D02*
X216923000Y-69733000D01*
G75*
G02*
X217173000Y-69483000I250000J0D01*
G01*
X217923000Y-69483000D01*
G75*
G02*
X218173000Y-69733000I0J-250000D01*
G01*
X218173000Y-70983000D01*
G75*
G02*
X217923000Y-71233000I-250000J0D01*
G01*
X217173000Y-71233000D01*
G75*
G02*
X216923000Y-70983000I0J250000D01*
G01*
G37*
G36*
G01*
X219723000Y-70983000D02*
X219723000Y-69733000D01*
G75*
G02*
X219973000Y-69483000I250000J0D01*
G01*
X220723000Y-69483000D01*
G75*
G02*
X220973000Y-69733000I0J-250000D01*
G01*
X220973000Y-70983000D01*
G75*
G02*
X220723000Y-71233000I-250000J0D01*
G01*
X219973000Y-71233000D01*
G75*
G02*
X219723000Y-70983000I0J250000D01*
G01*
G37*
%TD*%
%TO.C,C19*%
G36*
G01*
X118923750Y-111859000D02*
X119836250Y-111859000D01*
G75*
G02*
X120080000Y-112102750I0J-243750D01*
G01*
X120080000Y-112590250D01*
G75*
G02*
X119836250Y-112834000I-243750J0D01*
G01*
X118923750Y-112834000D01*
G75*
G02*
X118680000Y-112590250I0J243750D01*
G01*
X118680000Y-112102750D01*
G75*
G02*
X118923750Y-111859000I243750J0D01*
G01*
G37*
G36*
G01*
X118923750Y-113734000D02*
X119836250Y-113734000D01*
G75*
G02*
X120080000Y-113977750I0J-243750D01*
G01*
X120080000Y-114465250D01*
G75*
G02*
X119836250Y-114709000I-243750J0D01*
G01*
X118923750Y-114709000D01*
G75*
G02*
X118680000Y-114465250I0J243750D01*
G01*
X118680000Y-113977750D01*
G75*
G02*
X118923750Y-113734000I243750J0D01*
G01*
G37*
%TD*%
%TO.C,C18*%
G36*
G01*
X230223000Y-90880250D02*
X230223000Y-89967750D01*
G75*
G02*
X230466750Y-89724000I243750J0D01*
G01*
X230954250Y-89724000D01*
G75*
G02*
X231198000Y-89967750I0J-243750D01*
G01*
X231198000Y-90880250D01*
G75*
G02*
X230954250Y-91124000I-243750J0D01*
G01*
X230466750Y-91124000D01*
G75*
G02*
X230223000Y-90880250I0J243750D01*
G01*
G37*
G36*
G01*
X232098000Y-90880250D02*
X232098000Y-89967750D01*
G75*
G02*
X232341750Y-89724000I243750J0D01*
G01*
X232829250Y-89724000D01*
G75*
G02*
X233073000Y-89967750I0J-243750D01*
G01*
X233073000Y-90880250D01*
G75*
G02*
X232829250Y-91124000I-243750J0D01*
G01*
X232341750Y-91124000D01*
G75*
G02*
X232098000Y-90880250I0J243750D01*
G01*
G37*
%TD*%
%TO.C,C17*%
G36*
G01*
X175819750Y-92555000D02*
X176732250Y-92555000D01*
G75*
G02*
X176976000Y-92798750I0J-243750D01*
G01*
X176976000Y-93286250D01*
G75*
G02*
X176732250Y-93530000I-243750J0D01*
G01*
X175819750Y-93530000D01*
G75*
G02*
X175576000Y-93286250I0J243750D01*
G01*
X175576000Y-92798750D01*
G75*
G02*
X175819750Y-92555000I243750J0D01*
G01*
G37*
G36*
G01*
X175819750Y-94430000D02*
X176732250Y-94430000D01*
G75*
G02*
X176976000Y-94673750I0J-243750D01*
G01*
X176976000Y-95161250D01*
G75*
G02*
X176732250Y-95405000I-243750J0D01*
G01*
X175819750Y-95405000D01*
G75*
G02*
X175576000Y-95161250I0J243750D01*
G01*
X175576000Y-94673750D01*
G75*
G02*
X175819750Y-94430000I243750J0D01*
G01*
G37*
%TD*%
%TO.C,C16*%
G36*
G01*
X137719750Y-93063000D02*
X138632250Y-93063000D01*
G75*
G02*
X138876000Y-93306750I0J-243750D01*
G01*
X138876000Y-93794250D01*
G75*
G02*
X138632250Y-94038000I-243750J0D01*
G01*
X137719750Y-94038000D01*
G75*
G02*
X137476000Y-93794250I0J243750D01*
G01*
X137476000Y-93306750D01*
G75*
G02*
X137719750Y-93063000I243750J0D01*
G01*
G37*
G36*
G01*
X137719750Y-94938000D02*
X138632250Y-94938000D01*
G75*
G02*
X138876000Y-95181750I0J-243750D01*
G01*
X138876000Y-95669250D01*
G75*
G02*
X138632250Y-95913000I-243750J0D01*
G01*
X137719750Y-95913000D01*
G75*
G02*
X137476000Y-95669250I0J243750D01*
G01*
X137476000Y-95181750D01*
G75*
G02*
X137719750Y-94938000I243750J0D01*
G01*
G37*
%TD*%
%TO.C,C14*%
G36*
G01*
X223571750Y-73759000D02*
X224484250Y-73759000D01*
G75*
G02*
X224728000Y-74002750I0J-243750D01*
G01*
X224728000Y-74490250D01*
G75*
G02*
X224484250Y-74734000I-243750J0D01*
G01*
X223571750Y-74734000D01*
G75*
G02*
X223328000Y-74490250I0J243750D01*
G01*
X223328000Y-74002750D01*
G75*
G02*
X223571750Y-73759000I243750J0D01*
G01*
G37*
G36*
G01*
X223571750Y-75634000D02*
X224484250Y-75634000D01*
G75*
G02*
X224728000Y-75877750I0J-243750D01*
G01*
X224728000Y-76365250D01*
G75*
G02*
X224484250Y-76609000I-243750J0D01*
G01*
X223571750Y-76609000D01*
G75*
G02*
X223328000Y-76365250I0J243750D01*
G01*
X223328000Y-75877750D01*
G75*
G02*
X223571750Y-75634000I243750J0D01*
G01*
G37*
%TD*%
%TO.C,C13*%
G36*
G01*
X175819750Y-73759000D02*
X176732250Y-73759000D01*
G75*
G02*
X176976000Y-74002750I0J-243750D01*
G01*
X176976000Y-74490250D01*
G75*
G02*
X176732250Y-74734000I-243750J0D01*
G01*
X175819750Y-74734000D01*
G75*
G02*
X175576000Y-74490250I0J243750D01*
G01*
X175576000Y-74002750D01*
G75*
G02*
X175819750Y-73759000I243750J0D01*
G01*
G37*
G36*
G01*
X175819750Y-75634000D02*
X176732250Y-75634000D01*
G75*
G02*
X176976000Y-75877750I0J-243750D01*
G01*
X176976000Y-76365250D01*
G75*
G02*
X176732250Y-76609000I-243750J0D01*
G01*
X175819750Y-76609000D01*
G75*
G02*
X175576000Y-76365250I0J243750D01*
G01*
X175576000Y-75877750D01*
G75*
G02*
X175819750Y-75634000I243750J0D01*
G01*
G37*
%TD*%
%TO.C,C12*%
G36*
G01*
X137719750Y-73759000D02*
X138632250Y-73759000D01*
G75*
G02*
X138876000Y-74002750I0J-243750D01*
G01*
X138876000Y-74490250D01*
G75*
G02*
X138632250Y-74734000I-243750J0D01*
G01*
X137719750Y-74734000D01*
G75*
G02*
X137476000Y-74490250I0J243750D01*
G01*
X137476000Y-74002750D01*
G75*
G02*
X137719750Y-73759000I243750J0D01*
G01*
G37*
G36*
G01*
X137719750Y-75634000D02*
X138632250Y-75634000D01*
G75*
G02*
X138876000Y-75877750I0J-243750D01*
G01*
X138876000Y-76365250D01*
G75*
G02*
X138632250Y-76609000I-243750J0D01*
G01*
X137719750Y-76609000D01*
G75*
G02*
X137476000Y-76365250I0J243750D01*
G01*
X137476000Y-75877750D01*
G75*
G02*
X137719750Y-75634000I243750J0D01*
G01*
G37*
%TD*%
%TO.C,C11*%
G36*
G01*
X223571750Y-54963000D02*
X224484250Y-54963000D01*
G75*
G02*
X224728000Y-55206750I0J-243750D01*
G01*
X224728000Y-55694250D01*
G75*
G02*
X224484250Y-55938000I-243750J0D01*
G01*
X223571750Y-55938000D01*
G75*
G02*
X223328000Y-55694250I0J243750D01*
G01*
X223328000Y-55206750D01*
G75*
G02*
X223571750Y-54963000I243750J0D01*
G01*
G37*
G36*
G01*
X223571750Y-56838000D02*
X224484250Y-56838000D01*
G75*
G02*
X224728000Y-57081750I0J-243750D01*
G01*
X224728000Y-57569250D01*
G75*
G02*
X224484250Y-57813000I-243750J0D01*
G01*
X223571750Y-57813000D01*
G75*
G02*
X223328000Y-57569250I0J243750D01*
G01*
X223328000Y-57081750D01*
G75*
G02*
X223571750Y-56838000I243750J0D01*
G01*
G37*
%TD*%
%TO.C,C10*%
G36*
G01*
X175819750Y-54963000D02*
X176732250Y-54963000D01*
G75*
G02*
X176976000Y-55206750I0J-243750D01*
G01*
X176976000Y-55694250D01*
G75*
G02*
X176732250Y-55938000I-243750J0D01*
G01*
X175819750Y-55938000D01*
G75*
G02*
X175576000Y-55694250I0J243750D01*
G01*
X175576000Y-55206750D01*
G75*
G02*
X175819750Y-54963000I243750J0D01*
G01*
G37*
G36*
G01*
X175819750Y-56838000D02*
X176732250Y-56838000D01*
G75*
G02*
X176976000Y-57081750I0J-243750D01*
G01*
X176976000Y-57569250D01*
G75*
G02*
X176732250Y-57813000I-243750J0D01*
G01*
X175819750Y-57813000D01*
G75*
G02*
X175576000Y-57569250I0J243750D01*
G01*
X175576000Y-57081750D01*
G75*
G02*
X175819750Y-56838000I243750J0D01*
G01*
G37*
%TD*%
%TO.C,C9*%
G36*
G01*
X137719750Y-54455000D02*
X138632250Y-54455000D01*
G75*
G02*
X138876000Y-54698750I0J-243750D01*
G01*
X138876000Y-55186250D01*
G75*
G02*
X138632250Y-55430000I-243750J0D01*
G01*
X137719750Y-55430000D01*
G75*
G02*
X137476000Y-55186250I0J243750D01*
G01*
X137476000Y-54698750D01*
G75*
G02*
X137719750Y-54455000I243750J0D01*
G01*
G37*
G36*
G01*
X137719750Y-56330000D02*
X138632250Y-56330000D01*
G75*
G02*
X138876000Y-56573750I0J-243750D01*
G01*
X138876000Y-57061250D01*
G75*
G02*
X138632250Y-57305000I-243750J0D01*
G01*
X137719750Y-57305000D01*
G75*
G02*
X137476000Y-57061250I0J243750D01*
G01*
X137476000Y-56573750D01*
G75*
G02*
X137719750Y-56330000I243750J0D01*
G01*
G37*
%TD*%
%TO.C,C8*%
G36*
G01*
X213308250Y-78641000D02*
X212395750Y-78641000D01*
G75*
G02*
X212152000Y-78397250I0J243750D01*
G01*
X212152000Y-77909750D01*
G75*
G02*
X212395750Y-77666000I243750J0D01*
G01*
X213308250Y-77666000D01*
G75*
G02*
X213552000Y-77909750I0J-243750D01*
G01*
X213552000Y-78397250D01*
G75*
G02*
X213308250Y-78641000I-243750J0D01*
G01*
G37*
G36*
G01*
X213308250Y-76766000D02*
X212395750Y-76766000D01*
G75*
G02*
X212152000Y-76522250I0J243750D01*
G01*
X212152000Y-76034750D01*
G75*
G02*
X212395750Y-75791000I243750J0D01*
G01*
X213308250Y-75791000D01*
G75*
G02*
X213552000Y-76034750I0J-243750D01*
G01*
X213552000Y-76522250D01*
G75*
G02*
X213308250Y-76766000I-243750J0D01*
G01*
G37*
%TD*%
%TO.C,C7*%
G36*
G01*
X163985000Y-106731750D02*
X163985000Y-107644250D01*
G75*
G02*
X163741250Y-107888000I-243750J0D01*
G01*
X163253750Y-107888000D01*
G75*
G02*
X163010000Y-107644250I0J243750D01*
G01*
X163010000Y-106731750D01*
G75*
G02*
X163253750Y-106488000I243750J0D01*
G01*
X163741250Y-106488000D01*
G75*
G02*
X163985000Y-106731750I0J-243750D01*
G01*
G37*
G36*
G01*
X162110000Y-106731750D02*
X162110000Y-107644250D01*
G75*
G02*
X161866250Y-107888000I-243750J0D01*
G01*
X161378750Y-107888000D01*
G75*
G02*
X161135000Y-107644250I0J243750D01*
G01*
X161135000Y-106731750D01*
G75*
G02*
X161378750Y-106488000I243750J0D01*
G01*
X161866250Y-106488000D01*
G75*
G02*
X162110000Y-106731750I0J-243750D01*
G01*
G37*
%TD*%
%TO.C,C15*%
G36*
G01*
X250169500Y-109525750D02*
X250169500Y-110438250D01*
G75*
G02*
X249925750Y-110682000I-243750J0D01*
G01*
X249438250Y-110682000D01*
G75*
G02*
X249194500Y-110438250I0J243750D01*
G01*
X249194500Y-109525750D01*
G75*
G02*
X249438250Y-109282000I243750J0D01*
G01*
X249925750Y-109282000D01*
G75*
G02*
X250169500Y-109525750I0J-243750D01*
G01*
G37*
G36*
G01*
X248294500Y-109525750D02*
X248294500Y-110438250D01*
G75*
G02*
X248050750Y-110682000I-243750J0D01*
G01*
X247563250Y-110682000D01*
G75*
G02*
X247319500Y-110438250I0J243750D01*
G01*
X247319500Y-109525750D01*
G75*
G02*
X247563250Y-109282000I243750J0D01*
G01*
X248050750Y-109282000D01*
G75*
G02*
X248294500Y-109525750I0J-243750D01*
G01*
G37*
%TD*%
%TO.C,C6*%
G36*
G01*
X241248250Y-106151500D02*
X240335750Y-106151500D01*
G75*
G02*
X240092000Y-105907750I0J243750D01*
G01*
X240092000Y-105420250D01*
G75*
G02*
X240335750Y-105176500I243750J0D01*
G01*
X241248250Y-105176500D01*
G75*
G02*
X241492000Y-105420250I0J-243750D01*
G01*
X241492000Y-105907750D01*
G75*
G02*
X241248250Y-106151500I-243750J0D01*
G01*
G37*
G36*
G01*
X241248250Y-104276500D02*
X240335750Y-104276500D01*
G75*
G02*
X240092000Y-104032750I0J243750D01*
G01*
X240092000Y-103545250D01*
G75*
G02*
X240335750Y-103301500I243750J0D01*
G01*
X241248250Y-103301500D01*
G75*
G02*
X241492000Y-103545250I0J-243750D01*
G01*
X241492000Y-104032750D01*
G75*
G02*
X241248250Y-104276500I-243750J0D01*
G01*
G37*
%TD*%
%TO.C,C5*%
G36*
G01*
X252750500Y-88086250D02*
X252750500Y-87173750D01*
G75*
G02*
X252994250Y-86930000I243750J0D01*
G01*
X253481750Y-86930000D01*
G75*
G02*
X253725500Y-87173750I0J-243750D01*
G01*
X253725500Y-88086250D01*
G75*
G02*
X253481750Y-88330000I-243750J0D01*
G01*
X252994250Y-88330000D01*
G75*
G02*
X252750500Y-88086250I0J243750D01*
G01*
G37*
G36*
G01*
X254625500Y-88086250D02*
X254625500Y-87173750D01*
G75*
G02*
X254869250Y-86930000I243750J0D01*
G01*
X255356750Y-86930000D01*
G75*
G02*
X255600500Y-87173750I0J-243750D01*
G01*
X255600500Y-88086250D01*
G75*
G02*
X255356750Y-88330000I-243750J0D01*
G01*
X254869250Y-88330000D01*
G75*
G02*
X254625500Y-88086250I0J243750D01*
G01*
G37*
%TD*%
%TO.C,C4*%
G36*
G01*
X256052500Y-107898250D02*
X256052500Y-106985750D01*
G75*
G02*
X256296250Y-106742000I243750J0D01*
G01*
X256783750Y-106742000D01*
G75*
G02*
X257027500Y-106985750I0J-243750D01*
G01*
X257027500Y-107898250D01*
G75*
G02*
X256783750Y-108142000I-243750J0D01*
G01*
X256296250Y-108142000D01*
G75*
G02*
X256052500Y-107898250I0J243750D01*
G01*
G37*
G36*
G01*
X257927500Y-107898250D02*
X257927500Y-106985750D01*
G75*
G02*
X258171250Y-106742000I243750J0D01*
G01*
X258658750Y-106742000D01*
G75*
G02*
X258902500Y-106985750I0J-243750D01*
G01*
X258902500Y-107898250D01*
G75*
G02*
X258658750Y-108142000I-243750J0D01*
G01*
X258171250Y-108142000D01*
G75*
G02*
X257927500Y-107898250I0J243750D01*
G01*
G37*
%TD*%
%TO.C,C3*%
G36*
G01*
X241097750Y-92887500D02*
X242010250Y-92887500D01*
G75*
G02*
X242254000Y-93131250I0J-243750D01*
G01*
X242254000Y-93618750D01*
G75*
G02*
X242010250Y-93862500I-243750J0D01*
G01*
X241097750Y-93862500D01*
G75*
G02*
X240854000Y-93618750I0J243750D01*
G01*
X240854000Y-93131250D01*
G75*
G02*
X241097750Y-92887500I243750J0D01*
G01*
G37*
G36*
G01*
X241097750Y-94762500D02*
X242010250Y-94762500D01*
G75*
G02*
X242254000Y-95006250I0J-243750D01*
G01*
X242254000Y-95493750D01*
G75*
G02*
X242010250Y-95737500I-243750J0D01*
G01*
X241097750Y-95737500D01*
G75*
G02*
X240854000Y-95493750I0J243750D01*
G01*
X240854000Y-95006250D01*
G75*
G02*
X241097750Y-94762500I243750J0D01*
G01*
G37*
%TD*%
%TO.C,C2*%
G36*
G01*
X254710250Y-86007000D02*
X253797750Y-86007000D01*
G75*
G02*
X253554000Y-85763250I0J243750D01*
G01*
X253554000Y-85275750D01*
G75*
G02*
X253797750Y-85032000I243750J0D01*
G01*
X254710250Y-85032000D01*
G75*
G02*
X254954000Y-85275750I0J-243750D01*
G01*
X254954000Y-85763250D01*
G75*
G02*
X254710250Y-86007000I-243750J0D01*
G01*
G37*
G36*
G01*
X254710250Y-84132000D02*
X253797750Y-84132000D01*
G75*
G02*
X253554000Y-83888250I0J243750D01*
G01*
X253554000Y-83400750D01*
G75*
G02*
X253797750Y-83157000I243750J0D01*
G01*
X254710250Y-83157000D01*
G75*
G02*
X254954000Y-83400750I0J-243750D01*
G01*
X254954000Y-83888250D01*
G75*
G02*
X254710250Y-84132000I-243750J0D01*
G01*
G37*
%TD*%
%TO.C,C1*%
G36*
G01*
X246685750Y-83157000D02*
X247598250Y-83157000D01*
G75*
G02*
X247842000Y-83400750I0J-243750D01*
G01*
X247842000Y-83888250D01*
G75*
G02*
X247598250Y-84132000I-243750J0D01*
G01*
X246685750Y-84132000D01*
G75*
G02*
X246442000Y-83888250I0J243750D01*
G01*
X246442000Y-83400750D01*
G75*
G02*
X246685750Y-83157000I243750J0D01*
G01*
G37*
G36*
G01*
X246685750Y-85032000D02*
X247598250Y-85032000D01*
G75*
G02*
X247842000Y-85275750I0J-243750D01*
G01*
X247842000Y-85763250D01*
G75*
G02*
X247598250Y-86007000I-243750J0D01*
G01*
X246685750Y-86007000D01*
G75*
G02*
X246442000Y-85763250I0J243750D01*
G01*
X246442000Y-85275750D01*
G75*
G02*
X246685750Y-85032000I243750J0D01*
G01*
G37*
%TD*%
M02*
